<svg width="113" height="114" viewBox="0 0 113 114" fill="none" xmlns="http://www.w3.org/2000/svg">
<path d="M96.4552 16.5477C85.7844 5.87689 71.5939 0 56.5029 0C41.409 0 27.2215 5.87689 16.5477 16.5477C5.87689 27.2215 0 41.409 0 56.5029C0 71.5939 5.87689 85.7844 16.5477 96.4552C27.2215 107.126 41.409 113.003 56.5 113.003C71.591 113.003 85.7815 107.126 96.4523 96.4552C107.123 85.7844 113 71.5939 113 56.5029C113.003 41.409 107.126 27.2215 96.4552 16.5477ZM95.9343 95.9343C85.4048 106.47 71.3968 112.27 56.5029 112.27C41.6062 112.27 27.6011 106.47 17.0686 95.9343C6.53315 85.4018 0.732773 71.3968 0.732773 56.5029C0.732773 41.6062 6.53315 27.6011 17.0686 17.0686C27.6011 6.53315 41.6062 0.732772 56.5029 0.732772C71.3997 0.732772 85.4048 6.53315 95.9373 17.0686C106.473 27.6011 112.27 41.6062 112.27 56.5029C112.27 71.3968 106.47 85.4048 95.9343 95.9343ZM93.583 19.4199C83.6773 9.51427 70.508 4.06115 56.5 4.06115C54.0545 4.06115 51.5854 4.23183 49.1664 4.57026C45.2583 5.11469 41.4178 6.10644 37.7481 7.51607C27.9425 11.2712 19.5641 17.819 13.5166 26.4534C7.33067 35.2849 4.06115 45.6762 4.06115 56.5C4.06115 70.508 9.51427 83.6773 19.4199 93.583C29.3256 103.489 42.4949 108.942 56.5029 108.942C70.511 108.942 83.6803 103.489 93.5859 93.583C103.492 83.6773 108.945 70.508 108.945 56.5C108.945 42.492 103.489 29.3256 93.583 19.4199ZM93.1004 93.1004C83.3242 102.877 70.3256 108.262 56.5 108.262C42.6744 108.262 29.6758 102.877 19.8996 93.1004C11.7656 84.9663 6.67735 74.6015 5.19709 63.3833L18.0074 63.348C18.2045 63.348 18.3635 63.1862 18.3635 62.9919C18.3635 62.7948 18.2104 62.6388 18.0074 62.6359L12.0687 62.6535C12.0922 62.6005 12.104 62.5417 12.104 62.4799V56.2528C13.3429 57.427 14.4112 57.5624 14.4612 57.5653C14.4789 57.5683 14.4965 57.5683 14.5083 57.5683C14.729 57.5683 14.9233 57.4035 14.9468 57.1769C14.9733 56.9355 14.7997 56.7178 14.5583 56.6913C14.5466 56.6883 13.3576 56.5147 12.101 54.952V53.5983C13.34 54.7696 14.4083 54.905 14.4612 54.9109C14.4759 54.9138 14.4936 54.9138 14.5083 54.9138C14.729 54.9138 14.9144 54.749 14.9409 54.5224C14.9703 54.284 14.7997 54.0662 14.5583 54.0339C14.5466 54.0309 13.3547 53.8573 12.0981 52.2976V50.9409C13.337 52.1151 14.4053 52.2505 14.4583 52.2534C14.473 52.2564 14.4907 52.2564 14.5054 52.2564C14.7261 52.2564 14.9144 52.0916 14.938 51.8679C14.9674 51.6266 14.7967 51.4088 14.5583 51.3794C14.5466 51.3765 13.3547 51.2028 12.0952 49.6402V48.2865C13.3341 49.4577 14.4024 49.5931 14.4553 49.599C14.473 49.6019 14.4877 49.6019 14.5024 49.6019C14.7231 49.6019 14.9115 49.4371 14.938 49.2105C14.9645 48.9722 14.7938 48.7544 14.5554 48.722C14.5436 48.7191 13.3518 48.5454 12.0922 46.9857V45.6291C13.3312 46.8033 14.3994 46.9386 14.4524 46.9416C14.47 46.9445 14.4848 46.9445 14.5024 46.9445C14.7231 46.9445 14.9144 46.7797 14.938 46.5531C14.9645 46.3118 14.7908 46.0911 14.5495 46.0676C14.5377 46.0646 13.3518 45.891 12.0922 44.3283V42.9746C13.3312 44.1459 14.3994 44.2812 14.4524 44.2871C14.47 44.2871 14.4848 44.2871 14.5024 44.2871C14.7231 44.2871 14.9144 44.1223 14.938 43.8957C14.9645 43.6544 14.7908 43.4366 14.5495 43.4101C14.5377 43.4072 13.3518 43.2336 12.0922 41.6739V40.3172C13.3312 41.4914 14.3994 41.6268 14.4524 41.6297C14.47 41.6327 14.4848 41.6327 14.5024 41.6327C14.7231 41.6327 14.9144 41.4649 14.938 41.2413C14.9645 40.9999 14.7908 40.7792 14.5495 40.7557C14.5377 40.7527 13.2929 40.5732 12.001 38.9046C11.9215 38.8016 11.8038 38.7457 11.6832 38.7369C11.6714 38.7369 11.6567 38.7369 11.6449 38.7339C11.6361 38.7339 11.6243 38.7339 11.6125 38.7339C11.4919 38.7428 11.3742 38.7987 11.2918 38.9017C10.0057 40.5615 8.76678 40.7498 8.7403 40.7527C8.49898 40.7792 8.32535 40.997 8.35184 41.2383C8.37538 41.4649 8.56961 41.6297 8.79033 41.6297C8.80504 41.6297 8.8227 41.6297 8.84036 41.6268C8.89333 41.6209 9.96747 41.4855 11.2094 40.3025V41.6562C9.9557 43.2189 8.76678 43.4043 8.7403 43.4072C8.49898 43.4366 8.32535 43.6515 8.35184 43.8957C8.37538 44.1194 8.56961 44.2871 8.79033 44.2871C8.80504 44.2871 8.8227 44.2871 8.84036 44.2842C8.89333 44.2753 9.96747 44.14 11.2094 42.9599V44.3136C9.9557 45.8763 8.76678 46.0587 8.7403 46.0646C8.49898 46.0911 8.32535 46.3089 8.35184 46.5502C8.37538 46.7768 8.56961 46.9416 8.79033 46.9416C8.80504 46.9416 8.8227 46.9416 8.84036 46.9386C8.89333 46.9328 9.96747 46.7974 11.2094 45.6143V46.9681C9.9557 48.5337 8.76678 48.7161 8.7403 48.7191C8.49898 48.7485 8.32535 48.9633 8.35184 49.2076C8.37538 49.4312 8.56961 49.599 8.79033 49.599C8.80504 49.599 8.8227 49.599 8.84036 49.596C8.89333 49.5872 9.96747 49.4548 11.2094 48.2718V49.6255C9.9557 51.1881 8.76678 51.3706 8.7403 51.3765C8.49898 51.4059 8.32535 51.6207 8.35184 51.862C8.37538 52.0886 8.56961 52.2534 8.79033 52.2534C8.80504 52.2534 8.8227 52.2534 8.84036 52.2505C8.89333 52.2446 9.96747 52.1092 11.2094 50.9262V52.2799C9.9557 53.8455 8.76678 54.028 8.7403 54.0309C8.49898 54.0604 8.32535 54.2752 8.35184 54.5194C8.37538 54.7431 8.56961 54.9109 8.79033 54.9109C8.80504 54.9109 8.8227 54.9109 8.84036 54.9079C8.89333 54.902 9.96747 54.7666 11.2094 53.5836V54.9373C9.9557 56.4971 8.76678 56.6824 8.7403 56.6883C8.49898 56.7178 8.32535 56.9326 8.35184 57.171C8.37538 57.3976 8.56961 57.5653 8.79033 57.5653C8.80504 57.5653 8.8227 57.5653 8.83741 57.5624C8.89038 57.5535 9.96747 57.4182 11.2094 56.2381V62.474C11.2094 62.5358 11.2211 62.5947 11.2447 62.6506L5.09704 62.6682C5.09704 62.6682 5.09409 62.6682 5.09115 62.6682C4.85278 60.6318 4.72918 58.5747 4.72918 56.4971C4.72918 45.8115 7.9575 35.5586 14.061 26.8389C20.0321 18.3164 28.3015 11.8538 37.9776 8.14584C41.6003 6.75387 45.3907 5.77684 49.2458 5.23829C51.6354 4.90575 54.0692 4.73506 56.4853 4.73506C70.3138 4.73506 83.3095 10.1176 93.0857 19.8967C102.865 29.6729 108.247 42.6685 108.247 56.4971C108.247 58.5629 108.124 60.6112 107.885 62.6329C107.882 62.6329 107.879 62.6329 107.874 62.6329H100.534C100.543 62.6035 100.546 62.5711 100.546 62.5387V56.3116C101.785 57.4829 102.853 57.6183 102.906 57.6242C102.924 57.6242 102.938 57.6242 102.953 57.6242C103.174 57.6242 103.362 57.4623 103.389 57.2357C103.418 56.9973 103.244 56.7796 103.006 56.7472C102.994 56.7443 101.802 56.5706 100.546 55.0109V53.6542C101.785 54.8284 102.853 54.9638 102.903 54.9668C102.921 54.9697 102.938 54.9697 102.95 54.9697C103.171 54.9697 103.359 54.8049 103.386 54.5812C103.415 54.3399 103.244 54.1222 103.003 54.0927C102.991 54.0898 101.799 53.9162 100.543 52.3535V50.9998C101.782 52.171 102.85 52.3064 102.903 52.3123C102.918 52.3123 102.935 52.3123 102.95 52.3123C103.171 52.3123 103.356 52.1504 103.383 51.9238C103.412 51.6855 103.241 51.4648 103 51.4353C102.988 51.4324 101.797 51.2588 100.54 49.699V48.3424C101.779 49.5136 102.847 49.649 102.9 49.6549C102.915 49.6578 102.932 49.6578 102.947 49.6578C103.168 49.6578 103.356 49.493 103.38 49.2694C103.409 49.0281 103.239 48.8103 103 48.7779C102.988 48.7779 101.797 48.6043 100.537 47.0416V45.6879C101.776 46.8592 102.844 46.9946 102.897 47.0004C102.915 47.0004 102.93 47.0004 102.944 47.0004C103.165 47.0004 103.353 46.8386 103.38 46.612C103.406 46.3736 103.236 46.1529 102.997 46.1235C102.985 46.1205 101.794 45.9469 100.534 44.3872V43.0305C101.773 44.2018 102.841 44.3371 102.894 44.343C102.912 44.346 102.927 44.346 102.941 44.346C103.162 44.346 103.35 44.1812 103.377 43.9575C103.403 43.7162 103.233 43.4984 102.994 43.4661C102.982 43.4661 101.791 43.2924 100.534 41.7298V40.3731C101.773 41.5473 102.841 41.6827 102.891 41.6856C102.909 41.6886 102.927 41.6886 102.938 41.6886C103.159 41.6886 103.347 41.5267 103.374 41.3001C103.403 41.0617 103.233 40.841 102.991 40.8116C102.98 40.8087 101.732 40.6321 100.44 38.9605C100.36 38.8546 100.243 38.8016 100.122 38.7899C100.107 38.7899 100.096 38.7899 100.084 38.7899C100.075 38.7899 100.066 38.7899 100.054 38.7899C99.9337 38.7957 99.816 38.8517 99.7336 38.9576C98.4505 40.6144 97.2086 40.8028 97.1821 40.8057C96.9408 40.8351 96.7672 41.05 96.7937 41.2942C96.8172 41.5179 97.0114 41.6856 97.2321 41.6856C97.2469 41.6856 97.2645 41.6856 97.2792 41.6827C97.3322 41.6739 98.4093 41.5385 99.6512 40.3584V41.7121C98.3946 43.2748 97.2057 43.4572 97.1792 43.4631C96.9379 43.4896 96.7672 43.7074 96.7907 43.9487C96.8172 44.1753 97.0085 44.3401 97.2292 44.3401C97.2439 44.3401 97.2616 44.3401 97.2763 44.3371C97.3322 44.3313 98.4063 44.1959 99.6482 43.0129V44.3666C98.3916 45.9322 97.2027 46.1146 97.1762 46.1176C96.9379 46.147 96.7642 46.3618 96.7907 46.6061C96.8143 46.8298 97.0055 46.9975 97.2263 46.9975C97.2439 46.9975 97.2586 46.9975 97.2733 46.9946C97.3293 46.9887 98.4034 46.8533 99.6453 45.6703V47.024C98.3916 48.5837 97.2027 48.7691 97.1733 48.775C96.9349 48.8044 96.7613 49.0192 96.7878 49.2606C96.8113 49.4872 97.0026 49.652 97.2233 49.652C97.241 49.652 97.2586 49.652 97.2704 49.649C97.3263 49.6431 98.4005 49.5078 99.6423 48.3247V49.6784C98.3887 51.244 97.1968 51.4265 97.1703 51.4294C96.932 51.4589 96.7583 51.6737 96.7848 51.918C96.8084 52.1416 96.9997 52.3094 97.2204 52.3094C97.238 52.3094 97.2557 52.3094 97.2704 52.3064C97.3234 52.3005 98.3975 52.1652 99.6394 50.9821V52.3358C98.3857 53.8956 97.1968 54.081 97.1703 54.0868C96.929 54.1163 96.7554 54.3311 96.7819 54.5724C96.8054 54.799 96.9997 54.9638 97.2204 54.9638C97.2351 54.9638 97.2527 54.9638 97.2675 54.9638C97.3204 54.955 98.3975 54.8196 99.6365 53.6366V54.9903C98.3857 56.553 97.1968 56.7384 97.1674 56.7413C96.9261 56.7707 96.7554 56.9885 96.7789 57.2269C96.8025 57.4535 96.9967 57.6183 97.2174 57.6183C97.2321 57.6183 97.2498 57.6183 97.2645 57.6153C97.3175 57.6095 98.3946 57.4741 99.6365 56.291V62.5299C99.6365 62.5623 99.6394 62.5947 99.6482 62.6241H91.9703C91.7731 62.6241 91.6142 62.783 91.6142 62.9802C91.6142 63.1773 91.7731 63.3363 91.9703 63.3363H107.768C106.337 74.5809 101.246 84.9604 93.1004 93.1004ZM85.7108 62.9949C85.7108 62.7977 85.8698 62.6388 86.0669 62.6388H88.2388C88.4359 62.6388 88.5948 62.7977 88.5948 62.9949C88.5948 63.1921 88.4359 63.351 88.2388 63.351H86.0669C85.8698 63.351 85.7108 63.1921 85.7108 62.9949ZM68.8276 62.6388H71.5763C71.7735 62.6388 71.9324 62.7977 71.9324 62.9949C71.9324 63.1921 71.7735 63.351 71.5763 63.351H68.8276C68.6305 63.351 68.4716 63.1921 68.4716 62.9949C68.4716 62.7977 68.6305 62.6388 68.8276 62.6388ZM71.8117 73.3567C71.9324 73.3567 72.0471 73.2949 72.1119 73.1919C72.1766 73.0889 72.1854 72.9624 72.1354 72.8505L59.6253 45.9381L60.5082 43.9487C60.5876 43.7692 60.5082 43.5602 60.3257 43.4778C60.1462 43.3984 59.9373 43.4778 59.8578 43.6603L59.2604 44.9993L58.7689 43.6809C58.7013 43.4955 58.4982 43.4043 58.3128 43.4719C58.1274 43.5396 58.0332 43.7456 58.1039 43.931L58.7189 45.5879H33.2043L33.8959 44.034C33.9753 43.8545 33.8959 43.6456 33.7134 43.5632C33.5339 43.4837 33.325 43.5632 33.2455 43.7456L32.6481 45.0846L32.1566 43.7662C32.089 43.5808 31.883 43.4896 31.7005 43.5573C31.5151 43.625 31.4209 43.831 31.4916 44.0164L32.2302 46.0057L24.7877 62.6447H22.5247C22.3275 62.6447 22.1686 62.8036 22.1686 63.0008C22.1686 63.195 22.3275 63.3569 22.5247 63.3569H24.467L20.2145 72.8564C20.1645 72.9653 20.1763 73.0948 20.241 73.1948C20.3087 73.2978 20.4205 73.3567 20.5412 73.3567H35.023C35.2202 73.3567 35.3791 73.1978 35.3791 73.0006C35.3791 72.8034 35.2202 72.6445 35.023 72.6445H21.0915L25.291 63.2597C25.3616 63.195 25.4087 63.1008 25.4087 62.9978L32.8776 46.3H58.6807L46.8945 72.6445H38.6869C38.4897 72.6445 38.3308 72.8034 38.3308 73.0006C38.3308 73.1978 38.4897 73.3567 38.6869 73.3567H71.8117ZM58.8778 47.6067V55.9938C58.8778 56.191 59.0367 56.3499 59.2339 56.3499C59.4281 56.3499 59.59 56.191 59.59 55.9938V47.5508L71.2555 72.6445H59.59V63.8218C59.59 63.6247 59.4281 63.4657 59.2339 63.4657C59.0367 63.4657 58.8778 63.6247 58.8778 63.8218V72.6445H47.6744L58.8778 47.6067ZM52.639 49.858H34.7817C34.5845 49.858 34.4256 49.699 34.4256 49.5019C34.4256 49.3047 34.5845 49.1458 34.7817 49.1458H52.639C52.8361 49.1458 52.995 49.3047 52.995 49.5019C52.995 49.699 52.8361 49.858 52.639 49.858ZM58.8778 61.0614V58.1539C58.8778 57.9567 59.0367 57.7978 59.2339 57.7978C59.4281 57.7978 59.59 57.9567 59.59 58.1539V61.0614C59.59 61.2586 59.4281 61.4175 59.2339 61.4175C59.0367 61.4175 58.8778 61.2586 58.8778 61.0614ZM20.2057 66.2438C19.9644 66.2438 19.7643 66.0466 19.7643 65.8024V59.5635C18.5224 60.7465 17.4453 60.8819 17.3923 60.8907C17.3776 60.8907 17.3599 60.8907 17.3452 60.8907C17.1245 60.8907 16.9332 60.7259 16.9097 60.4993C16.8832 60.261 17.0568 60.0432 17.2952 60.0167C17.3246 60.0108 18.5165 59.8254 19.7672 58.2628V56.912C18.5224 58.0921 17.4482 58.2275 17.3953 58.2363C17.3805 58.2392 17.3629 58.2392 17.3452 58.2392C17.1245 58.2392 16.9332 58.0715 16.9097 57.8478C16.8832 57.6065 17.0568 57.3887 17.2952 57.3593C17.3217 57.3564 18.5135 57.171 19.7672 55.6083V54.2546C18.5224 55.4376 17.4482 55.573 17.3953 55.5789C17.3805 55.5818 17.3629 55.5818 17.3452 55.5818C17.1245 55.5818 16.9332 55.417 16.9097 55.1904C16.8832 54.952 17.0568 54.7313 17.2952 54.7048C17.3217 54.699 18.5135 54.5165 19.7672 52.9509V51.6001C18.5224 52.7802 17.4482 52.9156 17.3953 52.9244C17.3805 52.9274 17.3629 52.9274 17.3452 52.9274C17.1245 52.9274 16.9332 52.7596 16.9097 52.533C16.8832 52.2946 17.0568 52.0769 17.2952 52.0474C17.3217 52.0416 18.5135 51.8591 19.7672 50.2964V48.9427C18.5224 50.1258 17.4482 50.2611 17.3953 50.267C17.3805 50.27 17.3629 50.27 17.3452 50.27C17.1245 50.27 16.9332 50.1052 16.9097 49.8786C16.8832 49.6372 17.0568 49.4195 17.2952 49.393C17.3217 49.3871 18.5135 49.2046 19.7672 47.639V46.2883C18.5224 47.4684 17.4482 47.6037 17.3953 47.6126C17.3805 47.6126 17.3629 47.6126 17.3452 47.6126C17.1245 47.6126 16.9332 47.4478 16.9097 47.2212C16.8832 46.9828 17.0568 46.765 17.2952 46.7356C17.3246 46.7297 18.5165 46.5472 19.7672 44.9846V43.6309C18.5224 44.8139 17.4482 44.9493 17.3953 44.9552C17.3805 44.9581 17.3629 44.9581 17.3452 44.9581C17.1245 44.9581 16.9332 44.7903 16.9097 44.5667C16.8832 44.3254 17.0568 44.1076 17.2952 44.0782C17.3217 44.0752 18.5665 43.8898 19.8467 42.2301C19.9291 42.1271 20.0468 42.0682 20.1674 42.0623C20.1792 42.0623 20.191 42.0623 20.1998 42.0623C20.2116 42.0623 20.2233 42.0623 20.2351 42.0623C20.3558 42.0682 20.4735 42.1271 20.5559 42.2301C21.8478 43.8987 23.0926 44.0782 23.1044 44.0782C23.3457 44.1047 23.5194 44.3254 23.4929 44.5667C23.4693 44.7903 23.278 44.9581 23.0573 44.9581C23.0397 44.9581 23.0249 44.9581 23.0073 44.9552C22.9514 44.9493 21.8831 44.8168 20.6471 43.6426V44.9993C21.9067 46.559 23.0926 46.7326 23.1044 46.7356C23.3457 46.7621 23.5194 46.9798 23.4929 47.2212C23.4693 47.4478 23.278 47.6126 23.0573 47.6126C23.0397 47.6126 23.0249 47.6126 23.0073 47.6126C22.9514 47.6037 21.8831 47.4713 20.6471 46.3V47.6538C21.9067 49.2164 23.0926 49.39 23.1044 49.393C23.3457 49.4165 23.5194 49.6372 23.4929 49.8786C23.4693 50.1052 23.278 50.27 23.0573 50.27C23.0397 50.27 23.0249 50.27 23.0073 50.267C22.9514 50.2611 21.8831 50.1287 20.6471 48.9545V50.3112C21.9067 51.8709 23.0985 52.0445 23.1103 52.0474C23.3487 52.0798 23.5193 52.2976 23.4899 52.536C23.4664 52.7596 23.278 52.9274 23.0573 52.9274C23.0397 52.9274 23.0249 52.9274 23.0102 52.9244C22.9543 52.9156 21.8861 52.7832 20.6501 51.6119V52.9656C21.9067 54.5283 23.0985 54.7019 23.1103 54.7048C23.3516 54.7343 23.5223 54.952 23.4929 55.1934C23.4664 55.417 23.281 55.5818 23.0603 55.5818C23.0426 55.5818 23.0249 55.5818 23.0132 55.5789C22.9573 55.573 21.889 55.4406 20.653 54.2664V55.623C21.9096 57.1827 23.1015 57.3564 23.1132 57.3593C23.3545 57.3917 23.5252 57.6095 23.4958 57.8478C23.4693 58.0715 23.281 58.2392 23.0603 58.2392C23.0455 58.2392 23.0279 58.2392 23.0132 58.2363C22.9602 58.2275 21.8919 58.095 20.6559 56.9238V58.2775C21.9125 59.8401 23.1044 60.0138 23.1162 60.0167C23.3545 60.0461 23.5282 60.2639 23.4987 60.5052C23.4723 60.7289 23.2839 60.8937 23.0632 60.8937C23.0485 60.8937 23.0308 60.8937 23.0161 60.8907C22.9631 60.8849 21.8949 60.7524 20.6559 59.5782V65.8083C20.6471 66.0466 20.4499 66.2438 20.2057 66.2438ZM86.7673 43.9045C86.7968 43.8987 88.0357 43.7103 89.3188 42.0564C89.3982 41.9505 89.516 41.8946 89.6366 41.8857C89.6484 41.8857 89.6602 41.8857 89.669 41.8857C89.6808 41.8857 89.6925 41.8857 89.7072 41.8857C89.8279 41.8946 89.9456 41.9505 90.0251 42.0564C91.317 43.725 92.5648 43.9045 92.5765 43.9075C92.8149 43.9369 92.9885 44.1547 92.9591 44.396C92.9326 44.6197 92.7413 44.7845 92.5236 44.7845C92.5089 44.7845 92.4912 44.7845 92.4765 44.7815C92.4235 44.7756 91.3552 44.6432 90.1163 43.469V44.8257C91.3758 46.3854 92.5677 46.559 92.5795 46.562C92.8179 46.5943 92.9885 46.8121 92.9621 47.0505C92.9356 47.2741 92.7443 47.4419 92.5265 47.4419C92.5089 47.4419 92.4941 47.4419 92.4794 47.4389C92.4235 47.4301 91.3552 47.2977 90.1192 46.1264V47.4801C91.3788 49.0428 92.5707 49.2164 92.5824 49.2194C92.8208 49.2488 92.9915 49.4666 92.9621 49.7079C92.9385 49.9315 92.7472 50.0963 92.5294 50.0963C92.5118 50.0963 92.4971 50.0963 92.4824 50.0934C92.4265 50.0875 91.3582 49.9551 90.1222 48.7809V50.1375C91.3788 51.7002 92.5707 51.8709 92.5824 51.8738C92.8237 51.9062 92.9944 52.124 92.965 52.3623C92.9385 52.586 92.7502 52.7537 92.5324 52.7537C92.5147 52.7537 92.4971 52.7537 92.4853 52.7508C92.4294 52.742 91.3611 52.6095 90.1251 51.4383V52.792C91.3817 54.3546 92.5736 54.5283 92.5854 54.5312C92.8267 54.5606 92.9974 54.7784 92.9679 55.0197C92.9415 55.2434 92.7531 55.4082 92.5324 55.4082C92.5177 55.4082 92.5 55.4082 92.4853 55.4053C92.4323 55.3994 91.3641 55.2669 90.1281 54.0927V55.4494C91.3847 57.0121 92.5765 57.1827 92.5883 57.1857C92.8267 57.2181 93.0003 57.4358 92.9709 57.6742C92.9444 57.8979 92.7531 58.0656 92.5353 58.0656C92.5206 58.0656 92.503 58.0656 92.4883 58.0627C92.4353 58.0538 91.367 57.9214 90.1281 56.7501V58.1039C91.3876 59.6665 92.5795 59.8401 92.5913 59.8431C92.8296 59.8725 93.0003 60.0932 92.9738 60.3316C92.9473 60.5553 92.7561 60.7201 92.5383 60.7201C92.5206 60.7201 92.5059 60.7201 92.4912 60.7171C92.4353 60.7112 91.367 60.5788 90.131 59.4046V65.6346C90.131 65.8759 89.9338 66.0761 89.6896 66.0761C89.4453 66.0761 89.2482 65.8789 89.2482 65.6346V59.3958C88.0063 60.5788 86.9292 60.7142 86.8762 60.7201C86.8615 60.723 86.8438 60.723 86.8291 60.723C86.6084 60.723 86.4171 60.5582 86.3936 60.3316C86.3671 60.0932 86.5407 59.8725 86.7791 59.846C86.8115 59.8431 88.0004 59.6577 89.2511 58.095V56.7413C88.0063 57.9243 86.9321 58.0597 86.8792 58.0685C86.8644 58.0685 86.8468 58.0685 86.8321 58.0685C86.6114 58.0685 86.4201 57.9037 86.3965 57.6771C86.37 57.4388 86.5437 57.221 86.782 57.1945C86.8144 57.1886 88.0033 57.0032 89.254 55.4406V54.0898C88.0092 55.2699 86.9351 55.4053 86.8821 55.4141C86.8644 55.417 86.8497 55.417 86.835 55.417C86.6143 55.417 86.423 55.2493 86.3995 55.0256C86.373 54.7843 86.5466 54.5665 86.785 54.5371C86.8115 54.5342 88.0033 54.3488 89.257 52.7861V51.4324C88.0122 52.6154 86.938 52.7508 86.885 52.7567C86.8674 52.7596 86.8527 52.7596 86.838 52.7596C86.6172 52.7596 86.423 52.5948 86.3995 52.3682C86.373 52.1298 86.5466 51.9091 86.7879 51.8826C86.8144 51.8768 88.0063 51.6914 89.257 50.1287V48.7779C88.0151 49.958 86.938 50.0934 86.888 50.1022C86.8703 50.1052 86.8527 50.1052 86.8409 50.1052C86.6202 50.1052 86.426 49.9374 86.4024 49.7108C86.3759 49.4724 86.5496 49.2547 86.7909 49.2252C86.8144 49.2223 88.0063 49.0369 89.2599 47.4742V46.1205C88.018 47.3036 86.941 47.4389 86.888 47.4448C86.8733 47.4478 86.8556 47.4478 86.8409 47.4478C86.6202 47.4478 86.4289 47.283 86.4054 47.0564C86.3789 46.815 86.5525 46.5973 86.7909 46.5708C86.8174 46.5649 88.0092 46.3824 89.2629 44.8168V43.4661C88.018 44.6461 86.9439 44.7815 86.8909 44.7903C86.8762 44.7903 86.8586 44.7903 86.8438 44.7903C86.6231 44.7903 86.4318 44.6255 86.4083 44.3989C86.3524 44.1488 86.526 43.931 86.7673 43.9045ZM75.0753 33.5604C77.1206 33.5604 79.0453 32.8953 80.6462 31.6387C80.6491 31.6387 80.6491 31.6358 80.6521 31.6358C80.6815 31.6122 80.705 31.5828 80.7256 31.5504C80.7286 31.5445 80.7286 31.5386 80.7315 31.5357C80.7492 31.5033 80.7609 31.468 80.7668 31.4327C80.7668 31.4298 80.7668 31.4239 80.7668 31.418C80.7698 31.3886 80.7698 31.3562 80.7668 31.3268C80.7668 31.3209 80.7639 31.3179 80.7609 31.312C80.758 31.3062 80.758 31.3032 80.7551 31.2973C80.7433 31.2591 80.7286 31.2267 80.705 31.1973C80.705 31.1973 80.705 31.1973 80.705 31.1943C80.7021 31.1914 80.7021 31.1914 80.6992 31.1884C80.6756 31.159 80.6432 31.1355 80.6109 31.1149C80.6079 31.1119 80.605 31.1119 80.602 31.109C80.5697 31.0943 80.5343 31.0825 80.4961 31.0766C80.4902 31.0766 80.4873 31.0766 80.4843 31.0766C80.452 31.0737 80.4225 31.0737 80.3872 31.0796C79.9075 31.1737 79.4102 31.2238 78.9069 31.2238C74.7428 31.2238 71.3556 27.8365 71.3556 23.6724C71.3556 20.1763 73.7246 17.1569 77.1206 16.3329C77.1265 16.3299 77.1353 16.327 77.1412 16.3241C77.1501 16.3241 77.1589 16.3211 77.1677 16.3152C77.1795 16.3123 77.1913 16.3064 77.2001 16.3005C77.2089 16.2946 77.2148 16.2917 77.2207 16.2887C77.2325 16.2799 77.2413 16.274 77.2501 16.2652C77.256 16.2593 77.2619 16.2534 77.2678 16.2475C77.2766 16.2387 77.2825 16.2269 77.2913 16.2181C77.2943 16.2122 77.3031 16.2034 77.306 16.1975C77.3149 16.1887 77.3178 16.1769 77.3237 16.1651C77.3296 16.1593 77.3325 16.1504 77.3355 16.1416C77.3413 16.1298 77.3443 16.1181 77.3472 16.1063C77.3502 16.1033 77.3531 16.0945 77.3531 16.0916C77.3531 16.0886 77.3531 16.0827 77.3561 16.0798C77.3561 16.068 77.3561 16.0563 77.359 16.0445C77.359 16.0357 77.3619 16.0268 77.3619 16.018C77.3619 16.0062 77.359 15.9974 77.359 15.9856C77.359 15.9739 77.3561 15.9621 77.3561 15.9533C77.3561 15.9503 77.3561 15.9444 77.3531 15.9444C77.3502 15.9356 77.3472 15.9327 77.3443 15.9238C77.3443 15.915 77.3384 15.9032 77.3325 15.8944C77.3296 15.8826 77.3237 15.8738 77.3178 15.865C77.3149 15.8561 77.309 15.8473 77.306 15.8414C77.2972 15.8326 77.2913 15.8208 77.2825 15.8149C77.2795 15.8091 77.2707 15.8002 77.2648 15.7973C77.2589 15.7885 77.2472 15.7826 77.2383 15.7737C77.2325 15.7708 77.2236 15.762 77.2177 15.759C77.2089 15.7502 77.1971 15.7473 77.1883 15.7414C77.1824 15.7355 77.1707 15.7325 77.1648 15.7296C77.153 15.7237 77.1412 15.7208 77.1295 15.7178C77.1236 15.7149 77.1177 15.7119 77.1118 15.7119C77.1059 15.7119 77.0971 15.7119 77.0941 15.709C76.4379 15.5589 75.761 15.4795 75.0753 15.4795C70.0901 15.4795 66.0349 19.5377 66.0349 24.5199C66.0349 29.5051 70.0901 33.5604 75.0753 33.5604ZM75.0753 16.1151C75.2755 16.1151 75.4756 16.1239 75.6757 16.1387C72.6975 17.407 70.717 20.3381 70.717 23.6665C70.717 28.1838 74.3897 31.8594 78.9069 31.8594C79.0011 31.8594 79.0923 31.8535 79.1836 31.8506C77.9387 32.5539 76.5409 32.9218 75.0783 32.9218C70.4462 32.9218 66.6735 29.152 66.6735 24.517C66.6735 19.882 70.4403 16.1151 75.0753 16.1151ZM91.4318 34.299C93.1887 34.7287 93.4653 35.0053 93.8949 36.7622C93.9332 36.9211 94.0774 37.033 94.2393 37.033C94.4041 37.033 94.5453 36.9211 94.5865 36.7622C95.0162 35.0053 95.2928 34.7287 97.0497 34.299C97.2086 34.2608 97.3175 34.1166 97.3175 33.9518C97.3175 33.787 97.2086 33.6457 97.0497 33.6045C95.2928 33.1749 95.0162 32.8982 94.5865 31.1414C94.5483 30.9824 94.4041 30.8706 94.2393 30.8706C94.0774 30.8706 93.9332 30.9824 93.8949 31.1414C93.4653 32.8982 93.1857 33.1719 91.4318 33.6045C91.2729 33.6428 91.161 33.787 91.161 33.9518C91.161 34.1166 91.2729 34.2608 91.4318 34.299ZM94.2422 32.4539C94.5541 33.2308 94.9661 33.6428 95.7431 33.9547C94.9661 34.2637 94.5541 34.6787 94.2422 35.4526C93.9332 34.6787 93.5183 34.2637 92.7413 33.9547C93.5183 33.6398 93.9303 33.2308 94.2422 32.4539ZM76.1642 48.0658C76.3231 48.0275 76.4349 47.8833 76.4349 47.7185C76.4349 47.5537 76.3231 47.4124 76.1642 47.3712C74.4073 46.9416 74.1307 46.665 73.701 44.9081C73.6628 44.7491 73.5186 44.6373 73.3567 44.6373C73.1919 44.6373 73.0477 44.7491 73.0095 44.9081C72.5798 46.665 72.3002 46.9386 70.5463 47.3712C70.3874 47.4095 70.2755 47.5537 70.2755 47.7185C70.2755 47.8833 70.3874 48.0246 70.5463 48.0658C72.3032 48.4954 72.5798 48.772 73.0095 50.5289C73.0477 50.6878 73.1919 50.7997 73.3567 50.7997C73.5186 50.7997 73.6628 50.6878 73.701 50.5289C74.1307 48.772 74.4073 48.4954 76.1642 48.0658ZM73.3567 49.2194C73.0448 48.4454 72.6328 48.0304 71.8559 47.7214C72.6328 47.4095 73.0448 46.9975 73.3567 46.2206C73.6657 46.9975 74.0807 47.4095 74.8546 47.7214C74.0777 48.0304 73.6657 48.4424 73.3567 49.2194ZM50.8438 17.9191C52.6007 18.3487 52.8773 18.6283 53.307 20.3852C53.3453 20.5441 53.4895 20.6559 53.6543 20.6559C53.819 20.6559 53.9603 20.5441 54.0015 20.3852C54.4312 18.6283 54.7078 18.3517 56.4647 17.9191C56.6236 17.8838 56.7354 17.7366 56.7354 17.5748C56.7354 17.41 56.6236 17.2687 56.4647 17.2275C54.7078 16.7979 54.4341 16.5212 54.0015 14.7643C53.9633 14.6054 53.819 14.4936 53.6543 14.4936C53.4895 14.4936 53.3482 14.6054 53.307 14.7643C52.8773 16.5212 52.6007 16.7949 50.8438 17.2275C50.6849 17.2658 50.5731 17.41 50.5731 17.5748C50.5731 17.7366 50.6849 17.8838 50.8438 17.9191ZM53.6543 16.0769C53.9662 16.8538 54.3782 17.2658 55.1551 17.5777C54.3782 17.8867 53.9662 18.3017 53.6543 19.0756C53.3423 18.3017 52.9303 17.8867 52.1534 17.5777C52.9303 17.2628 53.3423 16.8538 53.6543 16.0769ZM29.2462 33.5869C31.0001 34.0165 31.2767 34.2932 31.7093 36.0501C31.7476 36.209 31.8918 36.3208 32.0566 36.3208C32.2184 36.3208 32.3626 36.209 32.4009 36.0501C32.8306 34.2932 33.1101 34.0195 34.8641 33.5869C35.023 33.5486 35.1348 33.4044 35.1348 33.2396C35.1348 33.0748 35.023 32.9336 34.8641 32.8924C33.1101 32.4627 32.8335 32.1861 32.4009 30.4292C32.3626 30.2703 32.2184 30.1584 32.0566 30.1584C31.8918 30.1584 31.7476 30.2703 31.7093 30.4292C31.2797 32.1861 31.0001 32.4598 29.2462 32.8924C29.0872 32.9306 28.9754 33.0748 28.9754 33.2396C28.9754 33.4044 29.0872 33.5486 29.2462 33.5869ZM32.0566 31.7417C32.3656 32.5186 32.7776 32.9306 33.5545 33.2426C32.7776 33.5516 32.3656 33.9665 32.0566 34.7434C31.7446 33.9665 31.3326 33.5516 30.5557 33.2426C31.3326 32.9277 31.7417 32.5186 32.0566 31.7417ZM22.9161 24.9349C23.7666 24.9349 24.4611 24.2403 24.4611 23.3928C24.4611 22.5423 23.7666 21.8478 22.9161 21.8478C22.0685 21.8478 21.374 22.5423 21.374 23.3928C21.374 24.2403 22.0656 24.9349 22.9161 24.9349ZM22.9161 22.56C23.3751 22.56 23.7489 22.9337 23.7489 23.3928C23.7489 23.8489 23.3751 24.2227 22.9161 24.2227C22.4599 24.2227 22.0862 23.8489 22.0862 23.3928C22.0862 22.9337 22.4599 22.56 22.9161 22.56ZM51.4 39.6492C52.2505 39.6492 52.9421 38.9576 52.9421 38.1071C52.9421 37.2566 52.2505 36.5651 51.4 36.5651C50.5495 36.5651 49.858 37.2566 49.858 38.1071C49.858 38.9576 50.5466 39.6492 51.4 39.6492ZM51.4 37.2772C51.8591 37.2772 52.2299 37.651 52.2299 38.1071C52.2299 38.5662 51.8591 38.9399 51.4 38.9399C50.9409 38.9399 50.5701 38.5662 50.5701 38.1071C50.5701 37.651 50.9409 37.2772 51.4 37.2772ZM65.1667 11.4036C66.0172 11.4036 66.7088 10.712 66.7088 9.86153C66.7088 9.01104 66.0172 8.31947 65.1667 8.31947C64.3162 8.31947 63.6247 9.01104 63.6247 9.86153C63.6247 10.712 64.3133 11.4036 65.1667 11.4036ZM65.1667 9.03164C65.6258 9.03164 65.9966 9.40538 65.9966 9.86153C65.9966 10.3206 65.6258 10.6944 65.1667 10.6944C64.7076 10.6944 64.3368 10.3206 64.3368 9.86153C64.3368 9.40538 64.7076 9.03164 65.1667 9.03164ZM86.7673 26.1208C87.6149 26.1208 88.3094 25.4293 88.3094 24.5788C88.3094 23.7283 87.6149 23.0367 86.7673 23.0367C85.9168 23.0367 85.2223 23.7283 85.2223 24.5788C85.2223 25.4293 85.9139 26.1208 86.7673 26.1208ZM86.7673 23.7489C87.2235 23.7489 87.5972 24.1197 87.5972 24.5788C87.5972 25.0379 87.2235 25.4087 86.7673 25.4087C86.3082 25.4087 85.9345 25.0379 85.9345 24.5788C85.9345 24.1197 86.3082 23.7489 86.7673 23.7489ZM42.4979 28.1396C42.4979 27.9425 42.6568 27.7836 42.854 27.7836C43.0511 27.7836 43.21 27.9425 43.21 28.1396C43.21 28.3368 43.0511 28.4957 42.854 28.4957C42.6568 28.4957 42.4979 28.3339 42.4979 28.1396ZM26.833 46.4148C26.833 46.2176 26.9919 46.0587 27.1891 46.0587C27.3863 46.0587 27.5452 46.2176 27.5452 46.4148C27.5452 46.612 27.3863 46.7709 27.1891 46.7709C26.9919 46.7709 26.833 46.609 26.833 46.4148ZM18.0515 33.3603C18.0515 33.1631 18.2104 33.0042 18.4076 33.0042C18.6048 33.0042 18.7637 33.1631 18.7637 33.3603C18.7637 33.5574 18.6048 33.7164 18.4076 33.7164C18.2104 33.7164 18.0515 33.5545 18.0515 33.3603ZM41.5503 16.0327C41.5503 15.8355 41.7092 15.6766 41.9063 15.6766C42.1035 15.6766 42.2624 15.8355 42.2624 16.0327C42.2624 16.2299 42.1035 16.3888 41.9063 16.3888C41.7092 16.3888 41.5503 16.2269 41.5503 16.0327ZM57.6889 8.67556C57.6889 8.47838 57.8478 8.31947 58.045 8.31947C58.2422 8.31947 58.4011 8.47838 58.4011 8.67556C58.4011 8.87273 58.2422 9.03164 58.045 9.03164C57.8478 9.03164 57.6889 8.86978 57.6889 8.67556ZM64.4546 37.0389C64.6517 37.0389 64.8106 37.1978 64.8106 37.3949C64.8106 37.5921 64.6517 37.751 64.4546 37.751C64.2574 37.751 64.0985 37.5921 64.0985 37.3949C64.0985 37.1978 64.2574 37.0389 64.4546 37.0389ZM69.4398 54.8402C69.2426 54.8402 69.0837 54.6813 69.0837 54.4841C69.0837 54.287 69.2426 54.128 69.4398 54.128C69.6369 54.128 69.7958 54.287 69.7958 54.4841C69.7958 54.6813 69.634 54.8402 69.4398 54.8402ZM86.0552 37.9894C85.858 37.9894 85.6991 37.8305 85.6991 37.6333C85.6991 37.4361 85.858 37.2772 86.0552 37.2772C86.2523 37.2772 86.4112 37.4361 86.4112 37.6333C86.4112 37.8305 86.2494 37.9894 86.0552 37.9894ZM78.1035 20.3057C78.1035 20.1086 78.2625 19.9497 78.4596 19.9497C78.6568 19.9497 78.8157 20.1086 78.8157 20.3057C78.8157 20.5029 78.6568 20.6618 78.4596 20.6618C78.2625 20.6618 78.1035 20.5 78.1035 20.3057ZM27.5452 19.3552C27.5452 19.158 27.7041 18.9991 27.9013 18.9991C28.0984 18.9991 28.2574 19.158 28.2574 19.3552C28.2574 19.5524 28.0984 19.7113 27.9013 19.7113C27.7041 19.7113 27.5452 19.5524 27.5452 19.3552ZM89.048 84.7573L87.8503 85.0663C89.3129 81.8939 87.5384 78.9275 87.456 78.7922C87.3824 78.6715 87.2441 78.6068 87.1058 78.6274C86.9645 78.645 86.8497 78.7451 86.8115 78.8805C86.6231 79.5308 86.3818 80.0841 86.1493 80.5255C86.2553 77.3825 84.2747 75.0371 82.6326 74.3308C81.2318 73.7304 81.4525 71.0083 81.4525 70.9789C81.4672 70.8494 81.4054 70.7199 81.2936 70.6493C81.1847 70.5786 81.0435 70.5698 80.9287 70.6346C79.675 71.3232 76.8528 73.4774 77.6651 78.6127C77.7651 79.2395 77.6974 79.8428 77.4649 80.3578C77.2648 80.8021 77.0059 81.0964 76.6939 81.2259C76.5762 81.2759 76.5321 81.2465 76.5056 81.2318C76.1671 81.0111 75.9817 79.8663 75.967 79.16C75.9611 79.0129 75.8699 78.8834 75.7345 78.8334C75.5962 78.7833 75.4403 78.8216 75.3431 78.9305C73.9188 80.5343 73.7952 82.3766 73.8452 83.3448L73.1478 83.0152C73.0624 82.974 72.9594 82.971 72.8682 83.0063C70.8465 83.7921 70.7523 86.1405 70.9877 87.2706C71.0112 87.3824 71.0848 87.4766 71.1849 87.5236L73.7422 88.692L72.4356 89.0304C72.3414 89.0539 72.262 89.1187 72.2149 89.2011C71.1584 91.0992 72.5857 92.965 73.4891 93.686C73.5509 93.739 73.6304 93.7654 73.7128 93.7654C73.7422 93.7654 73.7717 93.7596 73.804 93.7537L80.7168 91.8761L86.8438 94.6718C86.8909 94.6925 86.941 94.7042 86.991 94.7042C87.0852 94.7042 87.1734 94.6689 87.2411 94.6042C89.0392 92.8326 88.8685 90.7284 88.8597 90.6372C88.8479 90.5106 88.7714 90.4018 88.6566 90.3488L87.815 89.9486L90.4165 89.2423C90.5577 89.204 90.6637 89.0804 90.6784 88.9333C90.9285 86.4201 89.4512 84.9133 89.3894 84.8486C89.3011 84.7632 89.1716 84.7279 89.048 84.7573ZM75.3402 80.1282C75.4403 80.7668 75.6551 81.532 76.1171 81.8292C76.2937 81.944 76.585 82.044 76.9705 81.8822C77.4532 81.6791 77.8357 81.2642 78.1124 80.6521C78.3978 80.0105 78.4861 79.2689 78.3655 78.5038C78.133 77.0294 77.9329 73.5392 80.7286 71.5969C80.7521 72.5945 80.9905 74.4014 82.3501 74.987C83.8068 75.608 86.1405 78.286 85.2341 81.9322C85.1929 82.0882 85.2665 82.253 85.4077 82.3295C85.5519 82.4089 85.7285 82.3766 85.8374 82.2589C85.8756 82.2177 86.629 81.3995 87.2088 79.9252C87.6414 81.0317 88.1711 83.1859 86.9174 85.3077L84.207 86.0051C84.622 84.413 83.798 83.4684 83.2271 82.818C83.1005 82.6738 82.9799 82.5384 82.8886 82.4119C82.4266 81.7851 81.8086 79.7986 81.6144 79.0865C81.5673 78.9246 81.4172 78.8157 81.2524 78.8245C81.0847 78.8334 80.9493 78.954 80.9199 79.1218C80.914 79.1483 80.4843 81.6232 79.3925 82.715C78.5244 83.5802 78.3713 84.7662 78.3684 85.4842L74.5927 83.6979C74.528 83.1976 74.422 81.6261 75.3402 80.1282ZM81.1347 86.7938L79.0953 85.8286C79.06 85.3548 79.0541 84.0599 79.8957 83.2182C80.5961 82.5178 81.0493 81.3937 81.3113 80.5196C81.585 81.3436 81.9646 82.353 82.3148 82.8327C82.4266 82.9857 82.5561 83.1329 82.6944 83.2889C83.2918 83.9687 83.9598 84.7397 83.3919 86.2141L81.1347 86.7938ZM71.6528 86.9557C71.5733 86.3612 71.438 84.4425 72.9889 83.7303L78.6097 86.3877H78.6127L80.0576 87.0704L74.8399 88.4094L71.6528 86.9557ZM88.1564 90.8991C88.1475 91.3935 88.0122 92.7296 86.9145 93.9214L81.7939 91.5877L86.7585 90.2399L88.1564 90.8991ZM89.9898 88.6243L73.7981 93.018C73.3567 92.6118 72.0265 91.2199 72.7652 89.6808L74.8752 89.1393C74.8782 89.1393 74.8841 89.1363 74.887 89.1363L87.2382 85.961L89.0127 85.5048C89.3217 85.8874 90.0722 87.0028 89.9898 88.6243ZM76.4967 86.4642C76.4349 86.5908 76.3113 86.6643 76.1789 86.6643C76.1259 86.6643 76.07 86.6525 76.02 86.629L73.0771 85.187C72.9006 85.1017 72.827 84.8898 72.9153 84.7103C73.0006 84.5337 73.2125 84.4601 73.392 84.5455L76.3349 85.9875C76.5115 86.0758 76.585 86.2876 76.4967 86.4642ZM79.4837 88.9274C79.5338 89.1157 79.419 89.31 79.2307 89.36L74.2837 90.6666C74.2513 90.6725 74.2219 90.6784 74.1925 90.6784C74.0365 90.6784 73.8923 90.5724 73.8482 90.4106C73.7981 90.2222 73.9129 90.028 74.1042 89.978L79.0482 88.6714C79.2365 88.6213 79.4337 88.7361 79.4837 88.9274ZM82.4031 88.1534C82.4531 88.3447 82.3383 88.5389 82.15 88.589L81.1906 88.842C81.1582 88.8509 81.1288 88.8538 81.0994 88.8538C80.9434 88.8538 80.7992 88.7508 80.7551 88.589C80.705 88.3977 80.8198 88.2034 81.0111 88.1534L81.9705 87.9003C82.1559 87.8503 82.353 87.9651 82.4031 88.1534ZM87.1116 86.9115C87.1587 87.0999 87.0469 87.2941 86.8556 87.3441L84.0599 88.0828C84.0305 88.0916 83.9981 88.0946 83.9687 88.0946C83.8127 88.0946 83.6685 87.9916 83.6244 87.8297C83.5773 87.6384 83.6891 87.4442 83.8804 87.3941L86.6761 86.6555C86.8644 86.6084 87.0587 86.7202 87.1116 86.9115ZM96.2404 82.5796C96.3875 82.7091 96.3993 82.9357 96.2698 83.0829C95.7489 83.6685 94.4305 85.4224 94.5483 86.473C94.5689 86.6673 94.4305 86.8438 94.2363 86.8644C94.2216 86.8674 94.2098 86.8674 94.1951 86.8674C94.0185 86.8674 93.8626 86.732 93.842 86.5525C93.6654 84.9987 95.5223 82.8504 95.7372 82.6091C95.8696 82.4619 96.0903 82.4501 96.2404 82.5796ZM78.0417 99.8631C78.1506 100.028 78.1035 100.249 77.9417 100.355C77.9064 100.378 77.1118 100.92 77.0206 101.95C77.0029 102.135 76.8499 102.276 76.6674 102.276C76.6557 102.276 76.6439 102.276 76.6351 102.273C76.4379 102.256 76.2937 102.082 76.3113 101.885C76.4349 100.505 77.5061 99.7895 77.5532 99.7601C77.7151 99.6512 77.9358 99.6983 78.0417 99.8631ZM75.4815 101.405C75.5256 101.596 75.4049 101.785 75.2107 101.829C75.1842 101.835 75.1607 101.838 75.1342 101.838C74.9694 101.838 74.8223 101.723 74.7869 101.561C74.2837 99.2921 75.8258 97.1792 75.8935 97.0879C76.0082 96.932 76.2319 96.8996 76.3908 97.0144C76.5497 97.1321 76.5821 97.3557 76.4644 97.5146C76.4497 97.5294 75.0489 99.4569 75.4815 101.405ZM53.769 97.1792C53.9162 97.3057 53.9338 97.5323 53.8014 97.6824C53.0009 98.5947 52.3564 99.6747 52.4477 99.9455C52.5095 100.134 52.4094 100.337 52.2211 100.399C52.1828 100.41 52.1446 100.416 52.1092 100.416C51.9592 100.416 51.8209 100.322 51.7738 100.172C51.7002 99.9572 51.6001 99.1185 53.2658 97.2145C53.3953 97.0615 53.6219 97.0497 53.769 97.1792ZM45.1288 98.9125C44.7962 99.5776 43.9752 101.538 44.1547 102.609C44.19 102.803 44.0546 102.988 43.8633 103.021C43.8457 103.024 43.8222 103.024 43.8045 103.024C43.6338 103.024 43.4808 102.9 43.4543 102.729C43.1983 101.208 44.4402 98.7006 44.4931 98.5947C44.5814 98.4181 44.7933 98.3475 44.9699 98.4358C45.1464 98.5211 45.2171 98.733 45.1288 98.9125ZM42.2183 98.5947C42.2389 98.6388 42.7215 99.6512 42.6038 100.746C42.5832 100.928 42.4302 101.064 42.2507 101.064C42.2389 101.064 42.2242 101.064 42.2124 101.061C42.0182 101.04 41.874 100.864 41.8946 100.669C41.9946 99.7718 41.5826 98.9125 41.5767 98.9037C41.4914 98.7271 41.565 98.5152 41.7445 98.4299C41.9211 98.3445 42.1329 98.4211 42.2183 98.5947ZM38.6074 96.9702C38.7075 97.0821 41.0735 99.71 41.0735 101.955C41.0735 102.153 40.9146 102.312 40.7174 102.312C40.5203 102.312 40.3613 102.153 40.3613 101.955C40.3613 99.9837 38.1042 97.4734 38.0806 97.4499C37.9482 97.3057 37.96 97.0791 38.1042 96.9467C38.2513 96.8142 38.475 96.8231 38.6074 96.9702ZM59.0515 87.041C59.0927 87.1028 60.052 88.5566 60.2963 90.5195C60.3198 90.7137 60.1815 90.8903 59.9873 90.9138C59.9726 90.9168 59.9579 90.9168 59.9431 90.9168C59.7636 90.9168 59.6135 90.7873 59.59 90.6078C59.3663 88.8185 58.4688 87.4501 58.4599 87.4353C58.3481 87.2706 58.3952 87.0498 58.5571 86.9409C58.7219 86.835 58.9426 86.8762 59.0515 87.041ZM61.5235 89.1952C61.5294 89.2393 61.7236 90.3046 61.7236 91.2758C61.7236 91.473 61.5647 91.6319 61.3675 91.6319C61.1703 91.6319 61.0114 91.473 61.0114 91.2758C61.0114 90.3723 60.826 89.3306 60.8231 89.3217C60.7877 89.1275 60.9143 88.9421 61.1115 88.9068C61.3027 88.8715 61.4881 89.001 61.5235 89.1952ZM41.7268 83.7627C41.665 82.3295 42.957 79.8222 43.0129 79.7162C43.1041 79.5397 43.3189 79.4749 43.4925 79.5632C43.6662 79.6544 43.7368 79.8722 43.6456 80.0429C43.2954 80.7197 42.3949 82.6973 42.439 83.7303C42.4478 83.9275 42.2948 84.0923 42.1006 84.1011C42.0947 84.1011 42.0917 84.1011 42.0829 84.1011C41.8946 84.104 41.7357 83.9569 41.7268 83.7627ZM45.0699 83.0887C45.0582 83.1035 44.4637 83.7538 44.6403 84.5219C44.6844 84.7161 44.5638 84.9045 44.3725 84.9516C44.346 84.9575 44.3166 84.9604 44.2901 84.9604C44.1282 84.9604 43.9811 84.8486 43.9458 84.6808C43.6809 83.5331 44.5167 82.6385 44.552 82.6002C44.6874 82.459 44.914 82.4531 45.0552 82.5885C45.1965 82.7209 45.2024 82.9475 45.0699 83.0887ZM37.0418 74.8458C37.2625 73.2949 36.1236 70.3079 36.1119 70.2755C36.0412 70.0931 36.1325 69.8871 36.3149 69.8164C36.4974 69.7488 36.7063 69.837 36.7769 70.0195C36.827 70.149 37.9923 73.2125 37.7451 74.9458C37.7187 75.1224 37.5656 75.2519 37.392 75.2519C37.3773 75.2519 37.3596 75.2519 37.3449 75.249C37.1477 75.2195 37.0124 75.04 37.0418 74.8458ZM35.5115 74.4102C35.5939 74.4926 36.3267 75.249 36.3267 76.0847C36.3267 76.2819 36.1678 76.4408 35.9706 76.4408C35.7734 76.4408 35.6145 76.2819 35.6145 76.0847C35.6145 75.6256 35.176 75.0842 35.0083 74.9135C34.87 74.7722 34.87 74.5456 35.0083 74.4102C35.1466 74.269 35.3703 74.269 35.5115 74.4102ZM63.8101 76.1112C64.1161 76.6203 64.8283 77.8122 65.0402 78.8628C65.0784 79.0541 64.9548 79.2424 64.7606 79.2807C64.7371 79.2836 64.7135 79.2866 64.69 79.2866C64.5222 79.2866 64.3751 79.1718 64.3398 79.0011C64.1544 78.0712 63.4834 76.9529 63.195 76.4732C63.1332 76.3672 63.0861 76.2878 63.0626 76.2437C62.9743 76.07 63.039 75.8552 63.2156 75.764C63.3892 75.6757 63.6041 75.7404 63.6953 75.917C63.713 75.9552 63.7542 76.02 63.8101 76.1112ZM66.7088 78.6951C66.7088 78.8922 66.5499 79.0511 66.3527 79.0511C66.1555 79.0511 65.9966 78.8922 65.9966 78.6951C65.9966 78.1536 65.6023 77.7739 65.5964 77.7681C65.4551 77.6327 65.4463 77.409 65.5817 77.2648C65.717 77.1206 65.9378 77.1118 66.082 77.2442C66.1055 77.2707 66.7088 77.8357 66.7088 78.6951ZM73.5921 65.1667C73.5921 63.3569 73.0301 61.9119 73.0242 61.8943C72.9506 61.7118 73.0389 61.5058 73.2213 61.4322C73.4038 61.3616 73.6127 61.4499 73.6863 61.6323C73.7128 61.6971 74.3014 63.2215 74.3014 65.1638C74.3014 65.3609 74.1425 65.5199 73.9453 65.5199C73.7481 65.5199 73.5921 65.3609 73.5921 65.1667ZM72.5827 64.4928C72.6033 64.5252 73.1154 65.308 73.1154 66.3498C73.1154 66.5469 72.9565 66.7058 72.7593 66.7058C72.5621 66.7058 72.4032 66.5469 72.4032 66.3498C72.4032 65.5287 71.9942 64.8901 71.9883 64.8871C71.8823 64.7224 71.9265 64.5016 72.0883 64.3927C72.2531 64.2868 72.4709 64.3309 72.5827 64.4928ZM93.7684 69.9136C93.7684 67.6299 95.6548 66.1349 95.7372 66.0731C95.8902 65.9525 96.1139 65.9819 96.2345 66.1349C96.3552 66.2879 96.3257 66.5116 96.1727 66.6323C96.1551 66.647 94.4806 67.9801 94.4806 69.9136C94.4806 70.1107 94.3217 70.2696 94.1245 70.2696C93.9273 70.2696 93.7684 70.1078 93.7684 69.9136ZM96.2669 69.3073C96.1286 69.5751 95.902 70.1048 95.902 70.3874C95.902 70.5816 95.7431 70.7434 95.5459 70.7434C95.3487 70.7434 95.1898 70.5816 95.1898 70.3874C95.1898 69.84 95.59 69.0601 95.6371 68.9748C95.7313 68.8041 95.9432 68.7364 96.1197 68.8276C96.2934 68.9189 96.3611 69.1337 96.2669 69.3073ZM105.54 65.4581C105.116 65.7523 104.048 66.6882 104.201 67.468C104.239 67.6623 104.116 67.8477 103.921 67.8859C103.898 67.8918 103.874 67.8948 103.851 67.8948C103.686 67.8948 103.536 67.777 103.503 67.6064C103.221 66.2056 105.054 64.9254 105.134 64.8695C105.296 64.7577 105.516 64.7989 105.625 64.9607C105.743 65.1255 105.702 65.3462 105.54 65.4581ZM22.0538 80.9287C22.1333 81.1111 22.0479 81.3201 21.8684 81.3966C21.8213 81.4172 21.7742 81.426 21.7271 81.426C21.5888 81.426 21.4564 81.3436 21.4005 81.2083C20.909 80.0635 20.6589 79.3778 20.6589 79.1718C20.6589 78.9746 20.8178 78.8157 21.015 78.8157C21.2092 78.8157 21.3622 78.9658 21.3711 79.1541C21.4034 79.3337 21.7477 80.2106 22.0538 80.9287ZM21.374 89.772V91.3788C21.374 91.576 21.2151 91.7349 21.0179 91.7349C20.8207 91.7349 20.6618 91.576 20.6618 91.3788V89.772C20.6618 89.5748 20.8207 89.4159 21.0179 89.4159C21.2151 89.4159 21.374 89.5748 21.374 89.772ZM12.5307 67.1031C12.7338 67.4092 14.5083 70.1402 13.9933 71.6881C13.9433 71.8352 13.8079 71.9324 13.6578 71.9324C13.6196 71.9324 13.5813 71.9265 13.546 71.9118C13.3576 71.85 13.2576 71.6498 13.3194 71.4615C13.6637 70.4286 12.4395 68.2508 11.9362 67.5004C11.8274 67.3356 11.8715 67.1149 12.0363 67.006C12.2011 66.8971 12.4218 66.9383 12.5307 67.1031ZM12.104 72.1884C12.157 72.3767 12.0481 72.5739 11.8597 72.6269C11.8244 72.6357 11.792 72.6416 11.7597 72.6416C11.6066 72.6416 11.4654 72.5386 11.4183 72.3826L10.9445 70.7199C10.8886 70.5316 11.0004 70.3344 11.1888 70.2814C11.3771 70.2255 11.5772 70.3373 11.6272 70.5257L12.104 72.1884ZM80.3489 59.7842L78.0918 60.3728C77.5768 60.5082 77.1236 60.8231 76.8146 61.2645L76.0612 62.3533C75.5962 63.0243 75.5874 63.8983 76.0435 64.5781L76.3673 65.0578C76.794 65.6935 77.4914 66.0496 78.2183 66.0496C78.4949 66.0496 78.7775 65.9966 79.0482 65.8936L79.5308 65.6935C79.7869 65.5875 80.0664 65.5522 80.3401 65.5993L81.5349 65.7877C82.3766 65.926 83.2271 65.6788 83.8627 65.1108L84.3866 64.6399C84.4631 64.5723 84.5072 64.4752 84.5072 64.3751V62.939C84.5072 62.4416 84.2718 61.959 83.8745 61.6529L81.8528 60.0932C81.429 59.7636 80.8669 59.6489 80.3489 59.7842ZM81.4202 60.6553L83.4419 62.218C83.6656 62.3887 83.798 62.6594 83.798 62.939V64.2132L83.3889 64.5811C82.9151 65.0049 82.2795 65.1903 81.6497 65.0843L80.452 64.896C80.0488 64.8312 79.6368 64.8783 79.2601 65.0372L78.7833 65.2344C78.1124 65.4934 77.3619 65.2609 76.9617 64.6605L76.638 64.1809C76.3467 63.7483 76.3496 63.1891 76.6468 62.7595L77.4031 61.6706C77.6121 61.3675 77.9211 61.1527 78.2742 61.0614L80.5314 60.4729C80.6167 60.4523 80.7021 60.4405 80.7874 60.4405C81.014 60.4405 81.2377 60.517 81.4202 60.6553ZM101.885 74.3279C101.446 73.7128 100.681 73.4156 99.9425 73.5774L99.0979 73.7599L97.7707 73.2213C97.6088 73.1566 97.4381 73.1183 97.2616 73.1066L95.7725 73.0065C95.6989 73.0006 95.6195 73.0212 95.5547 73.0624L94.3069 73.8835C93.9597 74.113 93.7478 74.4956 93.739 74.9076C93.7301 75.3196 93.9214 75.711 94.2569 75.9582L94.819 76.3672L96.3934 77.721C96.6789 77.9652 97.0261 78.1124 97.4028 78.1418L99.1627 78.2919C99.2451 78.3007 99.3304 78.3007 99.4128 78.3007C100.643 78.3007 101.767 77.5326 102.203 76.3643L102.282 76.1554C102.476 75.6345 102.4 75.0489 102.076 74.5956L101.885 74.3279ZM101.614 75.9052L101.538 76.1142C101.184 77.0618 100.234 77.6651 99.2215 77.5768L97.4587 77.4296C97.2321 77.409 97.0232 77.3207 96.8525 77.1736L95.2693 75.8111C95.2634 75.8052 95.2575 75.7993 95.2487 75.7963L94.6748 75.3784C94.5277 75.2696 94.4453 75.1048 94.4482 74.9223C94.4541 74.7398 94.5453 74.578 94.6954 74.4779L95.8461 73.7246L97.2145 73.8158C97.3145 73.8217 97.4117 73.8452 97.5029 73.8835L98.9302 74.4603C98.9979 74.4838 99.0685 74.4926 99.1391 74.4779L100.093 74.2749C100.555 74.1748 101.031 74.3602 101.305 74.7428L101.496 75.0106C101.682 75.2696 101.726 75.6021 101.614 75.9052ZM64.1573 100.093C63.8836 99.8513 63.5511 99.6924 63.1921 99.6335L61.0673 99.2833C60.8319 99.2421 60.5935 99.248 60.361 99.2951L58.4835 99.6894C57.6006 99.8748 56.8914 100.528 56.6324 101.387V101.39C56.6324 101.393 56.6324 101.393 56.6324 101.393C56.4853 101.888 56.5589 102.42 56.8414 102.85C57.1239 103.283 57.5771 103.565 58.0921 103.63L61.9825 104.115C62.1297 104.133 62.2768 104.142 62.424 104.142C62.836 104.142 63.248 104.071 63.6364 103.933L64.8018 103.518C65.0726 103.421 65.305 103.233 65.4551 102.985C65.8583 102.326 65.7259 101.479 65.1491 100.973L64.1573 100.093ZM64.8489 102.612C64.7812 102.718 64.6812 102.803 64.5605 102.844L63.3981 103.259C62.9743 103.412 62.5152 103.462 62.0679 103.406L58.1774 102.924C57.8714 102.885 57.6036 102.718 57.4358 102.459C57.271 102.203 57.2239 101.891 57.3093 101.596L56.9679 101.493L57.3093 101.593C57.4917 100.978 57.995 100.516 58.6247 100.387L60.5023 99.9925C60.6494 99.9602 60.7995 99.9572 60.9496 99.9808L63.0744 100.334C63.301 100.372 63.5128 100.472 63.6865 100.622L64.6812 101.502C64.999 101.785 65.0696 102.25 64.8489 102.612ZM45.4731 88.3535L44.8021 87.9356C44.5078 87.7532 44.1665 87.6561 43.8222 87.6561H41.3207C40.841 87.6561 40.3849 87.8385 40.0347 88.1681L38.9311 89.2158C38.6574 89.4777 38.5279 89.8544 38.5868 90.2281C38.6457 90.5989 38.884 90.9197 39.2254 91.0816C42.8628 92.8149 43.1806 92.8267 43.316 92.8326C43.3278 92.8326 43.3395 92.8326 43.3542 92.8326C43.5102 92.8326 43.8898 92.7796 45.3672 92.0998C46.0087 91.8055 46.4236 91.1581 46.4236 90.4488V90.0516C46.4207 89.357 46.0676 88.7214 45.4731 88.3535ZM45.7085 90.4547C45.7085 90.8844 45.4554 91.2787 45.067 91.4582C43.6632 92.1027 43.3689 92.1263 43.3542 92.1292C43.2836 92.1174 42.7745 91.9909 39.5315 90.443C39.402 90.3812 39.3137 90.2634 39.2901 90.1192C39.2666 89.975 39.3137 89.8367 39.4196 89.7367L40.5232 88.689C40.741 88.483 41.0235 88.3712 41.3207 88.3712H43.8222C44.034 88.3712 44.243 88.43 44.4254 88.5448L45.0994 88.9627C45.479 89.1981 45.7085 89.6101 45.7085 90.0574V90.4547ZM38.7987 86.1346C39.0076 85.7874 39.0341 85.3636 38.8693 84.9928L38.4338 84.0069C38.4249 83.9922 38.4191 83.9804 38.4102 83.9687L37.7245 82.8445C37.0536 81.7497 35.8441 81.117 34.561 81.1994L30.694 81.4407C30.441 81.4555 30.1967 81.5231 29.9701 81.6379L27.8718 82.7003C27.5687 82.8533 27.3186 83.0858 27.1479 83.3801L26.4887 84.5131C26.2592 84.9074 26.2562 85.3812 26.4858 85.7756C26.7124 86.1729 27.1214 86.4112 27.5776 86.4112H29.9819L32.0625 87.1028C32.0978 87.1146 32.136 87.1234 32.1743 87.1234C32.1802 87.1234 32.189 87.1234 32.1978 87.1234L37.8217 86.7349C38.2278 86.7055 38.5927 86.4819 38.7987 86.1346ZM38.1895 85.7697C38.0983 85.9198 37.9482 86.011 37.7716 86.0228L32.2155 86.4053L30.1467 85.7138C30.1114 85.702 30.0731 85.6961 30.0348 85.6961H27.5776C27.3774 85.6961 27.1979 85.5931 27.0979 85.4195C27.0008 85.2459 27.0008 85.0428 27.1008 84.8692L27.76 83.7362C27.863 83.5655 28.0102 83.4242 28.1897 83.333L30.2879 82.2706C30.4262 82.2 30.5793 82.1588 30.7352 82.15L34.6022 81.9087C34.6581 81.9087 34.7169 81.9057 34.7758 81.9057C35.7263 81.9057 36.6092 82.3972 37.1124 83.2153L37.7893 84.3189L38.216 85.2812C38.2896 85.4401 38.2778 85.6196 38.1895 85.7697Z" fill="#C79557"/>
</svg>
