<svg width="63" height="63" viewBox="0 0 63 63" fill="none" xmlns="http://www.w3.org/2000/svg">
<path fill-rule="evenodd" clip-rule="evenodd" d="M31.5 0C14.0963 0 0 14.4528 0 32.2968C0 46.5881 9.01687 58.659 21.5381 62.9383C23.1131 63.2209 23.7037 62.252 23.7037 61.4042C23.7037 60.6372 23.6644 58.0938 23.6644 55.3889C15.75 56.8827 13.7025 53.4108 13.0725 51.5941C12.7181 50.6655 11.1825 47.7992 9.84375 47.0322C8.74125 46.4266 7.16625 44.9329 9.80437 44.8925C12.285 44.8521 14.0569 47.234 14.6475 48.2029C17.4825 53.0878 22.0106 51.7152 23.8219 50.8674C24.0975 48.7681 24.9244 47.3551 25.83 46.5477C18.8212 45.7403 11.4975 42.9547 11.4975 30.6012C11.4975 27.0889 12.7181 24.1822 14.7262 21.9214C14.4112 21.114 13.3087 17.8036 15.0412 13.3628C15.0412 13.3628 17.6794 12.515 23.7037 16.6732C26.2237 15.9465 28.9012 15.5832 31.5787 15.5832C34.2562 15.5832 36.9337 15.9465 39.4537 16.6732C45.4781 12.4746 48.1162 13.3628 48.1162 13.3628C49.8487 17.8036 48.7462 21.114 48.4312 21.9214C50.4394 24.1822 51.66 27.0485 51.66 30.6012C51.66 42.9951 44.2969 45.7403 37.2881 46.5477C38.43 47.557 39.4144 49.4948 39.4144 52.5226C39.4144 56.8423 39.375 60.3142 39.375 61.4042C39.375 62.252 39.9656 63.2613 41.5406 62.9383C47.7938 60.7737 53.2276 56.653 57.0771 51.1564C60.9266 45.6597 62.9981 39.0637 63 32.2968C63 14.4528 48.9037 0 31.5 0Z" fill="white"/>
</svg>
