<svg width="265" height="178" viewBox="0 0 265 178" fill="none" xmlns="http://www.w3.org/2000/svg">
<path d="M157.78 88.5462C157.78 89.2023 157.253 89.7397 156.592 89.7397C155.935 89.7397 155.409 89.208 155.409 88.5462C155.409 56.8349 135.543 28.0482 105.976 16.9103C105.359 16.684 105.054 15.9995 105.28 15.383C105.506 14.7607 106.191 14.4553 106.807 14.6815C121.622 20.2647 134.299 30.1016 143.457 43.1402C152.83 56.4786 157.78 72.1758 157.78 88.5462Z" fill="#FEA423"/>
<path d="M80.4025 166.218C80.4025 166.874 79.8708 167.411 79.2146 167.411C35.8903 167.411 0.649323 132.034 0.649323 88.5518C0.649323 86.6738 0.72286 84.7788 0.847305 82.9121C0.898216 82.2559 1.46388 81.7638 2.1144 81.809C2.76491 81.8599 3.25704 82.42 3.21179 83.0818C3.08168 84.8919 3.01946 86.7303 3.01946 88.5518C3.01946 130.722 37.2026 165.03 79.2146 165.03C79.8708 165.024 80.4025 165.561 80.4025 166.218Z" fill="#FEA423"/>
<path d="M0.196544 45.7761C0.275738 45.8666 0.383213 45.7761 0.47372 45.7478C0.479376 45.7422 0.485032 45.7422 0.49069 45.7365C0.485032 45.7365 0.485033 45.7422 0.479377 45.7422C0.530286 45.7252 0.569883 45.7026 0.615136 45.6856C0.603822 45.6856 0.598166 45.6856 0.586853 45.6913C7.36918 41.494 15.8429 40.6399 21.9577 35.102C21.952 35.1077 21.952 35.1077 21.9464 35.1133C21.9803 35.085 22.0029 35.0568 22.0369 35.0341C22.0312 35.0398 22.0199 35.0455 22.0143 35.0511C25.7363 31.7307 27.9028 26.6849 32.2924 24.1621C32.2924 24.1621 32.2867 24.1621 32.2867 24.1677C35.0302 23.653 37.3608 22.4877 39.8214 21.2545C42.2877 20.5135 44.8671 20.5588 47.3844 20.1571C34.1478 26.1815 21.6522 34.8079 13.105 46.7491C13.1163 46.7378 13.122 46.7208 13.1333 46.7095C6.58856 52.9261 -2.16228 61.4168 0.485033 71.4404C0.485033 71.4347 0.485033 71.4291 0.479377 71.4291C0.586853 71.9721 0.66039 72.5321 0.756553 73.0865C0.750896 73.0638 0.750896 73.0469 0.745239 73.0299C0.841402 73.7426 1.06767 74.4327 1.20343 75.1342C1.20343 75.1229 1.19777 75.1172 1.19777 75.1059C1.2204 75.2134 1.23737 75.3208 1.25999 75.4283C1.25434 75.4057 1.25434 75.3887 1.24868 75.3661C1.31656 75.615 1.28828 75.8639 1.30525 76.1128C1.30525 76.1015 1.30525 76.0845 1.30525 76.0788C1.30525 76.1637 1.31656 76.2485 1.31656 76.339C1.31656 76.3277 1.31656 76.3164 1.31656 76.2994C1.37313 76.916 0.59251 79.0316 1.65596 77.2384C1.6503 77.2441 1.65031 77.2441 1.64465 77.2498C1.66162 77.2158 1.68424 77.1819 1.70121 77.1479C1.70121 77.1479 1.70121 77.1536 1.69556 77.1536C1.74081 77.0631 1.78606 76.9839 1.82566 76.899C1.82566 76.899 1.82566 76.9047 1.82 76.9047C2.80992 72.583 2.14809 67.8541 4.60873 63.8322C6.68473 60.1667 10.1862 57.4006 11.0913 53.1072C13.6141 46.5907 18.2469 41.4205 23.3832 36.8273C21.7031 41.6298 20.5039 46.6303 17.5568 50.8841C14.1063 55.4773 12.9184 60.704 12.1717 66.2928C12.1943 66.6548 11.8662 69.3474 12.5111 68.4537C16.1992 60.2741 24.7238 58.7751 25.1707 47.8861C25.1707 47.8578 25.1763 47.8295 25.1763 47.8012V47.8069C25.1763 47.7899 25.1763 47.7786 25.1763 47.7616C25.1763 47.7786 25.1763 47.7956 25.1707 47.8125C25.4479 44.2545 24.5654 40.787 24.7295 37.2516C24.7238 37.2911 24.7238 37.3364 24.7181 37.376C24.7295 37.1893 24.7408 36.9913 24.7521 36.799C24.7521 36.816 24.7521 36.833 24.7464 36.8443C24.7521 36.8047 24.7521 36.7594 24.7577 36.7255C24.7577 36.7481 24.7577 36.7651 24.7521 36.7877C28.4742 28.7157 51.6664 18.6751 60.5644 16.3276C52.0737 19.682 49.1775 26.8772 42.7798 32.3359C42.7855 32.3303 42.7912 32.3246 42.7968 32.3189C42.7742 32.3416 42.7516 32.3642 42.7289 32.3812C42.7346 32.3755 42.7402 32.3755 42.7402 32.3699C42.7063 32.4038 42.6724 32.4321 42.6384 32.4604C42.6554 32.4547 42.6667 32.4377 42.678 32.4264C39.9345 35.3283 37.1628 38.3546 34.9058 41.6637C33.3728 44.5939 33.073 48.0275 31.2968 50.8502C31.3025 50.8445 31.3081 50.8332 31.3138 50.8275C29.0964 54.5213 30.4596 52.7451 32.4395 51.1669C35.0529 49.3851 37.8416 47.8238 40.3249 45.8497C40.3249 45.8497 40.3249 45.8497 40.3192 45.8497C40.3305 45.8384 40.3475 45.827 40.3588 45.8101C40.3531 45.8101 40.3531 45.8157 40.3475 45.8157C54.8172 34.9719 46.1738 34.2083 52.1246 23.6473L52.119 23.653C52.1642 23.5964 52.2038 23.5342 52.2547 23.4776C52.2434 23.4946 52.2321 23.5115 52.2208 23.5172C52.2491 23.4833 52.2717 23.4493 52.3 23.4154C52.2943 23.421 52.2887 23.4267 52.2887 23.4267C52.8204 22.8893 53.3748 22.3689 53.9461 21.8654C53.9235 21.8881 53.8952 21.9107 53.8669 21.9333C53.9121 21.8994 53.9517 21.8598 53.997 21.8202C53.9857 21.8315 53.9744 21.8372 53.963 21.8485C53.9913 21.8258 54.0196 21.8089 54.0366 21.7863C54.0309 21.7863 54.0309 21.7919 54.0253 21.7919C56.9611 19.1276 60.587 17.5155 64.1281 15.8411C64.1167 15.8468 64.0998 15.8581 64.0885 15.8637C67.2505 14.3195 70.9443 14.0593 74.4119 13.635C74.4062 13.635 74.3949 13.635 74.3892 13.635C74.4288 13.635 74.4571 13.6294 74.4967 13.6237C74.4684 13.6237 74.4458 13.6294 74.4175 13.6294C77.4947 13.2843 80.5946 13.1485 83.6831 13.1372C85.7761 13.1316 87.869 13.1825 89.9563 13.273C92.7677 13.3974 95.5677 13.5841 98.3565 13.7764C99.7197 13.8669 101.077 13.9631 102.429 14.0593C102.678 13.8783 102.78 13.1542 102.39 13.0807C102.18 13.0467 101.536 12.9788 101.541 12.9788C100.749 12.8827 97.5363 12.5659 94.1706 12.2604C91.4384 12.0172 88.5592 11.8645 87.145 11.214C87.1733 11.2309 87.2072 11.2422 87.2355 11.2592C81.9069 9.13232 78.3093 4.47689 73.3993 1.7221C56.7291 -5.04892 41.1168 10.5352 24.3165 7.57108C24.2204 7.49189 24.0959 7.65027 24.1921 7.72381C24.2034 7.73512 24.2147 7.74644 24.226 7.75775C24.226 7.75775 24.226 7.75775 24.226 7.75209C29.0568 10.1958 34.391 12.2152 39.8949 12.1926C39.8723 12.1926 39.8497 12.1926 39.8214 12.1869C43.7415 12.2887 47.5937 11.6665 51.4798 11.3271C51.4458 11.3271 51.4176 11.3328 51.3893 11.3328C65.7459 10.3768 73.1278 4.06395 86.947 11.9663C79.8762 12.153 72.6753 12.0511 65.8081 13.9801C65.8194 13.9801 65.8364 13.9744 65.8477 13.9744C61.4242 14.9078 56.9215 15.9542 52.7299 17.6569C52.7469 17.6456 52.7638 17.6399 52.7808 17.6286C48.1367 19.8517 42.8081 19.9026 37.785 19.1616C26.2907 17.4646 16.3802 24.2865 10.3333 33.5974C6.91099 37.6192 3.26245 41.5845 0.196544 45.7761ZM1.75778 74.0933C1.54283 73.2053 1.49192 72.2832 1.32787 71.3838C1.32787 71.3951 1.33353 71.4121 1.33353 71.4234C1.28262 71.1293 1.23171 70.8351 1.16383 70.5466C1.16383 70.5466 1.16383 70.5466 1.16383 70.5523C-0.318211 62.797 4.97076 55.3133 10.5369 50.4542C8.0197 53.7633 4.81237 56.7953 3.50569 60.8511C3.50569 60.8455 3.50569 60.8455 3.50569 60.8398C3.40952 61.1339 3.31902 61.4224 3.22285 61.7166C3.22851 61.7053 3.22851 61.6996 3.23417 61.6883C2.67416 63.7473 1.78041 65.7498 1.69556 67.905C1.69556 67.8937 1.69556 67.8823 1.69556 67.871C1.69556 67.8937 1.69556 67.9163 1.6899 67.9389C1.6899 67.9333 1.6899 67.9219 1.6899 67.9163C1.68424 68.0294 1.67293 68.1312 1.66727 68.2444C1.66727 68.2161 1.67293 68.1991 1.67293 68.1708C1.6503 68.5724 1.63333 68.9684 1.61071 69.37C1.61071 69.3644 1.61071 69.3587 1.61071 69.3531C1.61071 69.3757 1.60505 69.3983 1.60505 69.421C1.60505 69.4153 1.60505 69.4096 1.60505 69.4096C1.57111 69.93 1.57677 70.4505 1.55414 70.9822C1.55414 70.9709 1.55414 70.9539 1.5598 70.9426C1.5598 70.9652 1.55414 70.9822 1.55414 71.0105C1.55414 71.0048 1.55414 70.9992 1.55414 70.9935C1.4297 72.04 1.63333 73.0582 1.75778 74.0933ZM8.91911 56.8575C6.153 60.523 2.86083 64.0245 2.20466 68.7874C2.49315 65.1162 3.92428 61.4903 5.59865 58.2377C5.57602 58.2717 5.5534 58.3 5.53077 58.3282C7.36918 55.4094 9.79023 52.9318 11.804 50.1487C10.6161 52.2926 10.1296 54.7419 8.91911 56.8575ZM23.8527 41.1037C23.8583 41.132 23.864 41.1716 23.8753 41.2056C23.864 41.1603 23.8583 41.1207 23.847 41.0755C23.847 41.0755 23.847 41.0754 23.847 41.0811C23.847 41.0754 23.847 41.0698 23.847 41.0585C23.847 41.0755 23.8527 41.0924 23.8527 41.1037ZM23.7565 40.6003C26.2228 51.2178 21.3637 57.1573 14.2873 64.098C14.4739 63.6003 14.604 63.0912 14.7964 62.5934C14.7851 62.616 14.7794 62.6386 14.7681 62.6612C14.8643 62.418 14.9604 62.1861 15.0509 61.9485C15.0453 61.9542 15.0453 61.9655 15.0396 61.9768C15.8938 59.7537 16.3972 57.3779 18.0546 55.5735C18.0489 55.5791 18.0489 55.5848 18.0489 55.5904C21.788 51.3592 22.9363 45.9232 23.7509 40.5041C23.7509 40.5381 23.7509 40.572 23.7565 40.6003ZM17.5172 55.1096C14.9152 58.0454 14.9095 62.2879 13.0881 65.5914C13.5632 55.8223 21.0753 48.9495 23.106 39.6556C22.2009 45.12 21.1149 50.7031 17.5172 55.1096ZM34.0233 46.1099C34.0177 46.1212 34.0177 46.1268 34.0177 46.1325C35.3866 40.6795 39.7309 36.7029 43.436 32.7319C43.4247 32.7432 43.4134 32.7545 43.4021 32.7658C43.8037 32.4151 44.2223 32.0757 44.6239 31.7193C44.6126 31.7307 44.6013 31.742 44.59 31.7476C44.6013 31.742 44.6126 31.7307 44.6183 31.725C42.299 35.4075 40.2343 39.2483 37.7737 42.829C37.7963 42.8064 37.8076 42.7724 37.8303 42.7442C36.3935 44.9446 34.8492 47.0489 33.0787 48.9948C33.5142 48.0784 33.7122 47.0658 34.0233 46.1099ZM34.6569 48.9778C34.6512 48.9835 34.6456 48.9891 34.6343 48.9948C34.6456 48.9835 34.6512 48.9778 34.6569 48.9778C34.6569 48.9721 34.6569 48.9778 34.6569 48.9778ZM47.8765 36.7594C44.8671 41.9183 39.4594 45.3915 34.753 48.8986C34.7587 48.8929 34.7644 48.8929 34.7644 48.8873C34.1025 49.402 33.4294 49.8942 32.7223 50.3354C39.4481 43.4003 43.2946 34.3667 49.3076 26.8829C48.3177 30.1015 49.3416 33.5917 47.8765 36.7594ZM69.2756 7.09026C69.2982 7.08461 69.3265 7.07895 69.3435 7.07329C68.4837 7.25996 67.6069 7.40704 66.7527 7.62765C66.7584 7.62765 66.7584 7.62765 66.7641 7.62765C65.3782 7.92745 64.0771 8.5214 62.6856 8.77029C62.7082 8.76463 62.7309 8.76463 62.7591 8.75332C62.4197 8.83251 62.0747 8.88908 61.7353 8.96827C61.7409 8.96827 61.7466 8.96827 61.7466 8.96262C61.4807 9.02484 61.2149 9.08141 60.949 9.14363C60.9773 9.13797 61.0056 9.13232 61.0282 9.12666C60.7737 9.18888 60.5191 9.24545 60.2646 9.30202C60.2928 9.30202 60.3155 9.29636 60.3381 9.2907C60.2023 9.31899 60.0722 9.35293 59.9308 9.38687C59.9534 9.38121 59.9704 9.37555 59.993 9.37555C51.6212 10.7501 43.0966 12.0002 34.6229 10.8237C34.6286 10.8237 34.6343 10.8237 34.6399 10.8237C34.6173 10.8237 34.6003 10.818 34.5777 10.818C34.589 10.818 34.6003 10.8237 34.606 10.8237C32.8298 10.3881 31.0706 9.89031 29.3113 9.39252C32.1227 9.83374 35.0246 9.91293 37.8586 9.61313C37.8529 9.61313 37.8472 9.61313 37.8416 9.61313C37.9717 9.59616 38.1074 9.57919 38.2375 9.56788C38.2319 9.56788 38.2262 9.56788 38.2206 9.56788C38.543 9.52828 38.8654 9.48303 39.1935 9.44343C39.1652 9.44909 39.1426 9.44909 39.1143 9.45475C41.9427 9.20585 44.6748 8.37998 47.4692 7.94442C47.4522 7.95008 47.424 7.95007 47.4013 7.95573C47.4353 7.95007 47.4692 7.95008 47.4975 7.94442C47.4918 7.94442 47.4805 7.94442 47.4749 7.95008C47.5145 7.94442 47.5541 7.93876 47.588 7.93311C47.5767 7.93311 47.5597 7.93876 47.5541 7.93876C47.5767 7.9331 47.605 7.93311 47.6333 7.92745C47.6163 7.92745 47.605 7.93311 47.588 7.93311C47.605 7.93311 47.6276 7.92745 47.6446 7.92745C47.6389 7.92745 47.6389 7.92745 47.6389 7.92745C47.6615 7.92179 47.6898 7.92179 47.7181 7.91614C47.6842 7.92179 47.6502 7.92745 47.6219 7.92745C54.8681 7.23734 62.1539 7.43532 69.4114 7.07329C69.3605 7.06764 69.3209 7.07895 69.2756 7.09026ZM62.7478 6.5642C54.2176 6.17954 45.874 7.50886 37.5474 9.05878C37.5531 9.05878 37.5701 9.05312 37.587 9.05312C37.5588 9.05878 37.5361 9.05878 37.5078 9.06444C37.5135 9.06444 37.5192 9.06444 37.5305 9.05878C34.2326 9.40949 30.9009 9.18888 27.6313 8.70807C33.848 8.71938 40.0024 7.51451 45.727 5.04821C45.7043 5.05953 45.6704 5.07649 45.6421 5.08781C47.5541 4.29022 49.5735 3.79809 51.4967 3.01747C51.4628 3.02879 51.4345 3.04575 51.4062 3.05141C57.029 0.884913 63.3305 0.901883 69.2643 1.213C73.9876 1.92008 77.4212 5.56297 80.7756 8.6515C75.1302 5.6365 68.8796 6.28702 62.7478 6.5642ZM22.6648 33.1165C17.998 38.2132 11.2383 40.4476 4.85197 42.45C12.8618 36.5445 20.8264 30.4918 29.2208 25.1407C27.0091 27.7767 24.9274 30.5258 22.6648 33.1165ZM36.4557 22.2388C35.2791 23.0477 33.8763 23.3249 32.5017 23.5568C33.9668 22.9968 35.4432 22.4651 36.8969 21.8881C36.7498 22.0069 36.6028 22.1257 36.4557 22.2388ZM7.26171 38.5186C14.5927 29.0607 22.5799 18.4997 35.9692 20.027C35.9579 20.027 35.9523 20.0214 35.9409 20.0214C36.7725 20.1967 37.6097 20.3325 38.4355 20.5248C25.2895 24.196 15.2376 34.4232 4.26934 42.1106C5.25925 40.9058 6.36795 39.7857 7.26171 38.5186Z" fill="#FEA423"/>
<path d="M159.787 161.726C159.787 161.868 159.765 162.009 159.714 162.145C159.488 162.761 158.803 163.067 158.187 162.841C143.372 157.257 130.695 147.421 121.537 134.382C112.17 121.049 107.22 105.352 107.22 88.9817C107.22 88.3255 107.746 87.7881 108.408 87.7881C109.064 87.7881 109.596 88.3255 109.596 88.9817C109.596 120.693 129.456 149.48 159.024 160.612C159.499 160.793 159.787 161.245 159.787 161.726Z" fill="#FEA423"/>
<path d="M264.345 88.9816C264.345 90.8596 264.278 92.7546 264.147 94.6213C264.102 95.2775 263.531 95.7696 262.88 95.7243C262.23 95.6734 261.738 95.1134 261.783 94.4516C261.913 92.6414 261.975 90.803 261.975 88.9816C261.975 46.8112 227.792 12.5036 185.78 12.5036C185.13 12.5036 184.592 11.9719 184.592 11.3101C184.592 10.6539 185.124 10.1165 185.78 10.1165C229.104 10.1222 264.345 45.4989 264.345 88.9816Z" fill="#FEA423"/>
<path d="M264.803 131.757C264.724 131.661 264.617 131.752 264.526 131.78C264.526 131.786 264.515 131.786 264.509 131.791C264.515 131.791 264.515 131.786 264.521 131.786C264.47 131.803 264.43 131.825 264.385 131.848C264.396 131.842 264.402 131.842 264.413 131.836C257.636 136.034 249.157 136.888 243.042 142.426C243.048 142.42 243.048 142.42 243.054 142.414C243.02 142.443 242.997 142.471 242.963 142.499C242.969 142.494 242.98 142.488 242.986 142.482C239.264 145.803 237.097 150.843 232.708 153.366C232.708 153.366 232.713 153.366 232.713 153.36C229.975 153.875 227.639 155.04 225.179 156.273C222.712 157.014 220.133 156.975 217.621 157.371C230.852 151.346 243.348 142.72 251.895 130.784C251.889 130.79 251.878 130.807 251.867 130.818C258.411 124.602 267.162 116.111 264.515 106.087C264.515 106.093 264.515 106.099 264.521 106.104C264.413 105.556 264.34 104.996 264.243 104.441C264.249 104.464 264.249 104.481 264.255 104.504C264.159 103.791 263.938 103.095 263.797 102.394C263.797 102.405 263.802 102.411 263.802 102.422C263.78 102.314 263.763 102.207 263.74 102.099C263.746 102.122 263.746 102.139 263.751 102.162C263.683 101.913 263.712 101.664 263.695 101.415C263.695 101.426 263.695 101.443 263.695 101.455C263.695 101.37 263.689 101.285 263.689 101.194C263.689 101.2 263.689 101.211 263.689 101.228C263.627 100.612 264.407 98.5018 263.35 100.295C263.35 100.289 263.35 100.284 263.355 100.278C263.338 100.312 263.316 100.346 263.299 100.385C263.299 100.385 263.299 100.38 263.304 100.38C263.259 100.465 263.214 100.544 263.174 100.629C263.174 100.629 263.174 100.623 263.18 100.623C262.19 104.95 262.852 109.679 260.391 113.696C258.315 117.367 254.814 120.127 253.909 124.426V124.421C251.386 130.937 246.753 136.107 241.617 140.706C243.297 135.898 244.496 130.897 247.443 126.644C250.894 122.05 252.087 116.824 252.828 111.235C252.806 110.873 253.134 108.18 252.489 109.074C248.806 117.254 240.276 118.753 239.829 129.642C239.829 129.67 239.824 129.704 239.824 129.727V129.721C239.824 129.738 239.824 129.749 239.818 129.766C239.818 129.749 239.818 129.732 239.824 129.715C239.546 133.273 240.429 136.741 240.265 140.276C240.271 140.237 240.271 140.191 240.276 140.152C240.265 140.344 240.254 140.536 240.242 140.729C240.242 140.712 240.242 140.7 240.248 140.683C240.242 140.723 240.242 140.768 240.237 140.802C240.237 140.785 240.237 140.763 240.242 140.74C236.526 148.812 213.334 158.858 204.43 161.2C212.921 157.846 215.817 150.651 222.215 145.192C222.209 145.198 222.203 145.203 222.198 145.209C222.22 145.186 222.243 145.169 222.265 145.147C222.26 145.152 222.254 145.152 222.254 145.158C222.288 145.124 222.328 145.096 222.356 145.067C222.339 145.079 222.328 145.09 222.316 145.101C225.06 142.199 227.832 139.173 230.089 135.87C231.622 132.934 231.921 129.5 233.698 126.678C233.692 126.683 233.686 126.695 233.681 126.7C235.898 123.012 234.535 124.788 232.555 126.361C229.941 128.143 227.153 129.71 224.675 131.684C224.675 131.684 224.675 131.684 224.681 131.684C224.664 131.689 224.647 131.701 224.636 131.718C224.641 131.718 224.641 131.712 224.647 131.712C210.177 142.556 218.821 143.32 212.87 153.88L212.875 153.875C212.83 153.937 212.791 153.994 212.745 154.05C212.751 154.033 212.762 154.022 212.774 154.011C212.745 154.045 212.723 154.078 212.694 154.118C212.7 154.112 212.706 154.107 212.706 154.101C212.174 154.644 211.62 155.159 211.048 155.662C211.071 155.64 211.099 155.617 211.127 155.594C211.082 155.634 211.043 155.668 210.997 155.708C211.009 155.696 211.02 155.691 211.031 155.679C211.003 155.702 210.98 155.725 210.958 155.742C210.963 155.742 210.963 155.736 210.969 155.736C208.033 158.406 204.407 160.018 200.866 161.687C200.883 161.681 200.895 161.67 200.906 161.664C197.744 163.208 194.05 163.469 190.582 163.893C190.588 163.893 190.599 163.893 190.605 163.893C190.566 163.893 190.537 163.898 190.498 163.904C190.526 163.904 190.549 163.898 190.577 163.898C187.5 164.243 184.405 164.385 181.311 164.396C179.218 164.402 177.125 164.345 175.038 164.255C172.227 164.13 169.427 163.949 166.638 163.757C165.275 163.661 163.917 163.565 162.565 163.469C162.316 163.65 162.22 164.374 162.605 164.447C162.814 164.487 163.459 164.549 163.453 164.549C164.245 164.645 167.458 164.962 170.824 165.267C173.562 165.511 176.435 165.663 177.855 166.314C177.821 166.297 177.787 166.286 177.765 166.274C183.087 168.395 186.685 173.051 191.595 175.806C208.265 182.577 223.878 166.993 240.678 169.957C240.774 170.036 240.904 169.878 240.802 169.804C240.791 169.793 240.78 169.781 240.768 169.77C240.768 169.77 240.768 169.77 240.768 169.776C235.943 167.332 230.603 165.313 225.099 165.335C225.122 165.335 225.145 165.335 225.173 165.341C221.253 165.239 217.401 165.861 213.515 166.201C213.549 166.201 213.582 166.195 213.605 166.195C199.248 167.157 191.867 173.464 178.047 165.561C185.118 165.38 192.319 165.477 199.186 163.548C199.175 163.548 199.158 163.553 199.147 163.553C203.57 162.62 208.073 161.574 212.264 159.871C212.247 159.882 212.236 159.888 212.214 159.899C216.863 157.682 222.186 157.625 227.209 158.366C238.704 160.063 248.614 153.241 254.661 143.93C258.089 139.909 261.738 135.943 264.803 131.757ZM263.242 103.434C263.457 104.328 263.508 105.245 263.672 106.144C263.672 106.133 263.666 106.116 263.666 106.11C263.717 106.399 263.774 106.693 263.836 106.981C263.836 106.981 263.836 106.981 263.836 106.975C265.318 114.731 260.029 122.215 254.463 127.074C256.98 123.764 260.188 120.732 261.5 116.677C261.5 116.682 261.5 116.682 261.5 116.688C261.59 116.394 261.681 116.105 261.777 115.811C261.771 115.823 261.771 115.828 261.766 115.839C262.326 113.78 263.22 111.778 263.304 109.623C263.304 109.634 263.304 109.645 263.304 109.657C263.304 109.634 263.304 109.611 263.31 109.595C263.31 109.6 263.31 109.606 263.31 109.611C263.316 109.504 263.327 109.397 263.333 109.283C263.333 109.312 263.327 109.334 263.327 109.357C263.35 108.961 263.367 108.559 263.389 108.163C263.389 108.169 263.389 108.169 263.389 108.175C263.389 108.158 263.395 108.129 263.395 108.107C263.395 108.112 263.395 108.118 263.395 108.118C263.435 107.598 263.423 107.077 263.446 106.557C263.446 106.563 263.446 106.58 263.44 106.591C263.44 106.568 263.446 106.551 263.446 106.523C263.446 106.529 263.446 106.534 263.446 106.54C263.57 105.488 263.367 104.47 263.242 103.434ZM256.081 120.67C258.847 117.01 262.139 113.503 262.795 108.74C262.513 112.412 261.081 116.037 259.401 119.29C259.424 119.256 259.447 119.228 259.469 119.2C257.631 122.118 255.21 124.596 253.196 127.385C254.384 125.241 254.87 122.786 256.081 120.67ZM241.147 136.424C241.142 136.396 241.136 136.356 241.125 136.328C241.136 136.367 241.142 136.413 241.153 136.452C241.153 136.452 241.153 136.452 241.153 136.447C241.153 136.452 241.153 136.458 241.159 136.469C241.153 136.452 241.147 136.435 241.147 136.424ZM241.243 136.927C238.777 126.316 243.636 120.37 250.713 113.435C250.526 113.928 250.396 114.437 250.204 114.934C250.215 114.912 250.221 114.889 250.232 114.872C250.136 115.11 250.04 115.342 249.949 115.585C249.955 115.574 249.955 115.562 249.96 115.551C249.106 117.774 248.603 120.15 246.945 121.954C246.951 121.949 246.951 121.943 246.957 121.937C243.212 126.169 242.064 131.605 241.249 137.024C241.249 136.99 241.249 136.956 241.243 136.927ZM247.483 122.418C250.085 119.482 250.09 115.24 251.918 111.936C251.437 121.705 243.925 128.578 241.894 137.872C242.799 132.408 243.885 126.825 247.483 122.418ZM230.977 131.418C230.982 131.412 230.982 131.407 230.988 131.395C229.613 136.848 225.269 140.825 221.57 144.796C221.575 144.785 221.587 144.773 221.598 144.762C221.196 145.113 220.778 145.452 220.376 145.808C220.387 145.803 220.399 145.791 220.41 145.78C220.399 145.791 220.393 145.803 220.382 145.803C222.701 142.126 224.766 138.285 227.226 134.699C227.204 134.721 227.192 134.755 227.17 134.784C228.607 132.583 230.151 130.479 231.921 128.539C231.486 129.449 231.288 130.462 230.977 131.418ZM230.343 128.55C230.349 128.55 230.354 128.544 230.366 128.539C230.354 128.55 230.349 128.55 230.343 128.55C230.343 128.556 230.343 128.55 230.343 128.55ZM217.124 140.768C220.133 135.615 225.541 132.136 230.247 128.635C230.241 128.64 230.236 128.64 230.236 128.64C230.897 128.126 231.571 127.634 232.278 127.192C225.552 134.127 221.705 143.161 215.692 150.645C216.682 147.426 215.658 143.936 217.124 140.768ZM195.724 170.438C195.702 170.443 195.679 170.449 195.657 170.454C196.522 170.268 197.393 170.121 198.247 169.9C198.242 169.9 198.242 169.9 198.236 169.9C199.622 169.6 200.923 169.006 202.32 168.757C202.292 168.763 202.269 168.769 202.241 168.78C202.58 168.695 202.925 168.639 203.265 168.56C203.259 168.56 203.253 168.56 203.253 168.565C203.519 168.509 203.785 168.446 204.051 168.384C204.023 168.39 204 168.395 203.972 168.401C204.226 168.339 204.481 168.282 204.735 168.226C204.707 168.231 204.685 168.237 204.662 168.243C204.798 168.209 204.928 168.175 205.069 168.147C205.047 168.152 205.03 168.152 205.013 168.152C213.379 166.778 221.909 165.528 230.377 166.71C230.371 166.71 230.366 166.71 230.36 166.704C230.383 166.71 230.4 166.715 230.422 166.715C230.411 166.715 230.4 166.71 230.394 166.71C232.17 167.14 233.929 167.637 235.694 168.141C232.877 167.7 229.975 167.615 227.141 167.915C227.147 167.915 227.153 167.915 227.158 167.915C227.028 167.932 226.893 167.949 226.762 167.966C226.768 167.966 226.774 167.966 226.785 167.966C226.457 167.999 226.135 168.045 225.806 168.084C225.835 168.079 225.857 168.079 225.886 168.073C223.057 168.328 220.325 169.148 217.531 169.583C217.548 169.583 217.576 169.583 217.599 169.578C217.565 169.583 217.536 169.583 217.503 169.583C217.508 169.583 217.519 169.583 217.525 169.583C217.486 169.583 217.452 169.589 217.412 169.595C217.423 169.595 217.44 169.589 217.452 169.589C217.423 169.595 217.395 169.595 217.367 169.6C217.384 169.6 217.395 169.595 217.412 169.595C217.395 169.595 217.372 169.6 217.355 169.6C217.361 169.6 217.361 169.6 217.367 169.6C217.338 169.606 217.31 169.606 217.282 169.612C217.316 169.606 217.35 169.6 217.378 169.6C210.132 170.296 202.846 170.092 195.589 170.454C195.64 170.46 195.679 170.449 195.724 170.438ZM202.252 170.964C210.782 171.348 219.126 170.025 227.453 168.469C227.447 168.469 227.43 168.475 227.413 168.475C227.441 168.469 227.464 168.469 227.492 168.463C227.487 168.463 227.481 168.463 227.47 168.463C230.767 168.113 234.099 168.333 237.374 168.814C231.152 168.803 224.998 170.013 219.273 172.474C219.301 172.463 219.33 172.446 219.358 172.44C217.446 173.238 215.427 173.724 213.503 174.505C213.537 174.499 213.565 174.482 213.594 174.471C207.971 176.643 201.67 176.626 195.736 176.309C191.012 175.602 187.579 171.959 184.224 168.871C189.875 171.891 196.12 171.241 202.252 170.964ZM242.335 144.411C247.002 139.315 253.767 137.08 260.148 135.078C252.138 140.983 244.174 147.036 235.779 152.387C237.991 149.751 240.073 147.002 242.335 144.411ZM228.544 155.289C229.721 154.48 231.124 154.209 232.498 153.971C231.033 154.531 229.557 155.063 228.103 155.64C228.25 155.521 228.397 155.402 228.544 155.289ZM257.738 139.009C250.407 148.467 242.42 159.034 229.031 157.506C229.042 157.506 229.053 157.512 229.059 157.512C228.228 157.337 227.39 157.195 226.564 157.003C239.711 153.332 249.762 143.105 260.731 135.423C259.741 136.622 258.632 137.742 257.738 139.009Z" fill="#FEA423"/>
<path d="M94.227 161.053C94.6173 161.053 94.9963 161.127 95.3583 161.279C95.7203 161.426 96.0371 161.641 96.3143 161.919C96.5915 162.196 96.8064 162.518 96.9535 162.88C97.1062 163.242 97.1798 163.621 97.1798 164.017C97.1798 164.407 97.1062 164.786 96.9535 165.149C96.8064 165.511 96.5915 165.833 96.3143 166.11C96.0371 166.387 95.7203 166.602 95.3583 166.755C94.9963 166.902 94.6173 166.981 94.227 166.981C93.8367 166.981 93.4633 166.902 93.1013 166.755C92.7393 166.602 92.4169 166.387 92.1397 166.11C91.8625 165.833 91.6532 165.511 91.5005 165.149C91.3534 164.786 91.2742 164.407 91.2742 164.017C91.2742 163.621 91.3534 163.242 91.5005 162.88C91.6532 162.518 91.8625 162.196 92.1397 161.919C92.4169 161.641 92.7393 161.426 93.1013 161.279C93.4633 161.127 93.8367 161.053 94.227 161.053Z" fill="#FEA423"/>
<path d="M169.585 9.87897C169.976 9.87897 170.355 9.9525 170.717 10.1052C171.079 10.258 171.395 10.4673 171.673 10.7444C171.95 11.0273 172.165 11.344 172.312 11.7061C172.465 12.0738 172.538 12.4471 172.538 12.8431C172.538 13.2334 172.465 13.6124 172.312 13.9744C172.165 14.3421 171.95 14.6588 171.673 14.936C171.395 15.2132 171.079 15.4281 170.717 15.5809C170.355 15.7279 169.976 15.8071 169.585 15.8071C169.195 15.8071 168.816 15.7279 168.454 15.5809C168.092 15.4281 167.775 15.2132 167.498 14.936C167.221 14.6588 167.006 14.3421 166.859 13.9744C166.706 13.6124 166.633 13.2334 166.633 12.8431C166.633 12.4471 166.706 12.0738 166.859 11.7061C167.006 11.344 167.221 11.0273 167.498 10.7444C167.775 10.4673 168.092 10.258 168.454 10.1052C168.816 9.9525 169.195 9.87897 169.585 9.87897Z" fill="#FEA423"/>
<path d="M195.562 21.5735L198.594 22.0713C199.918 22.2862 200.981 22.7218 201.784 23.3836C202.582 24.0511 203.108 24.8317 203.368 25.7368C203.623 26.6305 203.674 27.5413 203.527 28.4746C203.374 29.5041 202.995 30.3752 202.395 31.0993C201.79 31.812 201.043 32.3042 200.155 32.5926C199.278 32.8925 198.356 32.966 197.395 32.8189L193.865 32.2533L195.562 21.5735ZM197.349 31.1445C198.119 31.269 198.82 31.2294 199.454 31.0314C200.087 30.8221 200.608 30.4657 201.015 29.968C201.422 29.4702 201.682 28.8479 201.807 28.09C201.943 27.2471 201.875 26.5231 201.603 25.9178C201.343 25.3012 200.958 24.8091 200.449 24.4471C199.952 24.085 199.397 23.8588 198.798 23.7683L197.01 23.4741L195.811 30.8957L197.349 31.1445Z" fill="#FFF7F3"/>
<path d="M220.137 29.5863L219.368 31.0797L214.548 28.5681L213.213 31.1249L217.512 33.365L216.743 34.8583L212.444 32.6183L211.109 35.2204L216.132 37.8224L215.363 39.2931L208.824 35.8991L213.801 26.2828L220.137 29.5863Z" fill="#FFF7F3"/>
<path d="M234.457 41.8185L223.008 46.2986L227.669 34.9174L229.117 36.3881L226.063 43.425L233.032 40.3704L234.457 41.8185Z" fill="#FFF7F3"/>
<path d="M243.07 56.1626L241.577 56.9093L239.156 52.0445L236.599 53.3343L238.749 57.6559L237.255 58.4026L235.106 54.0809L232.458 55.3933L234.97 60.4616L233.499 61.2083L230.218 54.6013L239.88 49.7592L243.07 56.1626Z" fill="#FFF7F3"/>
<path d="M246.39 67.4422L237.339 68.9356L238.221 74.2076L236.592 74.4791L235.438 67.5101L246.118 65.7452L246.39 67.4422Z" fill="#FFF7F3"/>
<path d="M242.165 81.1252C243.144 81.2892 244.004 81.6908 244.745 82.3244C245.497 82.9579 246.057 83.7272 246.419 84.6323C246.781 85.5487 246.877 86.499 246.713 87.4833C246.543 88.4619 246.136 89.3273 245.491 90.0853C244.858 90.8377 244.077 91.3864 243.161 91.7371C242.239 92.0991 241.294 92.1953 240.332 92.0312C239.348 91.8615 238.483 91.4655 237.73 90.832C236.978 90.2098 236.435 89.4348 236.101 88.5015C235.756 87.5794 235.666 86.6291 235.83 85.6505C235.999 84.6662 236.39 83.8008 237.006 83.0484C237.623 82.3074 238.387 81.7587 239.292 81.3967C240.208 81.046 241.17 80.9555 242.165 81.1252ZM241.871 82.8674C241.175 82.76 240.513 82.8222 239.88 83.0484C239.246 83.286 238.709 83.665 238.273 84.1798C237.832 84.6889 237.555 85.2885 237.436 85.9673C237.329 86.6291 237.397 87.2683 237.64 87.8905C237.877 88.5071 238.262 89.0275 238.794 89.4518C239.32 89.8873 239.931 90.1589 240.627 90.2663C241.317 90.3851 241.984 90.3229 242.618 90.0853C243.263 89.8421 243.8 89.4744 244.224 88.9766C244.66 88.4788 244.937 87.8905 245.061 87.2117C245.163 86.5329 245.095 85.8824 244.858 85.2659C244.614 84.6436 244.23 84.1175 243.704 83.682C243.172 83.2577 242.561 82.9862 241.871 82.8674Z" fill="#FFF7F3"/>
<path d="M240.635 104.91C240.058 105.979 239.334 106.675 238.463 106.992C237.586 107.308 236.664 107.207 235.703 106.698C235.16 106.409 234.707 106.024 234.345 105.544C233.994 105.074 233.802 104.514 233.757 103.869C233.711 103.236 233.892 102.54 234.3 101.788L235.046 100.407L231.743 98.6198L232.557 97.1038L242.083 102.217L240.635 104.91ZM235.77 102.557C235.544 102.975 235.442 103.36 235.476 103.711C235.522 104.073 235.64 104.373 235.838 104.616C236.048 104.853 236.274 105.046 236.517 105.182C236.907 105.391 237.337 105.459 237.807 105.385C238.288 105.306 238.695 104.967 239.029 104.367L239.798 102.941L236.517 101.177L235.77 102.557Z" fill="#FFF7F3"/>
<path d="M227.937 120.991L226.76 119.791L230.607 115.968L228.593 113.931L225.154 117.325L223.977 116.126L227.416 112.732L225.335 110.65L221.307 114.633L220.153 113.456L225.403 108.252L233.005 115.945L227.937 120.991Z" fill="#FFF7F3"/>
<path d="M209.53 119.941L213.422 122.181L213.58 122.091L214.983 121.389L213.263 118.041L214.779 117.249L219.712 126.865L217.019 128.245C215.95 128.8 214.955 128.969 214.033 128.743C213.099 128.528 212.381 127.94 211.883 126.978C211.583 126.39 211.431 125.779 211.431 125.145C211.419 124.512 211.606 123.924 211.996 123.381L207.765 120.846L209.53 119.941ZM215.73 122.86L214.327 123.562C213.727 123.878 213.371 124.274 213.263 124.761C213.162 125.242 213.218 125.694 213.444 126.118C213.569 126.356 213.75 126.577 213.988 126.775C214.214 126.967 214.502 127.091 214.847 127.137C215.198 127.182 215.571 127.097 215.979 126.888L217.427 126.164L215.73 122.86Z" fill="#FFF7F3"/>
<path d="M195.586 59.7413C195.026 59.7413 194.556 59.8261 194.183 59.9902C193.821 60.1599 193.493 60.3975 193.21 60.7142C192.893 61.1668 192.735 62.185 192.735 63.7688V76.9149C192.735 78.2895 192.622 79.483 192.395 80.4899C192.169 81.4855 191.864 82.3396 191.49 83.0467C191.128 83.7595 190.704 84.3364 190.223 84.789C189.754 85.2415 189.262 85.5979 188.753 85.8524C188.238 86.107 187.734 86.2823 187.237 86.3728C186.739 86.4633 186.286 86.5086 185.879 86.5086C185.211 86.5086 184.634 86.4181 184.137 86.2371C183.639 86.0674 183.22 85.8468 182.892 85.5583C182.558 85.2754 182.31 84.9473 182.146 84.5853C181.976 84.2233 181.897 83.85 181.897 83.454C181.897 83.1089 181.948 82.8091 182.055 82.5489C182.174 82.2774 182.327 82.0625 182.508 81.8928C182.689 81.7117 182.898 81.5873 183.141 81.5081C183.379 81.4176 183.628 81.3723 183.888 81.3723C184.278 81.3723 184.601 81.4742 184.861 81.6665C185.132 81.8475 185.347 82.0851 185.517 82.3679C185.698 82.6394 185.845 82.9336 185.969 83.2504C186.105 83.5671 186.23 83.8613 186.354 84.1328C186.49 84.4043 186.637 84.6419 186.807 84.8342C186.988 85.0152 187.203 85.1057 187.463 85.1057C187.644 85.1057 187.814 85.0548 187.983 84.9473C188.164 84.8455 188.323 84.6702 188.458 84.4269C188.605 84.1894 188.73 83.8782 188.82 83.4992C188.911 83.1089 188.956 82.6338 188.956 82.0738V63.7688C188.956 62.9712 188.934 62.3434 188.888 61.8908C188.843 61.4383 188.736 61.0763 188.572 60.8047C188.481 60.669 188.351 60.5445 188.187 60.4201C188.017 60.2843 187.814 60.1712 187.576 60.0807C187.35 59.9789 187.101 59.894 186.829 59.8318C186.558 59.7752 186.292 59.7413 186.037 59.7413H185.087V59.0172H196.559V59.7413H195.586Z" fill="#FFF7F3"/>
<path d="M217.242 79.0192C217.242 80.0487 217.028 81.0103 216.609 81.9154C216.202 82.8205 215.619 83.6124 214.867 84.2912C214.109 84.97 213.215 85.5074 212.174 85.8977C211.145 86.305 210.013 86.5086 208.78 86.5086C207.858 86.5086 207.021 86.4238 206.269 86.2597C205.528 86.107 204.854 85.9316 204.255 85.7393C203.667 85.547 203.146 85.3716 202.694 85.2189C202.241 85.0549 201.856 84.97 201.54 84.97C201.223 84.97 200.963 85.0831 200.77 85.3094C200.572 85.5244 200.431 85.9203 200.34 86.5086H199.616V77.277H200.34C200.504 78.6685 200.838 79.8507 201.336 80.8293C201.834 81.7966 202.433 82.5886 203.146 83.2051C203.87 83.8104 204.673 84.2573 205.567 84.5401C206.455 84.8116 207.377 84.9474 208.328 84.9474C209.153 84.9474 209.9 84.8286 210.568 84.5854C211.229 84.3478 211.789 84.031 212.242 83.635C212.706 83.2278 213.068 82.7639 213.328 82.2322C213.583 81.7061 213.713 81.1461 213.713 80.5578C213.713 79.896 213.588 79.3134 213.351 78.8156C213.124 78.3065 212.751 77.8143 212.242 77.3448C211.727 76.881 211.054 76.3945 210.228 75.8967C209.397 75.3876 208.395 74.7993 207.219 74.1319C205.635 73.2438 204.328 72.4462 203.304 71.7334C202.292 71.0264 201.494 70.3476 200.906 69.697C200.329 69.0352 199.939 68.3734 199.729 67.7059C199.515 67.0441 199.413 66.2974 199.413 65.4659C199.413 64.5155 199.594 63.6218 199.956 62.7733C200.318 61.9135 200.838 61.1611 201.517 60.5106C202.196 59.8658 203.016 59.351 203.983 58.972C204.945 58.5817 206.025 58.3837 207.219 58.3837C208 58.3837 208.712 58.4686 209.346 58.6326C209.991 58.7854 210.568 58.9607 211.065 59.153C211.563 59.351 212.004 59.5264 212.4 59.6734C212.791 59.8262 213.13 59.8997 213.419 59.8997C213.718 59.8997 213.973 59.7979 214.188 59.5829C214.397 59.3567 214.573 58.9607 214.708 58.3837H215.455V67.7059H214.708C214.573 66.4388 214.284 65.3244 213.848 64.3572C213.424 63.3955 212.876 62.5866 212.197 61.9361C211.529 61.2743 210.777 60.7821 209.934 60.4654C209.086 60.1373 208.192 59.9676 207.242 59.9676C206.591 59.9676 205.98 60.0807 205.409 60.307C204.832 60.5219 204.334 60.8161 203.915 61.1894C203.491 61.5684 203.152 62.0153 202.897 62.5244C202.654 63.0222 202.535 63.5426 202.535 64.0856C202.535 64.6174 202.631 65.1038 202.829 65.5564C203.022 65.9976 203.372 66.4501 203.87 66.914C204.379 67.3835 205.069 67.8869 205.929 68.4299C206.789 68.973 207.881 69.6009 209.21 70.308C210.488 71.0037 211.546 71.6146 212.378 72.1407C213.221 72.6555 213.877 73.0854 214.346 73.4304C215.263 74.1092 215.975 74.9408 216.473 75.9194C216.982 76.8866 217.242 77.9218 217.242 79.0192Z" fill="#FFF7F3"/>
<path d="M93.3771 38.6109C93.3771 39.3066 93.2696 39.9572 93.0603 40.5568C92.8453 41.162 92.5173 41.6881 92.0647 42.1406C91.6235 42.5932 91.0578 42.9552 90.3677 43.2267C89.6889 43.4869 88.8744 43.6227 87.9241 43.634L83.5345 43.6792V43.4077H83.8965C84.1058 43.4077 84.2812 43.3738 84.4169 43.2946C84.564 43.221 84.6771 43.1249 84.7563 43.0004C84.8129 42.9099 84.8525 42.7742 84.8695 42.5932C84.8808 42.4121 84.8921 42.1859 84.8921 41.9144L84.8242 35.5563C84.8242 34.9567 84.762 34.572 84.6432 34.4023C84.5357 34.3005 84.4169 34.2213 84.2812 34.1761C84.1454 34.1308 83.987 34.1082 83.806 34.1082H83.444V33.8593L87.4263 33.814C87.9693 33.814 88.4558 33.831 88.897 33.8593C89.3326 33.8932 89.7229 33.9611 90.0736 34.0629C90.4356 34.1534 90.7524 34.2666 91.0239 34.4023C91.3067 34.5381 91.5726 34.7134 91.8158 34.9227C92.0421 35.1207 92.2514 35.3526 92.4494 35.6242C92.6417 35.8957 92.8001 36.1898 92.9245 36.5066C93.0603 36.8121 93.1621 37.1401 93.2413 37.5022C93.3318 37.8642 93.3771 38.2375 93.3771 38.6109ZM91.7253 38.6787C91.7084 38 91.6009 37.4003 91.4086 36.8686C91.2106 36.3426 90.9334 35.89 90.5714 35.511C90.2207 35.1377 89.8021 34.8492 89.3043 34.6512C88.8178 34.4589 88.2917 34.3571 87.7204 34.3571C87.4942 34.3571 87.2566 34.374 87.019 34.4023C86.7758 34.4363 86.5099 34.4928 86.2271 34.5833L86.3176 42.9552C86.6174 43.0004 86.8945 43.0457 87.1548 43.0909C87.4093 43.1249 87.6412 43.1362 87.8562 43.1362C88.4105 43.1362 88.9253 43.04 89.3948 42.842C89.8756 42.6328 90.2885 42.3386 90.6393 41.9596C90.9843 41.5693 91.2502 41.0998 91.4312 40.5568C91.6235 40.0024 91.7253 39.3745 91.7253 38.6787Z" fill="#FFF7F3"/>
<path d="M103.877 46.1775L103.967 45.9286C104.295 46.0304 104.544 46.0531 104.714 45.9965C104.878 45.9513 104.991 45.8608 105.053 45.725C105.11 45.5892 105.144 45.4139 105.144 45.2046C105.155 45.0066 105.15 44.803 105.121 44.5937L104.986 43.055L101.388 41.9011L100.279 43.1908C100.098 43.3718 99.9624 43.5415 99.8719 43.6886C99.7814 43.8413 99.7362 43.9827 99.7362 44.1185C99.7475 44.2373 99.8267 44.3561 99.9624 44.4805C100.098 44.5993 100.33 44.7294 100.664 44.8652L100.573 45.1141L97.6319 44.1638L97.7224 43.9149C97.9147 43.9601 98.0957 43.9714 98.2654 43.9375C98.4295 43.9092 98.5879 43.847 98.7406 43.7565C98.9046 43.6547 99.0687 43.5246 99.2384 43.3718C99.4194 43.2078 99.6004 43.0211 99.7814 42.8062L105.574 36.1539L105.8 36.2218L106.547 45.0688C106.575 45.4308 106.615 45.7306 106.66 45.9739C106.705 46.2115 106.762 46.3925 106.841 46.5169C106.931 46.6527 107.033 46.7658 107.158 46.8563C107.293 46.9581 107.452 47.0486 107.633 47.1278L107.542 47.3767L103.877 46.1775ZM104.601 38.213L101.75 41.4712L104.963 42.512L104.601 38.213Z" fill="#FFF7F3"/>
<path d="M124.694 47.3847C124.542 47.2659 124.383 47.181 124.219 47.1358C124.067 47.0905 123.914 47.1075 123.767 47.181C123.597 47.2432 123.348 47.4921 123.02 47.9277L118.11 54.6026L117.884 54.4442L117.363 44.1943L113.766 49.059C113.404 49.5398 113.234 49.8962 113.268 50.1225C113.279 50.377 113.449 50.6203 113.766 50.8465L114.037 51.0502L113.879 51.2764L111.118 49.24L111.277 49.0138L111.548 49.2174C111.729 49.3532 111.893 49.4324 112.046 49.4663C112.193 49.5116 112.346 49.5116 112.499 49.4663C112.589 49.4211 112.691 49.3362 112.815 49.2174C112.951 49.093 113.098 48.9233 113.268 48.697L117.341 43.1987C117.324 43.1422 117.318 43.0517 117.318 42.9272C117.33 42.7915 117.324 42.6444 117.296 42.4747C117.262 42.3106 117.194 42.1353 117.092 41.9543C116.984 41.7619 116.82 41.5696 116.594 41.3886L116.753 41.185L118.676 42.6104L119.151 52.091L122.5 47.543C122.873 47.0453 123.043 46.7059 122.997 46.5248C122.981 46.242 122.816 45.9818 122.5 45.7555L122.228 45.5745L122.387 45.3709L125.124 47.3847L124.966 47.5883L124.694 47.3847Z" fill="#FFF7F3"/>
<path d="M122.187 58.6489L122.391 58.4905L122.617 58.762C122.736 58.9091 122.866 59.0222 123.001 59.1014C123.149 59.1749 123.296 59.2145 123.431 59.2145C123.612 59.2145 123.935 59.0222 124.404 58.6489L129.405 54.7118C129.524 54.61 129.631 54.5195 129.722 54.4403C129.823 54.3668 129.908 54.2989 129.97 54.2367C130.044 54.1801 130.095 54.1236 130.129 54.0783C130.157 54.0217 130.163 53.9652 130.151 53.9199C130.197 53.7728 130.197 53.6145 130.151 53.4448C130.106 53.2807 130.027 53.128 129.925 52.9922L129.699 52.7207L129.88 52.5623L132.482 55.8432L132.301 56.0016L132.097 55.7527C131.854 55.4359 131.577 55.2775 131.26 55.2775C131.17 55.2945 131.04 55.3454 130.876 55.4359C130.706 55.5151 130.514 55.6395 130.287 55.8206L125.287 59.7576C125.044 59.9499 124.863 60.1196 124.744 60.2554C124.619 60.3911 124.546 60.5043 124.517 60.5948C124.5 60.6231 124.495 60.674 124.495 60.7532C124.506 60.8437 124.529 60.9342 124.563 61.0247C124.591 61.1152 124.619 61.1944 124.653 61.2736C124.681 61.3641 124.727 61.4433 124.789 61.5225L124.993 61.7714L124.789 61.9297L122.187 58.6489Z" fill="#FFF7F3"/>
<path d="M130.51 72.6694L127.41 65.7456L127.659 65.6325L127.795 65.9266C127.806 65.9719 127.829 66.0228 127.863 66.085C127.891 66.1416 127.931 66.2038 127.976 66.266C128.021 66.3226 128.072 66.3792 128.134 66.4244C128.191 66.481 128.253 66.5263 128.315 66.5602C128.372 66.5715 128.434 66.5885 128.496 66.6054C128.553 66.6168 128.632 66.6168 128.722 66.6054C128.813 66.5885 128.926 66.5489 129.062 66.4923C129.209 66.4471 129.379 66.3848 129.56 66.3113L135.397 63.6866C135.68 63.5678 135.906 63.4547 136.076 63.3472C136.24 63.2284 136.336 63.1379 136.37 63.0757C136.472 62.8211 136.444 62.5044 136.28 62.1254L136.144 61.8312L136.37 61.7407L139.47 68.6645L137.569 69.6148L137.434 69.3433C137.553 69.2528 137.666 69.1679 137.773 69.0944C137.892 69.0152 137.999 68.936 138.09 68.8455C138.18 68.755 138.248 68.6475 138.294 68.5287C138.35 68.4212 138.39 68.2911 138.407 68.1441C138.435 68.0083 138.429 67.8386 138.384 67.6463C138.339 67.4483 138.254 67.222 138.135 66.9675L137.026 64.4785L133.474 66.0624L134.356 68.0535C134.492 68.3534 134.617 68.5796 134.741 68.7323C134.877 68.8964 135.018 68.9926 135.171 69.0265C135.318 69.0548 135.477 69.0548 135.646 69.0265C135.827 69.0095 136.042 68.9643 136.302 68.8907L136.416 69.1396L133.293 70.5199L133.18 70.271C133.389 70.1352 133.57 70.0051 133.723 69.8863C133.87 69.7788 133.978 69.66 134.04 69.5243C134.113 69.3885 134.136 69.2188 134.108 69.0265C134.074 68.8285 133.994 68.5796 133.859 68.2798L132.976 66.2887L129.628 67.782C129.503 67.8386 129.407 67.9065 129.333 67.9857C129.254 68.0762 129.22 68.178 129.22 68.3024C129.22 68.4382 129.266 68.6192 129.356 68.8455L130.035 70.3388C130.137 70.5934 130.244 70.8027 130.352 70.9724C130.453 71.1364 130.561 71.2892 130.668 71.4249C130.787 71.5607 130.917 71.6568 131.053 71.7191C131.2 71.7926 131.358 71.8548 131.528 71.9001C131.709 71.9566 131.913 72.0019 132.139 72.0358C132.377 72.0811 132.648 72.1094 132.954 72.1263L133.089 72.3979L130.51 72.6694Z" fill="#FFF7F3"/>
<path d="M133.03 85.1586L132.034 77.5787L132.306 77.5335C132.317 77.7428 132.351 77.9407 132.396 78.1218C132.453 78.3028 132.532 78.4442 132.623 78.5517C132.725 78.6705 132.86 78.7553 133.03 78.8006C133.211 78.8458 133.426 78.8458 133.686 78.8006L140.474 77.9181C140.757 77.8842 140.978 77.8276 141.13 77.7371C141.277 77.6466 141.385 77.5335 141.447 77.3977C141.504 77.2619 141.526 77.1036 141.515 76.9225C141.515 76.7415 141.504 76.5492 141.492 76.3343L141.764 76.289L142.307 80.5202L142.035 80.5654C142.001 80.3392 141.968 80.1412 141.922 79.9771C141.877 79.8074 141.809 79.666 141.719 79.5472C141.628 79.4398 141.498 79.3662 141.334 79.321C141.164 79.2757 140.938 79.2644 140.655 79.2983L134.229 80.1355C133.941 80.1808 133.72 80.2317 133.573 80.2939C133.437 80.3674 133.33 80.458 133.256 80.5654C133.177 80.6842 133.143 80.8143 133.143 80.9501C133.143 81.0972 133.154 81.2895 133.188 81.5158L133.324 82.4887C133.352 82.7885 133.381 83.043 133.415 83.258C133.46 83.4843 133.505 83.6709 133.55 83.8237C133.607 83.9707 133.675 84.1008 133.754 84.2083C133.828 84.3271 133.918 84.4346 134.026 84.5251C134.144 84.6269 134.257 84.7174 134.365 84.7966C134.467 84.8871 134.591 84.9607 134.727 85.0229C134.863 85.0964 135.01 85.1586 135.18 85.2039C135.344 85.2605 135.547 85.3227 135.79 85.3849V85.679L133.03 85.1586Z" fill="#FFF7F3"/>
<path d="M29.2666 103.422C29.753 103.258 30.2282 103.162 30.692 103.128C31.1616 103.082 31.6141 103.099 32.0496 103.173C32.4739 103.252 32.8812 103.377 33.2715 103.558C33.6505 103.727 34.0068 103.942 34.3349 104.214C34.6517 104.485 34.9345 104.802 35.1721 105.164C35.3984 105.526 35.5907 105.922 35.7378 106.341C35.9527 106.974 36.0319 107.608 35.9867 108.241C35.9301 108.875 35.7548 109.474 35.4663 110.029C35.1665 110.572 34.7592 111.064 34.2444 111.5C33.7353 111.935 33.1074 112.274 32.3664 112.518C31.6763 112.744 30.9862 112.84 30.3074 112.812C29.6286 112.778 29.0064 112.62 28.4294 112.337C27.8581 112.065 27.3603 111.686 26.936 111.205C26.5005 110.725 26.1667 110.142 25.9405 109.463C25.8047 109.073 25.7312 108.666 25.7142 108.241C25.7029 107.823 25.7481 107.415 25.85 107.019C25.9405 106.629 26.0875 106.25 26.2799 105.888C26.4609 105.515 26.7041 105.164 27.0039 104.847C27.2924 104.531 27.6318 104.253 28.0221 104.01C28.4011 103.773 28.814 103.575 29.2666 103.422ZM29.9906 104.893C29.2666 105.119 28.65 105.39 28.1352 105.707C27.6261 106.013 27.2189 106.358 26.9134 106.748C26.6136 107.144 26.4269 107.563 26.3477 108.015C26.2742 108.456 26.3195 108.931 26.4835 109.441C26.6362 109.91 26.8795 110.295 27.2075 110.594C27.5243 110.9 27.9203 111.115 28.3841 111.251C28.8367 111.375 29.3571 111.409 29.9454 111.364C30.5223 111.319 31.1389 111.194 31.8008 110.979C32.4682 110.753 33.0452 110.493 33.543 110.187C34.0408 109.87 34.4481 109.525 34.7648 109.146C35.0703 108.773 35.2626 108.354 35.3531 107.902C35.4436 107.449 35.421 106.991 35.2853 106.522C35.1382 106.086 34.9176 105.707 34.6291 105.39C34.3293 105.062 33.9616 104.819 33.5204 104.666C33.0678 104.519 32.5587 104.463 31.9818 104.508C31.3935 104.542 30.7316 104.666 29.9906 104.893Z" fill="#FFF7F3"/>
<path d="M30.7021 90.2213C31.0811 90.21 31.4374 90.2778 31.7655 90.4249C32.0993 90.5607 32.3934 90.7643 32.648 91.0358C32.9082 91.296 33.1118 91.6185 33.2589 92.0088C33.4059 92.3878 33.4908 92.8007 33.5078 93.2532C33.5078 93.587 33.4851 93.8868 33.4399 94.1583C33.3946 94.4298 33.3437 94.6787 33.2815 94.905C33.208 95.1199 33.1401 95.3066 33.0779 95.4707C33.0213 95.6403 32.9874 95.7818 32.9874 95.9006C32.9874 96.008 33.0326 96.0985 33.1231 96.1721C33.2136 96.2513 33.3664 96.3022 33.5756 96.3305V96.602L30.2043 96.6699V96.3983C30.719 96.3248 31.1489 96.1947 31.494 96.0137C31.8447 95.8214 32.1219 95.5951 32.3312 95.3349C32.5461 95.0634 32.7045 94.7636 32.8063 94.4298C32.8968 94.1017 32.9421 93.7623 32.9421 93.4116C32.9308 93.1118 32.8742 92.846 32.7837 92.6197C32.6932 92.3821 32.5744 92.1785 32.4217 92.0088C32.2746 91.8278 32.0993 91.7033 31.9013 91.6241C31.7089 91.5336 31.5053 91.4884 31.2904 91.4884C31.0528 91.4884 30.8378 91.5336 30.6568 91.6241C30.4645 91.7146 30.2891 91.8617 30.1364 92.054C29.9724 92.235 29.797 92.4839 29.616 92.8007C29.435 93.1062 29.2257 93.4739 28.9824 93.9094C28.6657 94.5147 28.3885 95.0068 28.1453 95.3801C27.8907 95.7591 27.6475 96.0533 27.4212 96.2626C27.1836 96.4775 26.9404 96.6246 26.6972 96.7151C26.4596 96.7943 26.1881 96.8282 25.8826 96.8282C25.5375 96.8452 25.2038 96.7943 24.887 96.6699C24.5703 96.5511 24.2931 96.3701 24.0498 96.1268C23.8123 95.8892 23.6143 95.5951 23.4615 95.2444C23.3145 94.8824 23.2296 94.4864 23.2127 94.0452C23.2127 93.7623 23.2466 93.5021 23.3032 93.2759C23.3484 93.0383 23.4106 92.8233 23.4842 92.6423C23.5464 92.4613 23.6086 92.3029 23.6652 92.1672C23.7104 92.0201 23.7331 91.89 23.7331 91.7825C23.7331 91.6637 23.6991 91.5676 23.6199 91.4884C23.5294 91.4148 23.371 91.3526 23.1448 91.3074V91.0358L26.5614 90.968V91.2395C26.1089 91.2847 25.7129 91.3922 25.3622 91.5562C25.0002 91.7259 24.706 91.9352 24.4797 92.1898C24.2535 92.433 24.0894 92.7102 23.982 93.027C23.8632 93.3437 23.8009 93.6831 23.8009 94.0452C23.8179 94.2714 23.8688 94.492 23.9593 94.7013C24.0385 94.8993 24.1517 95.0803 24.2987 95.2444C24.4345 95.3971 24.5929 95.5159 24.7739 95.6064C24.9549 95.6856 25.1529 95.7195 25.3622 95.7195C25.5432 95.7195 25.7186 95.6856 25.8826 95.6064C26.0523 95.5159 26.2163 95.3801 26.3804 95.1991C26.5501 95.0181 26.7311 94.7692 26.9234 94.4525C27.1044 94.1244 27.3194 93.7171 27.557 93.2306C27.8172 92.7498 28.0321 92.3595 28.2131 92.054C28.3942 91.7373 28.5525 91.4997 28.6883 91.33C28.9146 90.968 29.2087 90.6964 29.5707 90.5154C29.9214 90.3231 30.2948 90.2213 30.7021 90.2213Z" fill="#FFF7F3"/>
<path d="M33.7906 75.9998C34.1526 76.3505 34.4468 76.7012 34.673 77.0632C34.8993 77.4139 35.0633 77.776 35.1708 78.1493C35.2726 78.5283 35.3292 78.9186 35.3292 79.3259C35.3292 79.7219 35.267 80.1405 35.1482 80.593C35.0124 81.0908 34.8201 81.532 34.5825 81.9053C34.3562 82.2843 34.0904 82.6181 33.7906 82.9009C33.4908 83.1894 33.157 83.4213 32.795 83.6023C32.4217 83.7833 32.0257 83.9191 31.6184 84.0096C31.2112 84.0888 30.7926 84.1171 30.3513 84.1001C29.9158 84.0888 29.4859 84.0209 29.0616 83.8965C28.3715 83.7155 27.7493 83.4213 27.2062 83.014C26.6519 82.6068 26.1994 82.1316 25.8486 81.5886C25.5036 81.0342 25.2773 80.4233 25.1698 79.7558C25.0511 79.077 25.0906 78.3756 25.283 77.6515C25.3735 77.2895 25.4979 76.9897 25.645 76.7465C25.7977 76.4919 25.9391 76.2826 26.0749 76.1129C26.1994 75.9319 26.3181 75.7905 26.4369 75.683C26.5444 75.5642 26.6066 75.4681 26.6179 75.3889C26.6632 75.2531 26.6519 75.1287 26.5727 75.0042C26.4822 74.8685 26.3351 74.744 26.1202 74.6196L26.188 74.3707L29.4689 75.0042L29.4236 75.2531C28.8976 75.287 28.4281 75.3549 28.0208 75.4567C27.6022 75.5642 27.2515 75.7226 26.98 75.9319C26.6971 76.1299 26.4539 76.3788 26.2559 76.6786C26.0636 76.984 25.9109 77.3121 25.8034 77.6742C25.6676 78.1606 25.6393 78.6358 25.7129 79.0996C25.7751 79.5691 25.9561 80.0047 26.2559 80.412C26.5614 80.8079 26.9743 81.17 27.5004 81.4981C28.0321 81.8148 28.6939 82.0807 29.4915 82.29C30.1703 82.488 30.7982 82.5728 31.3695 82.5389C31.9465 82.5106 32.4556 82.3918 32.9081 82.1769C33.3494 81.9676 33.7114 81.6678 34.0169 81.2718C34.3167 80.8815 34.5429 80.4233 34.6956 79.8916C34.7692 79.5748 34.8144 79.2806 34.8314 79.0091C34.8427 78.7263 34.8144 78.4378 34.7409 78.1493C34.6617 77.8665 34.5259 77.561 34.3336 77.2442C34.1526 76.9275 33.8924 76.5598 33.5643 76.1355L33.7906 75.9998Z" fill="#FFF7F3"/>
<path d="M41.2432 67.222L41.0169 67.0636C41.2092 66.7808 41.3111 66.5545 41.3111 66.3848C41.3111 66.2038 41.2488 66.0624 41.1301 65.9549C41.0056 65.8531 40.8585 65.7739 40.6775 65.7287C40.4965 65.6721 40.2929 65.6268 40.0666 65.5929L38.5506 65.3214L36.469 68.4891L37.4193 69.892C37.5437 70.1069 37.6569 70.2766 37.7813 70.4124C37.9001 70.5481 38.0189 70.6273 38.1433 70.6386C38.2791 70.6556 38.4205 70.616 38.5732 70.5255C38.7203 70.4237 38.9013 70.2257 39.1163 69.9372L39.3425 70.0956L37.6456 72.6977L37.4193 72.5393C37.5098 72.3583 37.5664 72.1886 37.5777 72.0189C37.606 71.8378 37.6003 71.6681 37.555 71.4984C37.4985 71.3174 37.4136 71.1308 37.3062 70.9328C37.2043 70.7235 37.0686 70.5029 36.8989 70.2766L32.0341 62.9003L32.1699 62.6967L40.9038 64.3484C41.2488 64.3937 41.543 64.4333 41.7862 64.4616C42.0238 64.4955 42.2218 64.4955 42.3745 64.4616C42.5216 64.4163 42.6573 64.3428 42.7818 64.2353C42.9006 64.1335 43.0307 63.9977 43.1664 63.828L43.3927 63.9864L41.2432 67.222ZM33.7764 64.3711L36.1522 67.9913L38.0076 65.1856L33.7764 64.3711Z" fill="#FFF7F3"/>
<path d="M51.7451 56.6433L46.2694 55.1046C46.1619 55.1951 46.0714 55.28 45.9979 55.3535C45.9244 55.4158 45.8565 55.4667 45.7943 55.5119C45.749 55.5572 45.6981 55.6024 45.6359 55.6477C45.5793 55.6929 45.5171 55.7325 45.4549 55.7608L47.2424 58.0009C47.6327 58.4873 47.9212 58.7362 48.1022 58.7475C48.385 58.8267 48.6792 58.7419 48.9846 58.4986L49.2788 58.2724L49.4371 58.476L46.1337 61.1007L45.9753 60.8971L46.2694 60.6708C46.5975 60.3993 46.7446 60.1051 46.6993 59.7884C46.6654 59.6243 46.4787 59.3245 46.1337 58.8833L42.174 53.9054C41.8007 53.4416 41.5122 53.1701 41.3142 53.0909C41.1671 53.0909 41.02 53.1135 40.8843 53.1588C40.7372 53.1927 40.5901 53.2662 40.4544 53.385L40.1602 53.6113L40.0245 53.4303L42.8075 51.2129C43.2318 50.8848 43.5995 50.6019 43.9163 50.3757C44.233 50.1494 44.5215 49.991 44.7761 49.9005C45.0193 49.81 45.2682 49.7591 45.5227 49.7421C45.783 49.7139 46.0262 49.7308 46.2694 49.7874C46.524 49.8496 46.7559 49.9458 46.9708 50.0815C47.1971 50.2173 47.3894 50.3927 47.5591 50.6019C47.7515 50.8452 47.8985 51.0941 47.989 51.3486C48.0796 51.6088 48.1078 51.886 48.0796 52.1858C48.0626 52.4913 47.989 52.7967 47.8533 53.1135C47.7288 53.4303 47.5422 53.7584 47.2876 54.0864L50.5911 55.0594C50.9531 55.1499 51.2699 55.2178 51.5414 55.263C51.8243 55.297 52.0845 55.3026 52.3107 55.2857C52.537 55.2743 52.7463 55.2291 52.9443 55.1499C53.1536 55.0594 53.3798 54.9406 53.6231 54.7879L53.7815 54.9915L51.7451 56.6433ZM46.3599 51.7107C46.1619 51.4731 45.9526 51.2807 45.7264 51.145C45.4888 51.0092 45.2399 50.93 44.9797 50.8961C44.7252 50.8678 44.4706 50.8961 44.2104 50.9866C43.9389 51.0658 43.6843 51.2016 43.4411 51.3939C43.3393 51.4731 43.2148 51.5862 43.0791 51.7333C42.932 51.869 42.7793 52.0218 42.6265 52.1858L45.1607 55.3988L45.4775 55.1499C45.8565 54.8501 46.145 54.5503 46.3599 54.2448C46.5692 53.9281 46.705 53.6283 46.7672 53.3398C46.8407 53.04 46.8351 52.7515 46.7446 52.48C46.6654 52.2084 46.5409 51.9539 46.3599 51.7107Z" fill="#FFF7F3"/>
</svg>
