<svg width="103" height="69" viewBox="0 0 103 69" fill="none" xmlns="http://www.w3.org/2000/svg">
<path d="M61.3244 34.4154C61.3244 34.6704 61.1199 34.8793 60.8627 34.8793C60.6076 34.8793 60.4032 34.6726 60.4032 34.4154C60.4032 22.0901 52.6817 10.9015 41.1898 6.57254C40.9501 6.48459 40.8314 6.21857 40.9193 5.97892C41.0073 5.73708 41.2733 5.61835 41.513 5.7063C47.271 7.8763 52.1981 11.6996 55.7576 16.7674C59.4006 21.9516 61.3244 28.0527 61.3244 34.4154Z" fill="#FEA423"/>
<path d="M31.2502 64.6041C31.2502 64.8591 31.0436 65.068 30.7885 65.068C13.9496 65.068 0.252441 51.318 0.252441 34.4176C0.252441 33.6876 0.281023 32.9511 0.329392 32.2256C0.349179 31.9705 0.569037 31.7793 0.821874 31.7968C1.07471 31.8166 1.26599 32.0343 1.2484 32.2915C1.19783 32.9951 1.17365 33.7096 1.17365 34.4176C1.17365 50.808 14.4597 64.1424 30.7885 64.1424C31.0436 64.1402 31.2502 64.349 31.2502 64.6041Z" fill="#FEA423"/>
<path d="M0.076391 17.7919C0.107171 17.8271 0.148944 17.7919 0.184121 17.7809C0.18632 17.7787 0.188518 17.7787 0.190717 17.7765C0.188518 17.7765 0.188519 17.7787 0.18632 17.7787C0.206107 17.7721 0.221497 17.7633 0.239086 17.7567C0.234689 17.7567 0.23249 17.7567 0.228093 17.7589C2.86419 16.1276 6.15767 15.7956 8.53433 13.6432C8.53213 13.6454 8.53213 13.6454 8.52994 13.6476C8.54313 13.6366 8.55192 13.6256 8.56511 13.6168C8.56291 13.619 8.55852 13.6212 8.55632 13.6234C10.003 12.3328 10.845 10.3717 12.5511 9.3911C12.5511 9.3911 12.5489 9.3911 12.5489 9.3933C13.6153 9.19323 14.5211 8.74032 15.4775 8.26103C16.436 7.97302 17.4386 7.99061 18.417 7.83451C13.2723 10.176 8.41561 13.5288 5.09355 18.17C5.09795 18.1656 5.10015 18.159 5.10455 18.1546C2.56079 20.5709 -0.840417 23.871 0.188519 27.7668C0.188519 27.7646 0.188519 27.7624 0.18632 27.7624C0.228093 27.9735 0.256675 28.1912 0.294051 28.4066C0.291852 28.3978 0.291852 28.3912 0.289653 28.3846C0.327029 28.6617 0.414973 28.9299 0.467738 29.2025C0.467738 29.1981 0.46554 29.1959 0.46554 29.1915C0.474334 29.2333 0.480929 29.2751 0.489724 29.3168C0.487525 29.3081 0.487526 29.3015 0.485327 29.2927C0.51171 29.3894 0.500717 29.4861 0.507313 29.5829C0.507313 29.5785 0.507313 29.5719 0.507313 29.5697C0.507313 29.6027 0.51171 29.6356 0.51171 29.6708C0.51171 29.6664 0.51171 29.662 0.51171 29.6554C0.533696 29.8951 0.230292 30.7173 0.643625 30.0204C0.641427 30.0226 0.641427 30.0226 0.639228 30.0248C0.645824 30.0116 0.654618 29.9984 0.661214 29.9852C0.661214 29.9852 0.661213 29.9874 0.659015 29.9874C0.676604 29.9522 0.694193 29.9215 0.709582 29.8885C0.709582 29.8885 0.709582 29.8907 0.707384 29.8907C1.09214 28.211 0.834901 26.3729 1.79128 24.8098C2.59816 23.3851 3.95909 22.31 4.31086 20.6412C5.29143 18.1085 7.09206 16.099 9.08838 14.3137C8.4354 16.1803 7.9693 18.1239 6.82384 19.7772C5.4827 21.5624 5.021 23.5939 4.73079 25.7661C4.73958 25.9068 4.61206 26.9534 4.8627 26.606C6.29618 23.4268 9.60944 22.8442 9.78313 18.612C9.78313 18.601 9.78533 18.59 9.78533 18.579V18.5812C9.78533 18.5746 9.78533 18.5702 9.78533 18.5636C9.78533 18.5702 9.78533 18.5768 9.78313 18.5834C9.89086 17.2005 9.54788 15.8527 9.61164 14.4786C9.60944 14.494 9.60944 14.5116 9.60724 14.527C9.61164 14.4544 9.61603 14.3775 9.62043 14.3027C9.62043 14.3093 9.62043 14.3159 9.61823 14.3203C9.62043 14.3049 9.62043 14.2873 9.62263 14.2742C9.62263 14.2829 9.62263 14.2895 9.62043 14.2983C11.0671 11.161 20.0813 7.25848 23.5396 6.34607C20.2396 7.64983 19.1139 10.4464 16.6273 12.5681C16.6295 12.5659 16.6317 12.5637 16.6339 12.5615C16.6251 12.5703 16.6163 12.579 16.6075 12.5856C16.6097 12.5834 16.6119 12.5834 16.6119 12.5812C16.5987 12.5944 16.5855 12.6054 16.5723 12.6164C16.5789 12.6142 16.5833 12.6076 16.5877 12.6032C15.5214 13.7311 14.4441 14.9073 13.5669 16.1935C12.9711 17.3324 12.8545 18.6669 12.1642 19.764C12.1664 19.7618 12.1686 19.7574 12.1708 19.7552C11.3089 21.1909 11.8388 20.5005 12.6083 19.8871C13.624 19.1946 14.7079 18.5878 15.6731 17.8205C15.6731 17.8205 15.6731 17.8205 15.6709 17.8205C15.6753 17.8161 15.6819 17.8117 15.6863 17.8051C15.6841 17.8051 15.6841 17.8073 15.6819 17.8073C21.3059 13.5926 17.9465 13.2958 20.2594 9.19103L20.2572 9.19323C20.2748 9.17124 20.2901 9.14706 20.3099 9.12507C20.3055 9.13167 20.3011 9.13827 20.2967 9.14046C20.3077 9.12727 20.3165 9.11408 20.3275 9.10089C20.3253 9.10309 20.3231 9.10529 20.3231 9.10529C20.5298 8.89642 20.7453 8.69415 20.9673 8.49848C20.9585 8.50727 20.9475 8.51607 20.9365 8.52486C20.9541 8.51167 20.9695 8.49628 20.9871 8.48089C20.9827 8.48529 20.9783 8.48749 20.9739 8.49188C20.9849 8.48309 20.9959 8.47649 21.0025 8.4677C21.0003 8.4677 21.0003 8.4699 20.9981 8.4699C22.1392 7.43437 23.5484 6.80777 24.9248 6.15699C24.9204 6.15919 24.9138 6.16359 24.9094 6.16578C26.1384 5.56557 27.574 5.46444 28.9218 5.29954C28.9196 5.29954 28.9152 5.29954 28.913 5.29954C28.9284 5.29954 28.9394 5.29734 28.9548 5.29515C28.9438 5.29515 28.935 5.29734 28.924 5.29734C30.12 5.16323 31.3248 5.11047 32.5252 5.10607C33.3387 5.10387 34.1522 5.12366 34.9635 5.15883C36.0562 5.2072 37.1445 5.27976 38.2284 5.35451C38.7582 5.38968 39.2859 5.42706 39.8113 5.46444C39.9081 5.39408 39.9477 5.11266 39.796 5.08408C39.7146 5.07089 39.464 5.04451 39.4662 5.04451C39.1584 5.00713 37.9096 4.88401 36.6014 4.76529C35.5395 4.67075 34.4204 4.61139 33.8708 4.35855C33.8818 4.36515 33.895 4.36954 33.906 4.37614C31.8349 3.54947 30.4366 1.74004 28.5282 0.669331C22.049 -1.96237 15.9809 4.09472 9.45114 2.94266C9.41376 2.91188 9.3654 2.97344 9.40277 3.00203C9.40717 3.00642 9.41157 3.01082 9.41596 3.01522C9.41596 3.01522 9.41596 3.01522 9.41596 3.01302C11.2936 3.96281 13.3668 4.7477 15.506 4.7389C15.4972 4.7389 15.4884 4.7389 15.4775 4.73671C17.0011 4.77628 18.4983 4.53444 20.0087 4.40252C19.9955 4.40252 19.9845 4.40472 19.9735 4.40472C25.5535 4.03316 28.4227 1.57954 33.7938 4.65096C31.0456 4.72351 28.2468 4.68394 25.5777 5.43366C25.5821 5.43366 25.5887 5.43146 25.5931 5.43146C23.8738 5.79422 22.1238 6.20096 20.4946 6.86273C20.5012 6.85834 20.5078 6.85614 20.5144 6.85174C18.7094 7.71578 16.6383 7.73557 14.686 7.44756C10.2184 6.78798 6.36653 9.43947 4.01625 13.0583C2.68611 14.6215 1.26802 16.1627 0.076391 17.7919ZM0.683199 28.798C0.599653 28.4528 0.579867 28.0944 0.516107 27.7449C0.516107 27.7493 0.518306 27.7559 0.518306 27.7603C0.498518 27.6459 0.478731 27.5316 0.452348 27.4195C0.452348 27.4195 0.452348 27.4195 0.452348 27.4217C-0.12368 24.4074 1.93199 21.4987 4.0954 19.6101C3.11703 20.8963 1.87043 22.0747 1.36256 23.6511C1.36256 23.6489 1.36256 23.6489 1.36256 23.6467C1.32518 23.761 1.29001 23.8732 1.25263 23.9875C1.25483 23.9831 1.25483 23.9809 1.25703 23.9765C1.03937 24.7768 0.691993 25.5551 0.659015 26.3927C0.659015 26.3883 0.659015 26.3839 0.659015 26.3795C0.659015 26.3883 0.659015 26.3971 0.656816 26.4059C0.656816 26.4037 0.656816 26.3993 0.656816 26.3971C0.654618 26.4411 0.650221 26.4807 0.648022 26.5246C0.648022 26.5137 0.650221 26.5071 0.650221 26.4961C0.641426 26.6522 0.634831 26.8061 0.626036 26.9622C0.626036 26.96 0.626036 26.9578 0.626036 26.9556C0.626036 26.9644 0.623838 26.9732 0.623838 26.982C0.623838 26.9798 0.623838 26.9776 0.623838 26.9776C0.610646 27.1798 0.612845 27.3821 0.604051 27.5888C0.604051 27.5844 0.60405 27.5778 0.606249 27.5734C0.606249 27.5822 0.604051 27.5888 0.604051 27.5998C0.604051 27.5976 0.604051 27.5954 0.604051 27.5932C0.555682 27.9999 0.63483 28.3956 0.683199 28.798ZM3.4666 22.0989C2.3915 23.5236 1.11192 24.8845 0.856887 26.7357C0.969015 25.3088 1.52526 23.8995 2.17604 22.6354C2.16724 22.6485 2.15845 22.6595 2.14965 22.6705C2.86419 21.5361 3.80518 20.5731 4.58788 19.4914C4.12618 20.3246 3.9371 21.2766 3.4666 22.0989ZM9.27086 15.9759C9.27306 15.9868 9.27525 16.0022 9.27965 16.0154C9.27525 15.9978 9.27306 15.9824 9.26866 15.9649C9.26866 15.9649 9.26866 15.9649 9.26866 15.9671C9.26866 15.9649 9.26866 15.9627 9.26866 15.9583C9.26866 15.9649 9.27086 15.9715 9.27086 15.9759ZM9.23348 15.7802C10.1921 19.9069 8.30348 22.2154 5.55306 24.9131C5.62561 24.7196 5.67618 24.5217 5.75093 24.3283C5.74653 24.3371 5.74433 24.3459 5.73994 24.3546C5.77731 24.2601 5.81469 24.17 5.84986 24.0776C5.84767 24.0798 5.84767 24.0842 5.84547 24.0886C6.17745 23.2246 6.37313 22.3012 7.01731 21.5998C7.01511 21.602 7.01511 21.6042 7.01511 21.6064C8.46838 19.9619 8.91469 17.849 9.23128 15.7428C9.23128 15.756 9.23128 15.7692 9.23348 15.7802ZM6.80845 21.4195C5.7971 22.5606 5.7949 24.2095 5.08696 25.4935C5.27164 21.6966 8.19135 19.0253 8.98064 15.413C8.62887 17.5368 8.20674 19.7068 6.80845 21.4195ZM13.2239 17.9216C13.2217 17.926 13.2217 17.9282 13.2217 17.9304C13.7538 15.811 15.4423 14.2654 16.8823 12.722C16.8779 12.7264 16.8736 12.7307 16.8692 12.7351C17.0253 12.5988 17.1879 12.4669 17.344 12.3284C17.3397 12.3328 17.3353 12.3372 17.3309 12.3394C17.3353 12.3372 17.3396 12.3328 17.3418 12.3306C16.4404 13.7619 15.6379 15.2547 14.6816 16.6464C14.6904 16.6376 14.6948 16.6244 14.7036 16.6134C14.1451 17.4687 13.5449 18.2866 12.8567 19.0429C13.026 18.6867 13.103 18.2932 13.2239 17.9216ZM13.4701 19.0363C13.4679 19.0385 13.4658 19.0407 13.4614 19.0429C13.4658 19.0385 13.4679 19.0363 13.4701 19.0363C13.4701 19.0341 13.4701 19.0363 13.4701 19.0363ZM18.6082 14.2873C17.4386 16.2924 15.3367 17.6424 13.5075 19.0055C13.5097 19.0033 13.5119 19.0033 13.5119 19.0011C13.2547 19.2012 12.9931 19.3925 12.7182 19.5639C15.3323 16.8685 16.8274 13.3573 19.1645 10.4486C18.7797 11.6996 19.1777 13.0561 18.6082 14.2873ZM26.9255 2.75578C26.9343 2.75359 26.9452 2.75139 26.9518 2.74919C26.6177 2.82174 26.2769 2.8789 25.9449 2.96465C25.9471 2.96465 25.9471 2.96465 25.9493 2.96465C25.4106 3.08117 24.905 3.31202 24.3641 3.40876C24.3729 3.40656 24.3817 3.40656 24.3927 3.40217C24.2608 3.43295 24.1267 3.45493 23.9948 3.48571C23.997 3.48571 23.9992 3.48571 23.9992 3.48351C23.8958 3.5077 23.7925 3.52968 23.6892 3.55387C23.7001 3.55167 23.7111 3.54947 23.7199 3.54727C23.621 3.57146 23.5221 3.59344 23.4231 3.61543C23.4341 3.61543 23.4429 3.61323 23.4517 3.61103C23.3989 3.62203 23.3484 3.63522 23.2934 3.64841C23.3022 3.64621 23.3088 3.64401 23.3176 3.64401C20.0637 4.17827 16.7504 4.66415 13.457 4.20685C13.4592 4.20685 13.4614 4.20685 13.4636 4.20685C13.4548 4.20685 13.4482 4.20465 13.4394 4.20465C13.4438 4.20465 13.4482 4.20685 13.4504 4.20685C12.76 4.03756 12.0762 3.84408 11.3925 3.65061C12.4852 3.8221 13.6131 3.85288 14.7145 3.73635C14.7123 3.73635 14.7101 3.73635 14.7079 3.73635C14.7585 3.72976 14.8113 3.72316 14.8618 3.71876C14.8597 3.71876 14.8575 3.71876 14.8553 3.71876C14.9806 3.70337 15.1059 3.68578 15.2334 3.67039C15.2224 3.67259 15.2136 3.67259 15.2026 3.67479C16.3019 3.57805 17.3638 3.25706 18.4499 3.08777C18.4433 3.08997 18.4323 3.08997 18.4235 3.09217C18.4367 3.08997 18.4499 3.08997 18.4609 3.08777C18.4587 3.08777 18.4543 3.08777 18.4521 3.08997C18.4675 3.08777 18.4829 3.08557 18.4961 3.08337C18.4917 3.08337 18.4851 3.08557 18.4829 3.08557C18.4917 3.08337 18.5027 3.08337 18.5137 3.08117C18.5071 3.08117 18.5027 3.08337 18.4961 3.08337C18.5027 3.08337 18.5115 3.08117 18.5181 3.08117C18.5159 3.08117 18.5159 3.08117 18.5159 3.08117C18.5247 3.07898 18.5357 3.07898 18.5467 3.07678C18.5335 3.07898 18.5203 3.08117 18.5093 3.08117C21.3257 2.81295 24.1574 2.8899 26.9782 2.74919C26.9584 2.74699 26.9431 2.75139 26.9255 2.75578ZM24.3883 2.55132C21.0728 2.40181 17.8299 2.91848 14.5936 3.52089C14.5958 3.52089 14.6024 3.51869 14.609 3.51869C14.598 3.52089 14.5892 3.52089 14.5782 3.52309C14.5804 3.52309 14.5826 3.52309 14.587 3.52089C13.3053 3.6572 12.0103 3.57146 10.7395 3.38458C13.1558 3.38898 15.5478 2.92068 17.7728 1.9621C17.764 1.96649 17.7508 1.97309 17.7398 1.97749C18.4829 1.66749 19.2678 1.47621 20.0153 1.17281C20.0021 1.1772 19.9911 1.1838 19.9801 1.186C22.1655 0.34394 24.6148 0.350536 26.9211 0.471458C28.7569 0.746281 30.0914 2.16217 31.3952 3.36259C29.201 2.19075 26.7716 2.44359 24.3883 2.55132ZM8.80916 12.8715C6.99533 14.8524 4.36802 15.7208 1.88582 16.4991C4.99901 14.2038 8.09462 11.8513 11.3573 9.77146C10.4977 10.796 9.68859 11.8645 8.80916 12.8715ZM14.1693 8.64359C13.712 8.95798 13.1667 9.06571 12.6325 9.15585C13.2019 8.9382 13.7758 8.73153 14.3408 8.50727C14.2836 8.55344 14.2265 8.59961 14.1693 8.64359ZM2.82242 14.9711C5.67178 11.2951 8.77618 7.19032 13.9802 7.78394C13.9758 7.78394 13.9736 7.78174 13.9692 7.78174C14.2924 7.8499 14.6178 7.90266 14.9388 7.97742C9.8293 9.40429 5.92242 13.3793 1.65937 16.3672C2.04412 15.8989 2.47504 15.4636 2.82242 14.9711Z" fill="#FEA423"/>
<path d="M62.1049 62.8584C62.1049 62.9134 62.0961 62.9683 62.0763 63.0211C61.9884 63.2607 61.7223 63.3795 61.4827 63.2915C55.7246 61.1215 50.7976 57.2982 47.2381 52.2305C43.5972 47.0484 41.6735 40.9473 41.6735 34.5846C41.6735 34.3296 41.8779 34.1207 42.1352 34.1207C42.3902 34.1207 42.5969 34.3296 42.5969 34.5846C42.5969 46.9099 50.3161 58.0985 61.8081 62.4253C61.9927 62.4956 62.1049 62.6715 62.1049 62.8584Z" fill="#FEA423"/>
<path d="M102.744 34.5846C102.744 35.3146 102.717 36.0511 102.667 36.7766C102.649 37.0317 102.427 37.2229 102.174 37.2053C101.921 37.1856 101.73 36.9679 101.748 36.7107C101.798 36.0071 101.822 35.2926 101.822 34.5846C101.822 18.1942 88.5363 4.85982 72.2074 4.85982C71.9546 4.85982 71.7457 4.65316 71.7457 4.39592C71.7457 4.14089 71.9524 3.93202 72.2074 3.93202C89.0464 3.93422 102.744 17.6841 102.744 34.5846Z" fill="#FEA423"/>
<path d="M102.922 51.2103C102.891 51.1729 102.849 51.2081 102.814 51.2191C102.814 51.2213 102.809 51.2213 102.807 51.2235C102.809 51.2235 102.809 51.2213 102.812 51.2213C102.792 51.2279 102.776 51.2367 102.759 51.2455C102.763 51.2433 102.765 51.2433 102.77 51.2411C100.136 52.8725 96.8403 53.2044 94.4637 55.3568C94.4658 55.3546 94.4658 55.3546 94.468 55.3524C94.4549 55.3634 94.4461 55.3744 94.4329 55.3854C94.4351 55.3832 94.4395 55.381 94.4417 55.3788C92.995 56.6694 92.1529 58.6283 90.4468 59.6089C90.4468 59.6089 90.449 59.6089 90.449 59.6067C89.3849 59.8068 88.4769 60.2597 87.5205 60.739C86.562 61.027 85.5594 61.0116 84.5832 61.1655C89.7257 58.824 94.5824 55.4712 97.9044 50.8322C97.9022 50.8344 97.8978 50.841 97.8934 50.8454C100.437 48.4291 103.838 45.129 102.809 41.2332C102.809 41.2354 102.809 41.2376 102.812 41.2398C102.77 41.0265 102.741 40.8088 102.704 40.5934C102.706 40.6022 102.706 40.6088 102.708 40.6176C102.671 40.3405 102.585 40.0701 102.53 39.7975C102.53 39.8019 102.532 39.8041 102.532 39.8085C102.524 39.7667 102.517 39.7249 102.508 39.6832C102.51 39.692 102.51 39.6986 102.513 39.7073C102.486 39.6106 102.497 39.5139 102.491 39.4171C102.491 39.4215 102.491 39.4281 102.491 39.4325C102.491 39.3995 102.488 39.3666 102.488 39.3314C102.488 39.3336 102.488 39.338 102.488 39.3446C102.464 39.1049 102.768 38.2849 102.357 38.9818C102.357 38.9796 102.357 38.9774 102.359 38.9752C102.352 38.9884 102.343 39.0016 102.337 39.017C102.337 39.017 102.337 39.0148 102.339 39.0148C102.321 39.0478 102.304 39.0786 102.288 39.1115C102.288 39.1115 102.288 39.1093 102.291 39.1093C101.906 40.7912 102.163 42.6293 101.207 44.1903C100.4 45.6171 99.0389 46.69 98.6871 48.361V48.3588C97.7066 50.8915 95.9059 52.901 93.9096 54.6885C94.5626 52.8197 95.0287 50.8761 96.1741 49.2228C97.5153 47.4376 97.9792 45.4061 98.2672 43.2339C98.2584 43.0932 98.3859 42.0466 98.1353 42.394C96.704 45.5732 93.3885 46.1558 93.2149 50.3881C93.2149 50.399 93.2127 50.4122 93.2127 50.421V50.4188C93.2127 50.4254 93.2127 50.4298 93.2105 50.4364C93.2105 50.4298 93.2105 50.4232 93.2127 50.4166C93.1049 51.7995 93.4479 53.1473 93.3841 54.5214C93.3863 54.506 93.3863 54.4884 93.3885 54.473C93.3841 54.5478 93.3797 54.6225 93.3754 54.6973C93.3754 54.6907 93.3754 54.6863 93.3776 54.6797C93.3754 54.6951 93.3754 54.7127 93.3732 54.7259C93.3732 54.7193 93.3732 54.7105 93.3754 54.7017C91.9309 57.839 82.9167 61.7437 79.4561 62.6539C82.7562 61.3502 83.8819 58.5536 86.3685 56.432C86.3663 56.4342 86.3641 56.4363 86.3619 56.4385C86.3707 56.4298 86.3795 56.4232 86.3883 56.4144C86.3861 56.4166 86.3839 56.4166 86.3839 56.4188C86.3971 56.4056 86.4124 56.3946 86.4234 56.3836C86.4168 56.388 86.4124 56.3924 86.4081 56.3968C87.4744 55.2689 88.5517 54.0927 89.4289 52.8087C90.0247 51.6676 90.1412 50.3331 90.8316 49.236C90.8294 49.2382 90.8272 49.2426 90.825 49.2448C91.6868 47.8113 91.157 48.5017 90.3875 49.1129C89.3717 49.8054 88.2878 50.4144 87.3249 51.1817C87.3249 51.1817 87.3249 51.1817 87.3271 51.1817C87.3205 51.1839 87.3139 51.1883 87.3095 51.1949C87.3117 51.1949 87.3117 51.1927 87.3139 51.1927C81.6899 55.4074 85.0493 55.7042 82.7364 59.809L82.7386 59.8068C82.721 59.831 82.7056 59.8529 82.6881 59.8749C82.6902 59.8683 82.6946 59.8639 82.699 59.8595C82.688 59.8727 82.6793 59.8859 82.6683 59.9013C82.6705 59.8991 82.6727 59.8969 82.6727 59.8947C82.466 60.1058 82.2505 60.3059 82.0285 60.5015C82.0373 60.4927 82.0483 60.4839 82.0593 60.4751C82.0417 60.4905 82.0263 60.5037 82.0087 60.5191C82.0131 60.5147 82.0175 60.5125 82.0219 60.5081C82.0109 60.5169 82.0021 60.5257 81.9933 60.5323C81.9955 60.5323 81.9955 60.5301 81.9977 60.5301C80.8566 61.5678 79.4473 62.1944 78.071 62.843C78.0776 62.8408 78.082 62.8364 78.0864 62.8342C76.8574 63.4344 75.4217 63.5356 74.074 63.7005C74.0762 63.7005 74.0806 63.7005 74.0828 63.7005C74.0674 63.7005 74.0564 63.7027 74.041 63.7049C74.052 63.7049 74.0608 63.7027 74.0718 63.7027C72.8758 63.8368 71.6732 63.8917 70.4705 63.8961C69.6571 63.8983 68.8436 63.8764 68.0323 63.8412C66.9396 63.7928 65.8513 63.7225 64.7674 63.6477C64.2376 63.6103 63.7099 63.5729 63.1844 63.5356C63.0877 63.6059 63.0503 63.8873 63.1998 63.9159C63.2812 63.9313 63.5318 63.9555 63.5296 63.9555C63.8374 63.9929 65.0862 64.116 66.3944 64.2347C67.4585 64.3293 68.5754 64.3886 69.1272 64.6415C69.114 64.6349 69.1008 64.6305 69.092 64.6261C71.1609 65.4505 72.5592 67.26 74.4676 68.3307C80.9468 70.9624 87.0149 64.9053 93.5446 66.0573C93.582 66.0881 93.6326 66.0266 93.593 65.998C93.5886 65.9936 93.5842 65.9892 93.5798 65.9848C93.5798 65.9848 93.5798 65.9848 93.5798 65.987C91.7044 65.0372 89.629 64.2523 87.4898 64.2611C87.4985 64.2611 87.5073 64.2611 87.5183 64.2633C85.9947 64.2237 84.4975 64.4656 82.9871 64.5975C83.0002 64.5975 83.0134 64.5953 83.0222 64.5953C77.4422 64.969 74.5731 67.4205 69.202 64.349C71.9502 64.2787 74.749 64.3161 77.4181 63.5664C77.4137 63.5664 77.4071 63.5685 77.4027 63.5685C79.122 63.2058 80.872 62.799 82.5012 62.1373C82.4946 62.1417 82.4902 62.1439 82.4814 62.1483C84.2886 61.2864 86.3575 61.2644 88.3098 61.5525C92.7773 62.212 96.6293 59.5605 98.9795 55.9417C100.312 54.3785 101.73 52.8373 102.922 51.2103ZM102.315 40.202C102.398 40.5494 102.418 40.9056 102.482 41.2551C102.482 41.2508 102.48 41.2442 102.48 41.242C102.499 41.3541 102.521 41.4684 102.546 41.5805C102.546 41.5805 102.546 41.5805 102.546 41.5783C103.122 44.5926 101.066 47.5013 98.9026 49.3899C99.881 48.1037 101.128 46.9253 101.638 45.3489C101.638 45.3511 101.638 45.3511 101.638 45.3533C101.673 45.239 101.708 45.1269 101.745 45.0125C101.743 45.0169 101.743 45.0191 101.741 45.0235C101.959 44.2232 102.306 43.4449 102.339 42.6073C102.339 42.6117 102.339 42.6161 102.339 42.6205C102.339 42.6117 102.339 42.6029 102.341 42.5963C102.341 42.5985 102.341 42.6007 102.341 42.6029C102.343 42.5611 102.348 42.5193 102.35 42.4754C102.35 42.4864 102.348 42.4951 102.348 42.5039C102.357 42.35 102.363 42.1939 102.372 42.04C102.372 42.0422 102.372 42.0422 102.372 42.0444C102.372 42.0378 102.374 42.0269 102.374 42.0181C102.374 42.0203 102.374 42.0225 102.374 42.0225C102.39 41.8202 102.385 41.6179 102.394 41.4156C102.394 41.4178 102.394 41.4244 102.392 41.4288C102.392 41.42 102.394 41.4134 102.394 41.4025C102.394 41.4047 102.394 41.4069 102.394 41.409C102.442 41.0001 102.363 40.6044 102.315 40.202ZM99.5314 46.9011C100.606 45.4786 101.886 44.1155 102.141 42.2643C102.031 43.6912 101.475 45.1005 100.822 46.3647C100.831 46.3515 100.84 46.3405 100.848 46.3295C100.134 47.4639 99.1928 48.4269 98.4101 49.5108C98.8718 48.6776 99.0609 47.7234 99.5314 46.9011ZM93.7271 53.0242C93.7249 53.0132 93.7227 52.9978 93.7183 52.9868C93.7227 53.0022 93.7249 53.0198 93.7293 53.0351C93.7293 53.0351 93.7293 53.0351 93.7293 53.0329C93.7293 53.0351 93.7293 53.0373 93.7315 53.0417C93.7293 53.0351 93.7271 53.0286 93.7271 53.0242ZM93.7645 53.2198C92.8059 49.0953 94.6945 46.7846 97.4449 44.0891C97.3724 44.2804 97.3218 44.4783 97.2471 44.6717C97.2514 44.6629 97.2537 44.6542 97.258 44.6476C97.2207 44.7399 97.1833 44.83 97.1481 44.9246C97.1503 44.9202 97.1503 44.9158 97.1525 44.9114C96.8205 45.7754 96.6249 46.6988 95.9807 47.4002C95.9829 47.398 95.9829 47.3958 95.9851 47.3936C94.5296 49.0381 94.0833 51.151 93.7667 53.2572C93.7667 53.244 93.7667 53.2308 93.7645 53.2198ZM96.1895 47.5805C97.2009 46.4394 97.2031 44.7905 97.9132 43.5065C97.7263 47.3034 94.8066 49.9747 94.0173 53.587C94.3691 51.4632 94.7912 49.2932 96.1895 47.5805ZM89.7741 51.0784C89.7763 51.0762 89.7763 51.074 89.7785 51.0696C89.2442 53.189 87.5557 54.7346 86.1178 56.2781C86.12 56.2737 86.1244 56.2693 86.1288 56.2649C85.9727 56.4012 85.81 56.5331 85.6539 56.6716C85.6583 56.6694 85.6627 56.665 85.6671 56.6606C85.6627 56.665 85.6605 56.6694 85.6561 56.6694C86.5576 55.2403 87.36 53.7475 88.3164 52.3536C88.3076 52.3624 88.3032 52.3756 88.2944 52.3866C88.8529 51.5313 89.4531 50.7134 90.1412 49.9593C89.9719 50.3133 89.895 50.7068 89.7741 51.0784ZM89.5278 49.9637C89.53 49.9637 89.5322 49.9615 89.5366 49.9593C89.5322 49.9637 89.53 49.9637 89.5278 49.9637C89.5278 49.9659 89.5278 49.9637 89.5278 49.9637ZM84.3898 54.7127C85.5594 52.7098 87.6612 51.3576 89.4905 49.9967C89.4883 49.9989 89.4861 49.9989 89.4861 49.9989C89.7433 49.7988 90.0049 49.6076 90.2798 49.4361C87.6656 52.1315 86.1706 55.6427 83.8335 58.5514C84.2183 57.3004 83.8203 55.9439 84.3898 54.7127ZM76.0725 66.2442C76.0637 66.2464 76.0549 66.2486 76.0461 66.2508C76.3825 66.1783 76.7211 66.1211 77.0531 66.0354C77.0509 66.0354 77.0509 66.0354 77.0487 66.0354C77.5873 65.9188 78.093 65.688 78.6361 65.5912C78.6251 65.5934 78.6163 65.5956 78.6053 65.6C78.7372 65.5671 78.8713 65.5451 79.0032 65.5143C79.001 65.5143 78.9988 65.5143 78.9988 65.5165C79.1022 65.4945 79.2055 65.4703 79.3088 65.4461C79.2978 65.4483 79.289 65.4505 79.2781 65.4527C79.377 65.4285 79.4759 65.4066 79.5749 65.3846C79.5639 65.3868 79.5551 65.389 79.5463 65.3912C79.599 65.378 79.6496 65.3648 79.7046 65.3538C79.6958 65.356 79.6892 65.356 79.6826 65.356C82.9343 64.8217 86.2498 64.3359 89.541 64.7954C89.5388 64.7954 89.5366 64.7954 89.5344 64.7932C89.5432 64.7954 89.5498 64.7976 89.5586 64.7976C89.5542 64.7976 89.5498 64.7954 89.5476 64.7954C90.238 64.9625 90.9217 65.1559 91.6077 65.3516C90.5128 65.1801 89.3849 65.1471 88.2834 65.2637C88.2856 65.2637 88.2878 65.2637 88.29 65.2637C88.2395 65.2703 88.1867 65.2768 88.1361 65.2834C88.1383 65.2834 88.1405 65.2834 88.1449 65.2834C88.0174 65.2966 87.8921 65.3142 87.7646 65.3296C87.7756 65.3274 87.7844 65.3274 87.7954 65.3252C86.6961 65.4242 85.6341 65.7429 84.548 65.9122C84.5546 65.9122 84.5656 65.9122 84.5744 65.91C84.5612 65.9122 84.5502 65.9122 84.5371 65.9122C84.5393 65.9122 84.5437 65.9122 84.5459 65.9122C84.5305 65.9122 84.5173 65.9144 84.5019 65.9166C84.5063 65.9166 84.5129 65.9144 84.5173 65.9144C84.5063 65.9166 84.4953 65.9166 84.4843 65.9188C84.4909 65.9188 84.4953 65.9166 84.5019 65.9166C84.4953 65.9166 84.4865 65.9188 84.4799 65.9188C84.4821 65.9188 84.4821 65.9188 84.4843 65.9188C84.4733 65.921 84.4623 65.921 84.4513 65.9232C84.4645 65.921 84.4777 65.9188 84.4887 65.9188C81.6723 66.1893 78.8405 66.1101 76.0198 66.2508C76.0395 66.253 76.0549 66.2486 76.0725 66.2442ZM78.6097 66.4487C81.9251 66.5982 85.1681 66.0837 88.4044 65.4791C88.4022 65.4791 88.3956 65.4813 88.389 65.4813C88.4 65.4791 88.4088 65.4791 88.4198 65.4769C88.4176 65.4769 88.4154 65.4769 88.411 65.4769C89.6927 65.3406 90.9877 65.4263 92.2607 65.6132C89.8422 65.6088 87.4502 66.0793 85.2252 67.0357C85.2362 67.0313 85.2472 67.0247 85.2582 67.0225C84.5151 67.3325 83.7302 67.5216 82.9827 67.825C82.9959 67.8228 83.0068 67.8162 83.0178 67.8118C80.8324 68.6561 78.3832 68.6495 76.0769 68.5264C74.2411 68.2515 72.9066 66.8356 71.6028 65.6352C73.7992 66.8093 76.2264 66.5564 78.6097 66.4487ZM94.1888 56.1285C96.0027 54.1476 98.6322 53.2792 101.112 52.5009C97.999 54.7962 94.9034 57.1487 91.6407 59.2285C92.5003 58.204 93.3094 57.1355 94.1888 56.1285ZM88.8287 60.3564C89.286 60.042 89.8312 59.9365 90.3655 59.8442C89.7961 60.0618 89.2222 60.2685 88.6572 60.4927C88.7144 60.4466 88.7715 60.4004 88.8287 60.3564ZM100.176 54.0289C97.3262 57.7049 94.2218 61.8119 89.0178 61.2183C89.0222 61.2183 89.0266 61.2205 89.0288 61.2205C88.7056 61.1523 88.3802 61.0973 88.0592 61.0226C93.1687 59.5957 97.0756 55.6207 101.339 52.635C100.954 53.1011 100.523 53.5364 100.176 54.0289Z" fill="#FEA423"/>
<path d="M36.6234 62.5968C36.7751 62.5968 36.9224 62.6253 37.0631 62.6847C37.2038 62.7419 37.3269 62.8254 37.4346 62.9331C37.5424 63.0409 37.6259 63.1662 37.6831 63.3069C37.7424 63.4476 37.771 63.5949 37.771 63.7488C37.771 63.9005 37.7424 64.0478 37.6831 64.1885C37.6259 64.3292 37.5424 64.4546 37.4346 64.5623C37.3269 64.67 37.2038 64.7536 37.0631 64.8129C36.9224 64.8701 36.7751 64.9009 36.6234 64.9009C36.4717 64.9009 36.3266 64.8701 36.1858 64.8129C36.0451 64.7536 35.9198 64.67 35.8121 64.5623C35.7044 64.4546 35.623 64.3292 35.5637 64.1885C35.5065 64.0478 35.4757 63.9005 35.4757 63.7488C35.4757 63.5949 35.5065 63.4476 35.5637 63.3069C35.623 63.1662 35.7044 63.0409 35.8121 62.9331C35.9198 62.8254 36.0451 62.7419 36.1858 62.6847C36.3266 62.6253 36.4717 62.5968 36.6234 62.5968Z" fill="#FEA423"/>
<path d="M65.9129 3.83969C66.0646 3.83969 66.2119 3.86827 66.3526 3.92763C66.4933 3.987 66.6165 4.06834 66.7242 4.17607C66.8319 4.286 66.9155 4.40912 66.9726 4.54983C67.032 4.69274 67.0606 4.83785 67.0606 4.99175C67.0606 5.14345 67.032 5.29075 66.9726 5.43146C66.9155 5.57437 66.8319 5.69749 66.7242 5.80522C66.6165 5.91295 66.4933 5.9965 66.3526 6.05586C66.2119 6.11302 66.0646 6.1438 65.9129 6.1438C65.7612 6.1438 65.6139 6.11302 65.4732 6.05586C65.3325 5.9965 65.2094 5.91295 65.1016 5.80522C64.9939 5.69749 64.9104 5.57437 64.8532 5.43146C64.7938 5.29075 64.7653 5.14345 64.7653 4.99175C64.7653 4.83785 64.7938 4.69274 64.8532 4.54983C64.9104 4.40912 64.9939 4.286 65.1016 4.17607C65.2094 4.06834 65.3325 3.987 65.4732 3.92763C65.6139 3.86827 65.7612 3.83969 65.9129 3.83969Z" fill="#FEA423"/>
<path d="M76.0094 8.38501L77.1879 8.57848C77.7023 8.66203 78.1157 8.83132 78.4279 9.08856C78.7379 9.34799 78.9423 9.65139 79.0435 10.0032C79.1424 10.3505 79.1622 10.7045 79.105 11.0673C79.0457 11.4674 78.8984 11.806 78.6653 12.0874C78.4301 12.3644 78.1399 12.5557 77.7947 12.6678C77.4539 12.7844 77.0955 12.813 76.7218 12.7558L75.3499 12.5359L76.0094 8.38501ZM76.7042 12.105C77.0032 12.1534 77.2758 12.138 77.5221 12.061C77.7683 11.9797 77.9706 11.8412 78.1289 11.6477C78.2872 11.4542 78.3883 11.2124 78.4367 10.9178C78.4894 10.5902 78.463 10.3088 78.3575 10.0735C78.2564 9.83387 78.1069 9.6426 77.909 9.50189C77.7155 9.36118 77.5001 9.27324 77.267 9.23806L76.5723 9.12373L76.1062 12.0083L76.7042 12.105Z" fill="#FFF7F3"/>
<path d="M85.561 11.4994L85.262 12.0798L83.3888 11.1036L82.8699 12.0974L84.5408 12.968L84.2418 13.5485L82.5709 12.6778L82.052 13.6892L84.0044 14.7005L83.7054 15.2721L81.1638 13.953L83.0986 10.2154L85.561 11.4994Z" fill="#FFF7F3"/>
<path d="M91.1268 16.2537L86.6769 17.9949L88.4885 13.5714L89.0513 14.143L87.8641 16.8781L90.5728 15.6908L91.1268 16.2537Z" fill="#FFF7F3"/>
<path d="M94.4745 21.8288L93.8941 22.119L92.9531 20.2282L91.9594 20.7295L92.7948 22.4092L92.2144 22.6994L91.3789 21.0197L90.35 21.5298L91.3262 23.4997L90.7545 23.7899L89.4794 21.222L93.2345 19.34L94.4745 21.8288Z" fill="#FFF7F3"/>
<path d="M95.7646 26.2129L92.2469 26.7933L92.5899 28.8424L91.9567 28.9479L91.5082 26.2393L95.6591 25.5533L95.7646 26.2129Z" fill="#FFF7F3"/>
<path d="M94.1227 31.5311C94.5031 31.5948 94.8373 31.7509 95.1253 31.9972C95.4177 32.2434 95.6354 32.5424 95.7761 32.8942C95.9168 33.2503 95.9542 33.6197 95.8904 34.0023C95.8244 34.3826 95.6661 34.719 95.4155 35.0136C95.1693 35.306 94.8659 35.5193 94.5097 35.6556C94.1513 35.7963 93.7842 35.8337 93.4104 35.7699C93.0279 35.704 92.6915 35.5501 92.3991 35.3038C92.1066 35.062 91.8956 34.7608 91.7659 34.398C91.6318 34.0396 91.5966 33.6703 91.6603 33.2899C91.7263 32.9074 91.878 32.571 92.1176 32.2786C92.3573 31.9906 92.6541 31.7773 93.0059 31.6366C93.362 31.5003 93.7358 31.4651 94.1227 31.5311ZM94.0084 32.2082C93.738 32.1664 93.4808 32.1906 93.2345 32.2786C92.9883 32.3709 92.7794 32.5182 92.6101 32.7183C92.4386 32.9162 92.3309 33.1492 92.2847 33.413C92.243 33.6703 92.2693 33.9187 92.3639 34.1606C92.4562 34.4002 92.6057 34.6025 92.8124 34.7674C93.0169 34.9367 93.2543 35.0422 93.5247 35.084C93.793 35.1301 94.0524 35.1059 94.2986 35.0136C94.5493 34.9191 94.7581 34.7762 94.923 34.5827C95.0923 34.3892 95.2 34.1606 95.2484 33.8967C95.288 33.6329 95.2616 33.3801 95.1693 33.1404C95.0747 32.8986 94.9252 32.6941 94.7208 32.5248C94.5141 32.3599 94.2766 32.2544 94.0084 32.2082Z" fill="#FFF7F3"/>
<path d="M93.5281 40.7755C93.3038 41.1911 93.0224 41.4615 92.6838 41.5846C92.343 41.7077 91.9847 41.6682 91.6109 41.4703C91.3998 41.3582 91.224 41.2087 91.0832 41.0218C90.9469 40.8393 90.8722 40.6216 90.8546 40.371C90.837 40.1248 90.9074 39.8543 91.0657 39.5619L91.3559 39.0255L90.0719 38.3307L90.3885 37.7415L94.0909 39.729L93.5281 40.7755ZM91.6373 39.8609C91.5493 40.0236 91.5098 40.1731 91.523 40.3094C91.5406 40.4502 91.5867 40.5667 91.6637 40.6612C91.745 40.7536 91.833 40.8283 91.9275 40.8811C92.0792 40.9624 92.2463 40.9888 92.4288 40.9602C92.6157 40.9294 92.774 40.7975 92.9037 40.5645L93.2027 40.0104L91.9275 39.3245L91.6373 39.8609Z" fill="#FFF7F3"/>
<path d="M88.5926 47.0257L88.1353 46.5596L89.6304 45.0733L88.8477 44.2818L87.5109 45.601L87.0536 45.1349L88.3904 43.8157L87.5813 43.0066L86.0159 44.5544L85.5674 44.0971L87.6077 42.0744L90.5626 45.0645L88.5926 47.0257Z" fill="#FFF7F3"/>
<path d="M81.4384 46.6178L82.951 47.4884L83.0126 47.4533L83.5578 47.1806L82.8895 45.8791L83.4787 45.5713L85.3958 49.3089L84.3493 49.8453C83.9338 50.0608 83.5468 50.1267 83.1885 50.0388C82.8257 49.9552 82.5465 49.7266 82.353 49.3528C82.2365 49.1242 82.1771 48.8867 82.1771 48.6405C82.1727 48.3943 82.2453 48.1656 82.397 47.9545L80.7524 46.9696L81.4384 46.6178ZM83.848 47.7523L83.3028 48.0249C83.0697 48.148 82.9312 48.3019 82.8895 48.491C82.8499 48.6779 82.8719 48.8538 82.9598 49.0186C83.0082 49.111 83.0785 49.1967 83.1709 49.2737C83.2588 49.3484 83.371 49.3968 83.5051 49.4144C83.6414 49.432 83.7865 49.399 83.9448 49.3177L84.5076 49.0362L83.848 47.7523Z" fill="#FFF7F3"/>
<path d="M76.0187 23.2197C75.801 23.2197 75.6185 23.2527 75.4734 23.3165C75.3327 23.3824 75.2052 23.4748 75.0953 23.5979C74.9722 23.7738 74.9106 24.1695 74.9106 24.7851V29.8946C74.9106 30.4289 74.8666 30.8928 74.7787 31.2841C74.6907 31.6711 74.572 32.0031 74.4269 32.2779C74.2862 32.5549 74.1213 32.7792 73.9344 32.9551C73.7519 33.1309 73.5607 33.2695 73.3628 33.3684C73.1627 33.4673 72.9671 33.5355 72.7736 33.5707C72.5801 33.6058 72.4042 33.6234 72.2459 33.6234C71.9865 33.6234 71.7622 33.5883 71.5688 33.5179C71.3753 33.4519 71.2126 33.3662 71.0851 33.2541C70.9554 33.1441 70.8586 33.0166 70.7949 32.8759C70.7289 32.7352 70.6981 32.5901 70.6981 32.4362C70.6981 32.3021 70.7179 32.1856 70.7597 32.0844C70.8059 31.9789 70.8652 31.8953 70.9356 31.8294C71.0059 31.759 71.0873 31.7107 71.1818 31.6799C71.2741 31.6447 71.3709 31.6271 71.472 31.6271C71.6237 31.6271 71.749 31.6667 71.8502 31.7414C71.9557 31.8118 72.0393 31.9041 72.1052 32.0141C72.1756 32.1196 72.2327 32.2339 72.2811 32.357C72.3339 32.4802 72.3822 32.5945 72.4306 32.7C72.4834 32.8056 72.5405 32.8979 72.6065 32.9726C72.6768 33.043 72.7604 33.0782 72.8615 33.0782C72.9319 33.0782 72.9978 33.0584 73.0638 33.0166C73.1341 32.977 73.1957 32.9089 73.2485 32.8144C73.3056 32.722 73.354 32.6011 73.3892 32.4538C73.4244 32.3021 73.4419 32.1174 73.4419 31.8997V24.7851C73.4419 24.4751 73.4332 24.2311 73.4156 24.0552C73.398 23.8793 73.3562 23.7386 73.2924 23.6331C73.2573 23.5803 73.2067 23.5319 73.1429 23.4836C73.077 23.4308 72.9978 23.3868 72.9055 23.3517C72.8176 23.3121 72.7208 23.2791 72.6153 23.2549C72.5098 23.2329 72.4064 23.2197 72.3075 23.2197H71.9381V22.9383H76.3968V23.2197H76.0187Z" fill="#FFF7F3"/>
<path d="M84.436 30.7125C84.436 31.1127 84.3525 31.4864 84.1898 31.8382C84.0315 32.19 83.805 32.4978 83.5126 32.7616C83.218 33.0254 82.8706 33.2343 82.4661 33.386C82.066 33.5443 81.6262 33.6234 81.147 33.6234C80.7886 33.6234 80.4632 33.5905 80.1708 33.5267C79.8828 33.4673 79.6211 33.3992 79.3881 33.3244C79.1594 33.2497 78.9572 33.1815 78.7813 33.1222C78.6054 33.0584 78.4559 33.0254 78.3328 33.0254C78.2096 33.0254 78.1085 33.0694 78.0338 33.1573C77.9568 33.2409 77.9018 33.3948 77.8667 33.6234H77.5853V30.0354H77.8667C77.9304 30.5762 78.0601 31.0357 78.2536 31.4161C78.4471 31.792 78.6801 32.0998 78.9572 32.3395C79.2386 32.5747 79.5508 32.7484 79.8982 32.8583C80.2433 32.9639 80.6017 33.0166 80.9711 33.0166C81.2921 33.0166 81.5823 32.9705 81.8417 32.8759C82.0989 32.7836 82.3166 32.6605 82.4925 32.5066C82.6728 32.3483 82.8135 32.168 82.9146 31.9613C83.0135 31.7568 83.0641 31.5392 83.0641 31.3105C83.0641 31.0533 83.0157 30.8268 82.9234 30.6334C82.8355 30.4355 82.6904 30.2442 82.4925 30.0617C82.2924 29.8815 82.0308 29.6924 81.7098 29.4989C81.3866 29.301 80.9975 29.0724 80.5401 28.8129C79.9245 28.4678 79.4167 28.1578 79.0187 27.8807C78.6252 27.6059 78.3152 27.3421 78.0865 27.0893C77.8623 26.832 77.7106 26.5748 77.6292 26.3154C77.5457 26.0581 77.5061 25.7679 77.5061 25.4447C77.5061 25.0754 77.5765 24.728 77.7172 24.3982C77.8579 24.064 78.0601 23.7716 78.324 23.5188C78.5878 23.2681 78.9066 23.0681 79.2826 22.9207C79.6563 22.769 80.0762 22.6921 80.5401 22.6921C80.8436 22.6921 81.1206 22.7251 81.3668 22.7888C81.6175 22.8482 81.8417 22.9163 82.0352 22.9911C82.2287 23.0681 82.4001 23.1362 82.554 23.1934C82.7057 23.2527 82.8377 23.2813 82.9498 23.2813C83.0663 23.2813 83.1653 23.2417 83.2488 23.1582C83.3301 23.0702 83.3983 22.9163 83.4511 22.6921H83.7413V26.3154H83.4511C83.3983 25.8229 83.2862 25.3898 83.1169 25.0138C82.952 24.64 82.7387 24.3256 82.4749 24.0728C82.2155 23.8156 81.9231 23.6243 81.5955 23.5012C81.2657 23.3737 80.9183 23.3077 80.5489 23.3077C80.2961 23.3077 80.0587 23.3517 79.8366 23.4396C79.6123 23.5232 79.4189 23.6375 79.2562 23.7826C79.0913 23.9299 78.9594 24.1036 78.8604 24.3015C78.7659 24.4949 78.7197 24.6972 78.7197 24.9083C78.7197 25.1149 78.7571 25.304 78.834 25.4799C78.9088 25.6514 79.0451 25.8273 79.2386 26.0076C79.4365 26.19 79.7047 26.3857 80.0389 26.5968C80.3731 26.8078 80.7974 27.0519 81.314 27.3267C81.8109 27.5971 82.2221 27.8346 82.5453 28.039C82.8728 28.2391 83.1279 28.4062 83.3104 28.5403C83.6665 28.8041 83.9435 29.1273 84.137 29.5077C84.3349 29.8837 84.436 30.286 84.436 30.7125Z" fill="#FFF7F3"/>
<path d="M36.2931 15.0069C36.2931 15.2774 36.2513 15.5302 36.17 15.7633C36.0864 15.9985 35.9589 16.203 35.783 16.3789C35.6115 16.5547 35.3917 16.6955 35.1234 16.801C34.8596 16.9021 34.543 16.9549 34.1736 16.9593L32.4676 16.9769V16.8713H32.6083C32.6896 16.8713 32.7578 16.8581 32.8105 16.8274C32.8677 16.7988 32.9117 16.7614 32.9424 16.713C32.9644 16.6779 32.9798 16.6251 32.9864 16.5547C32.9908 16.4844 32.9952 16.3964 32.9952 16.2909L32.9688 13.8197C32.9688 13.5867 32.9446 13.4372 32.8985 13.3712C32.8567 13.3316 32.8105 13.3008 32.7578 13.2833C32.705 13.2657 32.6434 13.2569 32.5731 13.2569H32.4324V13.1601L33.9802 13.1425C34.1912 13.1425 34.3803 13.1491 34.5518 13.1601C34.7211 13.1733 34.8728 13.1997 35.0091 13.2393C35.1498 13.2745 35.2729 13.3184 35.3785 13.3712C35.4884 13.424 35.5917 13.4921 35.6863 13.5735C35.7742 13.6504 35.8556 13.7406 35.9325 13.8461C36.0073 13.9516 36.0688 14.066 36.1172 14.1891C36.17 14.3078 36.2095 14.4353 36.2403 14.576C36.2755 14.7167 36.2931 14.8618 36.2931 15.0069ZM35.6511 15.0333C35.6445 14.7695 35.6027 14.5364 35.528 14.3298C35.451 14.1253 35.3433 13.9494 35.2026 13.8021C35.0663 13.657 34.9036 13.5449 34.7101 13.4679C34.521 13.3932 34.3166 13.3536 34.0945 13.3536C34.0066 13.3536 33.9142 13.3602 33.8219 13.3712C33.7273 13.3844 33.624 13.4064 33.5141 13.4416L33.5493 16.6955C33.6658 16.713 33.7735 16.7306 33.8746 16.7482C33.9736 16.7614 34.0637 16.7658 34.1473 16.7658C34.3627 16.7658 34.5628 16.7284 34.7453 16.6515C34.9322 16.5701 35.0927 16.4558 35.229 16.3085C35.3631 16.1568 35.4664 15.9743 35.5368 15.7633C35.6115 15.5478 35.6511 15.3038 35.6511 15.0333Z" fill="#FFF7F3"/>
<path d="M40.374 17.9479L40.4092 17.8512C40.5367 17.8907 40.6334 17.8995 40.6994 17.8775C40.7632 17.86 40.8071 17.8248 40.8313 17.772C40.8533 17.7192 40.8665 17.6511 40.8665 17.5697C40.8709 17.4928 40.8687 17.4136 40.8577 17.3323L40.8049 16.7343L39.4066 16.2858L38.9757 16.787C38.9054 16.8574 38.8526 16.9234 38.8174 16.9805C38.7822 17.0399 38.7646 17.0948 38.7646 17.1476C38.769 17.1938 38.7998 17.24 38.8526 17.2883C38.9054 17.3345 38.9955 17.3851 39.1252 17.4378L39.09 17.5346L37.9468 17.1652L37.982 17.0685C38.0567 17.0861 38.1271 17.0904 38.193 17.0773C38.2568 17.0663 38.3183 17.0421 38.3777 17.0069C38.4415 16.9673 38.5052 16.9168 38.5712 16.8574C38.6415 16.7936 38.7119 16.7211 38.7822 16.6375L41.0336 14.052L41.1215 14.0784L41.4117 17.517C41.4227 17.6577 41.4381 17.7742 41.4557 17.8687C41.4733 17.9611 41.4953 18.0314 41.5261 18.0798C41.5612 18.1326 41.6008 18.1765 41.6492 18.2117C41.702 18.2513 41.7635 18.2865 41.8339 18.3173L41.7987 18.414L40.374 17.9479ZM40.6554 14.8523L39.5473 16.1187L40.7961 16.5232L40.6554 14.8523Z" fill="#FFF7F3"/>
<path d="M48.4652 18.4171C48.4058 18.3709 48.3443 18.3379 48.2805 18.3203C48.2212 18.3027 48.1618 18.3093 48.1046 18.3379C48.0387 18.3621 47.9419 18.4588 47.8144 18.6281L45.906 21.2225L45.8181 21.1609L45.6158 17.1771L44.2175 19.0678C44.0768 19.2547 44.0109 19.3932 44.0241 19.4812C44.0285 19.5801 44.0944 19.6747 44.2175 19.7626L44.3231 19.8417L44.2615 19.9297L43.1886 19.1382L43.2502 19.0503L43.3557 19.1294C43.426 19.1822 43.4898 19.213 43.5492 19.2261C43.6063 19.2437 43.6657 19.2437 43.7251 19.2261C43.7602 19.2086 43.7998 19.1756 43.8482 19.1294C43.9009 19.081 43.9581 19.0151 44.0241 18.9271L45.607 16.7901C45.6004 16.7681 45.5982 16.733 45.5982 16.6846C45.6026 16.6318 45.6004 16.5747 45.5894 16.5087C45.5763 16.4449 45.5499 16.3768 45.5103 16.3064C45.4685 16.2317 45.4048 16.1569 45.3168 16.0866L45.3784 16.0074L46.1259 16.5615L46.3106 20.2463L47.6121 18.4786C47.7573 18.2852 47.8232 18.1532 47.8056 18.0829C47.799 17.973 47.7353 17.8718 47.6121 17.7839L47.5066 17.7135L47.5682 17.6344L48.6323 18.4171L48.5707 18.4962L48.4652 18.4171Z" fill="#FFF7F3"/>
<path d="M47.4906 22.7952L47.5697 22.7336L47.6577 22.8391C47.7039 22.8963 47.7544 22.9403 47.8072 22.971C47.8644 22.9996 47.9215 23.015 47.9743 23.015C48.0446 23.015 48.17 22.9403 48.3524 22.7952L50.296 21.2649C50.3422 21.2254 50.3839 21.1902 50.4191 21.1594C50.4587 21.1308 50.4917 21.1044 50.5158 21.0803C50.5444 21.0583 50.5642 21.0363 50.5774 21.0187C50.5884 20.9967 50.5906 20.9747 50.5862 20.9571C50.6038 20.9 50.6038 20.8384 50.5862 20.7725C50.5686 20.7087 50.5378 20.6493 50.4983 20.5966L50.4103 20.491L50.4807 20.4295L51.492 21.7047L51.4217 21.7662L51.3425 21.6695C51.248 21.5464 51.1402 21.4848 51.0171 21.4848C50.9819 21.4914 50.9314 21.5112 50.8676 21.5464C50.8017 21.5771 50.7269 21.6255 50.639 21.6959L48.6954 23.2261C48.6009 23.3008 48.5305 23.3668 48.4844 23.4196C48.436 23.4723 48.4074 23.5163 48.3964 23.5515C48.3898 23.5625 48.3876 23.5822 48.3876 23.613C48.392 23.6482 48.4008 23.6834 48.414 23.7186C48.425 23.7537 48.436 23.7845 48.4492 23.8153C48.4602 23.8505 48.4778 23.8813 48.5019 23.912L48.5811 24.0088L48.5019 24.0703L47.4906 22.7952Z" fill="#FFF7F3"/>
<path d="M50.7255 28.2445L49.5206 25.5535L49.6174 25.5095L49.6701 25.6238C49.6745 25.6414 49.6833 25.6612 49.6965 25.6854C49.7075 25.7074 49.7229 25.7316 49.7405 25.7557C49.7581 25.7777 49.7779 25.7997 49.802 25.8173C49.824 25.8393 49.8482 25.8569 49.8724 25.8701C49.8944 25.8745 49.9186 25.8811 49.9428 25.8877C49.9647 25.892 49.9955 25.892 50.0307 25.8877C50.0659 25.8811 50.1098 25.8657 50.1626 25.8437C50.2198 25.8261 50.2857 25.8019 50.3561 25.7733L52.625 24.7532C52.735 24.707 52.8229 24.663 52.8889 24.6213C52.9526 24.5751 52.99 24.5399 53.0032 24.5157C53.0428 24.4168 53.0318 24.2937 52.968 24.1464L52.9152 24.032L53.0032 23.9969L54.208 26.6879L53.4693 27.0573L53.4165 26.9518C53.4627 26.9166 53.5067 26.8836 53.5484 26.855C53.5946 26.8242 53.6364 26.7935 53.6716 26.7583C53.7067 26.7231 53.7331 26.6813 53.7507 26.6352C53.7727 26.5934 53.7881 26.5428 53.7947 26.4857C53.8057 26.4329 53.8035 26.3669 53.7859 26.2922C53.7683 26.2152 53.7353 26.1273 53.6891 26.0284L53.2582 25.061L51.8775 25.6766L52.2205 26.4505C52.2733 26.567 52.3216 26.655 52.37 26.7143C52.4228 26.7781 52.4777 26.8155 52.5371 26.8286C52.5942 26.8396 52.6558 26.8396 52.7218 26.8286C52.7921 26.822 52.8757 26.8045 52.9768 26.7759L53.0208 26.8726L51.8072 27.4091L51.7632 27.3123C51.8445 27.2596 51.9149 27.209 51.9742 27.1628C52.0314 27.1211 52.0732 27.0749 52.0974 27.0221C52.1259 26.9694 52.1347 26.9034 52.1237 26.8286C52.1106 26.7517 52.0798 26.655 52.027 26.5384L51.684 25.7645L50.3825 26.345C50.3341 26.3669 50.2967 26.3933 50.2681 26.4241C50.2374 26.4593 50.2242 26.4989 50.2242 26.5472C50.2242 26.6 50.2418 26.6703 50.2769 26.7583L50.5408 27.3387C50.5803 27.4377 50.6221 27.519 50.6639 27.585C50.7035 27.6487 50.7452 27.7081 50.787 27.7608C50.8332 27.8136 50.8838 27.851 50.9365 27.8752C50.9937 27.9038 51.0552 27.9279 51.1212 27.9455C51.1916 27.9675 51.2707 27.9851 51.3586 27.9983C51.451 28.0159 51.5565 28.0269 51.6752 28.0335L51.728 28.139L50.7255 28.2445Z" fill="#FFF7F3"/>
<path d="M51.7049 33.0987L51.318 30.1526L51.4235 30.1351C51.4279 30.2164 51.4411 30.2934 51.4587 30.3637C51.4807 30.4341 51.5115 30.489 51.5466 30.5308C51.5862 30.577 51.639 30.6099 51.7049 30.6275C51.7753 30.6451 51.8588 30.6451 51.96 30.6275L54.5983 30.2846C54.7082 30.2714 54.794 30.2494 54.8533 30.2142C54.9105 30.179 54.9522 30.1351 54.9764 30.0823C54.9984 30.0295 55.0072 29.968 55.0028 29.8976C55.0028 29.8273 54.9984 29.7525 54.994 29.669L55.0996 29.6514L55.3106 31.2959L55.2051 31.3135C55.1919 31.2256 55.1787 31.1486 55.1611 31.0848C55.1435 31.0189 55.1171 30.9639 55.082 30.9178C55.0468 30.876 54.9962 30.8474 54.9325 30.8298C54.8665 30.8122 54.7786 30.8078 54.6686 30.821L52.171 31.1464C52.0589 31.164 51.9732 31.1838 51.916 31.208C51.8632 31.2365 51.8215 31.2717 51.7929 31.3135C51.7621 31.3597 51.7489 31.4102 51.7489 31.463C51.7489 31.5202 51.7533 31.5949 51.7665 31.6829L51.8193 32.061C51.8303 32.1775 51.8413 32.2765 51.8544 32.36C51.872 32.448 51.8896 32.5205 51.9072 32.5799C51.9292 32.637 51.9556 32.6876 51.9864 32.7294C52.0149 32.7756 52.0501 32.8173 52.0919 32.8525C52.1381 32.8921 52.182 32.9273 52.2238 32.958C52.2634 32.9932 52.3118 33.0218 52.3645 33.046C52.4173 33.0746 52.4744 33.0987 52.5404 33.1163C52.6042 33.1383 52.6833 33.1625 52.7779 33.1867V33.301L51.7049 33.0987Z" fill="#FFF7F3"/>
<path d="M11.3751 40.1971C11.5642 40.1334 11.7489 40.096 11.9292 40.0828C12.1117 40.0652 12.2876 40.0718 12.4568 40.1004C12.6217 40.1312 12.78 40.1795 12.9317 40.2499C13.079 40.3158 13.2176 40.3994 13.3451 40.5049C13.4682 40.6105 13.5781 40.7336 13.6705 40.8743C13.7584 41.015 13.8332 41.1689 13.8903 41.3316C13.9739 41.5778 14.0046 41.8241 13.9871 42.0703C13.9651 42.3166 13.8969 42.5496 13.7848 42.7651C13.6683 42.9761 13.51 43.1674 13.3099 43.3367C13.112 43.506 12.868 43.6379 12.58 43.7324C12.3117 43.8204 12.0435 43.8578 11.7797 43.8468C11.5159 43.8336 11.274 43.772 11.0498 43.6621C10.8277 43.5566 10.6342 43.4093 10.4693 43.2224C10.3 43.0355 10.1703 42.809 10.0824 42.5452C10.0296 42.3935 10.001 42.2352 9.99443 42.0703C9.99004 41.9076 10.0076 41.7493 10.0472 41.5954C10.0824 41.4437 10.1395 41.2964 10.2143 41.1557C10.2846 41.0106 10.3792 40.8743 10.4957 40.7512C10.6078 40.628 10.7398 40.5203 10.8915 40.4258C11.0388 40.3334 11.1993 40.2565 11.3751 40.1971ZM11.6566 40.7688C11.3751 40.8567 11.1355 40.9622 10.9354 41.0854C10.7376 41.2041 10.5793 41.3382 10.4605 41.4899C10.344 41.6438 10.2715 41.8065 10.2407 41.9824C10.2121 42.1539 10.2297 42.3385 10.2934 42.5364C10.3528 42.7189 10.4473 42.8684 10.5749 42.9849C10.698 43.1037 10.8519 43.1872 11.0322 43.24C11.2081 43.2883 11.4103 43.3015 11.639 43.2839C11.8632 43.2663 12.1029 43.218 12.3601 43.1344C12.6195 43.0465 12.8438 42.9454 13.0373 42.8266C13.2307 42.7035 13.389 42.5694 13.5122 42.4221C13.6309 42.277 13.7056 42.1143 13.7408 41.9384C13.776 41.7625 13.7672 41.5844 13.7144 41.4019C13.6573 41.2327 13.5715 41.0854 13.4594 40.9622C13.3429 40.8347 13.2 40.7402 13.0285 40.6808C12.8526 40.6237 12.6547 40.6017 12.4305 40.6193C12.2018 40.6324 11.9446 40.6808 11.6566 40.7688Z" fill="#FFF7F3"/>
<path d="M11.933 35.0664C12.0803 35.062 12.2188 35.0884 12.3464 35.1456C12.4761 35.1984 12.5904 35.2775 12.6893 35.383C12.7905 35.4842 12.8696 35.6095 12.9268 35.7612C12.984 35.9085 13.0169 36.069 13.0235 36.2449C13.0235 36.3746 13.0147 36.4911 12.9971 36.5967C12.9796 36.7022 12.9598 36.7989 12.9356 36.8869C12.907 36.9704 12.8806 37.043 12.8564 37.1067C12.8345 37.1727 12.8213 37.2276 12.8213 37.2738C12.8213 37.3156 12.8388 37.3508 12.874 37.3794C12.9092 37.4101 12.9686 37.4299 13.0499 37.4409V37.5464L11.7396 37.5728V37.4673C11.9396 37.4387 12.1067 37.3881 12.2408 37.3178C12.3771 37.243 12.4849 37.1551 12.5662 37.054C12.6498 36.9484 12.7113 36.8319 12.7509 36.7022C12.7861 36.5747 12.8037 36.4428 12.8037 36.3064C12.7993 36.1899 12.7773 36.0866 12.7421 35.9986C12.7069 35.9063 12.6608 35.8272 12.6014 35.7612C12.5442 35.6908 12.4761 35.6425 12.3991 35.6117C12.3244 35.5765 12.2452 35.5589 12.1617 35.5589C12.0693 35.5589 11.9858 35.5765 11.9154 35.6117C11.8407 35.6469 11.7725 35.704 11.7132 35.7788C11.6494 35.8491 11.5813 35.9459 11.5109 36.069C11.4405 36.1877 11.3592 36.3306 11.2647 36.4999C11.1415 36.7352 11.0338 36.9264 10.9393 37.0715C10.8403 37.2189 10.7458 37.3332 10.6579 37.4145C10.5655 37.4981 10.471 37.5552 10.3764 37.5904C10.2841 37.6212 10.1786 37.6344 10.0598 37.6344C9.92573 37.641 9.79601 37.6212 9.67289 37.5728C9.54977 37.5267 9.44204 37.4563 9.3475 37.3618C9.25516 37.2694 9.17821 37.1551 9.11885 37.0188C9.06169 36.8781 9.02871 36.7242 9.02211 36.5527C9.02211 36.4428 9.0353 36.3416 9.05729 36.2537C9.07488 36.1613 9.09906 36.0778 9.12764 36.0074C9.15183 35.9371 9.17601 35.8755 9.198 35.8228C9.21559 35.7656 9.22438 35.715 9.22438 35.6733C9.22438 35.6271 9.21119 35.5897 9.18041 35.5589C9.14523 35.5303 9.08367 35.5062 8.99573 35.4886V35.383L10.3237 35.3567V35.4622C10.1478 35.4798 9.99388 35.5215 9.85757 35.5853C9.71686 35.6513 9.60254 35.7326 9.51459 35.8315C9.42665 35.9261 9.36289 36.0338 9.32112 36.1569C9.27495 36.2801 9.25076 36.412 9.25076 36.5527C9.25736 36.6406 9.27715 36.7264 9.31232 36.8077C9.3431 36.8847 9.38707 36.955 9.44424 37.0188C9.497 37.0781 9.55856 37.1243 9.62892 37.1595C9.69927 37.1903 9.77622 37.2035 9.85757 37.2035C9.92793 37.2035 9.99608 37.1903 10.0598 37.1595C10.1258 37.1243 10.1896 37.0715 10.2533 37.0012C10.3193 36.9308 10.3896 36.8341 10.4644 36.711C10.5347 36.5835 10.6183 36.4252 10.7106 36.2361C10.8118 36.0492 10.8953 35.8975 10.9657 35.7788C11.036 35.6557 11.0976 35.5633 11.1503 35.4974C11.2383 35.3567 11.3526 35.2511 11.4933 35.1808C11.6296 35.106 11.7747 35.0664 11.933 35.0664Z" fill="#FFF7F3"/>
<path d="M13.1334 29.539C13.2741 29.6753 13.3885 29.8116 13.4764 29.9523C13.5644 30.0886 13.6281 30.2293 13.6699 30.3744C13.7095 30.5217 13.7315 30.6734 13.7315 30.8317C13.7315 30.9856 13.7073 31.1483 13.6611 31.3242C13.6083 31.5177 13.5336 31.6892 13.4412 31.8343C13.3533 31.9816 13.25 32.1113 13.1334 32.2212C13.0169 32.3333 12.8872 32.4235 12.7465 32.4938C12.6014 32.5642 12.4475 32.617 12.2892 32.6521C12.1309 32.6829 11.9682 32.6939 11.7967 32.6873C11.6274 32.6829 11.4603 32.6565 11.2954 32.6082C11.0272 32.5378 10.7854 32.4235 10.5743 32.2652C10.3588 32.1069 10.1829 31.9222 10.0466 31.7112C9.91252 31.4957 9.82457 31.2582 9.7828 30.9988C9.73663 30.735 9.75202 30.4624 9.82677 30.1809C9.86195 30.0402 9.91032 29.9237 9.96748 29.8292C10.0268 29.7302 10.0818 29.6489 10.1346 29.5829C10.1829 29.5126 10.2291 29.4576 10.2753 29.4158C10.3171 29.3697 10.3412 29.3323 10.3456 29.3015C10.3632 29.2487 10.3588 29.2004 10.328 29.152C10.2929 29.0992 10.2357 29.0509 10.1522 29.0025L10.1785 28.9058L11.4537 29.152L11.4361 29.2487C11.2317 29.2619 11.0492 29.2883 10.8909 29.3279C10.7282 29.3697 10.5919 29.4312 10.4863 29.5126C10.3764 29.5895 10.2819 29.6863 10.2049 29.8028C10.1302 29.9215 10.0708 30.049 10.029 30.1897C9.97628 30.3788 9.96528 30.5635 9.99387 30.7438C10.018 30.9263 10.0884 31.0955 10.2049 31.2538C10.3237 31.4077 10.4841 31.5485 10.6886 31.676C10.8953 31.7991 11.1525 31.9024 11.4625 31.9838C11.7263 32.0607 11.9704 32.0937 12.1924 32.0805C12.4167 32.0695 12.6146 32.0234 12.7905 31.9398C12.962 31.8585 13.1027 31.7419 13.2214 31.588C13.3379 31.4363 13.4259 31.2582 13.4852 31.0516C13.5138 30.9285 13.5314 30.8141 13.538 30.7086C13.5424 30.5987 13.5314 30.4865 13.5028 30.3744C13.472 30.2645 13.4193 30.1458 13.3445 30.0226C13.2741 29.8995 13.173 29.7566 13.0455 29.5917L13.1334 29.539Z" fill="#FFF7F3"/>
<path d="M16.0301 26.1273L15.9422 26.0657C16.0169 25.9558 16.0565 25.8679 16.0565 25.8019C16.0565 25.7315 16.0323 25.6766 15.9861 25.6348C15.9378 25.5952 15.8806 25.5645 15.8102 25.5469C15.7399 25.5249 15.6607 25.5073 15.5728 25.4941L14.9836 25.3886L14.1745 26.6198L14.5439 27.165C14.5922 27.2486 14.6362 27.3145 14.6846 27.3673C14.7307 27.4201 14.7769 27.4508 14.8253 27.4552C14.878 27.4618 14.933 27.4464 14.9924 27.4113C15.0495 27.3717 15.1199 27.2947 15.2034 27.1826L15.2914 27.2442L14.6318 28.2555L14.5439 28.194C14.579 28.1236 14.601 28.0576 14.6054 27.9917C14.6164 27.9213 14.6142 27.8554 14.5966 27.7894C14.5746 27.7191 14.5417 27.6465 14.4999 27.5696C14.4603 27.4882 14.4075 27.4025 14.3416 27.3145L12.4508 24.4476L12.5036 24.3684L15.8982 25.0104C16.0323 25.028 16.1466 25.0434 16.2412 25.0544C16.3335 25.0676 16.4105 25.0676 16.4698 25.0544C16.527 25.0368 16.5797 25.0082 16.6281 24.9664C16.6743 24.9269 16.7248 24.8741 16.7776 24.8081L16.8656 24.8697L16.0301 26.1273ZM13.128 25.0192L14.0514 26.4263L14.7725 25.3358L13.128 25.0192Z" fill="#FFF7F3"/>
<path d="M20.1119 22.0156L17.9836 21.4176C17.9419 21.4528 17.9067 21.4858 17.8781 21.5143C17.8495 21.5385 17.8231 21.5583 17.7989 21.5759C17.7814 21.5935 17.7616 21.6111 17.7374 21.6287C17.7154 21.6463 17.6912 21.6617 17.667 21.6726L18.3618 22.5433C18.5135 22.7324 18.6256 22.8291 18.696 22.8335C18.8059 22.8643 18.9202 22.8313 19.0389 22.7368L19.1533 22.6488L19.2148 22.728L17.9309 23.7481L17.8693 23.669L17.9836 23.581C18.1111 23.4755 18.1683 23.3612 18.1507 23.238C18.1375 23.1743 18.065 23.0578 17.9309 22.8863L16.3919 20.9515C16.2468 20.7712 16.1346 20.6657 16.0577 20.6349C16.0005 20.6349 15.9433 20.6437 15.8906 20.6613C15.8334 20.6745 15.7763 20.7031 15.7235 20.7492L15.6092 20.8372L15.5564 20.7668L16.6381 19.905C16.803 19.7775 16.9459 19.6675 17.069 19.5796C17.1921 19.4917 17.3043 19.4301 17.4032 19.3949C17.4977 19.3597 17.5945 19.34 17.6934 19.3334C17.7946 19.3224 17.8891 19.329 17.9836 19.3509C18.0826 19.3751 18.1727 19.4125 18.2563 19.4653C18.3442 19.518 18.4189 19.5862 18.4849 19.6675C18.5597 19.7621 18.6168 19.8588 18.652 19.9578C18.6872 20.0589 18.6982 20.1666 18.6872 20.2831C18.6806 20.4019 18.652 20.5206 18.5992 20.6437C18.5509 20.7668 18.4783 20.8943 18.3794 21.0219L19.6633 21.4C19.8041 21.4352 19.9272 21.4616 20.0327 21.4792C20.1426 21.4924 20.2438 21.4946 20.3317 21.488C20.4197 21.4836 20.501 21.466 20.578 21.4352C20.6593 21.4 20.7472 21.3539 20.8418 21.2945L20.9033 21.3736L20.1119 22.0156ZM18.0188 20.0985C17.9419 20.0061 17.8605 19.9314 17.7726 19.8786C17.6802 19.8258 17.5835 19.7951 17.4824 19.7819C17.3834 19.7709 17.2845 19.7819 17.1833 19.817C17.0778 19.8478 16.9789 19.9006 16.8843 19.9753C16.8448 20.0061 16.7964 20.0501 16.7436 20.1073C16.6865 20.16 16.6271 20.2194 16.5677 20.2831L17.5527 21.5319L17.6758 21.4352C17.8231 21.3187 17.9353 21.2021 18.0188 21.0834C18.1002 20.9603 18.1529 20.8438 18.1771 20.7317C18.2057 20.6151 18.2035 20.503 18.1683 20.3975C18.1375 20.2919 18.0892 20.193 18.0188 20.0985Z" fill="#FFF7F3"/>
</svg>
