<svg width="113" height="113" viewBox="0 0 113 113" fill="none" xmlns="http://www.w3.org/2000/svg">
<path d="M96.4502 16.5498C85.7829 5.87659 71.5902 0 56.5 0C41.4098 0 27.2171 5.87659 16.5498 16.5498C5.87659 27.2171 0 41.4098 0 56.5C0 71.5902 5.87659 85.7799 16.5498 96.4502C27.2171 107.123 41.4098 113 56.5 113C71.5902 113 85.7829 107.123 96.4502 96.4502C107.123 85.7799 113 71.5902 113 56.5C113 41.4098 107.123 27.2171 96.4502 16.5498ZM95.9411 95.9411C85.4062 106.476 71.3989 112.279 56.5 112.279C41.6011 112.279 27.5938 106.476 17.0589 95.9411C6.52398 85.4062 0.720964 71.3989 0.720964 56.5C0.720964 41.6011 6.52398 27.5938 17.0589 17.0589C27.5938 6.52398 41.6011 0.720964 56.5 0.720964C71.3989 0.720964 85.4062 6.52398 95.9411 17.0589C106.476 27.5938 112.279 41.6011 112.279 56.5C112.279 71.3989 106.476 85.4062 95.9411 95.9411ZM33.7794 39.912C36.0864 39.912 38.267 39.1616 40.0767 37.7402C40.0826 37.7343 40.0856 37.7314 40.0915 37.7255C40.1003 37.7167 40.1091 37.7079 40.1209 37.699C40.1268 37.6902 40.1356 37.6814 40.1415 37.6726C40.1474 37.6637 40.1562 37.652 40.1621 37.6431C40.168 37.6343 40.1739 37.6225 40.1768 37.6108C40.1827 37.6019 40.1886 37.5931 40.1915 37.5813C40.1974 37.5696 40.2003 37.5607 40.2003 37.546C40.2033 37.5342 40.2062 37.5254 40.2092 37.5136C40.2121 37.5019 40.2121 37.4901 40.2121 37.4783C40.2121 37.4666 40.2151 37.4548 40.2121 37.443C40.2121 37.4313 40.2121 37.4165 40.2092 37.4048C40.2092 37.3989 40.2092 37.3901 40.2062 37.3871C40.2062 37.3812 40.2033 37.3783 40.2033 37.3753C40.2003 37.3636 40.1974 37.3489 40.1915 37.3371C40.1886 37.3283 40.1856 37.3165 40.1797 37.3077C40.1739 37.2959 40.1709 37.2871 40.1621 37.2753C40.1562 37.2635 40.1503 37.2547 40.1415 37.2429C40.1385 37.24 40.1356 37.2341 40.1356 37.2311C40.1297 37.2282 40.1238 37.2223 40.1209 37.2164C40.1091 37.2076 40.1032 37.1988 40.0944 37.1899C40.0856 37.1811 40.0767 37.1752 40.0679 37.1664C40.0561 37.1605 40.0473 37.1517 40.0355 37.1458C40.0267 37.1399 40.0149 37.137 40.0061 37.1311C39.9944 37.1252 39.9826 37.1223 39.9708 37.1164C39.962 37.1134 39.9502 37.1105 39.9414 37.1076C39.9296 37.1046 39.9149 37.0987 39.9031 37.0987C39.8943 37.0958 39.8855 37.0958 39.8708 37.0958C39.859 37.0958 39.8472 37.0928 39.8325 37.0958C39.8207 37.0958 39.809 37.0987 39.7942 37.0987C39.7884 37.0987 39.7795 37.0987 39.7736 37.1017C39.2292 37.2105 38.6672 37.2665 38.0992 37.2665C33.3939 37.2665 29.5624 33.4351 29.5624 28.7297C29.5624 24.7776 32.2403 21.3699 36.0747 20.4371C36.0835 20.4371 36.0864 20.4342 36.0953 20.4312C36.107 20.4253 36.1217 20.4253 36.1335 20.4165C36.1423 20.4136 36.1541 20.4077 36.1629 20.4018C36.1718 20.3989 36.1835 20.39 36.1924 20.3841C36.2041 20.3753 36.213 20.3694 36.2218 20.3606C36.2336 20.3547 36.2395 20.3459 36.2453 20.34C36.2542 20.3341 36.263 20.3223 36.2718 20.3135C36.2777 20.3047 36.2836 20.2929 36.2924 20.2841C36.2983 20.2753 36.3042 20.2664 36.3101 20.2547C36.313 20.2429 36.3189 20.2341 36.3248 20.2223C36.3277 20.2105 36.3336 20.1987 36.3366 20.187C36.3366 20.1782 36.3395 20.1752 36.3424 20.1664C36.3424 20.1634 36.3424 20.1605 36.3454 20.1546C36.3483 20.1428 36.3513 20.1281 36.3513 20.1164C36.3513 20.1046 36.3513 20.0958 36.3513 20.084C36.3513 20.0693 36.3513 20.0604 36.3513 20.0487C36.3483 20.034 36.3483 20.0222 36.3454 20.0104C36.3454 20.0075 36.3454 20.0045 36.3424 20.0016C36.3395 19.9928 36.3366 19.9898 36.3366 19.981C36.3307 19.9692 36.3277 19.9574 36.3248 19.9427C36.3189 19.9339 36.313 19.9221 36.3101 19.9133C36.3042 19.9015 36.2983 19.8927 36.2924 19.8839C36.2836 19.8721 36.2777 19.8633 36.2718 19.8545C36.263 19.8456 36.2571 19.8368 36.2483 19.8309C36.2395 19.8221 36.2336 19.8133 36.2218 19.8074C36.213 19.7985 36.2071 19.7927 36.1953 19.7868C36.1865 19.7809 36.1747 19.775 36.1659 19.7691C36.1541 19.7632 36.1453 19.7573 36.1365 19.7544C36.1247 19.7485 36.11 19.7426 36.0982 19.7426C36.0894 19.7397 36.0864 19.7367 36.0776 19.7338C36.0717 19.7309 36.0629 19.7309 36.057 19.7279C35.3154 19.5572 34.5503 19.4719 33.7764 19.4719C28.147 19.4748 23.5623 24.0596 23.5623 29.6919C23.5623 35.3243 28.147 39.912 33.7794 39.912ZM33.7794 20.1958C34.0059 20.1958 34.2325 20.2046 34.4562 20.2223C31.0927 21.6583 28.8503 24.9659 28.8503 28.7297C28.8503 33.8353 33.0025 37.9874 38.1081 37.9874C38.214 37.9874 38.317 37.9815 38.42 37.9786C37.0104 38.7731 35.4302 39.188 33.7794 39.188C28.5443 39.188 24.2832 34.9299 24.2832 29.6919C24.2832 24.4569 28.5443 20.1958 33.7794 20.1958ZM20.8756 55.1876C19.0982 54.752 18.8186 54.4695 18.3802 52.6921C18.3419 52.5303 18.1948 52.4185 18.03 52.4185C17.8622 52.4185 17.718 52.5303 17.6798 52.6921C17.2443 54.4695 16.9618 54.7491 15.1814 55.1876C15.0225 55.2258 14.9078 55.3729 14.9078 55.5377C14.9078 55.7055 15.0225 55.8497 15.1814 55.8879C16.9618 56.3234 17.2413 56.6059 17.6798 58.3833C17.718 58.5422 17.8622 58.657 18.03 58.657C18.1948 58.657 18.339 58.5422 18.3802 58.3833C18.8157 56.603 19.0982 56.3234 20.8756 55.8879C21.0374 55.8497 21.1492 55.7055 21.1492 55.5377C21.1492 55.3729 21.0374 55.2287 20.8756 55.1876ZM18.0329 57.0591C17.718 56.2705 17.2972 55.8526 16.5115 55.5377C17.2972 55.2229 17.718 54.805 18.0329 54.0193C18.3478 54.805 18.7657 55.2229 19.5514 55.5377C18.7657 55.8526 18.3478 56.2705 18.0329 57.0591ZM50.0496 16.9412C51.8299 17.3767 52.1065 17.6562 52.545 19.4366C52.5833 19.5984 52.7304 19.7103 52.8952 19.7103C53.0629 19.7103 53.2071 19.5984 53.2483 19.4366C53.6809 17.6562 53.9634 17.3767 55.7437 16.9412C55.9026 16.9029 56.0174 16.7558 56.0174 16.588C56.0174 16.4233 55.9026 16.2791 55.7437 16.2379C53.9634 15.8023 53.6838 15.5228 53.2483 13.7424C53.2071 13.5806 53.0629 13.4688 52.8952 13.4688C52.7304 13.4688 52.5862 13.5806 52.545 13.7424C52.1095 15.5228 51.8299 15.7994 50.0496 16.2379C49.8877 16.2761 49.7759 16.4233 49.7759 16.588C49.7759 16.7558 49.8877 16.9 50.0496 16.9412ZM52.8922 15.0696C53.2071 15.8553 53.6279 16.2732 54.4136 16.588C53.6279 16.9029 53.2071 17.3237 52.8922 18.1094C52.5774 17.3237 52.1595 16.9029 51.3738 16.588C52.1595 16.2732 52.5774 15.8553 52.8922 15.0696ZM82.0251 40.0208C83.8054 40.4564 84.0849 40.7389 84.5205 42.5163C84.5587 42.6781 84.7029 42.7899 84.8707 42.7899C85.0354 42.7899 85.1796 42.6781 85.2208 42.5163C85.6564 40.7389 85.9389 40.4593 87.7133 40.0208C87.8752 39.9826 87.9899 39.8354 87.9899 39.6707C87.9899 39.5029 87.8752 39.3587 87.7133 39.3205C85.9359 38.8849 85.6564 38.6024 85.2208 36.8221C85.1826 36.6632 85.0354 36.5484 84.8707 36.5484C84.7029 36.5484 84.5587 36.6632 84.5205 36.8221C84.0849 38.6024 83.8025 38.882 82.0251 39.3205C81.8661 39.3587 81.7514 39.5029 81.7514 39.6707C81.7514 39.8354 81.8661 39.9796 82.0251 40.0208ZM84.8707 38.1493C85.1855 38.9379 85.6034 39.3558 86.3891 39.6707C85.6034 39.9855 85.1855 40.4034 84.8707 41.1891C84.5558 40.4034 84.1379 39.9855 83.3493 39.6707C84.1379 39.3558 84.5558 38.9379 84.8707 38.1493ZM13.1039 42.7958C14.0985 42.7958 14.9078 41.9866 14.9078 40.9919C14.9078 39.9973 14.0985 39.188 13.1039 39.188C12.1092 39.188 11.3 39.9973 11.3 40.9919C11.3 41.9866 12.1092 42.7958 13.1039 42.7958ZM13.1039 39.912C13.6983 39.912 14.1839 40.3975 14.1839 40.9919C14.1839 41.5893 13.6983 42.0748 13.1039 42.0748C12.5065 42.0748 12.021 41.5893 12.021 40.9919C12.021 40.3975 12.5065 39.912 13.1039 39.912ZM73.2087 28.8503C72.2141 28.8503 71.4078 29.6596 71.4078 30.6542C71.4078 31.6488 72.2141 32.4581 73.2087 32.4581C74.2063 32.4581 75.0126 31.6488 75.0126 30.6542C75.0126 29.6596 74.2063 28.8503 73.2087 28.8503ZM73.2087 31.7371C72.6143 31.7371 72.1287 31.2516 72.1287 30.6542C72.1287 30.0568 72.6143 29.5713 73.2087 29.5713C73.8061 29.5713 74.2916 30.0568 74.2916 30.6542C74.2916 31.2516 73.8061 31.7371 73.2087 31.7371ZM100.258 56.6207C100.258 55.626 99.4488 54.8168 98.4542 54.8168C97.4596 54.8168 96.6503 55.626 96.6503 56.6207C96.6503 57.6153 97.4596 58.4245 98.4542 58.4245C99.4488 58.4245 100.258 57.6153 100.258 56.6207ZM97.3713 56.6207C97.3713 56.0233 97.8568 55.5377 98.4542 55.5377C99.0516 55.5377 99.5371 56.0233 99.5371 56.6207C99.5371 57.2151 99.0516 57.7036 98.4542 57.7036C97.8568 57.7036 97.3713 57.2151 97.3713 56.6207ZM41.2332 12.021C42.2279 12.021 43.0371 11.2147 43.0371 10.2171C43.0371 9.22245 42.2279 8.41615 41.2332 8.41615C40.2386 8.41615 39.4293 9.22245 39.4293 10.2171C39.4293 11.2147 40.2386 12.021 41.2332 12.021ZM41.2332 9.13711C41.8306 9.13711 42.3161 9.62266 42.3161 10.2171C42.3161 10.8145 41.8306 11.3 41.2332 11.3C40.6359 11.3 40.1503 10.8145 40.1503 10.2171C40.1503 9.62266 40.6359 9.13711 41.2332 9.13711ZM56.4029 60.3461C56.397 60.3461 56.3882 60.3461 56.3793 60.3461C56.191 60.3461 56.0321 60.199 56.0203 60.0107L55.6142 53.8015L54.1135 53.3631C53.9752 53.3219 53.8751 53.2042 53.8574 53.0629L53.3837 49.3051C53.3601 49.1079 53.4984 48.9255 53.6956 48.899C53.8928 48.8754 54.0752 49.0167 54.1017 49.2139L54.546 52.7363L56.0586 53.1836C56.2057 53.2248 56.3087 53.3542 56.3176 53.5043L56.7413 59.9636C56.7531 60.1607 56.6001 60.3314 56.4029 60.3461ZM49.0255 65.6724C49.0491 65.7195 49.0608 65.7754 49.0608 65.8284V72.9439C49.0608 73.144 48.899 73.3058 48.7018 73.3058C48.5017 73.3058 48.3399 73.144 48.3399 72.9439V65.9108L47.6395 64.4689C47.5542 64.2894 47.6277 64.0745 47.8072 63.9892C47.9897 63.9039 48.2016 63.9774 48.2898 64.1569L49.0255 65.6724ZM64.0598 72.5024C63.9186 72.3612 63.9186 72.1317 64.0598 71.9934C64.2011 71.8521 64.4306 71.8521 64.5689 71.9934L66.1315 73.5559L66.4934 73.9149C66.5317 73.9561 66.5582 73.9973 66.5758 74.0474L69.2096 81.2747C69.2772 81.463 69.1801 81.669 68.9918 81.7367C68.9506 81.7514 68.9094 81.7602 68.8711 81.7602C68.724 81.7602 68.5828 81.669 68.5298 81.5219L66.2051 75.1421C66.2051 75.1421 66.2051 75.1421 66.2051 75.1391L65.9255 74.3681L64.0598 72.5024ZM84.8942 70.934C84.8236 70.7486 84.9148 70.5397 85.1031 70.4661C85.2885 70.3955 85.4974 70.4867 85.571 70.675L86.7716 73.8355C86.8423 74.0209 86.751 74.2298 86.5627 74.3004C86.5215 74.3181 86.4774 74.324 86.4362 74.324C86.292 74.324 86.1537 74.2357 86.0978 74.0915L84.8942 70.934ZM87.6633 76.9901C87.5721 76.8106 87.6427 76.5958 87.8192 76.5045C87.9929 76.4133 88.2136 76.481 88.3048 76.6576L89.3347 78.6468L93.1779 79.868C93.2662 79.8975 93.3427 79.9593 93.3868 80.0446L94.3815 81.9162L97.1447 83.005C97.3301 83.0756 97.4213 83.2845 97.3477 83.4729C97.2918 83.6141 97.1565 83.7024 97.0123 83.7024C96.9681 83.7024 96.924 83.6936 96.8798 83.6789L93.993 82.54C93.9136 82.5106 93.8489 82.4488 93.8106 82.3752L92.8218 80.5154L88.9757 79.2942C88.8845 79.2648 88.808 79.2001 88.7639 79.1177L87.6633 76.9901ZM29.9921 71.0488L26.352 75.0214C26.2843 75.095 26.1872 75.1391 26.0871 75.1391H24.5128L21.2316 77.1313C21.1757 77.1666 21.108 77.1843 21.0433 77.1843C20.9227 77.1843 20.8049 77.1225 20.7373 77.0107C20.6343 76.84 20.6872 76.6193 20.8579 76.5163L24.2214 74.4682C24.2773 74.4358 24.3421 74.4152 24.4098 74.4152H25.9282L29.4595 70.5632C29.5948 70.4161 29.8214 70.4072 29.9685 70.5397C30.1157 70.6721 30.1245 70.9016 29.9921 71.0488ZM48.693 76.8223V79.047C48.693 79.2471 48.5311 79.409 48.334 79.409C48.1339 79.409 47.972 79.2471 47.972 79.047V76.8223C47.972 76.6222 48.1339 76.4633 48.334 76.4633C48.5311 76.4633 48.693 76.6222 48.693 76.8223ZM31.2368 75.8248L30.5071 77.6698C30.4511 77.8111 30.3158 77.8964 30.1716 77.8964C30.1274 77.8964 30.0833 77.8905 30.0392 77.8729C29.8538 77.8023 29.7626 77.5904 29.8361 77.405L30.5659 75.5599C30.6365 75.3745 30.8455 75.2833 31.0338 75.3598C31.2192 75.4275 31.3104 75.6394 31.2368 75.8248ZM57.221 65.0339V66.6435C57.221 66.8436 57.0591 67.0055 56.862 67.0055C56.6618 67.0055 56.5 66.8436 56.5 66.6435V65.0339C56.5 64.8367 56.6618 64.6748 56.862 64.6748C57.0591 64.6748 57.221 64.8367 57.221 65.0339ZM19.007 23.9389C19.007 23.7388 19.1688 23.5799 19.3689 23.5799H21.7584C21.9585 23.5799 22.1203 23.7388 22.1203 23.9389C22.1203 24.139 21.9585 24.3009 21.7584 24.3009H19.3689C19.1688 24.3009 19.007 24.1361 19.007 23.9389ZM44.7203 29.6919C44.7203 29.4918 44.8792 29.3329 45.0793 29.3329H51.0913C51.2914 29.3329 51.4503 29.4918 51.4503 29.6919C51.4503 29.892 51.2914 30.0539 51.0913 30.0539H45.0793C44.8792 30.0539 44.7203 29.892 44.7203 29.6919ZM89.1994 29.2123C89.1994 29.0122 89.3612 28.8503 89.5613 28.8503H97.798C97.9981 28.8503 98.1599 29.0122 98.1599 29.2123C98.1599 29.4124 97.9981 29.5713 97.798 29.5713H89.5613C89.3612 29.5713 89.1994 29.4124 89.1994 29.2123ZM97.0123 42.0748H103.745C103.945 42.0748 104.107 42.2367 104.107 42.4339C104.107 42.634 103.945 42.7958 103.745 42.7958H97.0123C96.8122 42.7958 96.6503 42.634 96.6503 42.4339C96.6503 42.2367 96.8122 42.0748 97.0123 42.0748ZM73.0616 22.9266H64.3129C64.1157 22.9266 63.9539 22.7648 63.9539 22.5676C63.9539 22.3675 64.1157 22.2057 64.3129 22.2057H73.0616C73.2587 22.2057 73.4206 22.3675 73.4206 22.5676C73.4206 22.7648 73.2587 22.9266 73.0616 22.9266ZM71.8874 18.3919C71.8874 18.1918 72.0493 18.0329 72.2464 18.0329H75.6865C75.8866 18.0329 76.0455 18.1918 76.0455 18.3919C76.0455 18.592 75.8866 18.7539 75.6865 18.7539H72.2464C72.0493 18.7539 71.8874 18.592 71.8874 18.3919ZM59.3927 8.77516C59.3927 8.57505 59.5545 8.41615 59.7517 8.41615H65.8755C66.0756 8.41615 66.2374 8.57505 66.2374 8.77516C66.2374 8.97526 66.0756 9.13711 65.8755 9.13711H59.7517C59.5545 9.13711 59.3927 8.97526 59.3927 8.77516ZM46.3006 44.2436C46.3006 44.4437 46.1387 44.6026 45.9416 44.6026H41.5157C41.3186 44.6026 41.1567 44.4437 41.1567 44.2436C41.1567 44.0435 41.3186 43.8817 41.5157 43.8817H45.9416C46.1387 43.8817 46.3006 44.0435 46.3006 44.2436ZM34.6298 48.8696C34.6298 49.0697 34.4679 49.2286 34.2678 49.2286H24.4098C24.2097 49.2286 24.0508 49.0697 24.0508 48.8696C24.0508 48.6695 24.2097 48.5076 24.4098 48.5076H34.2678C34.4679 48.5076 34.6298 48.6695 34.6298 48.8696ZM20.9256 66.1168C20.9256 66.3169 20.7638 66.4787 20.5636 66.4787H10.0994C9.89927 66.4787 9.74036 66.3169 9.74036 66.1168C9.74036 65.9167 9.89927 65.7578 10.0994 65.7578H20.5636C20.7638 65.7578 20.9256 65.9167 20.9256 66.1168ZM76.9518 48.0897C76.9518 47.8896 77.1107 47.7307 77.3108 47.7307H80.6773C80.8774 47.7307 81.0392 47.8896 81.0392 48.0897C81.0392 48.2898 80.8774 48.4517 80.6773 48.4517H77.3108C77.1107 48.4517 76.9518 48.2898 76.9518 48.0897ZM92.8601 58.0626C92.8601 58.2627 92.6983 58.4245 92.4982 58.4245H84.8707C84.6705 58.4245 84.5087 58.2627 84.5087 58.0626C84.5087 57.8625 84.6705 57.7036 84.8707 57.7036H92.4982C92.6983 57.7036 92.8601 57.8625 92.8601 58.0626ZM108.815 65.7607C109.354 62.7121 109.634 59.6104 109.634 56.5C109.634 42.3073 104.107 28.9651 94.0725 18.9275C93.7576 18.6156 93.4428 18.3066 93.122 18.0005C83.8407 9.16359 71.908 4.05211 59.1514 3.4312C58.2715 3.38706 57.3858 3.36646 56.5 3.36646C55.6142 3.36646 54.7285 3.38706 53.8516 3.4312C41.0949 4.05211 29.1593 9.16359 19.8809 18.0005C19.5602 18.3066 19.2424 18.6126 18.9304 18.9275C18.6185 19.2424 18.3095 19.5572 18.0035 19.878C9.16359 29.1593 4.05505 41.092 3.43414 53.8486C3.38706 54.7285 3.36646 55.6142 3.36646 56.5C3.36646 57.0944 3.37823 57.6859 3.39589 58.2774C3.37823 58.3215 3.36646 58.3716 3.36646 58.4245C3.36646 58.4863 3.38411 58.5422 3.4106 58.5952C3.68721 65.8107 5.38516 72.7585 8.48089 79.2648C16.5498 96.2648 33.1555 107.809 51.8505 109.43C51.9094 109.475 51.9859 109.504 52.0653 109.504C52.1271 109.504 52.183 109.486 52.236 109.46C53.6456 109.575 55.0787 109.631 56.5029 109.631C57.6271 109.631 58.7453 109.595 59.8576 109.525C77.6787 108.406 93.737 98.4395 102.648 82.8549C102.915 82.387 103.177 81.9162 103.43 81.4365C105.996 76.6222 107.797 71.4048 108.774 66.0226C108.81 65.9667 108.827 65.9049 108.827 65.8343C108.824 65.8107 108.821 65.7842 108.815 65.7607ZM19.4395 19.4395C29.3359 9.54026 42.4986 4.08742 56.5 4.08742C66.4699 4.08742 76.0131 6.85357 84.2586 12.021H79.7003C79.5002 12.021 79.3413 12.1828 79.3413 12.3829C79.3413 12.5801 79.5002 12.7419 79.7003 12.7419H85.3768C88.2901 14.6723 91.0327 16.9088 93.5605 19.4395C101.156 27.0317 106.126 36.5455 108.033 46.8832H104.705C104.504 46.8832 104.345 47.0451 104.345 47.2422C104.345 47.4423 104.504 47.6042 104.705 47.6042H108.165C108.66 50.5145 108.913 53.4867 108.913 56.5C108.913 57.5564 108.88 58.6158 108.815 59.6693C108.698 61.6174 108.465 63.5596 108.133 65.4782H103.11C102.909 65.4782 102.748 65.6371 102.748 65.8372C102.748 66.0373 102.909 66.1992 103.11 66.1992H108.003C107.047 71.2871 105.346 76.225 102.951 80.8009L95.332 77.2549L86.7304 64.3541C86.7275 64.3511 86.7275 64.3511 86.7275 64.3511C86.7246 64.3453 86.7216 64.3394 86.7157 64.3364C86.7157 64.3335 86.7098 64.3305 86.7069 64.3247C86.701 64.3188 86.6951 64.3129 86.6892 64.3099C86.6775 64.2982 86.6657 64.2864 86.651 64.2717C86.648 64.2717 86.6422 64.2658 86.6392 64.2629C86.6333 64.2599 86.6274 64.254 86.6216 64.2511C86.5951 64.2364 86.5686 64.2217 86.5421 64.2128C86.5421 64.2128 86.5421 64.2128 86.5392 64.2128L80.6273 62.3207L76.1367 57.0238L73.5706 51.7799L73.0763 50.7705C72.7055 50.0143 71.9845 49.4905 71.1517 49.3728L67.4322 48.8401L66.1168 46.2005L61.3025 36.569C61.3025 36.569 61.3025 36.5661 61.2996 36.5661L61.1966 36.363C61.0612 36.0864 60.8582 35.851 60.611 35.6686L58.2774 33.9706C58.2686 33.9647 58.2597 33.9589 58.2539 33.953C58.2509 33.95 58.245 33.95 58.2421 33.9471C58.2391 33.9471 58.2303 33.9412 58.2274 33.9383C58.2156 33.9324 58.2009 33.9265 58.1891 33.9235C58.1832 33.9206 58.1744 33.9177 58.1685 33.9147C58.1626 33.9118 58.1597 33.9118 58.1567 33.9118C58.1479 33.9088 58.1361 33.9059 58.1214 33.9059C58.1097 33.9029 58.0979 33.9029 58.0832 33.9C58.0773 33.9 58.0714 33.8971 58.0655 33.8971C58.0655 33.8971 58.0655 33.8971 58.0626 33.8971C58.0567 33.8971 58.0479 33.9 58.042 33.9C58.0361 33.9 58.0302 33.9 58.0273 33.9C58.0243 33.9 58.0184 33.9029 58.0184 33.9029C58.0126 33.9029 58.0067 33.9029 58.0037 33.9029C58.0008 33.9029 58.0008 33.9029 57.9978 33.9059C57.9949 33.9059 57.992 33.9059 57.992 33.9059C57.9831 33.9059 57.9772 33.9088 57.9743 33.9088C57.9625 33.9118 57.9508 33.9177 57.939 33.9206C57.9272 33.9235 57.9184 33.9294 57.9125 33.9324C57.9066 33.9324 57.9037 33.9353 57.9007 33.9353C57.889 33.9412 57.8831 33.9471 57.8742 33.95C57.8625 33.9559 57.8536 33.9618 57.8478 33.9706C57.8389 33.9736 57.833 33.9795 57.8272 33.9853C57.8242 33.9883 57.8213 33.9883 57.8213 33.9912C57.8183 33.9971 57.8124 34.0001 57.8066 34.0059C57.8066 34.0089 57.8036 34.0118 57.8007 34.0118C57.7977 34.0148 57.7948 34.0177 57.7948 34.0207C57.7918 34.0236 57.7948 34.0207 57.7948 34.0236C57.7948 34.0236 57.7948 34.0236 57.7918 34.0236C57.7918 34.0265 57.7889 34.0265 57.7889 34.0295C57.783 34.0383 57.7771 34.0442 57.7712 34.0501C57.7683 34.056 57.7654 34.0618 57.7624 34.0648L57.7595 34.0677L53.9222 40.3063C53.8251 40.4534 51.4886 43.9699 50.9971 45.4413C50.6234 46.5595 46.5036 51.8593 44.8645 53.9104L34.4061 58.0655C34.3414 58.092 34.2826 58.1479 34.2384 58.2038C34.2355 58.2097 34.2296 58.2156 34.2266 58.2215C34.2237 58.2244 34.2208 58.2274 34.2208 58.2303L29.9156 65.49L8.96643 78.5821C6.05315 72.3347 4.44055 65.6813 4.14628 58.7777H8.12482C8.32492 58.7777 8.48383 58.6158 8.48383 58.4157C8.48383 58.2156 8.32492 58.0567 8.12482 58.0567H4.11096C4.09625 57.5358 4.08742 57.015 4.08742 56.4941C4.08742 46.4418 6.89477 36.828 12.1416 28.5384H18.0329C18.2301 28.5384 18.3919 28.3765 18.3919 28.1764C18.3919 27.9793 18.2301 27.8174 18.0329 27.8174H12.6095C14.5723 24.8365 16.8529 22.0262 19.4395 19.4395ZM80.7567 63.1152H63.639L63.8391 59.9901H77.714L80.1476 62.8651C80.1917 62.9151 80.2506 62.9534 80.3153 62.974L80.7567 63.1152ZM60.0018 36.1159C60.2784 36.316 60.5021 36.5837 60.658 36.8868L62.2324 40.0326H58.9719L58.4981 35.0212L59.9871 36.1011L60.0018 36.1159ZM64.154 43.8817H59.3309L59.0366 40.7565H62.5885L64.154 43.8817ZM64.513 44.6026L66.0756 47.7307H59.6987L59.4015 44.6026H64.513ZM74.5535 55.423H64.1334L64.1481 55.1993C64.1481 55.1934 64.1481 55.1846 64.1481 55.1787C64.1481 55.167 64.1452 55.1522 64.1422 55.1405C64.1393 55.1258 64.1393 55.114 64.1393 55.1022C64.1363 55.0875 64.1275 55.0728 64.1246 55.0551C64.1187 55.0434 64.1157 55.0345 64.1128 55.0228C64.104 55.0051 64.0922 54.9904 64.0834 54.9757C64.0775 54.9669 64.0745 54.9551 64.0657 54.9492C64.048 54.9286 64.0275 54.9051 64.0039 54.8903L60.5462 52.2978H73.0233L74.5535 55.423ZM63.8862 59.2691L64.0892 56.1439H74.9066L75.5099 57.3799C75.5217 57.4064 75.5393 57.4328 75.5599 57.4534L77.096 59.2691H63.8862ZM60.0607 51.5768L59.7664 48.4517H66.4375L66.876 49.3286C66.8878 49.3522 66.9054 49.3757 66.9231 49.3963C66.926 49.3992 66.9319 49.4051 66.9378 49.411C66.9525 49.4257 66.9643 49.4404 66.979 49.4493C66.9878 49.4552 66.9937 49.461 67.0025 49.464C67.0172 49.4758 67.032 49.4846 67.0496 49.4905C67.0584 49.4964 67.0643 49.4993 67.0732 49.5022C67.0967 49.5081 67.1173 49.517 67.1379 49.517C67.1408 49.517 67.1467 49.5199 67.1497 49.5199L71.0517 50.079C71.652 50.1614 72.167 50.5381 72.4318 51.0795L72.6702 51.5739H60.0607V51.5768ZM63.5213 64.9367L63.589 63.8391H83.0079L84.3056 64.254L85.6681 64.6896L84.3616 65.6989L82.7284 66.9643H65.6136L63.8656 65.6783C63.6331 65.5076 63.5036 65.2281 63.5213 64.9367ZM78.0995 74.6565H73.2617L71.2989 71.5314H79.8298L78.0995 74.6565ZM80.2271 70.8104H70.828C70.8133 70.7898 70.7986 70.7692 70.778 70.7545L66.5964 67.6852H81.9544L80.2271 70.8104ZM73.7148 75.3775H77.6993L75.8336 78.7528L73.7148 75.3775ZM34.1354 65.7578L33.1349 64.1687L32.3109 62.8592L32.4492 62.6297H42.1543L44.2554 65.7548H34.1354V65.7578ZM32.873 61.9087L34.7269 58.7835H43.0253L41.8836 61.9087H32.873ZM36.3748 58.0626L44.4643 54.8491L43.2872 58.0626H36.3748ZM44.7086 66.4787L44.4555 69.6039H35.3861L35.4449 69.1801C35.542 68.4709 35.3861 67.747 35.0035 67.1408L34.5857 66.4787H44.7086ZM44.1436 73.45H34.8534L35.286 70.3248H44.3966L44.1436 73.45ZM34.8976 75.401L34.6416 74.9596L34.7534 74.171H44.0906L43.8375 77.2961H35.9952L34.8976 75.401ZM43.7757 78.0171L43.5256 81.1422H39.2734L38.0728 80.433C37.8079 80.2741 37.5813 80.0476 37.4254 79.7768L36.4072 78.0171H43.7757ZM40.4887 81.8661H43.4667L43.3284 83.5494L40.4887 81.8661ZM56.5 108.913C55.1434 108.913 53.7751 108.857 52.4273 108.754V100.176C53.9575 101.762 55.3141 101.93 55.3788 101.938C55.3935 101.941 55.4053 101.941 55.42 101.941C55.5995 101.941 55.7555 101.806 55.7761 101.621C55.7996 101.423 55.6584 101.247 55.4612 101.22C55.4465 101.22 53.9693 101.011 52.4273 99.078V97.0505C53.9575 98.6366 55.3141 98.8044 55.3788 98.8132C55.3935 98.8161 55.4053 98.8161 55.42 98.8161C55.5995 98.8161 55.7555 98.6808 55.7761 98.4954C55.7996 98.2982 55.6584 98.1187 55.4612 98.0952C55.4465 98.0922 53.9693 97.8862 52.4273 95.95V93.9254C53.9575 95.5115 55.3141 95.6792 55.3788 95.688C55.3935 95.688 55.4053 95.688 55.42 95.688C55.5995 95.688 55.7555 95.5556 55.7761 95.3702C55.7996 95.1731 55.6584 94.9936 55.4612 94.97C55.4465 94.9671 53.9693 94.7611 52.4273 92.8248V90.8002C53.9575 92.3863 55.3141 92.5541 55.3788 92.5599C55.3935 92.5629 55.4053 92.5629 55.42 92.5629C55.5995 92.5629 55.7555 92.4305 55.7761 92.2451C55.7996 92.0479 55.6584 91.8684 55.4612 91.8449C55.4465 91.8419 53.9693 91.6359 52.4273 89.6996V87.6721C53.9575 89.2612 55.3141 89.4289 55.3788 89.4348C55.3935 89.4377 55.4053 89.4377 55.42 89.4377C55.5995 89.4377 55.7555 89.3024 55.7761 89.1199C55.7996 88.9228 55.6584 88.7433 55.4612 88.7197C55.4465 88.7168 53.9693 88.5108 52.4273 86.5745V84.547C53.9575 86.136 55.3141 86.3037 55.3788 86.3096C55.3935 86.3126 55.4053 86.3126 55.42 86.3126C55.5995 86.3126 55.7555 86.1772 55.7761 85.9918C55.7996 85.7947 55.6584 85.6181 55.4612 85.5946C55.4465 85.5916 53.9693 85.3856 52.4273 83.4493V81.4218C53.9575 83.0079 55.3141 83.1786 55.3788 83.1845C55.3935 83.1874 55.4053 83.1874 55.42 83.1874C55.5995 83.1874 55.7555 83.0521 55.7761 82.8667C55.7996 82.6695 55.6584 82.4929 55.4612 82.4694C55.4465 82.4665 53.9192 82.2575 52.3537 80.23C52.286 80.1447 52.186 80.0976 52.0859 80.0917C52.0771 80.0917 52.0712 80.0917 52.0653 80.0917C52.0536 80.0917 52.0447 80.0917 52.0389 80.0917C51.9359 80.0976 51.8387 80.1447 51.7711 80.23C50.2114 82.2458 48.6871 82.4635 48.6636 82.4694C48.4664 82.49 48.3222 82.6666 48.3458 82.8637C48.3634 83.0491 48.5194 83.1874 48.7018 83.1874C48.7136 83.1874 48.7283 83.1874 48.743 83.1845C48.8078 83.1786 50.1761 83.0079 51.7093 81.4071V83.4287C50.1732 85.3739 48.6901 85.5887 48.6636 85.5916C48.4664 85.6122 48.3252 85.7917 48.3458 85.9889C48.3664 86.1743 48.5223 86.3096 48.7048 86.3096C48.7165 86.3096 48.7313 86.3096 48.746 86.3067C48.8107 86.3008 50.1791 86.1301 51.7122 84.5293V86.5539C50.1732 88.499 48.693 88.7109 48.6665 88.7138C48.4693 88.7374 48.3281 88.9139 48.3487 89.1111C48.3693 89.2965 48.5253 89.4348 48.7077 89.4348C48.7195 89.4348 48.7342 89.4348 48.7489 89.4318C48.8136 89.423 50.182 89.2523 51.7152 87.6515V89.6761C50.1761 91.6212 48.6959 91.836 48.6695 91.839C48.4723 91.8596 48.331 92.0361 48.3516 92.2333C48.3722 92.4187 48.5282 92.557 48.7107 92.557C48.7224 92.557 48.7371 92.557 48.7519 92.5541C48.8166 92.5482 50.1849 92.3775 51.7181 90.7737V92.7983C50.1791 94.7434 48.6989 94.9583 48.6724 94.9612C48.4752 94.9818 48.334 95.1613 48.3546 95.3585C48.3722 95.5439 48.5311 95.6792 48.7136 95.6792C48.7254 95.6792 48.7401 95.6792 48.7548 95.6763C48.8195 95.6704 50.1849 95.4997 51.721 93.8989V95.9235C50.182 97.8686 48.7018 98.0805 48.6753 98.0834C48.4782 98.107 48.334 98.2835 48.3575 98.4807C48.3752 98.6661 48.5311 98.8014 48.7136 98.8014C48.7283 98.8014 48.7401 98.8014 48.7548 98.8014C48.8195 98.7926 50.1879 98.6219 51.724 97.0211V99.0457C50.1849 100.991 48.7018 101.206 48.6753 101.209C48.4782 101.229 48.3369 101.406 48.3605 101.603C48.3781 101.788 48.5341 101.927 48.7165 101.927C48.7283 101.927 48.743 101.927 48.7577 101.924C48.8225 101.918 50.1908 101.747 51.724 100.143V108.677C48.6106 108.395 45.5531 107.833 42.5898 107.015V99.9197C44.1171 101.506 45.4766 101.674 45.5414 101.679C45.5561 101.682 45.5678 101.682 45.5826 101.682C45.7621 101.682 45.9151 101.55 45.9386 101.365C45.9622 101.167 45.8209 100.988 45.6237 100.964C45.609 100.961 44.1289 100.755 42.5898 98.8191V96.7916C44.1171 98.3806 45.4766 98.5484 45.5414 98.5542C45.5561 98.5572 45.5678 98.5572 45.5826 98.5572C45.7621 98.5572 45.9151 98.4218 45.9386 98.2364C45.9622 98.0393 45.8209 97.8627 45.6237 97.8392C45.609 97.8362 44.1289 97.6302 42.5898 95.6939V93.6664C44.1171 95.2555 45.4766 95.4232 45.5414 95.4291C45.5561 95.432 45.5678 95.432 45.5826 95.432C45.7621 95.432 45.9151 95.2967 45.9386 95.1113C45.9622 94.9141 45.8209 94.7375 45.6237 94.714C45.609 94.7111 44.1289 94.5051 42.5898 92.5688V90.5413C44.1171 92.1274 45.4766 92.298 45.5414 92.3039C45.5561 92.3069 45.5678 92.3069 45.5826 92.3069C45.7621 92.3069 45.9151 92.1715 45.9386 91.9861C45.9622 91.789 45.8209 91.6124 45.6237 91.5889C45.609 91.5859 44.0818 91.377 42.5133 89.3494C42.4486 89.2641 42.3485 89.217 42.2485 89.2111C42.2396 89.2111 42.2337 89.2111 42.2249 89.2111C42.2161 89.2111 42.2073 89.2111 42.1984 89.2111C42.0984 89.217 42.0013 89.2641 41.9336 89.3494C40.371 91.3652 38.8496 91.583 38.8232 91.5889C38.626 91.6095 38.4847 91.786 38.5053 91.9832C38.5259 92.1686 38.6819 92.3069 38.8643 92.3069C38.8761 92.3069 38.8908 92.3069 38.9055 92.3039C38.9703 92.298 40.3386 92.1274 41.8718 90.5236V92.5482C40.3328 94.4933 38.8526 94.7081 38.8261 94.7111C38.6289 94.7317 38.4877 94.9112 38.5083 95.1083C38.5289 95.2937 38.6848 95.4291 38.8673 95.4291C38.8791 95.4291 38.8938 95.4291 38.9085 95.4261C38.9732 95.4203 40.3416 95.2496 41.8747 93.6488V95.6733C40.3357 97.6185 38.8555 97.8303 38.829 97.8333C38.6319 97.8568 38.4906 98.0334 38.5112 98.2305C38.5318 98.4159 38.6878 98.5542 38.8702 98.5542C38.882 98.5542 38.8967 98.5542 38.9114 98.5513C38.9762 98.5425 40.3445 98.3718 41.8777 96.771V98.7955C40.3386 100.741 38.8585 100.955 38.832 100.958C38.6348 100.979 38.4936 101.156 38.5142 101.353C38.5318 101.538 38.6878 101.676 38.8732 101.676C38.8849 101.676 38.8997 101.676 38.9114 101.674C38.9791 101.668 40.3445 101.497 41.8806 99.8932V106.8C38.8026 105.899 35.8245 104.722 32.9848 103.289V93.6605C34.5121 95.2466 35.8716 95.4144 35.9364 95.4232C35.9511 95.4261 35.9628 95.4261 35.9776 95.4261C36.1571 95.4261 36.3101 95.2908 36.3336 95.1054C36.3572 94.9082 36.2159 94.7287 36.0187 94.7052C36.004 94.7022 34.5239 94.4962 32.9848 92.5599V90.5354C34.5121 92.1215 35.8716 92.2892 35.9364 92.298C35.9511 92.298 35.9628 92.298 35.9776 92.298C36.1571 92.298 36.3101 92.1656 36.3336 91.9802C36.3572 91.7831 36.2159 91.6036 36.0187 91.58C36.004 91.5771 34.5239 91.3711 32.9848 89.4348V87.4102C34.5121 88.9963 35.8716 89.1641 35.9364 89.1699C35.9511 89.1729 35.9628 89.1729 35.9776 89.1729C36.1571 89.1729 36.3101 89.0405 36.3336 88.8551C36.3572 88.6579 36.2159 88.4784 36.0187 88.4549C36.004 88.4519 34.5239 88.2459 32.9848 86.3096V84.2821C34.5121 85.8712 35.8716 86.0389 35.9364 86.0448C35.9511 86.0477 35.9628 86.0477 35.9776 86.0477C36.1571 86.0477 36.3101 85.9124 36.3336 85.7299C36.3572 85.5328 36.2159 85.3533 36.0187 85.3297C36.004 85.3268 34.4768 85.1178 32.9083 83.0903C32.8436 83.005 32.7435 82.9579 32.6435 82.9549C32.6346 82.9549 32.6287 82.9549 32.6199 82.9549C32.6111 82.9549 32.6052 82.9549 32.5934 82.9549C32.4934 82.9579 32.3963 83.005 32.3286 83.0903C30.766 85.109 29.2446 85.3238 29.2182 85.3297C29.021 85.3503 28.8797 85.5298 28.9003 85.727C28.9209 85.9124 29.0769 86.0477 29.2593 86.0477C29.2711 86.0477 29.2858 86.0477 29.3005 86.0448C29.3653 86.0389 30.7336 85.8682 32.2668 84.2674V86.292C30.7278 88.2371 29.2476 88.449 29.2211 88.4519C29.0239 88.4755 28.8827 88.652 28.9033 88.8492C28.9239 89.0346 29.0798 89.1699 29.2623 89.1699C29.2741 89.1699 29.2888 89.1699 29.3035 89.1699C29.3682 89.1611 30.7366 88.9904 32.2697 87.3896V89.4142C30.7307 91.3593 29.2505 91.5741 29.224 91.5771C29.0269 91.5977 28.8856 91.7742 28.9062 91.9714C28.9268 92.1568 29.0828 92.2951 29.2652 92.2951C29.277 92.2951 29.2917 92.2951 29.3064 92.2922C29.3712 92.2863 30.7395 92.1156 32.2727 90.5118V92.5364C30.7336 94.4815 29.2535 94.6964 29.227 94.6993C29.0298 94.7199 28.8886 94.8994 28.9092 95.0966C28.9268 95.282 29.0828 95.4173 29.2682 95.4173C29.2799 95.4173 29.2947 95.4173 29.3064 95.4144C29.3741 95.4085 30.7395 95.2378 32.2756 93.637V102.909C29.0269 101.206 25.9635 99.1693 23.1385 96.8357V90.5236C24.6687 92.1127 26.0253 92.2804 26.0901 92.2863C26.1048 92.2892 26.1165 92.2892 26.1313 92.2892C26.3108 92.2892 26.4667 92.1539 26.4873 91.9685C26.5109 91.7742 26.3696 91.5947 26.1724 91.5712C26.1577 91.5683 24.6805 91.3623 23.1385 89.426V87.3984C24.6687 88.9875 26.0253 89.1552 26.0901 89.1611C26.1048 89.1641 26.1165 89.1641 26.1313 89.1641C26.3108 89.1641 26.4667 89.0287 26.4873 88.8433C26.5109 88.6461 26.3696 88.4696 26.1724 88.446C26.1577 88.4431 24.6805 88.2371 23.1385 86.3008V84.2733C24.6687 85.8594 26.0253 86.0301 26.0901 86.036C26.1048 86.0389 26.1165 86.0389 26.1313 86.0389C26.3108 86.0389 26.4667 85.9035 26.4873 85.7181C26.5109 85.521 26.3696 85.3444 26.1724 85.3209C26.1577 85.3179 24.6805 85.112 23.1385 83.1757V81.1481C24.6687 82.7342 26.0253 82.9049 26.0901 82.9108C26.1048 82.9137 26.1165 82.9137 26.1313 82.9137C26.3108 82.9137 26.4667 82.7784 26.4873 82.593C26.5109 82.3958 26.3696 82.2193 26.1724 82.1928C26.1577 82.1928 24.6305 81.9839 23.0649 79.9563C22.9973 79.868 22.8972 79.8239 22.7972 79.818C22.7913 79.818 22.7824 79.818 22.7766 79.818C22.7648 79.818 22.756 79.818 22.7501 79.818C22.6471 79.8239 22.55 79.868 22.4823 79.9563C20.9227 81.9721 19.4013 82.1898 19.3748 82.1928C19.1776 82.2163 19.0334 82.3929 19.057 82.59C19.0746 82.7754 19.2306 82.9137 19.413 82.9137C19.4278 82.9137 19.4395 82.9137 19.4542 82.9108C19.519 82.9049 20.8873 82.7342 22.4234 81.1305V83.1551C20.8844 85.1002 19.4013 85.315 19.3748 85.3179C19.1776 85.3385 19.0364 85.518 19.0599 85.7152C19.0776 85.9006 19.2335 86.036 19.416 86.036C19.4278 86.036 19.4425 86.036 19.4572 86.033C19.5219 86.0271 20.8903 85.8565 22.4234 84.2556V86.2802C20.8844 88.2253 19.4042 88.4372 19.3777 88.4402C19.1806 88.4608 19.0393 88.6403 19.0599 88.8374C19.0805 89.0228 19.2365 89.1582 19.4189 89.1582C19.4307 89.1582 19.4454 89.1582 19.4601 89.1582C19.5249 89.1493 20.8932 88.9787 22.4264 87.3778V89.4024C20.8873 91.3475 19.4072 91.5624 19.3807 91.5624C19.1835 91.5859 19.0423 91.7625 19.0629 91.9596C19.0835 92.145 19.2394 92.2833 19.4219 92.2833C19.4336 92.2833 19.4484 92.2833 19.4631 92.2804C19.5278 92.2716 20.8962 92.1009 22.4293 90.5001V96.2177C17.0118 91.5741 12.5124 85.8123 9.32544 79.203L30.4217 66.0197C30.4688 65.9873 30.51 65.9461 30.5424 65.8961L31.9549 63.5125L34.4532 67.4792C34.7446 67.9412 34.8652 68.4945 34.7858 69.0359L33.9677 74.939C33.9559 75.0185 33.9706 75.0979 34.0118 75.1685L35.5303 77.7934L35.5332 77.7964C35.5332 77.7993 35.5361 77.8023 35.5361 77.8023L36.8604 80.0917C37.0781 80.4713 37.3901 80.7862 37.7638 81.0069L39.0439 81.7661C39.0439 81.7661 39.0439 81.7661 39.0468 81.769L43.5168 84.4204C43.5756 84.4528 43.6374 84.4704 43.7022 84.4704C43.761 84.4704 43.814 84.4557 43.867 84.4292C43.9788 84.3733 44.0494 84.2615 44.0641 84.1379L44.1495 83.0727L44.8969 73.7943C44.8969 73.7914 44.8969 73.7884 44.8969 73.7855L45.4972 66.3228C45.506 66.2404 45.4825 66.158 45.4384 66.0903L42.7016 62.0235L42.6693 61.9764L45.456 54.3518C45.5355 54.2518 45.6649 54.0899 45.8297 53.881C45.8386 53.8692 45.8474 53.8604 45.8562 53.8486C45.8945 53.7986 45.9327 53.7515 45.9739 53.7015C45.9945 53.6779 46.0092 53.6544 46.0298 53.6309C46.0681 53.5808 46.1093 53.5308 46.1505 53.4778C46.1711 53.4514 46.1917 53.4249 46.2123 53.3984C46.2476 53.3513 46.2859 53.3042 46.3241 53.2571C46.3594 53.2159 46.3918 53.1718 46.4271 53.1306C46.4565 53.0894 46.4918 53.0482 46.5242 53.0041C46.5625 52.957 46.6007 52.907 46.639 52.8569C46.6743 52.8128 46.7096 52.7686 46.7449 52.7245C46.7832 52.6745 46.8214 52.6245 46.8626 52.5715C46.9009 52.5244 46.9362 52.4773 46.9715 52.4332C47.0157 52.3773 47.0569 52.3243 47.098 52.2684C47.1363 52.2213 47.1716 52.1742 47.2099 52.1271C47.257 52.0683 47.3011 52.0094 47.3482 51.9476C47.3835 51.9005 47.4217 51.8535 47.4571 51.8034C47.5071 51.7416 47.5542 51.6828 47.6012 51.618C47.6366 51.571 47.6778 51.5239 47.7131 51.4739C47.7602 51.4121 47.8072 51.3503 47.8602 51.2855C47.9014 51.2326 47.9397 51.1796 47.9779 51.1266C48.0279 51.0648 48.0721 51.003 48.1221 50.9412C48.1633 50.8883 48.2016 50.8323 48.2457 50.7764C48.2928 50.7146 48.3428 50.6528 48.3899 50.5881C48.4311 50.5351 48.4723 50.4822 48.5105 50.4263C48.5606 50.3615 48.6106 50.2968 48.6606 50.2291C48.6989 50.1761 48.7401 50.1261 48.7783 50.0731C48.8284 50.0054 48.8784 49.9407 48.9255 49.873C48.9637 49.8201 49.0049 49.77 49.0432 49.7171C49.0932 49.6494 49.1403 49.5817 49.1903 49.517C49.2286 49.4669 49.2668 49.4169 49.3051 49.3639C49.3551 49.2962 49.4051 49.2286 49.4522 49.1609C49.4905 49.1079 49.5287 49.0579 49.564 49.0079C49.6111 48.9431 49.6611 48.8784 49.7053 48.8136C49.7435 48.7577 49.7818 48.7048 49.8201 48.6518C49.8642 48.59 49.9113 48.5311 49.9525 48.4664C49.9878 48.4164 50.026 48.3664 50.0584 48.3193C50.1055 48.2545 50.1467 48.1927 50.1908 48.1309C50.2261 48.0809 50.2615 48.0309 50.2938 47.9838C50.335 47.9249 50.3792 47.8661 50.4174 47.8072C50.4527 47.7572 50.4851 47.7101 50.5204 47.6601C50.5587 47.6042 50.5969 47.5453 50.6352 47.4924C50.6705 47.4423 50.6999 47.3982 50.7323 47.3482C50.7676 47.2952 50.8029 47.2422 50.8382 47.1893C50.8706 47.1422 50.9 47.0951 50.9324 47.0451C50.9618 46.998 50.9942 46.9509 51.0266 46.9038C51.056 46.8567 51.0825 46.8126 51.1119 46.7685C51.1413 46.7243 51.1708 46.6772 51.1972 46.636C51.2237 46.5919 51.2473 46.5507 51.2738 46.5095C51.2973 46.4683 51.3238 46.4271 51.3473 46.3889C51.3709 46.3477 51.3944 46.3094 51.4179 46.2682C51.4356 46.2299 51.4621 46.1946 51.4768 46.1623C51.5003 46.1211 51.518 46.0858 51.5386 46.0475C51.5533 46.0181 51.5739 45.9857 51.5857 45.9592C51.6063 45.918 51.621 45.8857 51.6386 45.8474C51.6475 45.8239 51.6592 45.8003 51.671 45.7827C51.6946 45.7267 51.7122 45.6767 51.7269 45.6326C52.186 44.2524 54.549 40.7065 54.5755 40.6594L57.8595 35.3243L59.4251 51.93L59.4486 52.1448C59.4574 52.2478 59.5104 52.339 59.5898 52.3979L63.4683 55.3053L62.9445 63.4095V63.4124C62.9445 63.4124 62.9445 63.4124 62.9445 63.4154C62.9445 63.4183 62.9445 63.4154 62.9445 63.4154V63.4183L62.8533 64.8426C62.8209 65.3811 63.0593 65.8931 63.4948 66.2139L70.3484 71.2489L72.8026 75.1538C72.8055 75.1568 72.8055 75.1597 72.8085 75.1627L75.6011 79.6061C75.6188 79.6326 75.6364 79.6562 75.66 79.6738C75.7218 79.7356 75.8042 79.7709 75.8895 79.7709C75.8954 79.7709 75.9013 79.7739 75.9072 79.7739C75.9101 79.7739 75.913 79.7739 75.916 79.7739C76.0455 79.7709 76.1602 79.6974 76.222 79.5885L82.6842 67.903L86.3979 65.028L88.0311 67.4763L94.8405 77.6875C94.8759 77.7434 94.9288 77.7876 94.9906 77.817L102.665 81.3894C100.379 85.6093 97.5684 89.4348 94.3344 92.7954C94.2991 92.7777 94.2608 92.763 94.2196 92.7571C94.2049 92.7571 92.7277 92.5482 91.1857 90.6148V88.5873C92.7159 90.1734 94.0725 90.3411 94.1372 90.35C94.152 90.3529 94.1637 90.3529 94.1784 90.3529C94.3609 90.3529 94.5139 90.2176 94.5345 90.0322C94.558 89.835 94.4168 89.6584 94.2196 89.632C94.2049 89.632 92.6806 89.4201 91.1121 87.3955C91.0445 87.3072 90.9444 87.2631 90.8443 87.2572C90.8385 87.2572 90.8267 87.2572 90.8208 87.2572C90.8149 87.2572 90.8032 87.2572 90.7973 87.2572C90.6943 87.2631 90.5972 87.3072 90.5295 87.3955C88.9698 89.4112 87.4485 89.629 87.422 89.632C87.2248 89.6555 87.0806 89.8321 87.1042 90.0292C87.1218 90.2146 87.2778 90.3529 87.4632 90.3529C87.4749 90.3529 87.4897 90.3529 87.5014 90.35C87.5691 90.3411 88.9345 90.1705 90.4706 88.5696V90.5942C88.9316 92.5394 87.4514 92.7542 87.4249 92.7571C87.2278 92.7777 87.0836 92.9543 87.1071 93.1514C87.1248 93.3368 87.2807 93.4751 87.4632 93.4751C87.4749 93.4751 87.4897 93.4751 87.5044 93.4722C87.5691 93.4663 88.9375 93.2956 90.4706 91.6948V93.7164C88.9345 95.6616 87.4514 95.8764 87.4249 95.8793C87.2278 95.8999 87.0865 96.0794 87.1071 96.2766C87.1277 96.462 87.2837 96.5973 87.4661 96.5973C87.4779 96.5973 87.4926 96.5973 87.5073 96.5944C87.5721 96.5885 88.9404 96.4178 90.4736 94.817V96.4267C87.5838 98.8809 84.441 101.008 81.0981 102.777V96.7533C82.6283 98.3424 83.9849 98.5101 84.0496 98.516C84.0643 98.5189 84.0761 98.5189 84.0908 98.5189C84.2703 98.5189 84.4263 98.3836 84.4469 98.1982C84.4704 98.001 84.3292 97.8245 84.132 97.8009C84.1173 97.798 82.6401 97.592 81.0981 95.6557V93.6282C82.6283 95.2143 83.9849 95.3849 84.0496 95.3908C84.0643 95.3938 84.0761 95.3938 84.0908 95.3938C84.2703 95.3938 84.4263 95.2584 84.4469 95.073C84.4704 94.8759 84.3292 94.6993 84.132 94.6758C84.1173 94.6728 82.6401 94.4668 81.0981 92.5305V90.503C82.6283 92.0891 83.9849 92.2598 84.0496 92.2657C84.0643 92.2686 84.0761 92.2686 84.0908 92.2686C84.2703 92.2686 84.4263 92.1333 84.4469 91.9479C84.4704 91.7507 84.3292 91.5741 84.132 91.5506C84.1173 91.5477 82.6401 91.3387 81.0981 89.4054V87.3778C82.6283 88.964 83.9849 89.1317 84.0496 89.1405C84.0643 89.1435 84.0761 89.1435 84.0908 89.1435C84.2703 89.1435 84.4263 89.0081 84.4469 88.8227C84.4704 88.6255 84.3292 88.449 84.132 88.4225C84.1173 88.4225 82.6401 88.2136 81.0981 86.2802V84.2527C82.6283 85.8388 83.9849 86.0065 84.0496 86.0154C84.0643 86.0183 84.0761 86.0183 84.0908 86.0183C84.2703 86.0183 84.4263 85.8829 84.4469 85.6975C84.4704 85.5004 84.3292 85.3209 84.132 85.2973C84.1173 85.2944 82.6401 85.0884 81.0981 83.1521V81.1275C82.6283 82.7136 83.9849 82.8814 84.0496 82.8902C84.0643 82.8902 84.0761 82.8902 84.0908 82.8902C84.2703 82.8902 84.4263 82.7578 84.4469 82.5724C84.4704 82.3752 84.3292 82.1957 84.132 82.1722C84.1173 82.1692 82.59 81.9603 81.0245 79.9328C80.9568 79.8475 80.8568 79.8033 80.7567 79.7974C80.7479 79.7974 80.7391 79.7974 80.7332 79.7974C80.7244 79.7974 80.7155 79.7974 80.7097 79.7974C80.6067 79.8033 80.5096 79.8475 80.4419 79.9328C78.8822 81.9515 77.3579 82.1692 77.3314 82.1722C77.1343 82.1928 76.993 82.3723 77.0166 82.5695C77.0342 82.7548 77.1902 82.8902 77.3726 82.8902C77.3844 82.8902 77.3991 82.8902 77.4138 82.8902C77.4786 82.8814 78.8469 82.7107 80.3801 81.1099V83.1345C78.844 85.0796 77.3609 85.2944 77.3344 85.2944C77.1372 85.3179 76.996 85.4945 77.0166 85.6917C77.0372 85.8771 77.1931 86.0154 77.3756 86.0154C77.3873 86.0154 77.4021 86.0154 77.4168 86.0124C77.4815 86.0036 78.8499 85.8329 80.383 84.2321V86.2567C78.844 88.2018 77.3638 88.4166 77.3373 88.4196C77.1402 88.4402 76.9989 88.6197 77.0195 88.8168C77.0401 88.9993 77.1961 89.1376 77.3785 89.1376C77.3903 89.1376 77.405 89.1376 77.4197 89.1346C77.4845 89.1288 78.8528 88.9581 80.386 87.3572V89.3818C78.8469 91.327 77.3667 91.5388 77.3403 91.5418C77.1431 91.5624 77.0018 91.7419 77.0224 91.939C77.043 92.1244 77.199 92.2598 77.3815 92.2598C77.3932 92.2598 77.4079 92.2598 77.4227 92.2598C77.4874 92.251 78.8558 92.0803 80.3889 90.4795V92.504C78.8499 94.4492 77.3697 94.664 77.3432 94.664C77.146 94.6875 77.0048 94.8641 77.0254 95.0612C77.043 95.2466 77.202 95.3849 77.3844 95.3849C77.3962 95.3849 77.4109 95.3849 77.4256 95.382C77.4903 95.3732 78.8558 95.2025 80.3918 93.6017V95.6263C78.8528 97.5714 77.3726 97.7862 77.3461 97.7891C77.149 97.8097 77.0048 97.9863 77.0283 98.1835C77.046 98.3689 77.202 98.5072 77.3844 98.5072C77.3991 98.5072 77.4109 98.5072 77.4256 98.5042C77.4903 98.4983 78.8587 98.3277 80.3948 96.7268V103.139C77.6286 104.546 74.7301 105.711 71.7373 106.614V101.791C73.2676 103.377 74.6271 103.545 74.6918 103.554C74.7036 103.557 74.7183 103.557 74.7301 103.557C74.9125 103.557 75.0655 103.421 75.0861 103.236C75.1126 103.039 74.9684 102.862 74.7713 102.836C74.7566 102.836 73.2793 102.627 71.7373 100.694V98.6661C73.2676 100.252 74.6271 100.42 74.6918 100.429C74.7036 100.432 74.7183 100.432 74.7301 100.432C74.9125 100.432 75.0655 100.296 75.0861 100.111C75.1126 99.9138 74.9684 99.7343 74.7713 99.7107C74.7566 99.7078 73.2793 99.5018 71.7373 97.5684V95.5409C73.2676 97.127 74.6271 97.2948 74.6918 97.3036C74.7036 97.3036 74.7183 97.3036 74.7301 97.3036C74.9125 97.3036 75.0655 97.1712 75.0861 96.9858C75.1126 96.7886 74.9684 96.6091 74.7713 96.5856C74.7566 96.5826 73.2793 96.3766 71.7373 94.4403V92.4158C73.2676 94.0019 74.6271 94.1696 74.6918 94.1784C74.7036 94.1784 74.7183 94.1784 74.7301 94.1784C74.9125 94.1784 75.0655 94.046 75.0861 93.8606C75.1126 93.6635 74.9684 93.484 74.7713 93.4604C74.7566 93.4575 73.2322 93.2485 71.6638 91.221C71.5961 91.1357 71.499 91.0886 71.396 91.0856C71.3901 91.0856 71.3813 91.0856 71.3724 91.0856C71.3666 91.0856 71.3548 91.0856 71.3489 91.0856C71.2489 91.0886 71.1488 91.1357 71.0811 91.221C69.5215 93.2397 68.0001 93.4545 67.9736 93.4604C67.7765 93.481 67.6352 93.6605 67.6558 93.8577C67.6764 94.0431 67.8324 94.1784 68.0148 94.1784C68.0266 94.1784 68.0413 94.1784 68.056 94.1784C68.1208 94.1696 69.4891 93.9989 71.0223 92.3981V94.4227C69.4832 96.3678 68.003 96.5826 67.9766 96.5826C67.7794 96.6062 67.6352 96.7827 67.6588 96.9799C67.6764 97.1653 67.8324 97.3036 68.0178 97.3036C68.0295 97.3036 68.0442 97.3036 68.056 97.3007C68.1208 97.2918 69.4891 97.1211 71.0252 95.5203V97.5449C69.4862 99.49 68.003 99.7048 67.9766 99.7078C67.7794 99.7284 67.6382 99.9049 67.6617 100.102C67.6794 100.287 67.8353 100.426 68.0178 100.426C68.0295 100.426 68.0442 100.426 68.059 100.423C68.1237 100.417 69.4921 100.246 71.0252 98.6455V100.667C69.4891 102.612 68.006 102.827 67.9795 102.83C67.7823 102.851 67.6411 103.03 67.6617 103.227C67.6823 103.413 67.8383 103.548 68.0207 103.548C68.0325 103.548 68.0472 103.548 68.0619 103.545C68.1266 103.539 69.495 103.369 71.0282 101.768V106.791C71.0282 106.8 71.0311 106.809 71.0311 106.817C68.0678 107.662 65.0103 108.253 61.894 108.568V101.782C63.4212 103.369 64.7808 103.536 64.8455 103.545C64.8602 103.545 64.872 103.545 64.8867 103.545C65.0662 103.545 65.2192 103.413 65.2428 103.227C65.2663 103.03 65.1251 102.851 64.9279 102.827C64.9132 102.824 63.433 102.618 61.894 100.682V98.6572C63.4212 100.243 64.7808 100.411 64.8455 100.42C64.8602 100.42 64.872 100.42 64.8867 100.42C65.0662 100.42 65.2192 100.287 65.2428 100.102C65.2663 99.9049 65.1251 99.7254 64.9279 99.7019C64.9132 99.699 63.433 99.493 61.894 97.5567V95.5291C63.4212 97.1182 64.7808 97.2859 64.8455 97.2918C64.8602 97.2948 64.872 97.2948 64.8867 97.2948C65.0662 97.2948 65.2192 97.1594 65.2428 96.977C65.2663 96.7798 65.1251 96.6003 64.9279 96.5767C64.9132 96.5738 63.433 96.3678 61.894 94.4315V92.404C63.4212 93.993 64.7808 94.1608 64.8455 94.1667C64.8602 94.1696 64.872 94.1696 64.8867 94.1696C65.0662 94.1696 65.2192 94.0342 65.2428 93.8489C65.2663 93.6517 65.1251 93.4751 64.9279 93.4516C64.9132 93.4486 63.433 93.2427 61.894 91.3064V89.2788C63.4212 90.8649 64.7808 91.0356 64.8455 91.0415C64.8602 91.0445 64.872 91.0445 64.8867 91.0445C65.0662 91.0445 65.2192 90.9091 65.2428 90.7237C65.2663 90.5265 65.1251 90.35 64.9279 90.3264C64.9132 90.3235 63.433 90.1175 61.894 88.1812V86.1537C63.4212 87.7398 64.7808 87.9105 64.8455 87.9164C64.8602 87.9193 64.872 87.9193 64.8867 87.9193C65.0662 87.9193 65.2192 87.7839 65.2428 87.5985C65.2663 87.4014 65.1251 87.2248 64.9279 87.2013C64.9132 87.1983 63.3859 86.9894 61.8175 84.9619C61.7498 84.8736 61.6527 84.8295 61.5526 84.8236C61.5438 84.8236 61.535 84.8236 61.5261 84.8236C61.5203 84.8236 61.5114 84.8236 61.5026 84.8236C61.4025 84.8295 61.3025 84.8736 61.2378 84.9619C59.6752 86.9776 58.1538 87.1954 58.1273 87.2013C57.9302 87.2219 57.7889 87.3984 57.8095 87.5956C57.8301 87.781 57.9861 87.9193 58.1685 87.9193C58.1803 87.9193 58.195 87.9193 58.2097 87.9164C58.2745 87.9105 59.6428 87.7398 61.176 86.136V88.1606C59.6369 90.1057 58.1567 90.3205 58.1303 90.3235C57.9331 90.3441 57.7918 90.5236 57.8124 90.7208C57.833 90.9061 57.989 91.0415 58.1715 91.0415C58.1832 91.0415 58.1979 91.0415 58.2127 91.0386C58.2774 91.0327 59.6458 90.862 61.1789 89.2612V91.2858C59.6399 93.2309 58.1597 93.4428 58.1332 93.4457C57.936 93.4663 57.7948 93.6458 57.8154 93.843C57.833 94.0284 57.992 94.1637 58.1744 94.1637C58.1862 94.1637 58.2009 94.1637 58.2156 94.1637C58.2803 94.1549 59.6458 93.9842 61.1819 92.3834V94.408C59.6428 96.3531 58.1626 96.5679 58.1361 96.5679C57.939 96.5915 57.7948 96.768 57.8183 96.9652C57.836 97.1506 57.992 97.2889 58.1744 97.2889C58.1891 97.2889 58.2009 97.2889 58.2156 97.2859C58.2803 97.2771 59.6487 97.1064 61.1848 95.5056V97.5302C59.6458 99.4753 58.1626 99.6901 58.1361 99.6931C57.939 99.7137 57.7977 99.8932 57.8213 100.09C57.8389 100.273 57.9949 100.411 58.1773 100.411C58.1891 100.411 58.2038 100.411 58.2185 100.408C58.2833 100.402 59.6516 100.232 61.1848 98.6308V100.655C59.6458 102.6 58.1656 102.812 58.1391 102.815C57.9419 102.836 57.8007 103.015 57.8213 103.213C57.8419 103.398 57.9978 103.533 58.1803 103.533C58.1921 103.533 58.2068 103.533 58.2215 103.533C58.2862 103.524 59.6546 103.354 61.1877 101.753V108.624C59.5692 108.845 58.039 108.913 56.5 108.913ZM91.1357 94.8817C91.3093 95.0612 91.4829 95.229 91.6654 95.3849C91.4888 95.5439 91.3122 95.6998 91.1357 95.8558V94.8817ZM92.198 94.8906C91.8302 94.5816 91.4741 94.2108 91.1327 93.7841V91.7595C92.198 92.8689 93.1809 93.2839 93.7017 93.4369C93.2103 93.9313 92.7071 94.4168 92.198 94.8906ZM97.798 72.0257H104.705C104.905 72.0257 105.066 72.1846 105.066 72.3847C105.066 72.5848 104.905 72.7467 104.705 72.7467H97.798C97.5979 72.7467 97.436 72.5848 97.436 72.3847C97.436 72.1846 97.5979 72.0257 97.798 72.0257ZM98.2129 65.6371C98.413 65.6371 98.5748 65.796 98.5748 65.9961C98.5748 66.1962 98.413 66.3581 98.2129 66.3581C98.0157 66.3581 97.8539 66.1962 97.8539 65.9961C97.8539 65.796 98.0157 65.6371 98.2129 65.6371ZM87.8752 47.8455C88.0753 47.8455 88.2371 48.0044 88.2371 48.2045C88.2371 48.4046 88.0753 48.5665 87.8752 48.5665C87.675 48.5665 87.5161 48.4046 87.5161 48.2045C87.5161 48.0044 87.675 47.8455 87.8752 47.8455ZM54.8168 8.77516C54.8168 8.57505 54.9786 8.41615 55.1787 8.41615C55.3759 8.41615 55.5377 8.57505 55.5377 8.77516C55.5377 8.97526 55.3759 9.13711 55.1787 9.13711C54.9786 9.13711 54.8168 8.97526 54.8168 8.77516ZM38.4671 48.9255C38.4671 49.1256 38.3082 49.2874 38.1081 49.2874C37.908 49.2874 37.7461 49.1256 37.7461 48.9255C37.7461 48.7283 37.908 48.5665 38.1081 48.5665C38.3082 48.5665 38.4671 48.7283 38.4671 48.9255ZM17.0707 35.7039C17.0707 35.5038 17.2325 35.3419 17.4297 35.3419C17.6298 35.3419 17.7916 35.5038 17.7916 35.7039C17.7916 35.904 17.6298 36.0629 17.4297 36.0629C17.2325 36.0629 17.0707 35.904 17.0707 35.7039ZM86.3126 22.4793C86.3126 22.2792 86.4744 22.1203 86.6745 22.1203C86.8717 22.1203 87.0335 22.2792 87.0335 22.4793C87.0335 22.6795 86.8717 22.8413 86.6745 22.8413C86.4744 22.8413 86.3126 22.6795 86.3126 22.4793ZM22.3587 66.2374C22.3587 66.0373 22.5205 65.8755 22.7207 65.8755C22.9208 65.8755 23.0797 66.0373 23.0797 66.2374C23.0797 66.4375 22.9208 66.5964 22.7207 66.5964C22.5205 66.5964 22.3587 66.4375 22.3587 66.2374Z" fill="#C79557"/>
</svg>
