<svg width="146" height="42" viewBox="0 0 146 42" fill="none" xmlns="http://www.w3.org/2000/svg">
<path d="M6.048 21.288C4.8 21.288 3.752 20.984 2.904 20.376C2.072 19.768 1.448 18.888 1.032 17.736C0.616 16.584 0.408 15.176 0.408 13.512C0.408 11.88 0.616 10.496 1.032 9.36C1.448 8.208 2.072 7.328 2.904 6.72C3.752 6.112 4.8 5.808 6.048 5.808C7.296 5.808 8.336 6.112 9.168 6.72C10.016 7.328 10.648 8.208 11.064 9.36C11.496 10.496 11.712 11.88 11.712 13.512C11.712 15.176 11.496 16.592 11.064 17.76C10.648 18.912 10.016 19.792 9.168 20.4C8.336 20.992 7.296 21.288 6.048 21.288ZM6.048 18.84C6.608 18.84 7.08 18.648 7.464 18.264C7.848 17.88 8.152 17.296 8.376 16.512C8.6 15.712 8.712 14.696 8.712 13.464C8.712 12.328 8.6 11.376 8.376 10.608C8.152 9.824 7.848 9.232 7.464 8.832C7.08 8.432 6.608 8.232 6.048 8.232C5.488 8.232 5.008 8.432 4.608 8.832C4.224 9.232 3.928 9.824 3.72 10.608C3.512 11.376 3.408 12.328 3.408 13.464C3.408 14.696 3.512 15.712 3.72 16.512C3.928 17.296 4.224 17.88 4.608 18.264C5.008 18.648 5.488 18.84 6.048 18.84ZM18.288 21.288C17.584 21.288 16.912 21.224 16.272 21.096C15.632 20.968 15.032 20.776 14.472 20.52C13.928 20.264 13.432 19.92 12.984 19.488L14.256 17.088L14.352 16.896L14.568 17.016C14.6 17.128 14.64 17.256 14.688 17.4C14.752 17.528 14.88 17.68 15.072 17.856C15.488 18.192 15.96 18.456 16.488 18.648C17.016 18.824 17.624 18.912 18.312 18.912C18.712 18.912 19.048 18.872 19.32 18.792C19.608 18.696 19.832 18.568 19.992 18.408C20.152 18.232 20.232 18.048 20.232 17.856C20.232 17.68 20.176 17.528 20.064 17.4C19.968 17.272 19.816 17.16 19.608 17.064C19.4 16.952 19.136 16.848 18.816 16.752C18.496 16.64 18.112 16.52 17.664 16.392C16.848 16.184 16.144 15.928 15.552 15.624C14.96 15.304 14.504 14.92 14.184 14.472C13.864 14.024 13.704 13.488 13.704 12.864C13.704 12.24 13.888 11.68 14.256 11.184C14.64 10.672 15.168 10.264 15.84 9.96C16.528 9.656 17.32 9.504 18.216 9.504C18.664 9.504 19.096 9.544 19.512 9.624C19.944 9.688 20.344 9.792 20.712 9.936C21.096 10.064 21.456 10.24 21.792 10.464C22.128 10.672 22.448 10.92 22.752 11.208L21.312 13.272L21.168 13.464L20.952 13.296C20.936 13.168 20.896 13.048 20.832 12.936C20.784 12.824 20.672 12.68 20.496 12.504C20.176 12.28 19.824 12.12 19.44 12.024C19.056 11.928 18.664 11.88 18.264 11.88C17.768 11.88 17.328 11.96 16.944 12.12C16.576 12.28 16.392 12.52 16.392 12.84C16.392 13.032 16.48 13.208 16.656 13.368C16.848 13.512 17.136 13.648 17.52 13.776C17.92 13.904 18.424 14.048 19.032 14.208C19.944 14.416 20.68 14.68 21.24 15C21.816 15.32 22.24 15.704 22.512 16.152C22.784 16.6 22.92 17.12 22.92 17.712C22.92 18.352 22.736 18.944 22.368 19.488C22.016 20.032 21.496 20.472 20.808 20.808C20.12 21.128 19.28 21.288 18.288 21.288ZM30.624 21.288C29.808 21.288 29.04 21.152 28.32 20.88C27.616 20.592 27 20.192 26.472 19.68C25.944 19.152 25.536 18.536 25.248 17.832C24.96 17.128 24.816 16.352 24.816 15.504C24.816 14.672 24.96 13.896 25.248 13.176C25.536 12.44 25.944 11.8 26.472 11.256C27 10.712 27.616 10.288 28.32 9.984C29.04 9.664 29.816 9.504 30.648 9.504C31.72 9.504 32.648 9.696 33.432 10.08C34.216 10.464 34.84 11.008 35.304 11.712L33.648 13.536L33.48 13.704L33.288 13.56C33.272 13.432 33.248 13.304 33.216 13.176C33.2 13.032 33.112 12.856 32.952 12.648C32.664 12.36 32.336 12.168 31.968 12.072C31.616 11.96 31.208 11.904 30.744 11.904C30.36 11.904 30 11.984 29.664 12.144C29.328 12.304 29.024 12.536 28.752 12.84C28.48 13.144 28.264 13.52 28.104 13.968C27.96 14.416 27.888 14.936 27.888 15.528C27.888 16.04 27.968 16.512 28.128 16.944C28.288 17.36 28.496 17.712 28.752 18C29.024 18.272 29.328 18.488 29.664 18.648C30.016 18.792 30.376 18.864 30.744 18.864C31.08 18.864 31.4 18.824 31.704 18.744C32.024 18.648 32.336 18.504 32.64 18.312C32.96 18.104 33.264 17.824 33.552 17.472L35.208 19.392C34.6 20.064 33.88 20.552 33.048 20.856C32.232 21.144 31.424 21.288 30.624 21.288ZM40.632 21.288C39.416 21.288 38.464 21 37.776 20.424C37.088 19.832 36.744 19.064 36.744 18.12C36.744 17.512 36.872 16.96 37.128 16.464C37.4 15.952 37.8 15.504 38.328 15.12C38.872 14.736 39.552 14.44 40.368 14.232C41.184 14.008 42.136 13.896 43.224 13.896C43.32 13.896 43.448 13.904 43.608 13.92C43.768 13.92 43.944 13.92 44.136 13.92C44.328 13.92 44.504 13.928 44.664 13.944L44.736 16.008C44.608 15.992 44.44 15.984 44.232 15.984C44.04 15.984 43.84 15.984 43.632 15.984C43.424 15.984 43.256 15.984 43.128 15.984C42.456 15.984 41.904 16.032 41.472 16.128C41.056 16.208 40.72 16.328 40.464 16.488C40.224 16.648 40.056 16.832 39.96 17.04C39.864 17.248 39.816 17.472 39.816 17.712C39.816 17.92 39.848 18.112 39.912 18.288C39.992 18.448 40.096 18.576 40.224 18.672C40.352 18.752 40.504 18.816 40.68 18.864C40.872 18.912 41.072 18.936 41.28 18.936C41.712 18.936 42.088 18.864 42.408 18.72C42.728 18.576 42.992 18.352 43.2 18.048C43.424 17.728 43.584 17.328 43.68 16.848C43.792 16.352 43.848 15.768 43.848 15.096C43.848 14.216 43.76 13.544 43.584 13.08C43.408 12.616 43.16 12.296 42.84 12.12C42.52 11.944 42.12 11.856 41.64 11.856C41.144 11.856 40.672 11.936 40.224 12.096C39.792 12.24 39.352 12.544 38.904 13.008L37.2 11.208C37.872 10.584 38.6 10.144 39.384 9.888C40.184 9.632 40.976 9.504 41.76 9.504C42.448 9.504 43.096 9.584 43.704 9.744C44.328 9.904 44.872 10.168 45.336 10.536C45.816 10.888 46.192 11.384 46.464 12.024C46.736 12.648 46.872 13.432 46.872 14.376V21H43.752V19.944C43.544 20.184 43.328 20.392 43.104 20.568C42.896 20.744 42.664 20.888 42.408 21C42.152 21.096 41.88 21.168 41.592 21.216C41.304 21.264 40.984 21.288 40.632 21.288ZM49.896 9.768H53.04L53.016 12.888L52.68 12.72C52.728 12.24 52.856 11.808 53.064 11.424C53.272 11.024 53.536 10.68 53.856 10.392C54.192 10.104 54.552 9.888 54.936 9.744C55.336 9.584 55.744 9.504 56.16 9.504C56.8 9.504 57.376 9.608 57.888 9.816C58.4 10.024 58.872 10.352 59.304 10.8L58.032 13.392L57.96 13.584L57.72 13.488C57.672 13.36 57.624 13.224 57.576 13.08C57.544 12.936 57.44 12.768 57.264 12.576C57.04 12.416 56.8 12.28 56.544 12.168C56.288 12.056 56.008 12 55.704 12C55.32 12 54.96 12.064 54.624 12.192C54.304 12.304 54.024 12.488 53.784 12.744C53.544 13 53.352 13.328 53.208 13.728C53.064 14.112 52.992 14.584 52.992 15.144V21H49.896V9.768ZM72.912 21V6.048H76.896C77.776 6.048 78.52 6.128 79.128 6.288C79.736 6.448 80.256 6.688 80.688 7.008C81.12 7.312 81.496 7.688 81.816 8.136C82.152 8.584 82.44 9.088 82.68 9.648C82.936 10.208 83.128 10.824 83.256 11.496C83.384 12.152 83.448 12.864 83.448 13.632C83.432 14.768 83.288 15.792 83.016 16.704C82.76 17.6 82.352 18.368 81.792 19.008C81.248 19.648 80.544 20.144 79.68 20.496C78.816 20.832 77.792 21 76.608 21H72.912ZM75.888 18.6H76.56C77.536 18.6 78.312 18.392 78.888 17.976C79.464 17.544 79.872 16.96 80.112 16.224C80.352 15.472 80.472 14.616 80.472 13.656C80.472 12.6 80.368 11.688 80.16 10.92C79.952 10.152 79.576 9.552 79.032 9.12C78.504 8.672 77.76 8.448 76.8 8.448H75.888V18.6ZM88.632 21.288C87.416 21.288 86.464 21 85.776 20.424C85.088 19.832 84.744 19.064 84.744 18.12C84.744 17.512 84.872 16.96 85.128 16.464C85.4 15.952 85.8 15.504 86.328 15.12C86.872 14.736 87.552 14.44 88.368 14.232C89.184 14.008 90.136 13.896 91.224 13.896C91.32 13.896 91.448 13.904 91.608 13.92C91.768 13.92 91.944 13.92 92.136 13.92C92.328 13.92 92.504 13.928 92.664 13.944L92.736 16.008C92.608 15.992 92.44 15.984 92.232 15.984C92.04 15.984 91.84 15.984 91.632 15.984C91.424 15.984 91.256 15.984 91.128 15.984C90.456 15.984 89.904 16.032 89.472 16.128C89.056 16.208 88.72 16.328 88.464 16.488C88.224 16.648 88.056 16.832 87.96 17.04C87.864 17.248 87.816 17.472 87.816 17.712C87.816 17.92 87.848 18.112 87.912 18.288C87.992 18.448 88.096 18.576 88.224 18.672C88.352 18.752 88.504 18.816 88.68 18.864C88.872 18.912 89.072 18.936 89.28 18.936C89.712 18.936 90.088 18.864 90.408 18.72C90.728 18.576 90.992 18.352 91.2 18.048C91.424 17.728 91.584 17.328 91.68 16.848C91.792 16.352 91.848 15.768 91.848 15.096C91.848 14.216 91.76 13.544 91.584 13.08C91.408 12.616 91.16 12.296 90.84 12.12C90.52 11.944 90.12 11.856 89.64 11.856C89.144 11.856 88.672 11.936 88.224 12.096C87.792 12.24 87.352 12.544 86.904 13.008L85.2 11.208C85.872 10.584 86.6 10.144 87.384 9.888C88.184 9.632 88.976 9.504 89.76 9.504C90.448 9.504 91.096 9.584 91.704 9.744C92.328 9.904 92.872 10.168 93.336 10.536C93.816 10.888 94.192 11.384 94.464 12.024C94.736 12.648 94.872 13.432 94.872 14.376V21H91.752V19.944C91.544 20.184 91.328 20.392 91.104 20.568C90.896 20.744 90.664 20.888 90.408 21C90.152 21.096 89.88 21.168 89.592 21.216C89.304 21.264 88.984 21.288 88.632 21.288ZM97.176 21V9.768H100.248V11.184C100.52 10.848 100.8 10.56 101.088 10.32C101.376 10.064 101.704 9.864 102.072 9.72C102.44 9.576 102.848 9.504 103.296 9.504C103.952 9.504 104.568 9.664 105.144 9.984C105.72 10.304 106.184 10.816 106.536 11.52C106.888 12.208 107.064 13.112 107.064 14.232V21H103.992V14.256C103.992 13.696 103.936 13.232 103.824 12.864C103.712 12.496 103.544 12.224 103.32 12.048C103.096 11.872 102.816 11.784 102.48 11.784C102.192 11.784 101.912 11.84 101.64 11.952C101.384 12.064 101.152 12.232 100.944 12.456C100.736 12.664 100.568 12.92 100.44 13.224C100.312 13.512 100.248 13.848 100.248 14.232V21H97.176ZM109.896 21V18.6H112.608V12.144H110.016V9.768H115.68V18.6H118.152V21H109.896ZM114 8.064C113.488 8.064 113.048 7.896 112.68 7.56C112.328 7.208 112.152 6.792 112.152 6.312C112.152 5.8 112.32 5.376 112.656 5.04C113.008 4.704 113.456 4.536 114 4.536C114.496 4.536 114.928 4.712 115.296 5.064C115.68 5.416 115.872 5.832 115.872 6.312C115.872 6.792 115.68 7.208 115.296 7.56C114.928 7.896 114.496 8.064 114 8.064ZM126.48 21.288C125.68 21.288 124.936 21.16 124.248 20.904C123.56 20.632 122.96 20.248 122.448 19.752C121.952 19.256 121.56 18.648 121.272 17.928C120.984 17.208 120.84 16.392 120.84 15.48C120.84 14.552 120.976 13.72 121.248 12.984C121.536 12.232 121.92 11.6 122.4 11.088C122.88 10.576 123.44 10.184 124.08 9.912C124.736 9.64 125.44 9.504 126.192 9.504C126.848 9.504 127.464 9.624 128.04 9.864C128.632 10.088 129.152 10.432 129.6 10.896C130.064 11.36 130.424 11.936 130.68 12.624C130.952 13.312 131.088 14.104 131.088 15C131.088 15.176 131.088 15.392 131.088 15.648C131.088 15.904 131.08 16.12 131.064 16.296H123.792C123.824 16.744 123.92 17.136 124.08 17.472C124.256 17.792 124.472 18.064 124.728 18.288C125 18.496 125.296 18.656 125.616 18.768C125.952 18.864 126.288 18.912 126.624 18.912C126.96 18.912 127.272 18.888 127.56 18.84C127.864 18.776 128.152 18.672 128.424 18.528C128.712 18.384 128.984 18.176 129.24 17.904L130.776 19.416C130.408 19.848 130 20.208 129.552 20.496C129.104 20.768 128.616 20.968 128.088 21.096C127.576 21.224 127.04 21.288 126.48 21.288ZM123.816 14.016H128.16C128.16 13.664 128.112 13.352 128.016 13.08C127.936 12.808 127.8 12.584 127.608 12.408C127.432 12.232 127.216 12.104 126.96 12.024C126.704 11.928 126.408 11.88 126.072 11.88C125.784 11.88 125.512 11.92 125.256 12C125 12.08 124.768 12.208 124.56 12.384C124.368 12.56 124.208 12.784 124.08 13.056C123.952 13.328 123.864 13.648 123.816 14.016ZM133.368 21V18.6H136.488V7.248H133.512V4.848H139.56V18.6H142.632V21H133.368Z" fill="white"/>
<path d="M19.5251 36.9478L18.1251 28.2258H19.0351L19.9731 34.1198L21.3731 28.8698H21.6811L23.0951 34.1478L23.8931 28.2258H24.7191L23.3331 36.9478H22.9551L21.4571 31.2498L19.9311 36.9478H19.5251ZM28.6951 37.0878C28.2284 37.0878 27.8038 37.0178 27.4211 36.8778C27.0384 36.7284 26.7071 36.5138 26.4271 36.2338C26.1564 35.9538 25.9464 35.6084 25.7971 35.1978C25.6478 34.7778 25.5731 34.3018 25.5731 33.7698C25.5731 33.2284 25.6478 32.7478 25.7971 32.3278C25.9558 31.9078 26.1658 31.5578 26.4271 31.2778C26.6978 30.9884 27.0104 30.7691 27.3651 30.6198C27.7291 30.4704 28.1118 30.3958 28.5131 30.3958C28.8771 30.3958 29.2178 30.4564 29.5351 30.5778C29.8524 30.6991 30.1278 30.8858 30.3611 31.1378C30.5944 31.3804 30.7764 31.6931 30.9071 32.0758C31.0471 32.4584 31.1171 32.9111 31.1171 33.4338C31.1171 33.5084 31.1124 33.5878 31.1031 33.6718C31.1031 33.7464 31.0984 33.8211 31.0891 33.8958H26.5391C26.5578 34.3064 26.6278 34.6658 26.7491 34.9738C26.8704 35.2724 27.0291 35.5198 27.2251 35.7158C27.4211 35.9024 27.6451 36.0424 27.8971 36.1358C28.1584 36.2291 28.4338 36.2758 28.7231 36.2758C28.9471 36.2758 29.1571 36.2524 29.3531 36.2058C29.5491 36.1498 29.7311 36.0704 29.8991 35.9678C30.0764 35.8558 30.2351 35.7204 30.3751 35.5618L30.9351 36.1078C30.7578 36.3224 30.5524 36.5044 30.3191 36.6538C30.0951 36.8031 29.8478 36.9104 29.5771 36.9758C29.3064 37.0504 29.0124 37.0878 28.6951 37.0878ZM26.5811 33.1118H30.0951C30.0951 32.8131 30.0531 32.5471 29.9691 32.3138C29.8944 32.0711 29.7824 31.8658 29.6331 31.6978C29.4931 31.5204 29.3204 31.3898 29.1151 31.3058C28.9191 31.2124 28.6951 31.1658 28.4431 31.1658C28.2191 31.1658 28.0044 31.2031 27.7991 31.2778C27.6031 31.3524 27.4211 31.4738 27.2531 31.6418C27.0851 31.8004 26.9404 32.0011 26.8191 32.2438C26.7071 32.4864 26.6278 32.7758 26.5811 33.1118ZM35.6111 37.1018C35.3498 37.1018 35.1024 37.0598 34.8691 36.9758C34.6358 36.9011 34.4211 36.7891 34.2251 36.6398C34.0384 36.4904 33.8704 36.3131 33.7211 36.1078L33.3711 36.9478H32.7271V27.6378H33.7351H33.8751V27.7358C33.8191 27.7918 33.7818 27.8524 33.7631 27.9178C33.7538 27.9831 33.7491 28.0951 33.7491 28.2538V31.5298C33.8518 31.3618 33.9731 31.2078 34.1131 31.0678C34.2531 30.9278 34.4071 30.8064 34.5751 30.7038C34.7431 30.6011 34.9204 30.5264 35.1071 30.4798C35.2938 30.4238 35.4758 30.3958 35.6531 30.3958C36.0451 30.3958 36.3998 30.4658 36.7171 30.6058C37.0438 30.7364 37.3238 30.9418 37.5571 31.2218C37.7904 31.4924 37.9678 31.8331 38.0891 32.2438C38.2198 32.6544 38.2851 33.1351 38.2851 33.6858C38.2851 34.2551 38.2104 34.7544 38.0611 35.1838C37.9118 35.6131 37.7064 35.9724 37.4451 36.2618C37.1931 36.5418 36.9084 36.7518 36.5911 36.8918C36.2738 37.0318 35.9471 37.1018 35.6111 37.1018ZM35.4851 36.2058C35.7091 36.2058 35.9238 36.1638 36.1291 36.0798C36.3438 35.9958 36.5351 35.8604 36.7031 35.6738C36.8711 35.4778 37.0018 35.2211 37.0951 34.9038C37.1978 34.5864 37.2491 34.1991 37.2491 33.7418C37.2491 33.3218 37.2071 32.9578 37.1231 32.6498C37.0391 32.3324 36.9178 32.0711 36.7591 31.8658C36.6098 31.6604 36.4278 31.5111 36.2131 31.4178C35.9984 31.3151 35.7651 31.2638 35.5131 31.2638C35.1678 31.2638 34.8598 31.3711 34.5891 31.5858C34.3278 31.7911 34.1224 32.0851 33.9731 32.4678C33.8238 32.8411 33.7491 33.2751 33.7491 33.7698C33.7491 34.1338 33.7818 34.4651 33.8471 34.7638C33.9124 35.0624 34.0104 35.3191 34.1411 35.5338C34.2811 35.7484 34.4584 35.9164 34.6731 36.0378C34.8971 36.1498 35.1678 36.2058 35.4851 36.2058ZM40.4411 33.0138V32.0758H44.3611V33.0138H40.4411ZM46.6431 36.9618V28.2258H48.6731C49.1771 28.2258 49.6018 28.2724 49.9471 28.3658C50.2924 28.4591 50.5864 28.5944 50.8291 28.7718C51.0718 28.9398 51.2864 29.1544 51.4731 29.4158C51.6691 29.6771 51.8278 29.9711 51.9491 30.2978C52.0798 30.6244 52.1731 30.9838 52.2291 31.3758C52.2944 31.7584 52.3271 32.1784 52.3271 32.6358C52.2991 33.3078 52.2104 33.9098 52.0611 34.4418C51.9118 34.9738 51.6878 35.4264 51.3891 35.7998C51.0904 36.1731 50.7031 36.4624 50.2271 36.6678C49.7604 36.8638 49.1864 36.9618 48.5051 36.9618H46.6431ZM47.5671 36.1918H48.4631C49.1351 36.1918 49.6811 36.0564 50.1011 35.7858C50.5304 35.5151 50.8478 35.1184 51.0531 34.5958C51.2584 34.0731 51.3564 33.4384 51.3471 32.6918C51.3471 31.9264 51.2538 31.2731 51.0671 30.7318C50.8804 30.1904 50.5864 29.7751 50.1851 29.4858C49.7931 29.1964 49.2704 29.0518 48.6171 29.0518H47.5671V36.1918ZM56.6951 37.0878C56.2284 37.0878 55.8038 37.0178 55.4211 36.8778C55.0384 36.7284 54.7071 36.5138 54.4271 36.2338C54.1564 35.9538 53.9464 35.6084 53.7971 35.1978C53.6478 34.7778 53.5731 34.3018 53.5731 33.7698C53.5731 33.2284 53.6478 32.7478 53.7971 32.3278C53.9558 31.9078 54.1658 31.5578 54.4271 31.2778C54.6978 30.9884 55.0104 30.7691 55.3651 30.6198C55.7291 30.4704 56.1118 30.3958 56.5131 30.3958C56.8771 30.3958 57.2178 30.4564 57.5351 30.5778C57.8524 30.6991 58.1278 30.8858 58.3611 31.1378C58.5944 31.3804 58.7764 31.6931 58.9071 32.0758C59.0471 32.4584 59.1171 32.9111 59.1171 33.4338C59.1171 33.5084 59.1124 33.5878 59.1031 33.6718C59.1031 33.7464 59.0984 33.8211 59.0891 33.8958H54.5391C54.5578 34.3064 54.6278 34.6658 54.7491 34.9738C54.8704 35.2724 55.0291 35.5198 55.2251 35.7158C55.4211 35.9024 55.6451 36.0424 55.8971 36.1358C56.1584 36.2291 56.4338 36.2758 56.7231 36.2758C56.9471 36.2758 57.1571 36.2524 57.3531 36.2058C57.5491 36.1498 57.7311 36.0704 57.8991 35.9678C58.0764 35.8558 58.2351 35.7204 58.3751 35.5618L58.9351 36.1078C58.7578 36.3224 58.5524 36.5044 58.3191 36.6538C58.0951 36.8031 57.8478 36.9104 57.5771 36.9758C57.3064 37.0504 57.0124 37.0878 56.6951 37.0878ZM54.5811 33.1118H58.0951C58.0951 32.8131 58.0531 32.5471 57.9691 32.3138C57.8944 32.0711 57.7824 31.8658 57.6331 31.6978C57.4931 31.5204 57.3204 31.3898 57.1151 31.3058C56.9191 31.2124 56.6951 31.1658 56.4431 31.1658C56.2191 31.1658 56.0044 31.2031 55.7991 31.2778C55.6031 31.3524 55.4211 31.4738 55.2531 31.6418C55.0851 31.8004 54.9404 32.0011 54.8191 32.2438C54.7071 32.4864 54.6278 32.7758 54.5811 33.1118ZM62.9811 36.9478L60.4471 30.5498H61.4551L63.5271 35.7998H63.3311L64.4651 33.1958C64.6891 32.6824 64.8664 32.2064 64.9971 31.7678C65.1371 31.3291 65.2398 30.9231 65.3051 30.5498H66.2571C66.1824 30.9418 66.0658 31.3711 65.9071 31.8378C65.7484 32.3044 65.5524 32.8084 65.3191 33.3498L63.7651 36.9478H62.9811ZM70.6951 37.0878C70.2284 37.0878 69.8038 37.0178 69.4211 36.8778C69.0384 36.7284 68.7071 36.5138 68.4271 36.2338C68.1564 35.9538 67.9464 35.6084 67.7971 35.1978C67.6478 34.7778 67.5731 34.3018 67.5731 33.7698C67.5731 33.2284 67.6478 32.7478 67.7971 32.3278C67.9558 31.9078 68.1658 31.5578 68.4271 31.2778C68.6978 30.9884 69.0104 30.7691 69.3651 30.6198C69.7291 30.4704 70.1118 30.3958 70.5131 30.3958C70.8771 30.3958 71.2178 30.4564 71.5351 30.5778C71.8524 30.6991 72.1278 30.8858 72.3611 31.1378C72.5944 31.3804 72.7764 31.6931 72.9071 32.0758C73.0471 32.4584 73.1171 32.9111 73.1171 33.4338C73.1171 33.5084 73.1124 33.5878 73.1031 33.6718C73.1031 33.7464 73.0984 33.8211 73.0891 33.8958H68.5391C68.5578 34.3064 68.6278 34.6658 68.7491 34.9738C68.8704 35.2724 69.0291 35.5198 69.2251 35.7158C69.4211 35.9024 69.6451 36.0424 69.8971 36.1358C70.1584 36.2291 70.4338 36.2758 70.7231 36.2758C70.9471 36.2758 71.1571 36.2524 71.3531 36.2058C71.5491 36.1498 71.7311 36.0704 71.8991 35.9678C72.0764 35.8558 72.2351 35.7204 72.3751 35.5618L72.9351 36.1078C72.7578 36.3224 72.5524 36.5044 72.3191 36.6538C72.0951 36.8031 71.8478 36.9104 71.5771 36.9758C71.3064 37.0504 71.0124 37.0878 70.6951 37.0878ZM68.5811 33.1118H72.0951C72.0951 32.8131 72.0531 32.5471 71.9691 32.3138C71.8944 32.0711 71.7824 31.8658 71.6331 31.6978C71.4931 31.5204 71.3204 31.3898 71.1151 31.3058C70.9191 31.2124 70.6951 31.1658 70.4431 31.1658C70.2191 31.1658 70.0044 31.2031 69.7991 31.2778C69.6031 31.3524 69.4211 31.4738 69.2531 31.6418C69.0851 31.8004 68.9404 32.0011 68.8191 32.2438C68.7071 32.4864 68.6278 32.7758 68.5811 33.1118ZM74.9931 36.9478V36.1358H76.8831V28.4498H75.0771V27.6378H77.9051V36.1358H79.7811V36.9478H74.9931ZM84.3871 37.0598C83.8084 37.0598 83.2951 36.9198 82.8471 36.6398C82.4084 36.3504 82.0631 35.9584 81.8111 35.4638C81.5591 34.9598 81.4331 34.3858 81.4331 33.7418C81.4331 33.0884 81.5591 32.5144 81.8111 32.0198C82.0631 31.5158 82.4084 31.1238 82.8471 30.8438C83.2951 30.5544 83.8084 30.4098 84.3871 30.4098C84.9658 30.4098 85.4744 30.5544 85.9131 30.8438C86.3611 31.1238 86.7111 31.5158 86.9631 32.0198C87.2151 32.5144 87.3411 33.0884 87.3411 33.7418C87.3411 34.3858 87.2151 34.9598 86.9631 35.4638C86.7111 35.9584 86.3611 36.3504 85.9131 36.6398C85.4744 36.9198 84.9658 37.0598 84.3871 37.0598ZM84.3871 36.2198C84.7604 36.2198 85.0871 36.1124 85.3671 35.8978C85.6471 35.6831 85.8664 35.3891 86.0251 35.0158C86.1931 34.6424 86.2771 34.2131 86.2771 33.7278C86.2771 33.2424 86.1931 32.8131 86.0251 32.4398C85.8664 32.0664 85.6471 31.7771 85.3671 31.5718C85.0871 31.3571 84.7604 31.2498 84.3871 31.2498C84.0231 31.2498 83.6964 31.3571 83.4071 31.5718C83.1271 31.7771 82.9031 32.0664 82.7351 32.4398C82.5764 32.8131 82.4971 33.2424 82.4971 33.7278C82.4971 34.2131 82.5764 34.6424 82.7351 35.0158C82.9031 35.3891 83.1271 35.6831 83.4071 35.8978C83.6964 36.1124 84.0231 36.2198 84.3871 36.2198ZM88.7271 39.2858V30.5498H89.7491V31.8098C89.8518 31.4831 89.9964 31.2171 90.1831 31.0118C90.3791 30.8064 90.6031 30.6571 90.8551 30.5638C91.1164 30.4611 91.3964 30.4098 91.6951 30.4098C92.0498 30.4098 92.3858 30.4798 92.7031 30.6198C93.0298 30.7504 93.3144 30.9511 93.5571 31.2218C93.8091 31.4924 94.0051 31.8331 94.1451 32.2438C94.2944 32.6544 94.3691 33.1398 94.3691 33.6998C94.3691 34.2598 94.2898 34.7544 94.1311 35.1838C93.9818 35.6131 93.7764 35.9724 93.5151 36.2618C93.2631 36.5418 92.9738 36.7564 92.6471 36.9058C92.3298 37.0458 92.0031 37.1158 91.6671 37.1158C91.4151 37.1158 91.1678 37.0738 90.9251 36.9898C90.6918 36.9151 90.4771 36.8031 90.2811 36.6538C90.0851 36.4951 89.9124 36.3131 89.7631 36.1078V39.2858H88.7271ZM91.4991 36.2198C91.7231 36.2198 91.9424 36.1824 92.1571 36.1078C92.3718 36.0238 92.5678 35.8884 92.7451 35.7018C92.9224 35.5151 93.0624 35.2631 93.1651 34.9458C93.2678 34.6191 93.3191 34.2178 93.3191 33.7418C93.3191 33.2284 93.2538 32.7944 93.1231 32.4398C92.9924 32.0758 92.8011 31.7958 92.5491 31.5998C92.3064 31.4038 92.0078 31.2964 91.6531 31.2778C91.3918 31.2591 91.1444 31.2964 90.9111 31.3898C90.6871 31.4831 90.4864 31.6371 90.3091 31.8518C90.1318 32.0664 89.9918 32.3511 89.8891 32.7058C89.7958 33.0511 89.7491 33.4711 89.7491 33.9658C89.7584 34.2644 89.7911 34.5351 89.8471 34.7778C89.9031 35.0204 89.9824 35.2351 90.0851 35.4218C90.1878 35.5991 90.3091 35.7484 90.4491 35.8698C90.5891 35.9818 90.7478 36.0704 90.9251 36.1358C91.1024 36.1918 91.2938 36.2198 91.4991 36.2198ZM98.6951 37.0878C98.2284 37.0878 97.8038 37.0178 97.4211 36.8778C97.0384 36.7284 96.7071 36.5138 96.4271 36.2338C96.1564 35.9538 95.9464 35.6084 95.7971 35.1978C95.6478 34.7778 95.5731 34.3018 95.5731 33.7698C95.5731 33.2284 95.6478 32.7478 95.7971 32.3278C95.9558 31.9078 96.1658 31.5578 96.4271 31.2778C96.6978 30.9884 97.0104 30.7691 97.3651 30.6198C97.7291 30.4704 98.1118 30.3958 98.5131 30.3958C98.8771 30.3958 99.2178 30.4564 99.5351 30.5778C99.8524 30.6991 100.128 30.8858 100.361 31.1378C100.594 31.3804 100.776 31.6931 100.907 32.0758C101.047 32.4584 101.117 32.9111 101.117 33.4338C101.117 33.5084 101.112 33.5878 101.103 33.6718C101.103 33.7464 101.098 33.8211 101.089 33.8958H96.5391C96.5578 34.3064 96.6278 34.6658 96.7491 34.9738C96.8704 35.2724 97.0291 35.5198 97.2251 35.7158C97.4211 35.9024 97.6451 36.0424 97.8971 36.1358C98.1584 36.2291 98.4338 36.2758 98.7231 36.2758C98.9471 36.2758 99.1571 36.2524 99.3531 36.2058C99.5491 36.1498 99.7311 36.0704 99.8991 35.9678C100.076 35.8558 100.235 35.7204 100.375 35.5618L100.935 36.1078C100.758 36.3224 100.552 36.5044 100.319 36.6538C100.095 36.8031 99.8478 36.9104 99.5771 36.9758C99.3064 37.0504 99.0124 37.0878 98.6951 37.0878ZM96.5811 33.1118H100.095C100.095 32.8131 100.053 32.5471 99.9691 32.3138C99.8944 32.0711 99.7824 31.8658 99.6331 31.6978C99.4931 31.5204 99.3204 31.3898 99.1151 31.3058C98.9191 31.2124 98.6951 31.1658 98.4431 31.1658C98.2191 31.1658 98.0044 31.2031 97.7991 31.2778C97.6031 31.3524 97.4211 31.4738 97.2531 31.6418C97.0851 31.8004 96.9404 32.0011 96.8191 32.2438C96.7071 32.4864 96.6278 32.7758 96.5811 33.1118ZM103.553 30.5498H104.603L104.561 32.4118L104.435 32.2018C104.491 31.9124 104.589 31.6558 104.729 31.4318C104.869 31.2078 105.037 31.0211 105.233 30.8718C105.429 30.7131 105.644 30.5964 105.877 30.5218C106.11 30.4378 106.353 30.3958 106.605 30.3958C106.941 30.3958 107.249 30.4564 107.529 30.5778C107.818 30.6898 108.075 30.8624 108.299 31.0958L107.851 31.8798L107.795 32.0058L107.697 31.9498C107.678 31.8751 107.65 31.8051 107.613 31.7398C107.576 31.6744 107.496 31.5951 107.375 31.5018C107.226 31.4084 107.086 31.3478 106.955 31.3198C106.834 31.2824 106.694 31.2638 106.535 31.2638C106.302 31.2638 106.068 31.3104 105.835 31.4038C105.602 31.4878 105.387 31.6231 105.191 31.8098C105.004 31.9964 104.855 32.2344 104.743 32.5238C104.631 32.8131 104.575 33.1584 104.575 33.5598V36.9618H103.553V30.5498Z" fill="#FEA423"/>
</svg>
