<svg width="113" height="113" viewBox="0 0 113 113" fill="none" xmlns="http://www.w3.org/2000/svg">
<path d="M96.4502 16.5498C85.7799 5.87659 71.5902 0 56.5 0C41.4098 0 27.2201 5.87659 16.5498 16.5498C5.87659 27.2201 0 41.4098 0 56.5C0 71.5902 5.87659 85.7799 16.5498 96.4502C27.2201 107.123 41.4098 113 56.5 113C71.5902 113 85.7799 107.123 96.4502 96.4502C107.123 85.7799 113 71.5902 113 56.5C113 41.4098 107.123 27.2201 96.4502 16.5498ZM95.947 95.947C85.4092 106.485 71.4019 112.288 56.5 112.288C41.5981 112.288 27.5908 106.485 17.053 95.947C6.51516 85.4092 0.712135 71.4019 0.712135 56.5C0.712135 41.5981 6.51516 27.5908 17.053 17.053C27.5908 6.51516 41.5981 0.712135 56.5 0.712135C71.4019 0.712135 85.4092 6.51516 95.947 17.053C106.485 27.5908 112.288 41.5981 112.288 56.5C112.288 71.4019 106.485 85.4092 95.947 95.947ZM108.927 54.6373C108.966 54.5637 108.977 54.4784 108.954 54.396C108.948 54.3665 108.933 54.3342 108.916 54.3077C108.377 41.1155 102.989 28.7944 93.5987 19.4013C83.6877 9.49318 70.5132 4.03445 56.5 4.03445C54.0517 4.03445 51.5827 4.20807 49.1609 4.54354C45.253 5.09089 41.4098 6.08258 37.7373 7.48919C27.9263 11.2441 19.5455 17.7975 13.4953 26.4373C7.72167 34.6798 4.49057 44.2789 4.08154 54.3195C4.03151 54.4195 4.02268 54.5313 4.06977 54.6314C4.04622 55.2523 4.03445 55.8761 4.03445 56.5C4.03445 70.5132 9.49318 83.6877 19.4013 93.5987C20.4842 94.6816 21.6083 95.7057 22.7648 96.6827C32.2021 104.631 44.017 108.966 56.5 108.966C56.7619 108.966 57.0209 108.96 57.2798 108.954C57.2886 108.954 57.2975 108.957 57.3063 108.957C57.3151 108.957 57.321 108.954 57.3298 108.954C71.034 108.742 83.8848 103.31 93.5987 93.5958C103.507 83.6877 108.966 70.5132 108.966 56.5C108.966 55.8791 108.951 55.2552 108.927 54.6373ZM107.627 64.5807C106.143 63.2535 104.384 62.3736 102.556 61.8057C102.639 59.787 102.553 57.8801 102.309 56.088C105.267 55.6054 107.347 55.1464 108.227 54.9433C108.242 55.4612 108.253 55.9791 108.253 56.5C108.253 56.8708 108.25 57.2416 108.242 57.6123C106.532 58.6541 105.29 58.6305 105.272 58.6305C105.084 58.6246 104.91 58.7777 104.902 58.9748C104.896 59.172 105.046 59.3368 105.243 59.3427C105.249 59.3427 105.267 59.3427 105.293 59.3427C105.537 59.3427 106.67 59.2926 108.215 58.4481C108.136 60.5168 107.939 62.5649 107.627 64.5807ZM106.679 69.2508C105.037 66.6759 100.332 66.0255 100.108 65.9991C99.9167 65.9726 99.7372 66.1109 99.7107 66.3051C99.6842 66.4993 99.8225 66.6759 100.017 66.7024C100.073 66.7112 105.505 67.4586 106.4 70.316C106.12 71.3195 105.811 72.3141 105.475 73.2999C104.298 73.3823 101.703 73.3087 100.841 72.0905C100.39 71.4519 100.441 70.5308 101 69.3508C101.056 69.2302 101.044 69.0889 100.961 68.983C100.882 68.8741 100.75 68.8241 100.617 68.8476C99.028 69.1213 95.3232 69.5127 93.2191 68.8711C93.1956 68.8623 93.1691 68.8505 93.1455 68.8476C92.5717 68.6652 92.1244 68.4003 91.8831 68.0354C91.5006 67.4557 91.6712 66.6023 92.3922 65.49C92.4805 65.3546 92.4658 65.178 92.3598 65.0574C92.251 64.9397 92.0773 64.9073 91.9332 64.9809C91.8802 65.0044 86.6922 67.6146 83.3816 66.6406C82.9049 66.4993 82.6106 66.3169 82.593 66.1491C82.5812 66.0491 82.643 65.4723 84.8883 64.2452C87.9781 62.559 91.53 61.6321 95.1584 61.5703C98.9309 61.5026 104.119 62.1265 107.491 65.4282C107.268 66.7171 106.994 67.9913 106.679 69.2508ZM86.9923 48.3928C86.9276 48.2575 86.7834 48.178 86.6333 48.1927C83.417 48.5547 77.9553 48.8902 76.996 48.2516C76.8724 48.1692 76.8135 48.0691 76.8017 47.9249C76.737 47.1334 78.0789 45.5708 78.9411 44.7733C79.0559 44.6644 79.0882 44.4938 79.0205 44.3554C78.9499 44.2142 78.7969 44.1377 78.6409 44.1612C77.0489 44.4202 74.2798 44.738 71.6255 44.7527C71.6137 44.7527 71.602 44.7527 71.5902 44.7527C68.3473 44.7674 65.2869 44.3231 64.7955 42.7428C64.2099 40.8654 66.258 39.5323 68.0825 38.7437C69.6657 38.058 71.4107 37.6637 73.2676 37.5725C77.8111 37.3459 89.1376 37.5696 96.0765 44.4555C100.17 48.5135 102.109 54.2841 101.85 61.5997C100.073 61.123 98.2659 60.9229 96.6209 60.8699C96.7562 59.4839 96.4178 58.0537 95.6174 56.6207C94.3432 54.3401 92.1038 52.6039 89.473 51.8623C88.3901 51.5563 87.4926 51.262 86.804 50.9912C86.4185 50.8382 86.2066 50.644 86.1566 50.3909C86.0389 49.8348 86.6716 49.052 86.9247 48.796C87.0277 48.693 87.0571 48.5311 86.9923 48.3928ZM14.0809 26.8463C14.6076 26.093 15.152 25.3603 15.7141 24.6422H21.1286C21.3258 24.6422 21.4847 24.4833 21.4847 24.2862C21.4847 24.089 21.3258 23.9301 21.1286 23.9301H16.2791C21.9967 16.8617 29.4183 11.453 37.9315 8.18073H49.0726C49.2698 8.18073 49.4287 8.02182 49.4287 7.82466C49.4287 7.6275 49.2698 7.46859 49.0726 7.46859H39.912C42.9459 6.44159 46.0799 5.69414 49.258 5.24979C51.6475 4.91727 54.084 4.74659 56.5 4.74659C70.3248 4.74659 83.3198 10.1317 93.0955 19.9045C102.33 29.1416 107.641 41.2509 108.2 54.2165C107.429 54.396 105.308 54.8727 102.203 55.3818C101.447 50.747 99.5636 46.9127 96.5738 43.9493C89.4348 36.8662 77.8699 36.6338 73.2293 36.8604C71.2871 36.9545 69.4597 37.3695 67.7941 38.0875C64.0069 39.7266 63.7008 41.6393 64.1128 42.9547C64.6307 44.6115 67.0614 45.4531 71.3342 45.4648C72.523 50.1761 72.3789 53.7486 70.8663 56.5471C62.203 55.7231 54.1782 53.881 47.0186 51.0648C31.9608 45.1382 21.1198 46.3065 14.6723 48.3252C9.38135 49.9848 6.15909 52.4214 4.83193 53.5838C4.96141 51.2296 5.24979 48.9049 5.6912 46.6184H9.76979C9.96695 46.6184 10.1259 46.4595 10.1259 46.2623C10.1259 46.0652 9.96695 45.9062 9.76979 45.9062H5.83245C7.24789 39.0909 10.0288 32.6317 14.0809 26.8463ZM4.78484 54.5961C5.46167 53.9369 8.82224 50.8971 14.9284 48.9902C26.3961 45.4148 38.5642 48.5047 46.7537 51.7269C53.8839 54.5284 61.8616 56.3764 70.4632 57.221C70.3454 57.4034 70.2189 57.5859 70.0865 57.7624C66.6965 62.2824 58.7159 64.666 45.6885 65.0456C40.6623 65.1928 36.2924 66.0609 32.5375 67.3145C28.2176 63.6184 22.1027 62.0205 14.8489 62.6973C10.3112 63.1182 6.60049 64.3158 5.39987 64.7366C4.97023 62.0352 4.74659 59.2838 4.74659 56.5C4.74659 55.8644 4.75836 55.2287 4.78484 54.5961ZM26.4402 69.8981C20.7638 66.9849 13.2157 67.8589 12.8949 67.8971C12.7007 67.9207 12.5595 68.1002 12.583 68.2944C12.6095 68.4886 12.7861 68.6269 12.9803 68.6034C13.0539 68.5945 20.2341 67.7676 25.6722 70.3131C23.1885 71.6873 21.1286 73.1675 19.4778 74.5506C15.1461 78.1848 12.8155 81.7131 12.0357 83.0226C10.5437 80.5302 9.26953 77.92 8.22193 75.2244C8.96938 74.9361 10.9851 74.218 13.1716 73.9885C13.3658 73.9679 13.507 73.7914 13.4864 73.5971C13.4658 73.4029 13.2893 73.2617 13.0951 73.2823C10.8086 73.5206 8.75456 74.2504 7.9718 74.5565C6.88005 71.6137 6.05315 68.571 5.51169 65.4547C7.65693 64.6925 22.3057 59.8988 31.7489 67.5852C29.8126 68.2738 28.044 69.0595 26.4402 69.8981ZM12.4594 83.7112C12.9332 82.8784 15.2844 78.9882 19.9633 75.0744C24.8041 71.0252 33.1967 66.1227 45.7091 65.7548C59.1514 65.3634 67.082 62.9592 70.6574 58.1891C72.9909 55.0757 73.4412 51.0177 72.0669 45.456C74.2916 45.4148 76.4663 45.1706 77.7052 45.0087C76.9812 45.8091 76.016 47.051 76.0896 47.9809C76.119 48.3399 76.2927 48.6371 76.5987 48.8431C77.8582 49.6817 83.5965 49.2109 85.8623 48.9902C85.5887 49.4169 85.3415 49.9848 85.4563 50.5381C85.5563 51.0354 85.9241 51.4091 86.5392 51.6534C87.2513 51.9329 88.1724 52.2331 89.2759 52.545C91.7272 53.2395 93.8106 54.8491 94.9936 56.9679C95.7351 58.2892 96.0412 59.5987 95.9088 60.8552C95.6469 60.8552 95.3908 60.8552 95.1407 60.8582C91.4005 60.9258 87.7339 61.8793 84.544 63.6214C82.6489 64.6572 81.8044 65.4841 81.8809 66.2286C81.9603 66.9672 82.8755 67.2379 83.1786 67.3262C85.8771 68.1237 89.5348 66.8112 91.2681 66.0697C90.8649 67.0084 90.8738 67.8 91.2887 68.4297C91.5918 68.8859 92.095 69.2184 92.7159 69.4509C92.6806 70.2395 92.4099 72.8762 90.3617 75.7836C86.2655 81.5984 78.3437 84.0055 72.4201 85.0031C64.9338 86.2626 59.016 87.9752 54.3253 90.2411C54.3018 90.2529 54.2812 90.2676 54.2577 90.2823C52.9805 89.8262 51.6151 89.4142 50.1555 89.0728C41.2803 86.9865 34.3032 89.0228 30.0127 91.1004C26.1107 92.9896 23.7123 95.1996 22.9796 95.9323C21.9232 95.0289 20.8962 94.0843 19.9045 93.0926C17.0353 90.2234 14.5487 87.0777 12.4594 83.7112ZM31.1191 101.626C33.2349 101.085 39.3322 99.8431 45.6914 101.523C45.8827 101.573 46.0769 101.462 46.127 101.27C46.177 101.079 46.0622 100.885 45.8709 100.835C38.4141 98.8662 31.3192 100.808 30.254 101.126C27.9057 99.7402 25.6575 98.1599 23.5299 96.3972C24.2832 95.6616 26.6462 93.5222 30.354 91.733C34.5327 89.7143 41.3362 87.7339 49.9937 89.7703C58.66 91.8066 64.0392 96.2295 67.0261 99.5813C69.651 102.527 70.9369 105.181 71.3401 106.102C66.8848 107.429 62.2295 108.153 57.4652 108.242C56.7119 107.326 55.8967 106.476 55.0404 105.711C54.8933 105.581 54.6667 105.593 54.5372 105.74C54.4048 105.887 54.4195 106.114 54.5666 106.244C55.2552 106.859 55.9173 107.532 56.5412 108.253C56.5265 108.253 56.5118 108.253 56.4971 108.253C47.4629 108.253 38.779 105.949 31.1191 101.626ZM90.0145 95.9382C88.8404 96.9387 87.6309 97.8804 86.3891 98.7632C85.3385 98.1717 84.2027 97.6979 83.005 97.3507C82.8166 97.2977 82.6195 97.4066 82.5636 97.5949C82.5077 97.7862 82.6195 97.9834 82.8078 98.0363C83.8378 98.3335 84.8147 98.7337 85.7299 99.2222C81.5013 102.127 76.893 104.369 72.0287 105.893C71.652 105.008 70.3866 102.324 67.697 99.2605C69.1242 98.7014 73.7354 97.0888 78.7734 97.3713C78.9705 97.3742 79.1353 97.23 79.1471 97.0329C79.1589 96.8357 79.0088 96.6709 78.8116 96.6591C73.2352 96.3502 68.3091 98.2305 67.182 98.6955C66.1992 97.6361 64.9956 96.4914 63.539 95.3555C63.8833 95.1054 64.5512 94.6875 65.6871 94.2402C67.3763 93.5752 70.472 92.71 75.6335 92.3481C84.1585 91.7536 88.8404 94.9906 90.0145 95.9382ZM93.0955 93.0955C92.2745 93.9165 91.427 94.7052 90.5619 95.4615C90.1028 95.0701 89.0081 94.2373 87.2366 93.4398C90.1881 91.8184 92.6512 89.9615 94.558 87.9105C94.6934 87.7663 94.6846 87.5397 94.5404 87.4073C94.3962 87.2748 94.1726 87.2807 94.0372 87.4249C92.0744 89.5348 89.4995 91.4388 86.392 93.0837C83.9054 92.1068 80.333 91.3034 75.5835 91.6359C66.9142 92.2421 63.7714 94.2432 62.9534 94.9082C60.8611 93.3545 58.2892 91.8478 55.1787 90.6354C59.7223 88.5255 65.4046 86.91 72.5378 85.7123C78.6174 84.6882 86.7481 82.2016 90.9738 76.1573C92.9837 73.2823 93.3545 70.7015 93.4192 69.6657C95.6263 70.1954 98.722 69.854 100.102 69.6539C99.6813 70.8104 99.7343 71.7697 100.258 72.5083C101.194 73.8296 103.413 74.0415 104.731 74.0415C104.913 74.0415 105.078 74.0356 105.219 74.0327C102.677 81.1158 98.5778 87.6103 93.0955 93.0955ZM14.4811 73.553C14.487 73.3588 14.6459 73.2058 14.8371 73.2058C14.843 73.2058 14.843 73.2058 14.846 73.2058C15.3668 73.2205 15.8641 73.2705 16.3261 73.3588C16.5174 73.3941 16.6469 73.5824 16.6116 73.7766C16.5763 73.9473 16.4291 74.065 16.2614 74.065C16.2408 74.065 16.2202 74.0621 16.1937 74.0591C15.77 73.9767 15.3109 73.9297 14.8283 73.9149C14.6311 73.912 14.4752 73.7502 14.4811 73.553ZM48.487 56.8678C48.5429 56.6795 48.7401 56.5677 48.9284 56.6236C58.7247 59.4192 60.555 59.3544 60.6286 59.3515C60.8287 59.3397 60.9906 59.4869 61.0053 59.6811C61.02 59.8753 60.8787 60.043 60.6845 60.0607C60.6786 60.0607 60.658 60.0636 60.6139 60.0636C60.2019 60.0636 57.8625 59.9135 48.7313 57.3092C48.5459 57.2533 48.434 57.0562 48.487 56.8678ZM38.0374 53.7427C38.0904 53.5514 38.2876 53.4396 38.4759 53.4955C38.9379 53.622 39.4087 53.7603 39.8708 53.9045L40.374 54.0605C40.5623 54.1223 40.6653 54.3195 40.6094 54.5078C40.5623 54.6608 40.421 54.7609 40.268 54.7609C40.2327 54.7609 40.1974 54.755 40.1621 54.7432L39.6589 54.5872C39.1998 54.443 38.7408 54.3077 38.2846 54.1811C38.0934 54.1252 37.9845 53.9281 38.0374 53.7427ZM11.8091 57.1474C11.8856 57.0768 19.5455 50.0672 34.0207 52.495C34.2149 52.5273 34.3473 52.7098 34.312 52.907C34.2796 53.1012 34.0972 53.2307 33.9029 53.1983C19.7927 50.8323 12.3711 57.6006 12.2976 57.6683C12.227 57.733 12.1416 57.7624 12.0533 57.7624C11.9562 57.7624 11.8621 57.7242 11.7944 57.6506C11.659 57.5064 11.6649 57.2798 11.8091 57.1474ZM29.1152 59.3603C29.2211 59.3338 39.8914 56.7737 50.2261 61.5173C50.4027 61.6027 50.4822 61.8116 50.4027 61.9911C50.3409 62.1206 50.2114 62.1971 50.079 62.1971C50.029 62.1971 49.979 62.1883 49.9319 62.1647C39.8296 57.5241 29.3918 60.0254 29.2888 60.0518C29.0975 60.0989 28.9033 59.9812 28.8562 59.7899C28.8091 59.6016 28.9209 59.4074 29.1152 59.3603ZM63.9774 68.1649C63.9451 67.9707 64.0775 67.7882 64.2688 67.7559C70.3925 66.7318 74.7389 63.9539 77.1902 59.4957C79.0205 56.1645 79.05 53.0865 79.05 53.0541C79.05 52.8569 79.2089 52.698 79.406 52.698C79.6032 52.698 79.7621 52.8569 79.7621 53.0541C79.7621 53.1865 79.7386 56.3205 77.8317 59.8076C76.072 63.021 72.3141 67.132 64.3894 68.4562C64.3688 68.4562 64.3482 68.4592 64.3305 68.4592C64.1569 68.465 64.0098 68.3415 63.9774 68.1649ZM61.2495 72.8026C61.2289 72.6084 61.3702 72.4289 61.5644 72.4083C66.2374 71.8698 70.4837 70.472 74.1857 68.262C74.3534 68.162 74.5741 68.2149 74.6742 68.3827C74.7772 68.5533 74.7213 68.7711 74.5506 68.8741C70.7633 71.137 66.4199 72.5672 61.6439 73.1175C61.6291 73.1204 61.6144 73.1204 61.6027 73.1204C61.4261 73.1175 61.2731 72.9851 61.2495 72.8026ZM81.7955 61.6203C84.285 58.5099 85.2738 55.9262 85.2856 55.9026C85.3533 55.7172 85.5592 55.6231 85.7417 55.6937C85.9271 55.7614 86.0212 55.9674 85.9506 56.1498C85.9094 56.2616 84.9118 58.8689 82.3546 62.0647C82.284 62.1529 82.181 62.1971 82.078 62.1971C81.9986 62.1971 81.9191 62.1706 81.8544 62.1206C81.6984 61.997 81.6719 61.7733 81.7955 61.6203ZM47.0569 71.9051C47.0392 71.7079 47.1834 71.5372 47.3805 71.5166C48.4252 71.4225 49.4493 71.3018 50.4145 71.1576C50.6116 71.1282 50.7911 71.2606 50.8206 71.4548C50.85 71.652 50.7176 71.8315 50.5234 71.8609C49.5405 72.0081 48.5047 72.1317 47.4423 72.2288C47.4306 72.2288 47.4217 72.2288 47.41 72.2288C47.2305 72.2288 47.0745 72.0905 47.0569 71.9051ZM22.3028 80.1505C22.2351 80.2094 22.1527 80.2388 22.0644 80.2388C21.9673 80.2388 21.8702 80.2006 21.7996 80.1211C21.6701 79.974 21.6848 79.7474 21.832 79.6179C21.9085 79.5473 29.8037 72.6202 38.3464 71.8227C38.5406 71.8021 38.7172 71.9463 38.7319 72.1405C38.7525 72.3377 38.6083 72.5113 38.4141 72.5289C30.098 73.3087 22.3793 80.0799 22.3028 80.1505ZM38.0816 80.6626C38.0934 80.8597 37.9462 81.0304 37.752 81.0451C33.5145 81.3629 27.2465 86.9776 27.1847 87.0335C27.1141 87.0953 27.0288 87.1277 26.9464 87.1277C26.8493 87.1277 26.7522 87.0865 26.6845 87.0071C26.5491 86.8599 26.5609 86.6363 26.708 86.5039C26.9729 86.2655 33.2202 80.6685 37.702 80.333C37.8962 80.3183 38.0669 80.4654 38.0816 80.6626ZM40.0002 86.0448C39.8708 85.8977 39.8855 85.674 40.0326 85.5416C40.0915 85.4886 46.1476 80.2006 54.5137 80.9362C62.6385 81.6484 66.9466 80.3624 66.9878 80.3477C67.1791 80.2918 67.3763 80.3948 67.4351 80.5831C67.491 80.7715 67.388 80.9716 67.1997 81.0304C67.0202 81.0834 62.7327 82.3723 54.4519 81.6484C46.3859 80.9421 40.5623 86.0242 40.5034 86.0772C40.4358 86.136 40.3534 86.1684 40.268 86.1684C40.1709 86.1654 40.0709 86.1242 40.0002 86.0448ZM77.7817 78.382C77.8611 78.5644 77.7787 78.7734 77.5963 78.8499C76.4369 79.3531 75.1891 79.8151 73.8855 80.2241C73.8502 80.2359 73.8149 80.2388 73.7796 80.2388C73.6266 80.2388 73.4883 80.1417 73.4412 79.9916C73.3823 79.8033 73.4853 79.6032 73.6736 79.5443C74.9508 79.1441 76.1749 78.688 77.3138 78.1966C77.4933 78.1171 77.7052 78.2025 77.7817 78.382ZM80.0387 77.2637C79.9416 77.0931 80.0005 76.8724 80.1711 76.7753C83.9555 74.6241 85.3062 72.5848 85.3179 72.5672C85.4239 72.4024 85.6446 72.3553 85.8094 72.4613C85.9712 72.5701 86.0212 72.7908 85.9153 72.9527C85.8594 73.041 84.4763 75.1479 80.5213 77.3962C80.4684 77.4256 80.4066 77.4433 80.3477 77.4433C80.2241 77.4433 80.1005 77.3785 80.0387 77.2637ZM66.7759 90.1646C66.8436 90.35 66.7465 90.553 66.5611 90.6207C63.9186 91.5683 63.2241 92.1745 63.2211 92.1803C63.1505 92.2421 63.0652 92.2745 62.9798 92.2745C62.8827 92.2745 62.7886 92.2363 62.7209 92.1597C62.5855 92.0155 62.5943 91.7948 62.7356 91.6595C62.8092 91.5918 63.536 90.9503 66.3198 89.9527C66.5052 89.8821 66.7112 89.9792 66.7759 90.1646ZM78.5703 87.1748C78.6086 87.3661 78.485 87.5544 78.2908 87.5927C76.7223 87.9046 75.2303 88.2283 73.859 88.549C73.8326 88.5549 73.8031 88.5579 73.7766 88.5579C73.6148 88.5579 73.4677 88.446 73.4323 88.2812C73.3853 88.09 73.5059 87.9016 73.6972 87.8546C75.0773 87.5309 76.5752 87.2101 78.1495 86.8923C78.3437 86.857 78.5321 86.9806 78.5703 87.1748ZM96.0794 75.0744C95.9529 75.348 92.8689 81.8691 84.4116 85.6534C84.3645 85.677 84.3145 85.6858 84.2674 85.6858C84.132 85.6858 84.0025 85.6063 83.9437 85.4739C83.8613 85.2944 83.9437 85.0855 84.1232 85.0031C92.3216 81.3306 95.4055 74.8419 95.435 74.7742C95.5174 74.5977 95.7292 74.5182 95.9088 74.6006C96.0853 74.683 96.1648 74.8949 96.0794 75.0744ZM98.0334 82.3399C98.0246 82.3782 97.8009 83.3022 96.9652 84.7235C96.9004 84.8383 96.7798 84.9001 96.6591 84.9001C96.5973 84.9001 96.5355 84.8824 96.4796 84.8501C96.3119 84.75 96.253 84.5322 96.3531 84.3645C97.127 83.0432 97.3419 82.184 97.3448 82.1781C97.3919 81.9868 97.5802 81.8691 97.7744 81.9132C97.9598 81.9574 98.0805 82.1486 98.0334 82.3399ZM102.553 64.563C102.492 64.6925 102.365 64.7661 102.233 64.7661C102.18 64.7661 102.127 64.7543 102.077 64.7308C99.131 63.3153 93.1338 63.2535 93.0749 63.2535C92.8778 63.2506 92.7189 63.0917 92.7218 62.8945C92.7247 62.6973 92.8836 62.5443 93.0808 62.5414C93.3309 62.5443 99.2958 62.6032 102.386 64.0892C102.562 64.1746 102.639 64.3865 102.553 64.563ZM76.0984 39.8825C75.9013 39.8884 75.7365 39.7383 75.7277 39.5412C75.7188 39.344 75.8748 39.1763 76.069 39.1704C76.1808 39.1645 87.4602 38.7672 93.9077 45.4531C94.0431 45.5943 94.0401 45.8209 93.8959 45.9563C93.8283 46.021 93.737 46.0534 93.6488 46.0534C93.5575 46.0534 93.4634 46.0181 93.3927 45.9445C87.1748 39.4941 76.2073 39.8766 76.0984 39.8825ZM95.3791 51.8358C95.4556 52.0153 95.3673 52.2242 95.1878 52.3037C95.1436 52.3214 95.0966 52.3302 95.0495 52.3302C94.9141 52.3302 94.7787 52.2507 94.7228 52.1124C92.6541 47.2128 88.2842 46.0534 88.2401 46.0416C88.0488 45.9945 87.934 45.8003 87.984 45.612C88.0341 45.4207 88.2253 45.303 88.4166 45.353C88.6079 45.403 93.172 46.6154 95.3791 51.8358ZM46.5213 95.2967C46.3241 95.2643 46.1976 95.0789 46.2299 94.8847C46.2623 94.6905 46.4477 94.561 46.6419 94.5934C52.954 95.7086 58.5393 98.9898 63.2476 104.345C63.3771 104.496 63.3624 104.719 63.2123 104.852C63.1446 104.91 63.0622 104.937 62.9798 104.937C62.8798 104.937 62.7827 104.899 62.7091 104.816C58.1155 99.5842 52.6656 96.3825 46.5213 95.2967ZM42.6222 94.5463C42.6192 94.7405 42.4603 94.8965 42.2661 94.8965C42.2632 94.8965 42.2632 94.8965 42.2602 94.8965C40.9831 94.8759 39.6942 94.9494 38.4259 95.1113C38.4112 95.1142 38.3935 95.1142 38.3788 95.1142C38.2052 95.1142 38.0492 94.9847 38.0257 94.8023C38.0021 94.6081 38.1404 94.4315 38.3347 94.405C39.6383 94.2373 40.9625 94.1667 42.272 94.1843C42.4662 94.1873 42.6251 94.3491 42.6222 94.5463ZM34.6916 95.4909C34.7504 95.6763 34.6416 95.8764 34.4532 95.9323C33.8088 96.1236 33.4498 96.2648 33.4439 96.2678C33.4027 96.2854 33.3556 96.2942 33.3115 96.2942C33.1702 96.2942 33.0348 96.2089 32.9819 96.0706C32.9083 95.8882 32.9966 95.6822 33.179 95.6086C33.1937 95.6027 33.5704 95.4526 34.2502 95.2496C34.4385 95.1937 34.6357 95.3026 34.6916 95.4909ZM79.5443 100.658C79.715 100.755 79.7768 100.97 79.6797 101.141C79.5826 101.315 79.3648 101.373 79.1942 101.276C77.2167 100.158 74.5741 101.662 74.5506 101.676C74.4917 101.709 74.4299 101.724 74.3711 101.724C74.2475 101.724 74.1298 101.659 74.0621 101.547C73.965 101.373 74.0209 101.159 74.1945 101.058C74.3152 100.991 77.2137 99.3429 79.5443 100.658ZM38.1846 31.3899C39.6942 32.3963 41.4304 32.9201 43.2048 32.9201C43.8022 32.9201 44.4025 32.8612 45.0028 32.7406C47.0127 32.3404 48.7813 31.3045 50.1114 29.7537C50.1173 29.7478 50.1202 29.742 50.1231 29.7361C50.132 29.7272 50.1408 29.7155 50.1437 29.7037C50.1496 29.6919 50.1555 29.6831 50.1614 29.6743C50.1673 29.6654 50.1702 29.6537 50.1761 29.6448C50.182 29.6331 50.182 29.6213 50.1849 29.6095C50.1879 29.5978 50.1908 29.5889 50.1938 29.5772C50.1938 29.5654 50.1938 29.5566 50.1938 29.5448C50.1938 29.533 50.1938 29.5212 50.1938 29.5095C50.1938 29.4977 50.1938 29.483 50.1938 29.4742C50.1908 29.4624 50.1908 29.4536 50.1879 29.4418C50.1849 29.43 50.182 29.4183 50.1761 29.4065C50.1732 29.3977 50.1732 29.3918 50.1673 29.3859C50.1673 29.3829 50.1643 29.38 50.1643 29.3771C50.1585 29.3653 50.1526 29.3535 50.1437 29.3447C50.1408 29.3359 50.132 29.3241 50.1261 29.3153C50.1202 29.3064 50.1114 29.3005 50.1055 29.2917C50.0937 29.2829 50.0849 29.2741 50.0761 29.2623C50.0731 29.2623 50.0702 29.2593 50.0702 29.2564C50.0643 29.2505 50.0584 29.2505 50.0525 29.2446C50.0408 29.2358 50.0319 29.227 50.0202 29.2211C50.0084 29.2152 49.9996 29.2123 49.9937 29.2064C49.9819 29.2005 49.9701 29.1976 49.9584 29.1917C49.9466 29.1887 49.9378 29.1858 49.926 29.1828C49.9142 29.1799 49.9024 29.177 49.8907 29.177C49.8819 29.174 49.8701 29.174 49.8612 29.174C49.8495 29.174 49.8377 29.1711 49.823 29.174C49.8112 29.174 49.7995 29.177 49.7877 29.177C49.7759 29.177 49.7671 29.177 49.7553 29.1799C49.7435 29.1828 49.7288 29.1887 49.7171 29.1917C49.7112 29.1946 49.7053 29.1946 49.6994 29.1976C49.2462 29.3859 48.7695 29.5301 48.281 29.6272C46.3123 30.0215 44.3084 29.6242 42.6398 28.509C40.9684 27.3966 39.8296 25.6987 39.4352 23.7271C38.7555 20.3135 40.477 16.9059 43.6315 15.4404C43.6374 15.4374 43.6433 15.4345 43.6463 15.4316C43.658 15.4227 43.6698 15.4198 43.6816 15.411C43.6904 15.4051 43.6963 15.3992 43.708 15.3933C43.7169 15.3845 43.7257 15.3757 43.7316 15.3698C43.7404 15.3609 43.7463 15.3521 43.7551 15.3433C43.761 15.3345 43.7698 15.3227 43.7757 15.3139C43.7816 15.305 43.7875 15.2962 43.7934 15.2844C43.7963 15.2756 43.8052 15.2638 43.8081 15.2521C43.814 15.2432 43.8169 15.2315 43.8199 15.2226C43.8228 15.2109 43.8287 15.1991 43.8316 15.1873C43.8316 15.1755 43.8346 15.1638 43.8346 15.152C43.8346 15.1461 43.8375 15.1373 43.8375 15.1314C43.8375 15.1255 43.8375 15.1255 43.8375 15.1196C43.8375 15.1079 43.8346 15.0961 43.8346 15.0814C43.8316 15.0696 43.8316 15.0578 43.8316 15.049C43.8287 15.0402 43.8258 15.0284 43.8199 15.0166C43.8169 15.0049 43.814 14.9902 43.8052 14.9784C43.8052 14.9784 43.8052 14.9725 43.8052 14.9696C43.8022 14.9637 43.7963 14.9578 43.7934 14.9548C43.7875 14.9431 43.7816 14.9284 43.7757 14.9195C43.7698 14.9107 43.761 14.9048 43.7551 14.893C43.7463 14.8842 43.7404 14.8783 43.7316 14.8695C43.7228 14.8607 43.7139 14.8548 43.7051 14.846C43.6963 14.8401 43.6845 14.8312 43.6757 14.8254C43.6669 14.8195 43.658 14.8136 43.6463 14.8077C43.6345 14.8048 43.6257 14.7959 43.6139 14.793C43.6051 14.7871 43.5962 14.7842 43.5845 14.7812C43.5727 14.7783 43.5609 14.7753 43.5491 14.7724C43.5374 14.7695 43.5285 14.7695 43.5168 14.7695C43.5109 14.7695 43.5021 14.7665 43.4932 14.7665C42.8105 14.7459 42.1219 14.8048 41.4392 14.9401C39.0615 15.4139 37.0104 16.7882 35.6656 18.8068C34.3208 20.8255 33.8411 23.2445 34.3179 25.6251C34.7946 28.0028 36.1659 30.048 38.1846 31.3899ZM36.2601 19.1953C37.4989 17.3355 39.3881 16.0701 41.5834 15.6317C41.7305 15.6052 41.8777 15.5787 42.0248 15.5552C39.4205 17.4091 38.0934 20.6343 38.7408 23.8654C39.1704 26.0194 40.4152 27.8792 42.2455 29.0975C43.6109 30.0097 45.1853 30.4806 46.792 30.4806C47.3335 30.4806 47.8808 30.4276 48.4252 30.3187C48.4664 30.3099 48.5076 30.3011 48.5488 30.2922C47.4924 31.1662 46.2388 31.7665 44.8616 32.0402C42.6693 32.4816 40.4387 32.0402 38.5789 30.7984C36.7191 29.5595 35.4538 27.6673 35.0153 25.475C34.5798 23.2857 35.0212 21.0551 36.2601 19.1953ZM70.5867 18.8628C72.9645 19.4454 73.3764 19.8545 73.9591 22.2351C73.9973 22.394 74.1415 22.5058 74.3034 22.5058C74.4682 22.5058 74.6094 22.394 74.6506 22.2351C75.2333 19.8545 75.6423 19.4454 78.023 18.8628C78.1819 18.8245 78.2937 18.6803 78.2937 18.5155C78.2937 18.3537 78.1819 18.2095 78.023 18.1712C75.6423 17.5886 75.2333 17.1766 74.6506 14.7989C74.6124 14.64 74.4682 14.5282 74.3034 14.5282C74.1415 14.5282 73.9973 14.64 73.9591 14.7989C73.3764 17.1766 72.9645 17.5886 70.5867 18.1712C70.4278 18.2095 70.316 18.3537 70.316 18.5155C70.316 18.6803 70.4278 18.8245 70.5867 18.8628ZM74.3034 16.182C74.7566 17.4856 75.3363 18.0653 76.637 18.5155C75.3363 18.9687 74.7566 19.5484 74.3034 20.8491C73.8531 19.5484 73.2734 18.9687 71.9698 18.5155C73.2734 18.0653 73.8531 17.4856 74.3034 16.182ZM14.2045 39.6353C16.5851 40.218 16.9941 40.627 17.5768 43.0077C17.6151 43.1666 17.7592 43.2784 17.924 43.2784C18.0859 43.2784 18.2301 43.1666 18.2713 43.0077C18.851 40.627 19.263 40.218 21.6407 39.6353C21.7996 39.5971 21.9114 39.4529 21.9114 39.2881C21.9114 39.1263 21.7996 38.9821 21.6407 38.9409C19.263 38.3611 18.851 37.9492 18.2713 35.5715C18.233 35.4126 18.0859 35.3007 17.924 35.3007C17.7592 35.3007 17.618 35.4126 17.5768 35.5715C16.9941 37.9492 16.5851 38.3611 14.2045 38.9409C14.0455 38.9791 13.9337 39.1263 13.9337 39.2881C13.9337 39.4529 14.0455 39.5941 14.2045 39.6353ZM17.924 36.9545C18.3743 38.2582 18.954 38.8379 20.2576 39.2881C18.954 39.7413 18.3743 40.318 17.924 41.6217C17.4709 40.318 16.8941 39.7413 15.5905 39.2881C16.8941 38.8379 17.4709 38.2582 17.924 36.9545ZM52.4655 16.7352C52.4655 16.538 52.6245 16.3791 52.8216 16.3791H62.7268C62.9239 16.3791 63.0828 16.538 63.0828 16.7352C63.0828 16.9323 62.9239 17.0912 62.7268 17.0912H52.8216C52.6245 17.0912 52.4655 16.9323 52.4655 16.7352ZM18.3978 27.379C18.3978 27.1818 18.5567 27.0229 18.7539 27.0229H30.098C30.2952 27.0229 30.4541 27.1818 30.4541 27.379C30.4541 27.5761 30.2952 27.735 30.098 27.735H18.7539C18.5567 27.735 18.3978 27.5761 18.3978 27.379ZM50.7235 37.034C50.7235 36.8368 50.8824 36.6779 51.0795 36.6779H61.3202C61.5173 36.6779 61.6762 36.8368 61.6762 37.034C61.6762 37.2311 61.5173 37.3901 61.3202 37.3901H51.0795C50.8824 37.3901 50.7235 37.2311 50.7235 37.034ZM64.3305 32.9966C64.5277 32.9966 64.6866 33.1555 64.6866 33.3527C64.6866 33.5498 64.5277 33.7087 64.3305 33.7087H59.7046C59.5075 33.7087 59.3485 33.5498 59.3485 33.3527C59.3485 33.1555 59.5075 32.9966 59.7046 32.9966H64.3305ZM40.9448 43.5609C40.9448 43.7581 40.7859 43.917 40.5888 43.917H35.9658C35.7686 43.917 35.6097 43.7581 35.6097 43.5609C35.6097 43.3638 35.7686 43.2048 35.9658 43.2048H40.5888C40.7859 43.2048 40.9448 43.3638 40.9448 43.5609ZM79.6385 30.1245C79.6385 29.9273 79.7974 29.7684 79.9946 29.7684H89.2317C89.4289 29.7684 89.5878 29.9273 89.5878 30.1245C89.5878 30.3217 89.4289 30.4806 89.2317 30.4806H79.9946C79.7974 30.4806 79.6385 30.3217 79.6385 30.1245ZM94.6934 30.1245C94.6934 29.9273 94.8523 29.7684 95.0495 29.7684H97.7627C97.9598 29.7684 98.1187 29.9273 98.1187 30.1245C98.1187 30.3217 97.9598 30.4806 97.7627 30.4806H95.0495C94.8523 30.4806 94.6934 30.3217 94.6934 30.1245ZM33.8294 38.2199C34.8122 38.2199 35.6097 37.4224 35.6097 36.4396C35.6097 35.4567 34.8122 34.6592 33.8294 34.6592C32.8465 34.6592 32.049 35.4567 32.049 36.4396C32.049 37.4224 32.8465 38.2199 33.8294 38.2199ZM33.8294 35.3714C34.4179 35.3714 34.8976 35.851 34.8976 36.4396C34.8976 37.0281 34.4179 37.5078 33.8294 37.5078C33.2408 37.5078 32.7612 37.0281 32.7612 36.4396C32.7612 35.851 33.2408 35.3714 33.8294 35.3714ZM67.0643 12.1063C68.0472 12.1063 68.8447 11.3088 68.8447 10.326C68.8447 9.3431 68.0472 8.54562 67.0643 8.54562C66.0815 8.54562 65.284 9.3431 65.284 10.326C65.284 11.3088 66.0815 12.1063 67.0643 12.1063ZM67.0643 9.25776C67.6529 9.25776 68.1325 9.73742 68.1325 10.326C68.1325 10.9145 67.6529 11.3942 67.0643 11.3942C66.4758 11.3942 65.9961 10.9145 65.9961 10.326C65.9961 9.73742 66.4758 9.25776 67.0643 9.25776ZM99.5871 39.8825C100.57 39.8825 101.367 39.0851 101.367 38.1022C101.367 37.1193 100.57 36.3218 99.5871 36.3218C98.6043 36.3218 97.8068 37.1193 97.8068 38.1022C97.8068 39.0851 98.6043 39.8825 99.5871 39.8825ZM99.5871 37.034C100.176 37.034 100.655 37.5136 100.655 38.1022C100.655 38.6907 100.176 39.1704 99.5871 39.1704C98.9986 39.1704 98.5189 38.6907 98.5189 38.1022C98.5189 37.5136 98.9986 37.034 99.5871 37.034ZM58.9925 47.716C58.0096 47.716 57.2121 48.5135 57.2121 49.4964C57.2121 50.4792 58.0096 51.2767 58.9925 51.2767C59.9753 51.2767 60.7728 50.4792 60.7728 49.4964C60.7728 48.5135 59.9753 47.716 58.9925 47.716ZM58.9925 50.5646C58.4039 50.5646 57.9243 50.0849 57.9243 49.4964C57.9243 48.9078 58.4039 48.4282 58.9925 48.4282C59.581 48.4282 60.0607 48.9078 60.0607 49.4964C60.0607 50.0849 59.581 50.5646 58.9925 50.5646ZM55.3141 8.31021C55.3141 8.04831 55.526 7.83349 55.7879 7.83349C56.0498 7.83349 56.2616 8.04831 56.2616 8.31021C56.2616 8.56917 56.0498 8.78398 55.7879 8.78398C55.526 8.78398 55.3141 8.56917 55.3141 8.31021ZM30.148 14.4811C30.148 14.2192 30.3629 14.0073 30.6248 14.0073C30.8837 14.0073 31.0985 14.2192 31.0985 14.4811C31.0985 14.743 30.8837 14.9548 30.6248 14.9548C30.3629 14.9548 30.148 14.743 30.148 14.4811ZM23.7388 32.2845C23.7388 32.5464 23.527 32.7612 23.2651 32.7612C23.0032 32.7612 22.7913 32.5464 22.7913 32.2845C22.7913 32.0255 23.0032 31.8107 23.2651 31.8107C23.527 31.8107 23.7388 32.0255 23.7388 32.2845ZM47.9544 45.5796C47.9544 45.8415 47.7396 46.0534 47.4777 46.0534C47.2187 46.0534 47.0039 45.8415 47.0039 45.5796C47.0039 45.3177 47.2187 45.1058 47.4777 45.1058C47.7396 45.1058 47.9544 45.3177 47.9544 45.5796ZM10.2083 42.4927C10.2083 42.2337 10.4231 42.0189 10.682 42.0189C10.9439 42.0189 11.1587 42.2337 11.1587 42.4927C11.1587 42.7546 10.9439 42.9694 10.682 42.9694C10.4231 42.9694 10.2083 42.7546 10.2083 42.4927ZM75.4922 32.5228C75.4922 32.7847 75.2774 32.9966 75.0155 32.9966C74.7566 32.9966 74.5417 32.7847 74.5417 32.5228C74.5417 32.2609 74.7566 32.049 75.0155 32.049C75.2774 32.049 75.4922 32.2609 75.4922 32.5228ZM63.383 27.0641C63.383 26.8022 63.5978 26.5874 63.8597 26.5874C64.1216 26.5874 64.3335 26.8022 64.3335 27.0641C64.3335 27.323 64.1216 27.5379 63.8597 27.5379C63.5978 27.5379 63.383 27.323 63.383 27.0641ZM87.1248 22.5529C87.1248 22.291 87.3366 22.0791 87.5985 22.0791C87.8604 22.0791 88.0723 22.291 88.0723 22.5529C88.0723 22.8148 87.8604 23.0267 87.5985 23.0267C87.3366 23.0267 87.1248 22.8148 87.1248 22.5529ZM103.742 48.6665C103.742 48.4046 103.954 48.1898 104.216 48.1898C104.478 48.1898 104.69 48.4046 104.69 48.6665C104.69 48.9284 104.478 49.1403 104.216 49.1403C103.954 49.1403 103.742 48.9284 103.742 48.6665Z" fill="#C79557"/>
</svg>
