<svg width="100" height="100" viewBox="0 0 100 100" fill="none" xmlns="http://www.w3.org/2000/svg">
<path d="M15.3672 20.3125L21.6711 91.0102L49.957 98.8617L78.3219 91L84.6328 20.3125H15.3672ZM69.4375 59.7562L67.6016 76.8594L67.6086 78.3242L50 83.2422V83.243L49.9859 83.2547L32.2367 78.3914L31.0359 64.8438H39.7398L40.357 71.6922L50.0031 74.2664L50 74.2781V74.2531L59.6828 71.5227L60.7047 60.1562H40.4648L40.2914 58.3164L39.8961 53.9047L39.6891 51.5625H61.475L62.2672 42.9688H29.0852L28.9109 40.9461L28.5156 36.2352L28.3086 33.5938H71.7437L71.5352 36.1984L69.4375 59.7562ZM69.5312 11.2297L63.9461 4.6875H69.5312V0.78125H57.0312V4.18984L63.5859 10.1562H57.0312V14.0625H69.5312V11.2297ZM54.6875 11.2297L49.3695 4.6875H54.6875V0.78125H42.9687V4.18984L49.0102 10.1562H42.9687V14.0625H54.6875V11.2297ZM40.625 10.1562H34.375V4.6875H40.625V0.78125H29.6875V14.0625H40.625V10.1562Z" fill="#1572B6"/>
</svg>
