<svg width="100" height="100" viewBox="0 0 100 100" fill="none" xmlns="http://www.w3.org/2000/svg">
<path d="M46.4438 0H62.7953V75.6875C54.4071 77.2812 48.2485 77.918 41.5602 77.918C21.5985 77.9172 11.193 68.8937 11.193 51.5859C11.193 34.9156 22.236 24.0859 39.3297 24.0859C41.9844 24.0859 44.0016 24.2984 46.4438 24.9352V0ZM46.4438 38.0977C44.5328 37.4609 42.9399 37.2492 40.9227 37.2492C32.6414 37.2492 27.8625 42.3453 27.8625 51.2641C27.8625 59.9711 32.4289 64.7484 40.8172 64.7484C42.6211 64.7484 44.1078 64.6422 46.4438 64.325V38.0977Z" fill="#092E20"/>
<path d="M88.8062 25.2508V63.1562C88.8062 76.2164 87.85 82.4805 84.9836 87.8953C82.3289 93.0992 78.825 96.3898 71.6055 100L56.4219 92.7805C63.6422 89.382 67.1453 86.4109 69.375 81.843C71.7109 77.1719 72.4555 71.757 72.4555 57.5289V25.2508H88.8062ZM72.4547 0.0867195H88.8062V16.8633H72.4547V0.0867195Z" fill="#092E20"/>
</svg>
