<svg width="100" height="100" viewBox="0 0 100 100" fill="none" xmlns="http://www.w3.org/2000/svg">
<path d="M1.09998 1.10001H98.9V98.9008H1.09998V1.10001Z" fill="#F0DB4F"/>
<path d="M90.8961 75.575C90.1797 71.1133 87.2703 67.3656 78.6524 63.8711C75.6586 62.4953 72.3211 61.5102 71.3266 59.2414C70.9734 57.9211 70.9266 57.1773 71.15 56.3781C71.7914 53.7844 74.8875 52.9758 77.3414 53.7195C78.9219 54.2492 80.418 55.4672 81.3203 57.4101C85.5406 54.6773 85.532 54.6953 88.4789 52.8172C87.4 51.1445 86.8242 50.3727 86.118 49.657C83.5797 46.8219 80.1211 45.3617 74.5898 45.4734L71.7086 45.8461C68.9477 46.5437 66.3164 47.993 64.7734 49.9359C60.1438 55.1891 61.4641 64.3828 67.0977 68.1664C72.6477 72.332 80.8008 73.2797 81.8422 77.175C82.8555 81.9437 78.3375 83.4875 73.8469 82.9391C70.5375 82.2508 68.6969 80.5687 66.707 77.5101C63.0445 79.6297 63.0445 79.6297 59.2789 81.7953C60.1719 83.7476 61.1102 84.6312 62.607 86.3226C69.6914 93.5086 87.4195 93.1555 90.5992 82.2789C90.7281 81.9055 91.5844 79.4148 90.8961 75.575V75.575ZM54.2672 46.0492H45.1195L45.082 69.6992C45.082 74.7289 45.3422 79.3398 44.5242 80.7531C43.1859 83.5328 39.718 83.1883 38.1375 82.6492C36.5289 81.8586 35.7109 80.7344 34.7633 79.1453C34.5031 78.6891 34.3078 78.3359 34.2422 78.3086L26.8047 82.8633C28.0414 85.4016 29.8633 87.6047 32.1969 89.0359C35.6828 91.1281 40.368 91.7695 45.268 90.6445C48.457 89.7156 51.2086 87.7914 52.6492 84.8625C54.732 81.0226 54.2852 76.375 54.2664 71.2344C54.3133 62.8476 54.2672 54.4625 54.2672 46.0492V46.0492Z" fill="#323330"/>
</svg>
