<svg width="59" height="36" viewBox="0 0 59 36" fill="none" xmlns="http://www.w3.org/2000/svg">
<path fill-rule="evenodd" clip-rule="evenodd" d="M54 9.22592C54.4546 9.52497 54.9632 9.69231 55.5 9.69231C57.433 9.69231 59 7.52261 59 4.84615C59 1.93846 57.433 0 55.5 0C54.9632 0 54.4546 0.167336 54 0.466392V9.22592Z" fill="url(#paint0_linear_6_529)"/>
<path d="M0 15.5385C0 10.0156 4.47306 5.53846 9.99591 5.53846C32.1578 5.53846 59 5.53846 59 5.53846V36H10C4.47716 36 0 31.5228 0 26V15.5385Z" fill="#131E43"/>
<path d="M57.3836 4.15385H58.7C58.8657 4.15385 59 4.28816 59 4.45385V5.53846H57.3836V4.15385Z" fill="url(#paint1_linear_6_529)"/>
<path d="M29.8528 20.718C29.8527 20.8046 29.7832 20.8755 29.6957 20.8754C29.6091 20.8753 29.5397 20.805 29.5398 20.7176C29.5443 16.5292 26.9245 12.7242 23.0209 11.2488C22.9394 11.2188 22.8992 11.1284 22.9292 11.047C22.9592 10.9648 23.0496 10.9246 23.131 10.9546C25.0869 11.6941 26.7599 12.9952 27.9676 14.7187C29.2037 16.4818 29.8552 18.5558 29.8528 20.718Z" fill="#FEA423"/>
<path d="M19.6212 30.966C19.6211 31.0527 19.5508 31.1236 19.4642 31.1235C13.7419 31.1172 9.0923 26.4396 9.09855 20.6964C9.09882 20.4483 9.1088 20.1981 9.12551 19.9515C9.13233 19.8649 9.20711 19.7999 9.29303 19.806C9.37894 19.8128 9.44386 19.8869 9.43779 19.9743C9.42034 20.2133 9.41186 20.4562 9.4116 20.6967C9.40553 26.2666 13.9155 30.8029 19.4645 30.8089C19.5512 30.8083 19.6213 30.8793 19.6212 30.966Z" fill="#FEA423"/>
<path d="M9.04489 15.0462C9.05534 15.0581 9.06955 15.0462 9.0815 15.0425C9.08225 15.0417 9.083 15.0417 9.08375 15.041C9.083 15.041 9.083 15.0417 9.08225 15.0417C9.08898 15.0395 9.09421 15.0365 9.10019 15.0343C9.0987 15.0343 9.09795 15.0343 9.09646 15.035C9.99287 14.4816 11.1122 14.37 11.9206 13.6395C11.9199 13.6402 11.9199 13.6402 11.9192 13.6409C11.9236 13.6372 11.9266 13.6335 11.9311 13.6305C11.9304 13.6312 11.9289 13.632 11.9281 13.6327C12.4202 13.1947 12.7071 12.5286 13.2872 12.196C13.2872 12.196 13.2865 12.196 13.2865 12.1967C13.6489 12.1291 13.9569 11.9756 14.2821 11.813C14.6079 11.7155 14.9486 11.7219 15.2812 11.6692C13.532 12.463 11.8803 13.6006 10.7497 15.1765C10.7512 15.175 10.752 15.1728 10.7535 15.1713C9.88812 15.9915 8.73109 17.1116 9.0793 18.436C9.07931 18.4352 9.07931 18.4345 9.07856 18.4345C9.09268 18.5062 9.10231 18.5802 9.11493 18.6534C9.11419 18.6504 9.11419 18.6482 9.11344 18.6459C9.12604 18.7401 9.15583 18.8313 9.17366 18.9239C9.17366 18.9224 9.17291 18.9217 9.17292 18.9202C9.17589 18.9344 9.17812 18.9486 9.18109 18.9628C9.18034 18.9598 9.18035 18.9576 9.1796 18.9546C9.18853 18.9875 9.18476 19.0203 9.18697 19.0532C9.18697 19.0517 9.18697 19.0495 9.18697 19.0487C9.18696 19.0599 9.18844 19.0711 9.18843 19.0831C9.18843 19.0816 9.18843 19.0801 9.18843 19.0779C9.19582 19.1593 9.09241 19.4386 9.23313 19.2019C9.23238 19.2027 9.23238 19.2027 9.23163 19.2034C9.23388 19.1989 9.23687 19.1945 9.23912 19.19C9.23912 19.19 9.23912 19.1907 9.23837 19.1907C9.24436 19.1788 9.25035 19.1683 9.25559 19.1571C9.25559 19.1571 9.25559 19.1579 9.25484 19.1579C9.38621 18.5872 9.29948 17.9625 9.62506 17.4316C9.89978 16.9478 10.3627 16.583 10.4828 16.016C10.817 15.1557 11.4296 14.4735 12.1087 13.8675C11.8861 14.5016 11.727 15.1619 11.3371 15.7233C10.8807 16.3295 10.723 17.0197 10.6236 17.7577C10.6266 17.8056 10.5828 18.1611 10.6681 18.0432C11.1564 16.9634 12.2826 16.7666 12.3432 15.3284C12.3432 15.3247 12.3439 15.321 12.3439 15.3172L12.3439 15.318C12.3439 15.3157 12.3439 15.3142 12.3439 15.312C12.3439 15.3142 12.3439 15.3165 12.3432 15.3187C12.3803 14.8488 12.2643 14.3907 12.2864 13.9238C12.2857 13.929 12.2857 13.935 12.2849 13.9402C12.2864 13.9155 12.288 13.8894 12.2895 13.864C12.2895 13.8662 12.2895 13.8685 12.2887 13.87C12.2895 13.8647 12.2895 13.8588 12.2902 13.8543C12.2902 13.8573 12.2902 13.8595 12.2895 13.8625C12.7823 12.7969 15.847 11.474 17.0225 11.1653C15.9006 11.6071 15.517 12.557 14.6712 13.2771C14.672 13.2763 14.6727 13.2756 14.6735 13.2749C14.6705 13.2778 14.6675 13.2808 14.6645 13.2831C14.6653 13.2823 14.666 13.2823 14.666 13.2816C14.6615 13.2861 14.657 13.2898 14.6525 13.2935C14.6548 13.2928 14.6563 13.2905 14.6578 13.289C14.295 13.6719 13.9285 14.0712 13.6299 14.508C13.427 14.8948 13.3869 15.3482 13.1519 15.7208C13.1527 15.7201 13.1534 15.7186 13.1541 15.7178C12.8607 16.2054 13.0411 15.971 13.3028 15.7628C13.6482 15.5278 14.0168 15.322 14.345 15.0616C14.345 15.0616 14.345 15.0616 14.3443 15.0616C14.3458 15.0602 14.348 15.0587 14.3495 15.0564C14.3488 15.0564 14.3488 15.0572 14.348 15.0572C16.2608 13.627 15.1193 13.5249 15.9068 12.1308L15.906 12.1316C15.912 12.1241 15.9172 12.1159 15.924 12.1084C15.9225 12.1107 15.921 12.1129 15.9195 12.1137C15.9232 12.1092 15.9262 12.1047 15.93 12.1002C15.9292 12.101 15.9285 12.1017 15.9285 12.1017C15.9988 12.0308 16.0721 11.9622 16.1476 11.8958C16.1446 11.8987 16.1409 11.9017 16.1371 11.9047C16.1431 11.9002 16.1483 11.895 16.1543 11.8898C16.1528 11.8913 16.1513 11.892 16.1498 11.8935C16.1536 11.8905 16.1573 11.8883 16.1596 11.8853C16.1588 11.8853 16.1588 11.8861 16.1581 11.8861C16.5462 11.5346 17.0254 11.3222 17.4933 11.1015C17.4918 11.1023 17.4896 11.1038 17.4881 11.1045C17.9059 10.901 18.3939 10.8672 18.8519 10.8116C18.8512 10.8116 18.8497 10.8116 18.8489 10.8116C18.8541 10.8116 18.8579 10.8109 18.8631 10.8101C18.8594 10.8101 18.8564 10.8109 18.8527 10.8109C19.2591 10.7657 19.6686 10.7483 20.0765 10.7472C20.353 10.7468 20.6294 10.7538 20.9051 10.766C21.2764 10.7829 21.6462 10.8079 22.0145 10.8337C22.1946 10.8459 22.3738 10.8588 22.5524 10.8717C22.5853 10.8478 22.5989 10.7522 22.5473 10.7424C22.5197 10.7379 22.4345 10.7289 22.4353 10.7289C22.3307 10.716 21.9063 10.6737 21.4618 10.6329C21.101 10.6004 20.7207 10.5798 20.5341 10.4937C20.5378 10.4959 20.5423 10.4974 20.546 10.4997C19.8425 10.218 19.368 9.60257 18.7199 9.23801C16.5191 8.34129 14.4547 10.3974 12.2362 10.0035C12.2235 9.99301 12.207 10.0139 12.2197 10.0236C12.2212 10.0251 12.2227 10.0266 12.2242 10.0281C12.2242 10.0281 12.2242 10.0281 12.2242 10.0274C12.8619 10.3508 13.5661 10.6183 14.2931 10.6161C14.2901 10.6161 14.2871 10.6161 14.2834 10.6154C14.8011 10.6294 15.31 10.5478 15.8234 10.5035C15.8189 10.5035 15.8151 10.5042 15.8114 10.5042C17.7078 10.38 18.6837 9.54728 20.5078 10.593C19.5739 10.6167 18.6228 10.6022 17.7155 10.856C17.717 10.856 17.7192 10.8552 17.7207 10.8552C17.1363 10.9779 16.5414 11.1154 15.9876 11.3397C15.9898 11.3382 15.992 11.3375 15.9943 11.336C15.3806 11.6289 14.6768 11.6349 14.0134 11.5363C12.4955 11.3105 11.1855 12.2101 10.3855 13.439C9.93291 13.9698 9.45044 14.493 9.04489 15.0462ZM9.24703 18.7865C9.21876 18.6692 9.21217 18.5474 9.19064 18.4286C9.19063 18.4301 9.19138 18.4323 9.19138 18.4338C9.1847 18.395 9.17801 18.3561 9.16909 18.318C9.16909 18.318 9.16909 18.318 9.16909 18.3187C8.97445 17.2942 9.6741 16.3065 10.41 15.6655C10.077 16.1022 9.65297 16.5022 9.4798 17.0378C9.4798 17.037 9.4798 17.037 9.4798 17.0363C9.46705 17.0751 9.45506 17.1132 9.44232 17.152C9.44306 17.1505 9.44306 17.1498 9.44381 17.1483C9.36955 17.4202 9.25122 17.6845 9.2397 17.9692C9.2397 17.9677 9.2397 17.9662 9.2397 17.9647C9.2397 17.9677 9.2397 17.9707 9.23895 17.9736C9.23895 17.9729 9.23895 17.9714 9.23895 17.9707C9.23819 17.9856 9.23668 17.999 9.23592 18.014C9.23592 18.0103 9.23667 18.008 9.23667 18.0043C9.23363 18.0573 9.23133 18.1096 9.22828 18.1627C9.22828 18.1619 9.22828 18.1612 9.22828 18.1604C9.22828 18.1634 9.22753 18.1664 9.22753 18.1694C9.22753 18.1686 9.22753 18.1679 9.22753 18.1679C9.22297 18.2366 9.22364 18.3054 9.22058 18.3756C9.22058 18.3741 9.22058 18.3719 9.22133 18.3704C9.22133 18.3733 9.22058 18.3756 9.22057 18.3793C9.22058 18.3786 9.22058 18.3778 9.22058 18.3771C9.20399 18.5153 9.23074 18.6498 9.24703 18.7865ZM10.1954 16.5111C9.8295 16.9948 9.39417 17.4568 9.30681 18.0858C9.34545 17.6009 9.53499 17.1222 9.75661 16.6929C9.75362 16.6974 9.75063 16.7011 9.74763 16.7048C9.99087 16.3196 10.311 15.9927 10.5774 15.6254C10.4202 15.9084 10.3556 16.2318 10.1954 16.5111ZM12.1701 14.4324C12.1708 14.4362 12.1716 14.4414 12.173 14.4459C12.1716 14.4399 12.1708 14.4347 12.1693 14.4287C12.1693 14.4287 12.1693 14.4287 12.1693 14.4294C12.1693 14.4287 12.1693 14.4279 12.1693 14.4265C12.1693 14.4287 12.1701 14.4309 12.1701 14.4324ZM12.1574 14.3659C12.4817 15.7686 11.839 16.5524 10.9034 17.4682C10.9281 17.4024 10.9454 17.3352 10.9708 17.2695C10.9693 17.2725 10.9686 17.2755 10.9671 17.2785C10.9798 17.2463 10.9926 17.2157 11.0045 17.1844C11.0038 17.1851 11.0038 17.1866 11.003 17.1881C11.1162 16.8946 11.183 16.5809 11.4022 16.3428C11.4014 16.3435 11.4014 16.3443 11.4014 16.345C11.8959 15.7867 12.0483 15.0689 12.1567 14.3532C12.1567 14.3577 12.1567 14.3622 12.1574 14.3659ZM11.3313 16.2814C10.9872 16.6688 10.9858 17.2292 10.7448 17.6652C10.8089 16.375 11.8021 15.4683 12.0717 14.2411C11.9513 14.9627 11.8071 15.6999 11.3313 16.2814ZM13.5127 15.0951C13.512 15.0966 13.512 15.0973 13.512 15.0981C13.6935 14.3781 14.2679 13.8534 14.7579 13.3295C14.7564 13.331 14.7549 13.3325 14.7534 13.334C14.8065 13.2877 14.8618 13.2429 14.9149 13.1959C14.9134 13.1974 14.9119 13.1989 14.9104 13.1997C14.9119 13.1989 14.9134 13.1974 14.9142 13.1967C14.6073 13.6827 14.334 14.1897 14.0085 14.6623C14.0115 14.6593 14.013 14.6548 14.016 14.6511C13.8259 14.9415 13.6216 15.2193 13.3875 15.476C13.4452 15.355 13.4715 15.2213 13.5127 15.0951ZM13.596 15.474C13.5952 15.4747 13.5945 15.4755 13.593 15.4762C13.5945 15.4747 13.5952 15.474 13.596 15.474C13.596 15.4732 13.596 15.474 13.596 15.474ZM15.3438 13.8621C14.9456 14.543 14.2308 15.001 13.6087 15.4635C13.6094 15.4628 13.6102 15.4628 13.6102 15.4621C13.5227 15.53 13.4337 15.5949 13.3403 15.653C14.2296 14.738 14.7389 13.5454 15.5342 12.5578C15.403 12.9828 15.5377 13.4439 15.3438 13.8621ZM18.1745 9.94645C18.1774 9.9457 18.1812 9.94496 18.1834 9.94421C18.0698 9.96875 17.954 9.98805 17.8412 10.0171C17.8419 10.0171 17.8419 10.0171 17.8426 10.0171C17.6596 10.0565 17.4876 10.1347 17.3038 10.1674C17.3068 10.1667 17.3098 10.1667 17.3135 10.1652C17.2687 10.1756 17.2231 10.183 17.1783 10.1934C17.179 10.1934 17.1797 10.1934 17.1797 10.1927C17.1446 10.2008 17.1095 10.2083 17.0744 10.2165C17.0781 10.2157 17.0818 10.215 17.0848 10.2142C17.0512 10.2224 17.0176 10.2298 16.9839 10.2373C16.9877 10.2373 16.9907 10.2365 16.9937 10.2358C16.9757 10.2395 16.9585 10.244 16.9399 10.2484C16.9428 10.2477 16.9451 10.247 16.9481 10.247C15.8421 10.4273 14.716 10.5912 13.597 10.4346C13.5977 10.4346 13.5985 10.4346 13.5992 10.4346C13.5962 10.4346 13.594 10.4338 13.591 10.4338C13.5925 10.4338 13.594 10.4346 13.5947 10.4346C13.3602 10.3768 13.1279 10.3108 12.8956 10.2448C13.2669 10.3035 13.6501 10.3143 14.0245 10.2752C14.0238 10.2751 14.023 10.2751 14.0223 10.2751C14.0395 10.2729 14.0574 10.2707 14.0746 10.2692C14.0738 10.2692 14.0731 10.2692 14.0723 10.2692C14.1149 10.264 14.1575 10.2581 14.2009 10.2529C14.1971 10.2537 14.1941 10.2537 14.1904 10.2544C14.564 10.2219 14.925 10.1133 15.2941 10.0561C15.2919 10.0569 15.2881 10.0569 15.2852 10.0576C15.2896 10.0569 15.2941 10.0569 15.2979 10.0561C15.2971 10.0561 15.2956 10.0561 15.2949 10.0569C15.3001 10.0561 15.3053 10.0554 15.3098 10.0547C15.3083 10.0546 15.3061 10.0554 15.3053 10.0554C15.3083 10.0546 15.3121 10.0547 15.3158 10.0539C15.3136 10.0539 15.3121 10.0547 15.3098 10.0547C15.3121 10.0547 15.315 10.0539 15.3173 10.0539C15.3165 10.0539 15.3165 10.0539 15.3165 10.0539C15.3195 10.0532 15.3233 10.0532 15.327 10.0524C15.3225 10.0532 15.318 10.0539 15.3143 10.0539C16.2715 9.9638 17.2338 9.991 18.1924 9.94422C18.1857 9.94347 18.1804 9.94496 18.1745 9.94645ZM17.3123 9.87602C16.1857 9.82399 15.0835 9.99837 13.9835 10.2019C13.9842 10.2019 13.9865 10.2011 13.9887 10.2011C13.985 10.2019 13.982 10.2019 13.9783 10.2026C13.979 10.2026 13.9798 10.2026 13.9813 10.2019C13.5456 10.2477 13.1056 10.2181 12.6738 10.1541C13.4949 10.1565 14.308 9.99827 15.0644 9.67334C15.0614 9.67484 15.057 9.67707 15.0532 9.67856C15.3059 9.57349 15.5727 9.50878 15.8268 9.40595C15.8223 9.40744 15.8186 9.40968 15.8148 9.41042C16.5578 9.12508 17.3901 9.12823 18.1738 9.17017C18.7976 9.26424 19.2505 9.74589 19.6931 10.1543C18.9479 9.75527 18.1223 9.8403 17.3123 9.87602ZM12.0143 13.3773C11.3972 14.0498 10.5041 14.344 9.66026 14.6075C10.7191 13.8287 11.7719 13.0304 12.8814 12.3248C12.5889 12.6726 12.3136 13.0354 12.0143 13.3773ZM13.8374 11.9426C13.6819 12.0492 13.4966 12.0856 13.315 12.1161C13.5086 12.0423 13.7036 11.9723 13.8957 11.8963C13.8763 11.912 13.8568 11.9276 13.8374 11.9426ZM9.9791 14.0886C10.9487 12.8405 12.0052 11.4467 13.7735 11.6504C13.772 11.6504 13.7712 11.6496 13.7697 11.6496C13.8795 11.6729 13.9901 11.6909 14.0991 11.7165C12.3623 12.1995 11.0332 13.5488 9.58335 14.5626C9.71428 14.4036 9.86087 14.2558 9.9791 14.0886Z" fill="#FEA423"/>
<path d="M30.1075 30.3842C30.1075 30.4029 30.1045 30.4216 30.0977 30.4395C30.0678 30.5209 29.9773 30.5611 29.8959 30.5312C27.94 29.7916 26.2671 28.4905 25.0593 26.7671C23.824 25.0047 23.1725 22.9307 23.1749 20.7685C23.175 20.6819 23.2445 20.6109 23.3319 20.611C23.4186 20.6111 23.4888 20.6822 23.4887 20.7689C23.4841 24.9573 26.1031 28.7623 30.0068 30.2369C30.0695 30.2609 30.1076 30.3207 30.1075 30.3842Z" fill="#FEA423"/>
<path d="M43.9284 20.7908C43.9281 21.0388 43.9188 21.2891 43.9014 21.5356C43.8953 21.6223 43.8198 21.6872 43.7339 21.6812C43.648 21.6743 43.583 21.6003 43.5891 21.5129C43.6066 21.2738 43.615 21.031 43.6153 20.7904C43.6214 15.2206 39.1114 10.6843 33.5624 10.6782C33.4765 10.6781 33.4056 10.6078 33.4057 10.5204C33.4058 10.4338 33.4761 10.3629 33.5628 10.3629C39.285 10.3699 43.9346 15.0476 43.9284 20.7908Z" fill="#FEA423"/>
<path d="M43.9826 26.4411C43.9722 26.4283 43.958 26.4403 43.946 26.444C43.946 26.4447 43.9445 26.4447 43.9438 26.4455C43.9445 26.4455 43.9445 26.4447 43.9452 26.4447C43.9385 26.447 43.9333 26.45 43.9273 26.4529C43.9288 26.4522 43.9295 26.4522 43.931 26.4515C43.0354 27.0049 41.9153 27.1165 41.1069 27.847C41.1076 27.8463 41.1076 27.8463 41.1083 27.8455C41.1039 27.8493 41.1009 27.853 41.0964 27.8567C41.0971 27.856 41.0986 27.8552 41.0994 27.8545C40.6073 28.2925 40.3204 28.9579 39.7403 29.2905C39.7403 29.2905 39.741 29.2905 39.741 29.2897C39.3793 29.3573 39.0706 29.5109 38.7454 29.6734C38.4196 29.771 38.0789 29.7654 37.7471 29.8173C39.4955 29.0235 41.1472 27.8859 42.2778 26.3107C42.277 26.3114 42.2755 26.3137 42.274 26.3152C43.1394 25.495 44.2964 24.3748 43.9482 23.0505C43.9482 23.0513 43.9482 23.052 43.9489 23.0528C43.9348 22.9803 43.9252 22.9063 43.9126 22.8331C43.9133 22.8361 43.9133 22.8383 43.9141 22.8413C43.9015 22.7471 43.8724 22.6552 43.8538 22.5625C43.8538 22.564 43.8546 22.5648 43.8546 22.5663C43.8516 22.5521 43.8494 22.5379 43.8464 22.5237C43.8472 22.5267 43.8472 22.5289 43.8479 22.5319C43.839 22.499 43.8427 22.4661 43.8405 22.4333C43.8405 22.4348 43.8405 22.437 43.8405 22.4385C43.8405 22.4273 43.8398 22.4161 43.8398 22.4041C43.8398 22.4049 43.8398 22.4064 43.8398 22.4086C43.8317 22.3272 43.9351 22.0486 43.7951 22.2853C43.7951 22.2845 43.7951 22.2838 43.7959 22.283C43.7936 22.2875 43.7906 22.292 43.7884 22.2972C43.7884 22.2972 43.7884 22.2965 43.7891 22.2965C43.7831 22.3077 43.7772 22.3181 43.7719 22.3293C43.7719 22.3293 43.7719 22.3286 43.7727 22.3286C43.6413 22.9 43.728 23.5247 43.4024 24.0548C43.1277 24.5394 42.6648 24.9035 42.5447 25.4712L42.5447 25.4705C42.2105 26.3308 41.5979 27.013 40.9188 27.6197C41.1414 26.9849 41.3005 26.3246 41.6904 25.7631C42.1468 25.157 42.3052 24.4668 42.4039 23.7287C42.4009 23.6809 42.4447 23.3253 42.3594 23.4433C41.8718 24.5231 40.7449 24.7199 40.6843 26.158C40.6843 26.1618 40.6836 26.1663 40.6836 26.1692L40.6836 26.1685C40.6836 26.1707 40.6836 26.1722 40.6828 26.1745C40.6828 26.1722 40.6828 26.17 40.6836 26.1677C40.6464 26.6377 40.7625 27.0958 40.7403 27.5627C40.7411 27.5575 40.7411 27.5515 40.7418 27.5463C40.7403 27.5717 40.7388 27.5971 40.7373 27.6225C40.7373 27.6202 40.7373 27.6187 40.738 27.6165C40.7373 27.6217 40.7373 27.6277 40.7365 27.6322C40.7365 27.6299 40.7365 27.627 40.7373 27.624C40.2452 28.6896 37.1805 30.0132 36.0042 30.3212C37.1261 29.8794 37.5097 28.9294 38.3555 28.2094C38.3548 28.2101 38.354 28.2109 38.3533 28.2116C38.3563 28.2086 38.3592 28.2064 38.3622 28.2034C38.3615 28.2042 38.3607 28.2041 38.3607 28.2049C38.3652 28.2004 38.3705 28.1967 38.3742 28.193C38.372 28.1944 38.3705 28.1959 38.369 28.1974C38.7317 27.8145 39.0983 27.4152 39.3969 26.9792C39.5998 26.5917 39.6398 26.1382 39.8749 25.7657C39.8741 25.7664 39.8734 25.7679 39.8726 25.7686C40.166 25.2818 39.9857 25.5162 39.724 25.7237C39.3785 25.9586 39.01 26.1652 38.6825 26.4256C38.6825 26.4256 38.6825 26.4256 38.6832 26.4256C38.681 26.4263 38.6787 26.4278 38.6772 26.43C38.678 26.43 38.678 26.4293 38.6787 26.4293C36.766 27.8595 37.9075 27.9616 37.12 29.3556L37.1207 29.3549C37.1148 29.3631 37.1095 29.3706 37.1035 29.378C37.1043 29.3758 37.1058 29.3743 37.1073 29.3728C37.1035 29.3773 37.1005 29.3818 37.0968 29.387C37.0975 29.3862 37.0983 29.3855 37.0983 29.3847C37.028 29.4564 36.9547 29.5243 36.8792 29.5907C36.8822 29.5877 36.8859 29.5847 36.8896 29.5818C36.8836 29.587 36.8784 29.5915 36.8724 29.5967C36.8739 29.5952 36.8754 29.5944 36.8769 29.593C36.8732 29.5959 36.8702 29.5989 36.8672 29.6012C36.8679 29.6012 36.8679 29.6004 36.8687 29.6004C36.4805 29.9526 36.0014 30.1651 35.5335 30.3849C35.5357 30.3842 35.5372 30.3827 35.5387 30.382C35.1208 30.5855 34.6329 30.6193 34.1748 30.6749C34.1756 30.6749 34.1771 30.6749 34.1778 30.6749C34.1726 30.6748 34.1689 30.6756 34.1636 30.6763C34.1674 30.6763 34.1704 30.6756 34.1741 30.6756C33.7676 30.7207 33.3589 30.739 32.9502 30.74C32.6738 30.7405 32.3974 30.7327 32.1217 30.7204C31.7504 30.7036 31.3806 30.6793 31.0122 30.6535C30.8322 30.6406 30.6529 30.6277 30.4744 30.6148C30.4415 30.6387 30.4286 30.7343 30.4794 30.744C30.5071 30.7493 30.5922 30.7576 30.5915 30.7576C30.6961 30.7704 31.1204 30.8127 31.5649 30.8536C31.9265 30.8861 32.306 30.9067 32.4934 30.9928C32.489 30.9905 32.4845 30.989 32.4815 30.9876C33.1842 31.2685 33.6588 31.8839 34.3069 32.2485C36.5077 33.1452 38.572 31.0891 40.7906 31.483C40.8033 31.4935 40.8205 31.4726 40.8071 31.4628C40.8056 31.4613 40.8041 31.4598 40.8026 31.4583C40.8026 31.4583 40.8026 31.4583 40.8026 31.4591C40.1656 31.1356 39.4606 30.8681 38.7336 30.8703C38.7366 30.8703 38.7396 30.8703 38.7434 30.8711C38.2256 30.8571 37.7167 30.9387 37.2034 30.983C37.2079 30.983 37.2124 30.9822 37.2154 30.9822C35.319 31.1072 34.3431 31.9392 32.519 30.8935C33.4529 30.8706 34.404 30.8843 35.3113 30.6305C35.3098 30.6305 35.3076 30.6313 35.3061 30.6313C35.8904 30.5086 36.4853 30.371 37.0392 30.1468C37.0369 30.1482 37.0355 30.149 37.0325 30.1505C37.6469 29.8583 38.35 29.8516 39.0133 29.9502C40.5313 30.176 41.8412 29.2763 42.6412 28.0474C43.0946 27.5167 43.5771 26.9935 43.9826 26.4411ZM43.7805 22.6999C43.8087 22.818 43.8153 22.9391 43.8369 23.0579C43.8369 23.0564 43.8361 23.0541 43.8361 23.0534C43.8428 23.0915 43.8502 23.1304 43.8584 23.1685C43.8584 23.1685 43.8584 23.1685 43.8584 23.1677C44.053 24.1923 43.3534 25.18 42.6175 25.8209C42.9505 25.3842 43.3745 24.9842 43.5484 24.4487C43.5484 24.4495 43.5484 24.4495 43.5484 24.4502C43.5604 24.4114 43.5724 24.3733 43.5852 24.3344C43.5844 24.3359 43.5844 24.3367 43.5837 24.3382C43.6579 24.0663 43.7763 23.8019 43.7878 23.5173C43.7878 23.5188 43.7878 23.5203 43.7878 23.5218C43.7878 23.5188 43.7878 23.5158 43.7886 23.5136C43.7886 23.5143 43.7885 23.5151 43.7885 23.5158C43.7893 23.5016 43.7908 23.4874 43.7916 23.4725C43.7916 23.4762 43.7908 23.4792 43.7908 23.4822C43.7939 23.4299 43.7962 23.3769 43.7992 23.3246C43.7992 23.3253 43.7992 23.3253 43.7992 23.326C43.7992 23.3238 43.8 23.3201 43.8 23.3171C43.8 23.3178 43.8 23.3186 43.8 23.3186C43.8053 23.2498 43.8039 23.1811 43.8069 23.1124C43.8069 23.1131 43.8069 23.1154 43.8062 23.1169C43.8062 23.1139 43.8069 23.1116 43.8069 23.1079C43.8069 23.1086 43.8069 23.1094 43.8069 23.1101C43.8235 22.9712 43.7968 22.8367 43.7805 22.6999ZM42.8321 24.9754C43.198 24.4924 43.6333 24.0297 43.7207 23.4007C43.6828 23.8855 43.4933 24.3642 43.2709 24.7936C43.2739 24.7891 43.2769 24.7854 43.2799 24.7817C43.0366 25.1669 42.7165 25.4938 42.4501 25.8619C42.6073 25.5789 42.6719 25.2547 42.8321 24.9754ZM40.8574 27.054C40.8567 27.0503 40.8559 27.0451 40.8544 27.0413C40.8559 27.0466 40.8567 27.0525 40.8582 27.0578C40.8582 27.0578 40.8582 27.0578 40.8582 27.057C40.8582 27.0578 40.8582 27.0585 40.8589 27.06C40.8582 27.0578 40.8574 27.0555 40.8574 27.054ZM40.8701 27.1205C40.5458 25.7186 41.1885 24.934 42.1241 24.0191C42.0994 24.084 42.0821 24.1513 42.0567 24.217C42.0582 24.214 42.0589 24.211 42.0604 24.2088C42.0477 24.2401 42.0349 24.2707 42.023 24.3029C42.0237 24.3014 42.0237 24.2999 42.0245 24.2984C41.9113 24.5919 41.8445 24.9056 41.6253 25.1437C41.6261 25.143 41.6261 25.1422 41.6268 25.1415C41.1316 25.6998 40.9792 26.4176 40.8708 27.1332C40.8708 27.1288 40.8708 27.1243 40.8701 27.1205ZM41.6962 25.205C42.0403 24.8177 42.0417 24.2573 42.2835 23.8212C42.2186 25.1115 41.2254 26.0182 40.9558 27.2454C41.0762 26.5238 41.2204 25.7865 41.6962 25.205ZM39.5148 26.3914C39.5155 26.3906 39.5155 26.3899 39.5163 26.3884C39.334 27.1084 38.7596 27.633 38.2704 28.157C38.2711 28.1555 38.2726 28.154 38.2741 28.1525C38.221 28.1988 38.1657 28.2435 38.1126 28.2905C38.1141 28.2898 38.1156 28.2883 38.1171 28.2868C38.1156 28.2883 38.1148 28.2898 38.1133 28.2898C38.4202 27.8045 38.6935 27.2975 39.019 26.8242C39.016 26.8271 39.0145 26.8316 39.0115 26.8354C39.2016 26.5449 39.4059 26.2672 39.64 26.0112C39.5823 26.1314 39.556 26.2651 39.5148 26.3914ZM39.4315 26.0125C39.4323 26.0125 39.433 26.0117 39.4345 26.011C39.433 26.0125 39.4323 26.0125 39.4315 26.0125C39.4315 26.0132 39.4315 26.0125 39.4315 26.0125ZM37.6837 27.6244C38.0819 26.9442 38.7967 26.4855 39.4188 26.0237C39.4181 26.0244 39.4173 26.0244 39.4173 26.0244C39.5048 25.9565 39.5938 25.8916 39.6872 25.8334C38.7979 26.7485 38.2886 27.9411 37.4933 28.9287C37.6245 28.5037 37.4898 28.0426 37.6837 27.6244ZM34.8531 31.54C34.8501 31.5408 34.8471 31.5415 34.8441 31.5423C34.9584 31.5177 35.0735 31.4984 35.1863 31.4694C35.1856 31.4694 35.1856 31.4694 35.1849 31.4694C35.3679 31.43 35.5399 31.3517 35.7244 31.3191C35.7207 31.3198 35.7177 31.3206 35.714 31.322C35.7588 31.3109 35.8044 31.3035 35.8492 31.2931C35.8485 31.2931 35.8478 31.2931 35.8478 31.2938C35.8829 31.2864 35.918 31.2782 35.9531 31.27C35.9494 31.2708 35.9464 31.2715 35.9427 31.2722C35.9763 31.2641 36.0099 31.2566 36.0436 31.2492C36.0398 31.2499 36.0368 31.2507 36.0338 31.2514C36.0518 31.247 36.069 31.2425 36.0876 31.2388C36.0847 31.2395 36.0824 31.2395 36.0802 31.2395C37.1854 31.0592 38.3122 30.8953 39.4305 31.0526C39.4298 31.0526 39.429 31.0526 39.4283 31.0519C39.4313 31.0526 39.4335 31.0534 39.4365 31.0534C39.435 31.0534 39.4335 31.0526 39.4328 31.0526C39.6673 31.1097 39.8996 31.1757 40.1326 31.2424C39.7606 31.1838 39.3774 31.1721 39.003 31.2113C39.0037 31.2113 39.0045 31.2113 39.0052 31.2113C38.988 31.2135 38.9701 31.2158 38.9529 31.218C38.9537 31.218 38.9544 31.218 38.9559 31.218C38.9126 31.2224 38.87 31.2284 38.8266 31.2335C38.8304 31.2328 38.8334 31.2328 38.8371 31.2321C38.4635 31.2653 38.1025 31.3732 37.7334 31.4303C37.7356 31.4303 37.7394 31.4303 37.7423 31.4296C37.7379 31.4303 37.7341 31.4303 37.7296 31.4303C37.7304 31.4303 37.7319 31.4303 37.7326 31.4303C37.7274 31.4303 37.7229 31.4311 37.7177 31.4318C37.7192 31.4318 37.7214 31.4311 37.7229 31.4311C37.7192 31.4318 37.7154 31.4318 37.7117 31.4326C37.7139 31.4326 37.7154 31.4318 37.7177 31.4318C37.7154 31.4318 37.7125 31.4326 37.7102 31.4326C37.711 31.4326 37.711 31.4326 37.7117 31.4326C37.708 31.4333 37.7042 31.4333 37.7005 31.434C37.705 31.4333 37.7095 31.4326 37.7132 31.4326C36.756 31.5234 35.7937 31.4955 34.8351 31.5422C34.8418 31.543 34.8471 31.5415 34.8531 31.54ZM35.7152 31.6104C36.8418 31.6625 37.944 31.4888 39.044 31.2846C39.0433 31.2846 39.041 31.2853 39.0388 31.2853C39.0425 31.2846 39.0455 31.2846 39.0492 31.2838C39.0485 31.2838 39.0477 31.2838 39.0462 31.2838C39.4819 31.238 39.9219 31.2676 40.3544 31.3316C39.5326 31.3292 38.7195 31.4882 37.9631 31.8124C37.9668 31.8109 37.9706 31.8086 37.9743 31.8079C37.7216 31.913 37.4548 31.9769 37.2007 32.0798C37.2052 32.079 37.2089 32.0768 37.2127 32.0753C36.4697 32.3614 35.6374 32.3582 34.8537 32.3156C34.2299 32.2215 33.777 31.7398 33.3344 31.3314C34.0803 31.7312 34.9052 31.6462 35.7152 31.6104ZM41.0132 28.1092C41.6303 27.4367 42.5242 27.1425 43.3672 26.879C42.3084 27.6578 41.2556 28.4561 40.1461 29.1617C40.4386 28.8138 40.7139 28.451 41.0132 28.1092ZM39.1901 29.5439C39.3456 29.4372 39.5309 29.4016 39.7125 29.3704C39.5189 29.4442 39.3239 29.5142 39.1318 29.5902C39.1512 29.5745 39.1707 29.5588 39.1901 29.5439ZM43.0484 27.3979C42.0788 28.646 41.0223 30.0405 39.254 29.8369C39.2555 29.8369 39.257 29.8376 39.2578 29.8376C39.148 29.8143 39.0374 29.7955 38.9284 29.77C40.6652 29.287 41.9943 27.9376 43.4441 26.9246C43.3132 27.0829 43.1666 27.2306 43.0484 27.3979Z" fill="#FEA423"/>
<path d="M21.4483 30.2862C21.4998 30.2862 21.5499 30.296 21.5977 30.3162C21.6455 30.3357 21.6873 30.3641 21.7238 30.4008C21.7604 30.4374 21.7888 30.4801 21.8081 30.5279C21.8283 30.5757 21.8379 30.6258 21.8379 30.6781C21.8378 30.7297 21.828 30.7797 21.8078 30.8275C21.7883 30.8753 21.7599 30.9178 21.7232 30.9544C21.6866 30.991 21.6447 31.0193 21.5969 31.0395C21.549 31.0588 21.499 31.0692 21.4474 31.0692C21.3959 31.0691 21.3466 31.0586 21.2988 31.0391C21.251 31.0189 21.2084 30.9905 21.1719 30.9538C21.1353 30.9172 21.1077 30.8746 21.0876 30.8267C21.0682 30.7789 21.0578 30.7288 21.0578 30.6773C21.0579 30.625 21.0684 30.5749 21.0879 30.5271C21.1081 30.4793 21.1358 30.4368 21.1725 30.4002C21.2091 30.3636 21.2517 30.3353 21.2996 30.3159C21.3474 30.2958 21.3967 30.2861 21.4483 30.2862Z" fill="#FEA423"/>
<path d="M31.4237 10.3292C31.4752 10.3293 31.5253 10.3391 31.5731 10.3593C31.6209 10.3795 31.6627 10.4072 31.6993 10.4438C31.7358 10.4812 31.7642 10.5231 31.7836 10.571C31.8037 10.6195 31.8133 10.6689 31.8133 10.7212C31.8132 10.7727 31.8034 10.8228 31.7832 10.8706C31.7637 10.9191 31.7353 10.9609 31.6987 10.9975C31.662 11.034 31.6201 11.0624 31.5723 11.0825C31.5245 11.1019 31.4744 11.1123 31.4228 11.1122C31.3713 11.1122 31.3212 11.1017 31.2734 11.0822C31.2257 11.062 31.1838 11.0335 31.1473 10.9969C31.1107 10.9602 31.0824 10.9184 31.063 10.8698C31.0429 10.8219 31.0332 10.7719 31.0333 10.7203C31.0333 10.668 31.0431 10.6187 31.0633 10.5702C31.0828 10.5224 31.1112 10.4806 31.1479 10.4432C31.1845 10.4067 31.2264 10.3791 31.2742 10.359C31.3221 10.3388 31.3721 10.3292 31.4237 10.3292Z" fill="#FEA423"/>
<path d="M34.8531 11.8776L35.2535 11.9438C35.4283 11.9724 35.5687 12.0301 35.6747 12.1176C35.78 12.2059 35.8493 12.3091 35.8836 12.4287C35.9171 12.5467 35.9237 12.667 35.9041 12.7903C35.8838 12.9263 35.8336 13.0413 35.7543 13.1368C35.6742 13.2309 35.5756 13.2957 35.4582 13.3337C35.3424 13.3732 35.2206 13.3828 35.0936 13.3632L34.6274 13.288L34.8531 11.8776ZM35.0878 13.1421C35.1894 13.1586 35.2821 13.1535 35.3658 13.1274C35.4495 13.0999 35.5183 13.0529 35.5722 12.9872C35.626 12.9215 35.6605 12.8393 35.677 12.7392C35.6951 12.6279 35.6862 12.5323 35.6504 12.4523C35.6162 12.3708 35.5654 12.3058 35.4982 12.2579C35.4325 12.21 35.3594 12.18 35.2802 12.168L35.0441 12.1289L34.8847 13.109L35.0878 13.1421Z" fill="#FFF7F3"/>
<path d="M38.0979 12.9395L37.9961 13.1367L37.3599 12.8043L37.1832 13.1418L37.7507 13.4382L37.6489 13.6354L37.0814 13.3389L36.9047 13.6824L37.5677 14.0268L37.4659 14.2209L36.6027 13.7717L37.2616 12.5023L38.0979 12.9395Z" fill="#FFF7F3"/>
<path d="M39.9876 14.5573L38.4748 15.1474L39.092 13.6448L39.2831 13.8393L38.8786 14.7682L39.7995 14.3658L39.9876 14.5573Z" fill="#FFF7F3"/>
<path d="M41.1232 16.4531L40.9259 16.5515L40.6068 15.9087L40.2689 16.0786L40.5522 16.6498L40.3549 16.7482L40.0716 16.177L39.7217 16.35L40.0527 17.0198L39.8584 17.1182L39.426 16.2451L40.7028 15.6069L41.1232 16.4531Z" fill="#FFF7F3"/>
<path d="M41.5601 17.9435L40.3644 18.1394L40.4802 18.8359L40.265 18.8715L40.1136 17.9509L41.5244 17.7193L41.5601 17.9435Z" fill="#FFF7F3"/>
<path d="M41.0001 19.7502C41.1293 19.772 41.2429 19.8252 41.3406 19.909C41.4399 19.9928 41.5138 20.0944 41.5615 20.214C41.6091 20.3351 41.6217 20.4607 41.5999 20.5906C41.5773 20.7199 41.5234 20.8341 41.4381 20.9341C41.3544 21.0334 41.2512 21.1058 41.1301 21.152C41.0082 21.1997 40.8835 21.2122 40.7565 21.1904C40.6265 21.1679 40.5122 21.1154 40.413 21.0316C40.3137 20.9494 40.2421 20.8469 40.1981 20.7236C40.1527 20.6018 40.1409 20.4762 40.1627 20.347C40.1852 20.217 40.2369 20.1028 40.3185 20.0035C40.4 19.9057 40.5009 19.8333 40.6205 19.7857C40.7416 19.7395 40.8686 19.7276 41.0001 19.7502ZM40.961 19.9803C40.8691 19.966 40.7817 19.9741 40.698 20.0039C40.6143 20.0352 40.5432 20.0852 40.4856 20.1531C40.4273 20.2203 40.3906 20.2994 40.3748 20.3891C40.3605 20.4765 40.3694 20.5609 40.4014 20.6431C40.4327 20.7246 40.4835 20.7934 40.5536 20.8495C40.623 20.9071 40.7037 20.9431 40.7956 20.9574C40.8867 20.9731 40.9749 20.965 41.0586 20.9337C41.1438 20.9017 41.2148 20.8532 41.2709 20.7875C41.3285 20.7218 41.3652 20.6442 41.3818 20.5545C41.3953 20.4649 41.3864 20.379 41.3552 20.2975C41.3231 20.2153 41.2724 20.1457 41.203 20.0881C41.1328 20.032 41.0521 19.9961 40.961 19.9803Z" fill="#FFF7F3"/>
<path d="M40.7946 22.8916C40.7182 23.0327 40.6225 23.1245 40.5074 23.1662C40.3916 23.2079 40.2698 23.1943 40.1428 23.1269C40.0712 23.0888 40.0114 23.0379 39.9637 22.9743C39.9174 22.9123 39.8921 22.8383 39.8862 22.7531C39.8804 22.6694 39.9044 22.5775 39.9583 22.4782L40.0571 22.296L39.621 22.0595L39.7288 21.8594L40.9863 22.5361L40.7946 22.8916ZM40.1524 22.5801C40.1225 22.6353 40.109 22.6861 40.1134 22.7324C40.1193 22.7803 40.135 22.8199 40.1611 22.852C40.1887 22.8834 40.2185 22.9089 40.2507 22.9268C40.3022 22.9545 40.3589 22.9636 40.421 22.9539C40.4845 22.9435 40.5383 22.8988 40.5825 22.8196L40.6843 22.6314L40.2512 22.3979L40.1524 22.5801Z" fill="#FFF7F3"/>
<path d="M39.115 25.0137L38.9598 24.8552L39.4684 24.3507L39.2027 24.0814L38.748 24.5292L38.5928 24.3706L39.0475 23.9228L38.7729 23.6476L38.2403 24.173L38.0881 24.0174L38.7822 23.3308L39.7852 24.348L39.115 25.0137Z" fill="#FFF7F3"/>
<path d="M36.684 24.8725L37.1977 25.1689L37.2186 25.157L37.404 25.0646L37.1773 24.622L37.3777 24.5176L38.0278 25.7885L37.672 25.9704C37.5307 26.0435 37.3992 26.0657 37.2774 26.0357C37.1542 26.0072 37.0594 25.9294 36.9937 25.8023C36.9542 25.7245 36.9341 25.6438 36.9342 25.5602C36.9328 25.4765 36.9576 25.3988 37.0092 25.3271L36.4507 24.9918L36.684 24.8725ZM37.5024 25.2589L37.317 25.3514C37.2378 25.3931 37.1906 25.4454 37.1764 25.5096C37.1628 25.5731 37.1703 25.6329 37.2001 25.689C37.2165 25.7204 37.2404 25.7495 37.2717 25.7757C37.3016 25.8011 37.3397 25.8176 37.3852 25.8236C37.4315 25.8297 37.4809 25.8185 37.5347 25.7909L37.7261 25.6955L37.5024 25.2589Z" fill="#FFF7F3"/>
<path d="M34.8507 16.919C34.7768 16.9189 34.7147 16.9301 34.6654 16.9517C34.6176 16.9741 34.5742 17.0054 34.5368 17.0472C34.4949 17.1069 34.4738 17.2414 34.4736 17.4506L34.4717 19.1869C34.4715 19.3685 34.4564 19.5261 34.4264 19.6591C34.3963 19.7905 34.3559 19.9033 34.3065 19.9966C34.2585 20.0907 34.2024 20.1669 34.1388 20.2266C34.0768 20.2863 34.0117 20.3333 33.9444 20.3668C33.8764 20.4004 33.8099 20.4234 33.7441 20.4353C33.6784 20.4472 33.6186 20.4531 33.5648 20.4531C33.4766 20.453 33.4004 20.4409 33.3347 20.417C33.269 20.3945 33.2137 20.3653 33.1704 20.3271C33.1264 20.2897 33.0936 20.2463 33.072 20.1985C33.0496 20.1507 33.0392 20.1013 33.0393 20.049C33.0393 20.0035 33.0461 19.9639 33.0603 19.9295C33.076 19.8937 33.0962 19.8653 33.1202 19.8429C33.1441 19.819 33.1718 19.8026 33.2039 19.7922C33.2353 19.7803 33.2682 19.7743 33.3025 19.7744C33.3541 19.7744 33.3967 19.7879 33.431 19.8134C33.4668 19.8373 33.4952 19.8687 33.5176 19.9061C33.5414 19.942 33.5608 19.9809 33.5772 20.0227C33.5951 20.0646 33.6115 20.1035 33.6279 20.1393C33.6458 20.1752 33.6652 20.2066 33.6876 20.232C33.7115 20.256 33.7398 20.268 33.7742 20.268C33.7981 20.268 33.8205 20.2613 33.843 20.2472C33.8669 20.2337 33.8878 20.2106 33.9058 20.1785C33.9253 20.1471 33.9417 20.1061 33.9537 20.056C33.9658 20.0045 33.9718 19.9417 33.9719 19.8678L33.9745 17.45C33.9746 17.3447 33.9717 17.2617 33.9658 17.202C33.9599 17.1422 33.9458 17.0944 33.9241 17.0585C33.9122 17.0405 33.895 17.0241 33.8734 17.0076C33.851 16.9897 33.8241 16.9747 33.7927 16.9627C33.7629 16.9492 33.73 16.938 33.6942 16.9297C33.6583 16.9222 33.6232 16.9177 33.5896 16.9177L33.464 16.9175L33.4642 16.8219L34.9793 16.8235L34.9792 16.9192L34.8507 16.919Z" fill="#FFF7F3"/>
<path d="M37.7085 19.4684C37.7083 19.6043 37.6798 19.7313 37.6244 19.8508C37.5704 19.9703 37.4934 20.0748 37.3939 20.1644C37.2937 20.2539 37.1756 20.3248 37.038 20.3762C36.902 20.4298 36.7525 20.4565 36.5897 20.4564C36.4679 20.4562 36.3573 20.4449 36.258 20.4231C36.1601 20.4028 36.0712 20.3796 35.9921 20.3541C35.9144 20.3286 35.8457 20.3054 35.7859 20.2851C35.7262 20.2634 35.6754 20.2521 35.6336 20.2521C35.5917 20.2521 35.5573 20.267 35.5319 20.2968C35.5057 20.3252 35.487 20.3775 35.4749 20.4551L35.3793 20.455L35.3806 19.2357L35.4763 19.2358C35.4977 19.4196 35.5417 19.5758 35.6073 19.7052C35.6729 19.833 35.7519 19.9377 35.846 20.0192C35.9415 20.0993 36.0476 20.1584 36.1656 20.1959C36.2828 20.2319 36.4046 20.2499 36.5301 20.2501C36.6392 20.2502 36.7378 20.2346 36.826 20.2026C36.9135 20.1713 36.9875 20.1295 37.0473 20.0773C37.1087 20.0236 37.1565 19.9624 37.191 19.8922C37.2247 19.8227 37.2419 19.7488 37.242 19.6711C37.2421 19.5837 37.2258 19.5067 37.1945 19.4409C37.1646 19.3736 37.1154 19.3086 37.0482 19.2465C36.9803 19.1852 36.8915 19.1208 36.7825 19.0549C36.6727 18.9876 36.5405 18.9097 36.3852 18.8214C36.1762 18.7039 36.0037 18.5983 35.8686 18.5041C35.7349 18.4105 35.6297 18.3207 35.5521 18.2347C35.476 18.1472 35.4245 18.0598 35.397 17.9716C35.3687 17.8841 35.3553 17.7855 35.3554 17.6757C35.3556 17.5502 35.3796 17.4321 35.4276 17.3201C35.4755 17.2066 35.5443 17.1073 35.6341 17.0215C35.7238 16.9364 35.8322 16.8685 35.9601 16.8186C36.0871 16.7672 36.2299 16.7412 36.3875 16.7414C36.4906 16.7415 36.5847 16.7528 36.6684 16.7746C36.7535 16.7948 36.8297 16.8181 36.8954 16.8435C36.9612 16.8698 37.0194 16.893 37.0717 16.9125C37.1232 16.9327 37.168 16.9425 37.2061 16.9425C37.2457 16.9425 37.2794 16.9291 37.3078 16.9008C37.3355 16.8709 37.3587 16.8186 37.3767 16.7425L37.4753 16.7426L37.474 17.9738L37.3754 17.9737C37.3576 17.8064 37.3197 17.6591 37.2623 17.5313C37.2064 17.4042 37.134 17.2973 37.0445 17.2113C36.9564 17.1238 36.8571 17.0587 36.7458 17.0167C36.6338 16.9733 36.5158 16.9507 36.3903 16.9506C36.3043 16.9505 36.2236 16.9653 36.1481 16.9951C36.0719 17.0235 36.0061 17.0622 35.9508 17.1115C35.8947 17.1615 35.8498 17.2205 35.8161 17.2877C35.7839 17.3534 35.7681 17.4221 35.7681 17.4938C35.768 17.5641 35.7806 17.6283 35.8067 17.6881C35.832 17.7464 35.8783 17.8062 35.944 17.8676C36.0112 17.9297 36.1022 17.9963 36.2157 18.0681C36.3292 18.14 36.4733 18.223 36.6488 18.3166C36.8175 18.4087 36.9572 18.4896 37.0669 18.5592C37.1782 18.6273 37.2648 18.6841 37.3267 18.7298C37.4477 18.8196 37.5417 18.9295 37.6073 19.0588C37.6744 19.1867 37.7086 19.3234 37.7085 19.4684Z" fill="#FFF7F3"/>
<path d="M21.3536 14.1133C21.3535 14.2052 21.3392 14.2911 21.3115 14.3703C21.283 14.4502 21.2396 14.5196 21.1797 14.5793C21.1214 14.639 21.0466 14.6868 20.9555 14.7225C20.8658 14.7568 20.7582 14.7746 20.6326 14.776L20.0528 14.7813L20.0529 14.7455L20.1007 14.7455C20.1283 14.7455 20.1515 14.7411 20.1695 14.7306C20.1889 14.721 20.2038 14.7083 20.2143 14.6918C20.2218 14.6799 20.2271 14.662 20.2293 14.6381C20.2308 14.6142 20.2324 14.5843 20.2324 14.5484L20.2244 13.7086C20.2244 13.6294 20.2163 13.5786 20.2006 13.5562C20.1864 13.5427 20.1708 13.5322 20.1528 13.5262C20.1349 13.5202 20.114 13.5172 20.0901 13.5172L20.0423 13.5172L20.0423 13.4843L20.5683 13.4789C20.64 13.479 20.7043 13.4813 20.7625 13.4851C20.8201 13.4896 20.8716 13.4986 20.9179 13.5121C20.9657 13.5241 21.0075 13.5391 21.0434 13.5571C21.0807 13.5751 21.1158 13.5983 21.1479 13.626C21.1778 13.6521 21.2054 13.6828 21.2315 13.7187C21.2569 13.7546 21.2777 13.7935 21.2941 13.8353C21.312 13.8757 21.3254 13.919 21.3358 13.9668C21.3477 14.0147 21.3536 14.064 21.3536 14.1133ZM21.1354 14.122C21.1333 14.0324 21.1192 13.9532 21.0938 13.8829C21.0678 13.8134 21.0312 13.7536 20.9835 13.7035C20.9372 13.6541 20.8819 13.6159 20.8162 13.5897C20.752 13.5643 20.6825 13.5507 20.6071 13.5506C20.5772 13.5506 20.5458 13.5528 20.5144 13.5565C20.4823 13.561 20.4472 13.5684 20.4098 13.5803L20.4205 14.6861C20.4601 14.6921 20.4967 14.6981 20.5311 14.7041C20.5647 14.7087 20.5953 14.7102 20.6237 14.7102C20.697 14.7103 20.765 14.6977 20.827 14.6716C20.8905 14.644 20.9451 14.6052 20.9915 14.5552C21.0371 14.5037 21.0723 14.4417 21.0963 14.37C21.1218 14.2969 21.1353 14.2139 21.1354 14.122Z" fill="#FFF7F3"/>
<path d="M22.7394 15.1142L22.7514 15.0814C22.7947 15.0949 22.8276 15.0979 22.85 15.0904C22.8717 15.0845 22.8866 15.0726 22.8948 15.0546C22.9023 15.0367 22.9068 15.0136 22.9069 14.9859C22.9084 14.9598 22.9077 14.9329 22.904 14.9052L22.8863 14.702L22.4113 14.549L22.2646 14.7192C22.2407 14.7431 22.2227 14.7655 22.2108 14.7849C22.1988 14.8051 22.1928 14.8237 22.1928 14.8417C22.1943 14.8574 22.2047 14.8731 22.2226 14.8895C22.2405 14.9052 22.2711 14.9225 22.3152 14.9404L22.3032 14.9733L21.9148 14.8474L21.9268 14.8145C21.9522 14.8205 21.9761 14.822 21.9985 14.8176C22.0202 14.8138 22.0411 14.8057 22.0613 14.7937C22.083 14.7803 22.1047 14.7631 22.1271 14.743C22.1511 14.7213 22.175 14.6967 22.1989 14.6684L22.965 13.7906L22.9948 13.7996L23.0922 14.9682C23.0959 15.016 23.1011 15.0556 23.107 15.0877C23.1129 15.1191 23.1204 15.143 23.1308 15.1595C23.1428 15.1774 23.1562 15.1924 23.1726 15.2044C23.1905 15.2178 23.2114 15.2298 23.2353 15.2403L23.2234 15.2732L22.7394 15.1142ZM22.8362 14.0624L22.4591 14.4923L22.8834 14.6302L22.8362 14.0624Z" fill="#FFF7F3"/>
<path d="M25.4889 15.2767C25.4687 15.261 25.4478 15.2497 25.4261 15.2437C25.406 15.2377 25.3858 15.24 25.3664 15.2497C25.3439 15.2578 25.311 15.2907 25.2676 15.3482L24.6182 16.2291L24.5883 16.2081L24.521 14.8542L24.0452 15.4963C23.9973 15.5597 23.9748 15.6068 23.9793 15.6367C23.9807 15.6703 24.0031 15.7024 24.0449 15.7324L24.0807 15.7593L24.0598 15.7892L23.6955 15.5198L23.7164 15.4899L23.7523 15.5169C23.7762 15.5348 23.7978 15.5453 23.818 15.5498C23.8374 15.5558 23.8576 15.5558 23.8777 15.5499C23.8897 15.5439 23.9032 15.5327 23.9196 15.517C23.9376 15.5006 23.957 15.4782 23.9795 15.4484L24.5182 14.7227C24.516 14.7153 24.5152 14.7033 24.5152 14.6869C24.5168 14.669 24.516 14.6495 24.5123 14.6271C24.5079 14.6054 24.4989 14.5823 24.4855 14.5583C24.4713 14.5329 24.4497 14.5075 24.4198 14.4836L24.4408 14.4567L24.6946 14.6452L24.756 15.8975L25.199 15.2973C25.2483 15.2316 25.2708 15.1868 25.2649 15.1629C25.2627 15.1255 25.241 15.0911 25.1992 15.0612L25.1634 15.0372L25.1843 15.0104L25.5457 15.2767L25.5247 15.3036L25.4889 15.2767Z" fill="#FFF7F3"/>
<path d="M25.1561 16.7642L25.183 16.7433L25.2129 16.7792C25.2285 16.7986 25.2457 16.8136 25.2636 16.824C25.283 16.8338 25.3024 16.839 25.3204 16.839C25.3443 16.8391 25.3869 16.8137 25.449 16.7645L26.11 16.2452C26.1257 16.2318 26.1399 16.2198 26.1519 16.2094C26.1653 16.1997 26.1766 16.1907 26.1848 16.1825C26.1945 16.175 26.2012 16.1676 26.2057 16.1616C26.2095 16.1541 26.2102 16.1467 26.2087 16.1407C26.2147 16.1213 26.2148 16.1004 26.2088 16.0779C26.2029 16.0563 26.1924 16.0361 26.179 16.0181L26.1491 15.9822L26.1731 15.9613L26.5163 16.3951L26.4923 16.416L26.4655 16.383C26.4334 16.3412 26.3968 16.3202 26.355 16.3202C26.343 16.3224 26.3258 16.3291 26.3042 16.341C26.2817 16.3515 26.2563 16.3679 26.2264 16.3918L25.5654 16.911C25.5332 16.9364 25.5093 16.9588 25.4936 16.9767C25.4771 16.9946 25.4674 17.0096 25.4636 17.0215C25.4614 17.0252 25.4606 17.032 25.4606 17.0424C25.4621 17.0544 25.4651 17.0663 25.4695 17.0783C25.4733 17.0903 25.477 17.1007 25.4815 17.1112C25.4852 17.1231 25.4912 17.1336 25.4994 17.1441L25.5262 17.177L25.4993 17.1979L25.1561 16.7642Z" fill="#FFF7F3"/>
<path d="M26.2534 18.6172L25.845 17.7023L25.8779 17.6874L25.8958 17.7263C25.8972 17.7322 25.9002 17.739 25.9047 17.7472C25.9084 17.7547 25.9136 17.7629 25.9196 17.7711C25.9256 17.7786 25.9323 17.7861 25.9405 17.7921C25.948 17.7995 25.9562 17.8055 25.9644 17.81C25.9719 17.8115 25.9801 17.8138 25.9883 17.816C25.9958 17.8175 26.0062 17.8175 26.0182 17.816C26.0301 17.8138 26.0451 17.8086 26.063 17.8012C26.0825 17.7952 26.1049 17.787 26.1288 17.7773L26.9002 17.4315C26.9376 17.4158 26.9675 17.4009 26.9899 17.3868C27.0116 17.3711 27.0243 17.3591 27.0288 17.3509C27.0423 17.3173 27.0386 17.2755 27.017 17.2254L26.9991 17.1865L27.029 17.1746L27.4374 18.0895L27.1863 18.2148L27.1684 18.1789C27.1841 18.167 27.199 18.1558 27.2132 18.1461C27.2289 18.1356 27.2432 18.1252 27.2551 18.1133C27.2671 18.1013 27.2761 18.0871 27.2821 18.0714C27.2895 18.0573 27.2948 18.0401 27.2971 18.0207C27.3008 18.0027 27.3001 17.9803 27.2941 17.9549C27.2882 17.9288 27.277 17.8989 27.2614 17.8652L27.1153 17.5363L26.6459 17.745L26.7621 18.0081C26.78 18.0477 26.7964 18.0776 26.8128 18.0978C26.8307 18.1195 26.8494 18.1322 26.8696 18.1367C26.889 18.1405 26.9099 18.1405 26.9323 18.1368C26.9562 18.1346 26.9846 18.1287 27.019 18.119L27.0339 18.1519L26.6213 18.3337L26.6064 18.3008C26.6341 18.2829 26.658 18.2658 26.6782 18.2501C26.6976 18.2359 26.7118 18.2203 26.7201 18.2023C26.7298 18.1844 26.7328 18.162 26.7291 18.1366C26.7247 18.1104 26.7142 18.0776 26.6963 18.0379L26.5801 17.7748L26.1376 17.9716C26.1211 17.979 26.1084 17.988 26.0987 17.9984C26.0882 18.0104 26.0837 18.0238 26.0837 18.0403C26.0837 18.0582 26.0896 18.0821 26.1015 18.112L26.191 18.3093C26.2044 18.343 26.2186 18.3706 26.2327 18.3931C26.2462 18.4147 26.2603 18.4349 26.2745 18.4529C26.2902 18.4708 26.3073 18.4836 26.3253 18.4918C26.3447 18.5015 26.3656 18.5098 26.388 18.5158C26.4119 18.5233 26.4388 18.5293 26.4687 18.5338C26.5 18.5398 26.5359 18.5436 26.5762 18.5459L26.5941 18.5817L26.2534 18.6172Z" fill="#FFF7F3"/>
<path d="M26.5845 20.2672L26.4541 19.2659L26.4899 19.26C26.4914 19.2876 26.4959 19.3138 26.5018 19.3377C26.5093 19.3616 26.5197 19.3803 26.5316 19.3945C26.5451 19.4102 26.563 19.4215 26.5854 19.4275C26.6093 19.4335 26.6377 19.4335 26.6721 19.4276L27.5687 19.312C27.6061 19.3075 27.6353 19.3001 27.6554 19.2882C27.6749 19.2762 27.6891 19.2613 27.6973 19.2434C27.7048 19.2255 27.7078 19.2045 27.7064 19.1806C27.7064 19.1567 27.7049 19.1313 27.7035 19.1029L27.7393 19.097L27.8104 19.6559L27.7746 19.6619C27.7701 19.632 27.7657 19.6058 27.7597 19.5841C27.7538 19.5617 27.7448 19.543 27.7329 19.5273C27.7209 19.5131 27.7038 19.5034 27.6821 19.4974C27.6597 19.4914 27.6298 19.4899 27.5925 19.4943L26.7436 19.604C26.7055 19.6099 26.6763 19.6166 26.6569 19.6248C26.639 19.6345 26.6247 19.6464 26.615 19.6606C26.6045 19.6763 26.6 19.6935 26.6 19.7114C26.6 19.7308 26.6015 19.7562 26.6059 19.7861L26.6237 19.9146C26.6274 19.9542 26.6311 19.9879 26.6356 20.0163C26.6415 20.0461 26.6474 20.0708 26.6534 20.091C26.6609 20.1104 26.6698 20.1276 26.6802 20.1418C26.6899 20.1575 26.7019 20.1717 26.7161 20.1837C26.7317 20.1972 26.7467 20.2091 26.7609 20.2196C26.7743 20.2316 26.7907 20.2413 26.8086 20.2496C26.8266 20.2593 26.846 20.2675 26.8684 20.2735C26.89 20.281 26.9169 20.2893 26.949 20.2975L26.949 20.3364L26.5845 20.2672Z" fill="#FFF7F3"/>
<path d="M12.8763 22.6646C12.9406 22.643 13.0033 22.6304 13.0646 22.626C13.1266 22.6201 13.1864 22.6224 13.2439 22.6322C13.2999 22.6427 13.3537 22.6592 13.4052 22.6831C13.4553 22.7056 13.5023 22.7341 13.5456 22.77C13.5874 22.8059 13.6247 22.8478 13.656 22.8956C13.6859 22.9435 13.7112 22.9958 13.7306 23.0511C13.7589 23.1348 13.7693 23.2185 13.7632 23.3022C13.7556 23.3858 13.7324 23.465 13.6942 23.5382C13.6545 23.6099 13.6007 23.6748 13.5326 23.7323C13.4653 23.7897 13.3823 23.8345 13.2844 23.8665C13.1932 23.8963 13.1021 23.9089 13.0124 23.905C12.9228 23.9004 12.8406 23.8794 12.7644 23.842C12.689 23.8061 12.6233 23.7559 12.5673 23.6924C12.5099 23.6288 12.4659 23.5518 12.4361 23.4621C12.4182 23.4105 12.4086 23.3567 12.4064 23.3007C12.405 23.2454 12.411 23.1916 12.4245 23.1393C12.4365 23.0878 12.456 23.0377 12.4814 22.99C12.5054 22.9407 12.5376 22.8944 12.5772 22.8526C12.6154 22.8108 12.6602 22.7742 12.7118 22.7422C12.7619 22.7108 12.8165 22.6847 12.8763 22.6646ZM12.9717 22.859C12.876 22.8888 12.7946 22.9246 12.7265 22.9663C12.6592 23.0066 12.6054 23.0521 12.565 23.1036C12.5253 23.1559 12.5006 23.2111 12.4901 23.2709C12.4803 23.3292 12.4862 23.3919 12.5078 23.4592C12.5279 23.5212 12.56 23.5721 12.6033 23.6117C12.6451 23.6521 12.6974 23.6805 12.7586 23.6985C12.8184 23.715 12.8871 23.7196 12.9648 23.7137C13.041 23.7078 13.1225 23.6915 13.2099 23.6632C13.2981 23.6334 13.3744 23.5991 13.4401 23.5588C13.5059 23.5171 13.5598 23.4715 13.6017 23.4215C13.6421 23.3723 13.6675 23.317 13.6796 23.2572C13.6916 23.1975 13.6887 23.137 13.6708 23.0749C13.6514 23.0174 13.6223 22.9673 13.5843 22.9254C13.5447 22.882 13.4962 22.8499 13.438 22.8296C13.3782 22.8101 13.311 22.8026 13.2348 22.8085C13.157 22.8129 13.0696 22.8292 12.9717 22.859Z" fill="#FFF7F3"/>
<path d="M13.0678 20.9213C13.1178 20.9198 13.1649 20.9288 13.2082 20.9483C13.2523 20.9663 13.2911 20.9932 13.3247 21.0291C13.359 21.0635 13.3859 21.1061 13.4052 21.1577C13.4246 21.2078 13.4357 21.2624 13.4379 21.3221C13.4379 21.3662 13.4348 21.4058 13.4288 21.4417C13.4228 21.4775 13.4161 21.5104 13.4078 21.5403C13.3981 21.5686 13.3891 21.5933 13.3808 21.6149C13.3733 21.6373 13.3688 21.656 13.3688 21.6717C13.3688 21.6859 13.3748 21.6979 13.3867 21.7076C13.3986 21.7181 13.4188 21.7248 13.4464 21.7286L13.4464 21.7644L13.0011 21.7729L13.0011 21.7371C13.0691 21.7274 13.1259 21.7103 13.1715 21.6864C13.2179 21.6611 13.2545 21.6312 13.2822 21.5969C13.3107 21.5611 13.3316 21.5215 13.3451 21.4774C13.3571 21.4341 13.3631 21.3893 13.3632 21.343C13.3617 21.3034 13.3543 21.2682 13.3424 21.2383C13.3305 21.2069 13.3148 21.18 13.2947 21.1576C13.2753 21.1337 13.2521 21.1172 13.226 21.1067C13.2006 21.0947 13.1737 21.0887 13.1453 21.0887C13.1139 21.0887 13.0855 21.0946 13.0616 21.1065C13.0362 21.1185 13.013 21.1379 12.9928 21.1632C12.9711 21.1871 12.9479 21.22 12.924 21.2618C12.9 21.3021 12.8723 21.3506 12.8401 21.4081C12.7982 21.488 12.7615 21.553 12.7293 21.6023C12.6957 21.6523 12.6635 21.6911 12.6336 21.7187C12.6022 21.7471 12.57 21.7665 12.5379 21.7784C12.5065 21.7888 12.4706 21.7933 12.4303 21.7932C12.3847 21.7954 12.3406 21.7886 12.2988 21.7722C12.257 21.7564 12.2204 21.7325 12.1883 21.7003C12.157 21.6689 12.1308 21.63 12.1107 21.5837C12.0914 21.5358 12.0802 21.4835 12.078 21.4252C12.0781 21.3879 12.0826 21.3535 12.0901 21.3236C12.0961 21.2923 12.1044 21.2639 12.1141 21.24C12.1223 21.2161 12.1306 21.1952 12.1381 21.1773C12.1441 21.1578 12.1471 21.1407 12.1471 21.1265C12.1471 21.1108 12.1426 21.0981 12.1322 21.0876C12.1202 21.0779 12.0993 21.0696 12.0695 21.0636L12.0695 21.0278L12.5208 21.0193L12.5207 21.0551C12.461 21.0611 12.4086 21.0752 12.3623 21.0968C12.3145 21.1192 12.2756 21.1468 12.2457 21.1804C12.2157 21.2125 12.194 21.249 12.1798 21.2909C12.164 21.3327 12.1558 21.3775 12.1557 21.4253C12.1579 21.4552 12.1646 21.4844 12.1766 21.512C12.187 21.5382 12.2019 21.5621 12.2213 21.5838C12.2392 21.604 12.2601 21.6197 12.284 21.6317C12.3079 21.6422 12.3341 21.6467 12.3617 21.6467C12.3856 21.6467 12.4088 21.6423 12.4304 21.6318C12.4529 21.6199 12.4746 21.602 12.4963 21.5781C12.5187 21.5542 12.5426 21.5214 12.5681 21.4796C12.592 21.4363 12.6205 21.3825 12.6519 21.3183C12.6864 21.2548 12.7148 21.2033 12.7388 21.163C12.7627 21.1212 12.7837 21.0898 12.8016 21.0674C12.8316 21.0196 12.8705 20.9838 12.9183 20.9599C12.9647 20.9346 13.014 20.9212 13.0678 20.9213Z" fill="#FFF7F3"/>
<path d="M13.4778 19.0433C13.5255 19.0896 13.5643 19.136 13.5942 19.1838C13.624 19.2302 13.6456 19.278 13.6598 19.3274C13.6732 19.3774 13.6806 19.429 13.6805 19.4828C13.6805 19.5351 13.6722 19.5904 13.6564 19.6501C13.6384 19.7158 13.613 19.7741 13.5815 19.8234C13.5516 19.8734 13.5164 19.9174 13.4768 19.9548C13.4371 19.9928 13.393 20.0234 13.3452 20.0473C13.2958 20.0711 13.2435 20.089 13.1897 20.1009C13.1359 20.1113 13.0806 20.115 13.0223 20.1127C12.9648 20.1111 12.908 20.1021 12.852 20.0856C12.7609 20.0616 12.6788 20.0226 12.6071 19.9688C12.5339 19.9149 12.4742 19.8521 12.428 19.7803C12.3825 19.707 12.3527 19.6263 12.3386 19.5381C12.323 19.4484 12.3283 19.3558 12.3538 19.2602C12.3658 19.2124 12.3823 19.1728 12.4018 19.1407C12.422 19.1071 12.4407 19.0795 12.4587 19.0571C12.4751 19.0332 12.4908 19.0145 12.5065 19.0004C12.5208 18.9847 12.529 18.972 12.5305 18.9615C12.5365 18.9436 12.535 18.9272 12.5246 18.9107C12.5126 18.8928 12.4932 18.8763 12.4649 18.8598L12.4739 18.827L12.9071 18.9111L12.9011 18.944C12.8316 18.9484 12.7696 18.9573 12.7158 18.9707C12.6605 18.9848 12.6141 19.0057 12.5782 19.0333C12.5408 19.0594 12.5087 19.0923 12.4825 19.1318C12.457 19.1721 12.4368 19.2155 12.4226 19.2633C12.4046 19.3275 12.4008 19.3902 12.4104 19.4515C12.4186 19.5135 12.4424 19.5711 12.482 19.6249C12.5222 19.6773 12.5767 19.7252 12.6462 19.7686C12.7164 19.8105 12.8037 19.8457 12.909 19.8734C12.9987 19.8997 13.0816 19.911 13.1571 19.9066C13.2333 19.9029 13.3005 19.8873 13.3603 19.859C13.4186 19.8314 13.4665 19.7919 13.5069 19.7396C13.5465 19.6881 13.5765 19.6276 13.5968 19.5574C13.6065 19.5156 13.6125 19.4767 13.6148 19.4409C13.6163 19.4035 13.6126 19.3654 13.603 19.3273C13.5926 19.2899 13.5747 19.2496 13.5493 19.2077C13.5255 19.1658 13.4911 19.1172 13.4479 19.0612L13.4778 19.0433Z" fill="#FFF7F3"/>
<path d="M14.4634 17.8849L14.4335 17.864C14.459 17.8266 14.4725 17.7968 14.4725 17.7743C14.4725 17.7504 14.4643 17.7317 14.4486 17.7175C14.4322 17.7041 14.4128 17.6936 14.3889 17.6876C14.365 17.6801 14.3381 17.6741 14.3082 17.6696L14.108 17.6335L13.8326 18.0516L13.9579 18.237C13.9744 18.2654 13.9893 18.2878 14.0057 18.3058C14.0214 18.3237 14.037 18.3342 14.0535 18.3357C14.0714 18.338 14.0901 18.3328 14.1103 18.3208C14.1297 18.3074 14.1536 18.2813 14.1821 18.2432L14.2119 18.2642L13.9874 18.6076L13.9576 18.5867C13.9695 18.5628 13.977 18.5404 13.9786 18.5179C13.9823 18.494 13.9816 18.4716 13.9756 18.4492C13.9682 18.4253 13.957 18.4006 13.9429 18.3745C13.9294 18.3468 13.9115 18.3176 13.8892 18.2877L13.2477 17.3128L13.2656 17.2859L14.419 17.5053C14.4645 17.5113 14.5034 17.5166 14.5355 17.5204C14.5669 17.5249 14.593 17.5249 14.6132 17.5205C14.6327 17.5145 14.6506 17.5048 14.667 17.4906C14.6827 17.4772 14.7 17.4593 14.7179 17.4369L14.7478 17.4579L14.4634 17.8849ZM13.4776 17.5073L13.7909 17.9858L14.0363 17.6155L13.4776 17.5073Z" fill="#FFF7F3"/>
<path d="M15.8521 16.4882L15.1288 16.285C15.1146 16.2969 15.1027 16.3082 15.093 16.3179C15.0833 16.3261 15.0743 16.3328 15.0661 16.3388C15.0601 16.3448 15.0534 16.3507 15.0452 16.3567C15.0377 16.3627 15.0295 16.3679 15.0212 16.3717L15.2573 16.6675C15.3089 16.7318 15.347 16.7647 15.3709 16.7661C15.4083 16.7766 15.4471 16.7654 15.4875 16.7333L15.5263 16.7034L15.5472 16.7303L15.1109 17.077L15.09 17.0501L15.1288 17.0202C15.1722 16.9843 15.1916 16.9455 15.1856 16.9036C15.1811 16.882 15.1565 16.8424 15.1109 16.7841L14.5879 16.1266C14.5386 16.0653 14.5005 16.0295 14.4743 16.019C14.4549 16.019 14.4355 16.022 14.4176 16.028C14.3981 16.0325 14.3787 16.0422 14.3608 16.0579L14.3219 16.0878L14.304 16.0638L14.6716 15.771C14.7276 15.7276 14.7762 15.6903 14.818 15.6604C14.8599 15.6305 14.898 15.6096 14.9316 15.5976C14.9637 15.5857 14.9966 15.579 15.0302 15.5767C15.0646 15.573 15.0967 15.5752 15.1288 15.5827C15.1625 15.5909 15.1931 15.6036 15.2215 15.6215C15.2514 15.6395 15.2768 15.6626 15.2992 15.6903C15.3246 15.7224 15.344 15.7553 15.356 15.7889C15.3679 15.8233 15.3717 15.8599 15.3679 15.8995C15.3657 15.9398 15.356 15.9802 15.338 16.022C15.3216 16.0638 15.2969 16.1072 15.2633 16.1505L15.6996 16.279C15.7475 16.291 15.7893 16.2999 15.8252 16.3059C15.8625 16.3104 15.8969 16.3111 15.9268 16.3089C15.9567 16.3074 15.9843 16.3014 16.0105 16.291C16.0381 16.279 16.068 16.2633 16.1001 16.2432L16.121 16.2701L15.8521 16.4882ZM15.1408 15.8367C15.1146 15.8053 15.087 15.7799 15.0571 15.762C15.0257 15.7441 14.9929 15.7336 14.9585 15.7291C14.9249 15.7254 14.8912 15.7291 14.8569 15.7411C14.821 15.7515 14.7874 15.7695 14.7553 15.7949C14.7418 15.8053 14.7254 15.8203 14.7075 15.8397C14.688 15.8576 14.6679 15.8778 14.6477 15.8995L14.9824 16.3238L15.0242 16.291C15.0743 16.2514 15.1124 16.2118 15.1408 16.1714C15.1684 16.1296 15.1864 16.09 15.1946 16.0519C15.2043 16.0123 15.2036 15.9742 15.1916 15.9383C15.1811 15.9025 15.1647 15.8688 15.1408 15.8367Z" fill="#FFF7F3"/>
<defs>
<linearGradient id="paint0_linear_6_529" x1="56.6092" y1="-0.236628" x2="52.1327" y2="3.80472" gradientUnits="userSpaceOnUse">
<stop offset="0.205853" stop-color="#131E43"/>
<stop offset="1" stop-color="#0D0D10"/>
</linearGradient>
<linearGradient id="paint1_linear_6_529" x1="59" y1="4.84615" x2="57.7877" y2="4.84615" gradientUnits="userSpaceOnUse">
<stop stop-color="#131E43"/>
<stop offset="1" stop-color="#131E43" stop-opacity="0"/>
</linearGradient>
</defs>
</svg>
