<svg width="100" height="100" viewBox="0 0 100 100" fill="none" xmlns="http://www.w3.org/2000/svg">
<path d="M50 44.375C54.0127 44.375 57.2656 41.1221 57.2656 37.1094C57.2656 33.0967 54.0127 29.8438 50 29.8438C45.9873 29.8438 42.7344 33.0967 42.7344 37.1094C42.7344 41.1221 45.9873 44.375 50 44.375Z" fill="#61DAFB"/>
<path d="M50 63.8281C55.7031 69.375 61.3281 72.6563 65.8594 72.6563C67.3438 72.6563 68.75 72.3437 69.9219 71.6406C73.9844 69.2969 75.4688 63.4375 74.0625 55.0781C73.8281 53.5938 73.5156 52.1094 73.125 50.5469C74.6875 50.0781 76.0937 49.6094 77.5 49.1406C85.3906 46.0938 89.7656 41.875 89.7656 37.2656C89.7656 32.5781 85.3906 28.3594 77.5 25.3906C76.0937 24.8437 74.6875 24.375 73.125 23.9844C73.5156 22.4219 73.8281 20.9375 74.0625 19.4531C75.3906 10.9375 73.9063 5 69.8438 2.65625C68.6719 1.95313 67.2656 1.64062 65.7812 1.64062C61.3281 1.64062 55.625 4.92187 49.9219 10.4687C44.2969 4.92187 38.6719 1.64062 34.1406 1.64062C32.6563 1.64062 31.25 1.95313 30.0781 2.65625C26.0156 5 24.5313 10.8594 25.9375 19.2188C26.1719 20.7031 26.4844 22.1875 26.875 23.75C25.3125 24.2187 23.9062 24.6875 22.5 25.1563C14.6094 28.2031 10.2344 32.4219 10.2344 37.0313C10.2344 41.7188 14.6094 45.9375 22.5 48.9062C23.9062 49.4531 25.3125 49.9219 26.875 50.3125C26.4844 51.875 26.1719 53.3594 25.9375 54.8437C24.6094 63.2031 26.0937 69.1406 30.0781 71.4063C31.25 72.1094 32.6563 72.4219 34.1406 72.4219C38.6719 72.5781 44.2969 69.2969 50 63.8281ZM45.625 53.2812C47.0313 53.3594 48.5156 53.3594 50 53.3594C51.4844 53.3594 52.9688 53.3594 54.375 53.2812C52.9688 55.1562 51.4844 56.875 50 58.5156C48.5156 56.875 47.0313 55.1562 45.625 53.2812V53.2812ZM35.9375 45.2344C36.7188 46.5625 37.4219 47.8125 38.2813 49.0625C35.8594 48.75 33.5938 48.3594 31.4063 47.8906C32.1094 45.7813 32.8906 43.5938 33.8281 41.4063C34.4531 42.6563 35.1563 43.9844 35.9375 45.2344V45.2344ZM31.4063 26.4062C33.5938 25.9375 35.8594 25.5469 38.2813 25.2344C37.5 26.4844 36.7188 27.7344 35.9375 29.0625C35.1563 30.3906 34.4531 31.6406 33.8281 32.9688C32.8125 30.7031 32.0313 28.5156 31.4063 26.4062V26.4062ZM35.7031 37.1094C36.7187 35 37.8125 32.8906 39.0625 30.7813C40.2344 28.75 41.5625 26.7187 42.8906 24.6875C45.2344 24.5312 47.5781 24.4531 50 24.4531C52.5 24.4531 54.8437 24.5312 57.1094 24.6875C58.5156 26.7187 59.7656 28.75 60.9375 30.7813C62.1875 32.8906 63.2813 35 64.2969 37.1094C63.2813 39.2188 62.1875 41.3281 60.9375 43.4375C59.7656 45.4687 58.4375 47.5 57.1094 49.5313C54.7656 49.6875 52.4219 49.7656 50 49.7656C47.5 49.7656 45.1563 49.6875 42.8906 49.5313C41.4844 47.5 40.2344 45.4687 39.0625 43.4375C37.8125 41.3281 36.7187 39.2188 35.7031 37.1094V37.1094ZM66.25 32.8906L64.1406 28.9844C63.3594 27.6562 62.6563 26.4063 61.7969 25.1563C64.2187 25.4688 66.4844 25.8594 68.6719 26.3281C67.9688 28.5156 67.1875 30.7031 66.25 32.8906ZM66.25 41.3281C67.1875 43.5156 67.9688 45.7031 68.6719 47.8125C66.4844 48.2813 64.2187 48.6719 61.7969 48.9844C62.5781 47.7344 63.3594 46.4844 64.1406 45.1563C64.8437 43.9844 65.5469 42.6563 66.25 41.3281ZM68.0469 68.4375C67.4219 68.8281 66.6406 68.9844 65.7812 68.9844C61.9531 68.9844 57.1875 65.8594 52.5 61.1719C54.7656 58.75 56.9531 56.0156 59.1406 52.9688C62.8125 52.6563 66.3281 52.1094 69.6094 51.3281C70 52.7344 70.2344 54.1406 70.4687 55.5469C71.5625 62.1875 70.7031 66.9531 68.0469 68.4375V68.4375ZM72.1094 27.2656C80.8594 29.7656 86.0937 33.5938 86.0937 37.1094C86.0937 40.1563 82.5 43.2031 76.1719 45.625C74.9219 46.0938 73.5156 46.5625 72.1094 46.9531C71.0938 43.75 69.8438 40.4688 68.2813 37.1094C69.8438 33.75 71.1719 30.4688 72.1094 27.2656ZM65.8594 5.23437C66.7188 5.23437 67.4219 5.39063 68.125 5.78125C70.7031 7.26563 71.6406 11.9531 70.5469 18.6719C70.3125 20 70 21.4062 69.6875 22.8906C66.4062 22.1875 62.8906 21.6406 59.2188 21.25C57.1094 18.2031 54.8438 15.4688 52.5781 13.0469C57.2656 8.4375 62.0313 5.23437 65.8594 5.23437V5.23437ZM54.375 20.9375C52.9688 20.8594 51.4844 20.8594 50 20.8594C48.5156 20.8594 47.0313 20.8594 45.625 20.9375C47.0313 19.0625 48.5156 17.3437 50 15.7031C51.4844 17.3437 52.9688 19.1406 54.375 20.9375ZM31.9531 5.78125C32.5781 5.39063 33.3594 5.23437 34.2187 5.23437C38.0469 5.23437 42.8125 8.35938 47.5 13.0469C45.2344 15.4688 43.0469 18.2031 40.8594 21.25C37.1875 21.5625 33.6719 22.1094 30.3906 22.8906C30 21.4844 29.7656 20.0781 29.5312 18.6719C28.4375 12.0312 29.2969 7.34375 31.9531 5.78125V5.78125ZM27.8906 46.9531C19.1406 44.4531 13.9062 40.625 13.9062 37.1094C13.9062 34.0625 17.5 31.0156 23.8281 28.5938C25.0781 28.125 26.4844 27.6563 27.8906 27.2656C28.9063 30.4688 30.1562 33.75 31.7187 37.1094C30.1562 40.4688 28.8281 43.8281 27.8906 46.9531V46.9531ZM29.5312 55.5469C29.7656 54.2187 30.0781 52.8125 30.3906 51.3281C33.6719 52.0312 37.1875 52.5781 40.8594 52.9688C42.9687 56.0156 45.2344 58.75 47.5 61.1719C42.8125 65.7813 38.0469 68.9844 34.2187 68.9844C33.3594 68.9844 32.6563 68.8281 31.9531 68.4375C29.2969 66.9531 28.4375 62.1875 29.5312 55.5469V55.5469ZM26.25 87.7344C27.9687 85.625 28.0469 83.2812 27.1094 80.9375C26.1719 78.5938 24.2187 77.5 21.7969 77.4219C18.9062 77.3437 15.9375 77.4219 13.0469 77.4219H12.5V97.6563H14.8437V90H18.5156C18.9844 90 19.375 90.1563 19.6094 90.5469L24.2969 97.8125C24.375 97.9687 24.6094 98.2031 24.7656 98.2031H27.8125C25.9375 95.3125 24.1406 92.5781 22.2656 89.7656C23.9062 89.5313 25.3125 88.9844 26.25 87.7344V87.7344ZM14.8437 87.5781V79.8437H15.7031C17.5 79.8437 19.375 79.7656 21.1719 79.9219C23.2813 80 24.7656 81.6406 24.7656 83.75C24.7656 85.8594 23.0469 87.5 20.9375 87.5781C19.0625 87.6563 17.1875 87.5781 14.8437 87.5781V87.5781ZM45.0781 88.5938C43.8281 83.125 38.8281 81.7188 35 83.4375C32.0312 84.7656 30.7031 87.3438 30.625 90.5469C30.5469 92.9688 31.25 95.1563 33.125 96.7969C35.2344 98.6719 37.8125 98.9063 40.4687 98.4375C41.9531 98.125 43.2812 97.4219 44.2969 96.3281C43.9062 95.7813 43.5156 95.2344 43.125 94.7656C40.9375 96.6406 38.5156 97.2656 35.8594 96.0156C34.1406 95.1563 33.2813 93.0469 33.125 91.4844H45.2344V90.4688C45.3125 89.7656 45.2344 89.1406 45.0781 88.5938V88.5938ZM33.2812 89.8438C33.0469 87.5 35.3906 85 37.9688 85C40.9375 84.9219 42.8125 86.7188 42.8906 89.8438H33.2812ZM57.2656 83.0469C56.0938 82.8125 54.8437 82.7344 53.6719 82.8125C51.7969 82.9688 50.1563 83.8281 48.8281 85.2344C49.2188 85.7812 49.5313 86.3281 50 86.9531C50.1563 86.7969 50.3125 86.6406 50.4688 86.5625C51.7188 85.3906 53.2031 84.7656 55 84.9219C56.4063 85 57.7344 85.4687 58.125 86.875C58.4375 87.9687 58.3594 89.1406 58.4375 90.3125C58.2031 90.3125 58.125 90.2344 58.0469 90.1563C56.1719 88.5938 54.0625 88.2812 51.7969 88.8281C49.6875 89.375 48.3594 91.0156 48.2031 93.125C48.0469 95.5469 49.1406 97.3437 51.25 98.2031C52.5781 98.75 54.0625 98.75 55.4688 98.4375C56.5625 98.2031 57.0313 97.5781 58.5938 96.7188V97.7344H60.7813C60.7813 94.6094 60.8594 90.7812 60.7813 87.1875C60.7813 84.9219 59.4531 83.5156 57.2656 83.0469ZM58.3594 92.8906C58.2812 93.125 58.3594 93.3594 58.3594 93.5938C58.3594 95.2344 57.9687 95.7813 56.4062 96.4063C55.3125 96.7969 54.1406 96.9531 52.9688 96.5625C51.6406 96.1719 50.7031 95 50.7031 93.6719C50.625 92.3438 51.4844 91.0156 52.8125 90.625C54.6094 90 56.25 90.3906 57.7344 91.4844C58.2031 91.875 58.5156 92.2656 58.3594 92.8906V92.8906ZM70.5469 85.1563C72.5781 84.5313 74.4531 84.9219 75.8594 86.6406L76.0938 86.7969C76.6406 86.3281 77.1094 85.8594 77.7344 85.3125C77.5 85.0781 77.4219 84.9219 77.2656 84.6875C75 82.2656 70.5469 81.9531 67.8125 83.9063C63.9844 86.7188 64.0625 92.1875 65.9375 95.0781C67.7344 97.8125 70.3125 98.75 73.3594 98.3594C75.1563 98.125 76.6406 97.2656 77.8125 95.7812C77.2656 95.3125 76.7188 94.8437 76.1719 94.2969C76.0156 94.4531 75.9375 94.5312 75.8594 94.6875C73.75 97.0312 70.2344 96.7969 68.3594 94.2969C67.2656 92.8125 67.0312 91.0938 67.3437 89.375C67.5 87.4219 68.5156 85.8594 70.5469 85.1563ZM86.7969 95.7812C86.6406 95.8594 86.5625 95.9375 86.5625 95.9375C85.9375 96.4063 85.3125 96.4844 84.6094 96.25C83.9063 95.9375 83.8281 95.3125 83.75 94.6875V85.7813C83.75 85.625 83.75 85.9375 83.8281 85.1563H86.7969V82.8125H83.6719V78.9063H81.3281V83.125H79.2969C79.1406 83.125 78.9063 83.2813 78.9063 83.4375C78.8281 83.9844 78.9063 84.375 78.9063 85.1563H81.4062V95.1563C81.4062 96.4063 81.7188 97.5 82.8125 98.125C83.9844 98.8281 86.25 98.6719 87.2656 97.8125C87.4219 97.7344 87.5 97.4219 87.5 97.3438C87.2656 96.875 87.0313 96.3281 86.7969 95.7812V95.7812Z" fill="#61DAFB"/>
</svg>
